# OBJ file generated from STEP using CadQuery
# Vertices: 84
# Faces: 56

v 0.000000 0.000000 0.000000
v 4.000000 0.000000 0.000000
v 0.000000 0.000000 5.000000
v 4.000000 0.000000 5.000000
v 0.000000 0.000000 0.000000
v 0.000000 4.000000 0.000000
v 4.000000 0.000000 0.000000
v 4.000000 1.500000 0.000000
v 1.500000 1.500000 0.000000
v 1.500000 4.000000 0.000000
v 0.750000 1.344685 0.000000
v 1.170506 1.170506 0.000000
v 1.344685 0.750000 0.000000
v 1.170506 0.329494 0.000000
v 0.750000 0.155315 0.000000
v 0.329494 0.329494 0.000000
v 0.155315 0.750000 0.000000
v 0.329494 1.170506 0.000000
v 0.000000 0.000000 0.000000
v 0.000000 0.000000 5.000000
v 0.000000 4.000000 0.000000
v 0.000000 4.000000 5.000000
v 4.000000 0.000000 5.000000
v 0.000000 0.000000 5.000000
v 4.000000 1.500000 5.000000
v 1.500000 1.500000 5.000000
v 1.500000 4.000000 5.000000
v 0.000000 4.000000 5.000000
v 0.750000 1.344685 5.000000
v 1.170506 1.170506 5.000000
v 1.344685 0.750000 5.000000
v 1.170506 0.329494 5.000000
v 0.750000 0.155315 5.000000
v 0.329494 0.329494 5.000000
v 0.155315 0.750000 5.000000
v 0.329494 1.170506 5.000000
v 4.000000 0.000000 0.000000
v 4.000000 0.000000 5.000000
v 4.000000 1.500000 5.000000
v 4.000000 1.500000 0.000000
v 1.500000 4.000000 0.000000
v 1.500000 4.000000 5.000000
v 0.000000 4.000000 5.000000
v 0.000000 4.000000 0.000000
v 1.500000 1.500000 0.000000
v 1.500000 4.000000 0.000000
v 1.500000 1.500000 5.000000
v 1.500000 4.000000 5.000000
v 4.000000 1.500000 0.000000
v 1.500000 1.500000 0.000000
v 4.000000 1.500000 5.000000
v 1.500000 1.500000 5.000000
v 0.750000 1.344685 0.000000
v 1.170506 1.170506 0.000000
v 1.170506 1.170506 5.000000
v 0.750000 1.344685 5.000000
v 0.329494 1.170506 0.000000
v 0.750000 1.344685 0.000000
v 0.750000 1.344685 5.000000
v 0.329494 1.170506 5.000000
v 0.155315 0.750000 0.000000
v 0.329494 1.170506 0.000000
v 0.329494 1.170506 5.000000
v 0.155315 0.750000 5.000000
v 0.329494 0.329494 0.000000
v 0.155315 0.750000 0.000000
v 0.155315 0.750000 5.000000
v 0.329494 0.329494 5.000000
v 0.750000 0.155315 0.000000
v 0.329494 0.329494 0.000000
v 0.329494 0.329494 5.000000
v 0.750000 0.155315 5.000000
v 1.170506 0.329494 0.000000
v 0.750000 0.155315 0.000000
v 0.750000 0.155315 5.000000
v 1.170506 0.329494 5.000000
v 1.344685 0.750000 0.000000
v 1.170506 0.329494 0.000000
v 1.170506 0.329494 5.000000
v 1.344685 0.750000 5.000000
v 1.170506 1.170506 0.000000
v 1.344685 0.750000 0.000000
v 1.344685 0.750000 5.000000
v 1.170506 1.170506 5.000000

f 2 3 1
f 2 4 3
f 15 5 16
f 17 16 5
f 9 12 11
f 9 13 12
f 6 18 17
f 6 11 18
f 7 14 13
f 7 15 14
f 7 5 15
f 8 13 9
f 8 7 13
f 10 11 6
f 10 9 11
f 6 17 5
f 19 22 21
f 19 20 22
f 33 34 24
f 35 24 34
f 26 29 30
f 26 30 31
f 23 31 32
f 23 32 33
f 23 33 24
f 28 35 36
f 28 36 29
f 27 28 29
f 27 29 26
f 25 26 31
f 25 31 23
f 28 24 35
f 37 39 38
f 40 39 37
f 41 43 42
f 44 43 41
f 46 47 45
f 46 48 47
f 50 51 49
f 50 52 51
f 53 54 55
f 53 55 56
f 57 58 59
f 57 59 60
f 61 62 63
f 61 63 64
f 65 66 67
f 65 67 68
f 69 70 71
f 69 71 72
f 73 74 75
f 73 75 76
f 77 78 79
f 77 79 80
f 81 82 83
f 81 83 84
