# OBJ file generated from STEP using CadQuery
# Vertices: 72
# Faces: 44

v -1.000000 -1.000000 0.000000
v 2.077081 -1.000000 0.000000
v 2.077081 1.080091 0.000000
v -1.000000 1.080091 0.000000
v -1.000000 -1.000000 0.000000
v -1.000000 -1.000000 1.500000
v 2.077081 -1.000000 1.500000
v 2.077081 -1.000000 0.000000
v -1.000000 1.080091 0.000000
v -1.000000 1.080091 1.500000
v -1.000000 -1.000000 1.500000
v -1.000000 -1.000000 0.000000
v 2.077081 -1.000000 0.000000
v 2.077081 -1.000000 1.500000
v 2.077081 1.080091 1.500000
v 2.077081 1.080091 0.000000
v 2.077081 1.080091 0.000000
v 2.077081 1.080091 1.500000
v -1.000000 1.080091 1.500000
v -1.000000 1.080091 0.000000
v -1.000000 -1.000000 1.500000
v 2.077081 -1.000000 1.500000
v 2.077081 1.080091 1.500000
v -1.000000 1.080091 1.500000
v 0.970388 0.000000 1.500000
v 0.686168 0.686168 1.500000
v 0.686168 -0.686168 1.500000
v -0.000000 -0.970388 1.500000
v -0.686168 -0.686168 1.500000
v -0.970388 0.000000 1.500000
v -0.686168 0.686168 1.500000
v 0.000000 0.970388 1.500000
v 0.970388 0.000000 1.500000
v 0.686168 0.686168 1.500000
v 0.970388 0.000000 8.000000
v 0.686168 0.686168 8.000000
v 0.686168 0.686168 1.500000
v 0.000000 0.970388 1.500000
v 0.686168 0.686168 8.000000
v 0.000000 0.970388 8.000000
v 0.000000 0.970388 1.500000
v -0.686168 0.686168 1.500000
v 0.000000 0.970388 8.000000
v -0.686168 0.686168 8.000000
v -0.686168 0.686168 1.500000
v -0.970388 0.000000 1.500000
v -0.686168 0.686168 8.000000
v -0.970388 0.000000 8.000000
v -0.970388 0.000000 1.500000
v -0.686168 -0.686168 1.500000
v -0.970388 0.000000 8.000000
v -0.686168 -0.686168 8.000000
v -0.686168 -0.686168 1.500000
v -0.000000 -0.970388 1.500000
v -0.686168 -0.686168 8.000000
v -0.000000 -0.970388 8.000000
v -0.000000 -0.970388 1.500000
v 0.686168 -0.686168 1.500000
v -0.000000 -0.970388 8.000000
v 0.686168 -0.686168 8.000000
v 0.686168 -0.686168 1.500000
v 0.970388 0.000000 1.500000
v 0.686168 -0.686168 8.000000
v 0.970388 0.000000 8.000000
v 0.970388 0.000000 8.000000
v 0.686168 0.686168 8.000000
v 0.000000 0.970388 8.000000
v -0.686168 0.686168 8.000000
v -0.970388 0.000000 8.000000
v -0.686168 -0.686168 8.000000
v -0.000000 -0.970388 8.000000
v 0.686168 -0.686168 8.000000

f 3 2 1
f 3 1 4
f 8 6 5
f 8 7 6
f 12 10 9
f 12 11 10
f 16 14 13
f 16 15 14
f 20 18 17
f 20 19 18
f 30 21 29
f 28 29 21
f 24 30 31
f 32 24 31
f 22 25 27
f 22 27 28
f 23 26 25
f 23 32 26
f 23 25 22
f 21 22 28
f 23 24 32
f 24 21 30
f 34 35 33
f 34 36 35
f 38 39 37
f 38 40 39
f 42 43 41
f 42 44 43
f 46 47 45
f 46 48 47
f 50 51 49
f 50 52 51
f 54 55 53
f 54 56 55
f 58 59 57
f 58 60 59
f 62 63 61
f 62 64 63
f 72 70 71
f 68 69 70
f 68 70 72
f 66 67 68
f 66 72 65
f 66 68 72
