# OBJ file generated from STEP using CadQuery
# Vertices: 96
# Faces: 60

v 2.515875 -1.000000 0.000000
v 2.515875 1.842498 0.000000
v -1.000000 1.842498 0.000000
v -1.000000 0.131774 0.000000
v -1.054583 0.000000 0.000000
v -1.000000 -0.131774 0.000000
v -1.000000 -1.000000 0.000000
v -0.131774 -1.000000 0.000000
v -0.000000 -1.054583 0.000000
v 0.131774 -1.000000 0.000000
v -1.000000 1.842498 0.000000
v -1.000000 0.131774 0.000000
v -1.000000 1.842498 1.500000
v -1.000000 0.131774 1.500000
v 2.515875 1.842498 0.000000
v 2.515875 1.842498 1.500000
v -1.000000 1.842498 1.500000
v -1.000000 1.842498 0.000000
v 2.515875 -1.000000 0.000000
v 2.515875 -1.000000 1.500000
v 2.515875 1.842498 1.500000
v 2.515875 1.842498 0.000000
v 0.131774 -1.000000 0.000000
v 2.515875 -1.000000 0.000000
v 0.131774 -1.000000 1.500000
v 2.515875 -1.000000 1.500000
v -0.000000 -1.054583 0.000000
v 0.131774 -1.000000 0.000000
v -0.000000 -1.054583 8.000000
v 0.745703 -0.745703 8.000000
v 0.745703 -0.745703 1.500000
v 0.131774 -1.000000 1.500000
v -0.745703 -0.745703 1.500000
v -0.131774 -1.000000 1.500000
v -0.745703 -0.745703 8.000000
v -0.000000 -1.054583 8.000000
v -0.000000 -1.054583 0.000000
v -0.131774 -1.000000 0.000000
v -1.000000 -0.131774 0.000000
v -1.000000 -1.000000 0.000000
v -1.000000 -0.131774 1.500000
v -1.000000 -1.000000 1.500000
v -1.000000 -1.000000 0.000000
v -0.131774 -1.000000 0.000000
v -1.000000 -1.000000 1.500000
v -0.131774 -1.000000 1.500000
v -1.054583 0.000000 0.000000
v -1.000000 -0.131774 0.000000
v -1.054583 0.000000 8.000000
v -0.745703 -0.745703 8.000000
v -0.745703 -0.745703 1.500000
v -1.000000 -0.131774 1.500000
v -0.745703 0.745703 1.500000
v -1.000000 0.131774 1.500000
v -0.745703 0.745703 8.000000
v -1.054583 0.000000 8.000000
v -1.054583 0.000000 0.000000
v -1.000000 0.131774 0.000000
v 0.131774 -1.000000 1.500000
v 0.745703 -0.745703 1.500000
v 2.515875 -1.000000 1.500000
v 2.515875 1.842498 1.500000
v -1.000000 1.842498 1.500000
v -1.000000 0.131774 1.500000
v -0.745703 0.745703 1.500000
v 0.000000 1.054583 1.500000
v 0.745703 0.745703 1.500000
v 1.054583 0.000000 1.500000
v 0.745703 -0.745703 1.500000
v 1.054583 0.000000 1.500000
v 0.745703 -0.745703 8.000000
v 1.054583 0.000000 8.000000
v 1.054583 0.000000 8.000000
v 0.745703 0.745703 8.000000
v 0.000000 1.054583 8.000000
v -0.745703 0.745703 8.000000
v -1.054583 0.000000 8.000000
v -0.745703 -0.745703 8.000000
v -0.000000 -1.054583 8.000000
v 0.745703 -0.745703 8.000000
v -1.000000 -0.131774 1.500000
v -1.000000 -1.000000 1.500000
v -0.131774 -1.000000 1.500000
v -0.745703 -0.745703 1.500000
v 0.000000 1.054583 1.500000
v -0.745703 0.745703 1.500000
v 0.000000 1.054583 8.000000
v -0.745703 0.745703 8.000000
v 1.054583 0.000000 1.500000
v 0.745703 0.745703 1.500000
v 1.054583 0.000000 8.000000
v 0.745703 0.745703 8.000000
v 0.745703 0.745703 1.500000
v 0.000000 1.054583 1.500000
v 0.745703 0.745703 8.000000
v 0.000000 1.054583 8.000000

f 6 8 7
f 4 6 5
f 10 9 8
f 10 8 6
f 10 6 4
f 2 4 3
f 2 1 10
f 2 10 4
f 14 13 11
f 12 14 11
f 18 16 15
f 18 17 16
f 21 20 19
f 22 21 19
f 24 25 23
f 24 26 25
f 32 30 29
f 31 30 32
f 28 32 27
f 27 32 29
f 34 35 33
f 34 36 35
f 37 34 38
f 36 34 37
f 40 41 39
f 40 42 41
f 44 45 43
f 44 46 45
f 52 50 49
f 51 50 52
f 48 52 47
f 47 52 49
f 54 55 53
f 54 56 55
f 57 54 58
f 56 54 57
f 63 64 65
f 66 63 65
f 61 60 59
f 61 68 60
f 62 66 67
f 62 67 68
f 62 68 61
f 62 63 66
f 70 71 69
f 70 72 71
f 77 78 79
f 73 79 80
f 75 76 77
f 74 77 79
f 74 75 77
f 74 79 73
f 81 82 84
f 83 84 82
f 86 87 85
f 86 88 87
f 90 91 89
f 90 92 91
f 94 95 93
f 94 96 95
