# OBJ file generated from STEP using CadQuery
# Vertices: 48
# Faces: 32

v 0.000000 0.000000 0.000000
v 0.000000 0.000000 3.000000
v 5.857299 0.000000 3.000000
v 5.857299 0.000000 0.000000
v 0.000000 4.483134 0.000000
v 0.000000 4.483134 3.000000
v 0.000000 0.000000 3.000000
v 0.000000 0.000000 0.000000
v 5.857299 0.000000 0.000000
v 5.857299 0.000000 3.000000
v 5.857299 4.483134 3.000000
v 5.857299 4.483134 0.000000
v 0.000000 0.000000 0.000000
v 5.857299 0.000000 0.000000
v 5.857299 4.483134 0.000000
v 0.000000 4.483134 0.000000
v 4.127957 3.353857 0.000000
v 4.127957 1.129277 0.000000
v 1.729342 1.129277 0.000000
v 1.729342 3.353857 0.000000
v 0.000000 0.000000 3.000000
v 5.857299 0.000000 3.000000
v 5.857299 4.483134 3.000000
v 0.000000 4.483134 3.000000
v 4.127957 3.353857 3.000000
v 4.127957 1.129277 3.000000
v 1.729342 1.129277 3.000000
v 1.729342 3.353857 3.000000
v 5.857299 4.483134 0.000000
v 5.857299 4.483134 3.000000
v 0.000000 4.483134 3.000000
v 0.000000 4.483134 0.000000
v 4.127957 3.353857 0.000000
v 4.127957 1.129277 0.000000
v 4.127957 1.129277 3.000000
v 4.127957 3.353857 3.000000
v 1.729342 3.353857 0.000000
v 4.127957 3.353857 0.000000
v 4.127957 3.353857 3.000000
v 1.729342 3.353857 3.000000
v 1.729342 1.129277 0.000000
v 1.729342 3.353857 0.000000
v 1.729342 3.353857 3.000000
v 1.729342 1.129277 3.000000
v 4.127957 1.129277 0.000000
v 1.729342 1.129277 0.000000
v 1.729342 1.129277 3.000000
v 4.127957 1.129277 3.000000

f 4 2 1
f 4 3 2
f 8 6 5
f 8 7 6
f 12 10 9
f 12 11 10
f 20 13 16
f 20 19 13
f 14 19 18
f 14 13 19
f 17 14 18
f 15 14 17
f 15 20 16
f 15 17 20
f 28 24 21
f 28 21 27
f 22 26 27
f 22 27 21
f 25 26 22
f 23 25 22
f 23 24 28
f 23 28 25
f 32 30 29
f 32 31 30
f 34 35 36
f 33 34 36
f 37 38 39
f 37 39 40
f 42 43 44
f 41 42 44
f 45 46 47
f 45 47 48
