# OBJ file generated from STEP using CadQuery
# Vertices: 144
# Faces: 92

v 0.394298 0.000000 2.700000
v 0.394298 0.000000 0.000000
v 0.872608 0.000000 2.700000
v 0.872608 0.000000 0.000000
v 0.394298 0.394298 2.700000
v 0.394298 0.394298 0.000000
v 0.394298 0.000000 2.700000
v 0.394298 0.000000 0.000000
v 0.394298 0.000000 2.700000
v 0.872608 0.000000 2.700000
v 0.872608 0.394298 2.700000
v 1.266906 0.394298 2.700000
v 1.266906 0.872608 2.700000
v 0.872608 0.872608 2.700000
v 0.872608 1.266906 2.700000
v 0.394298 1.266906 2.700000
v 0.394298 0.872608 2.700000
v 0.000000 0.872608 2.700000
v 0.000000 0.394298 2.700000
v 0.394298 0.394298 2.700000
v 0.418214 0.063345 2.700000
v 0.848692 0.063345 2.700000
v 0.418214 0.418214 2.700000
v 0.063345 0.418214 2.700000
v 0.063345 0.848692 2.700000
v 0.418214 0.848692 2.700000
v 0.418214 1.203560 2.700000
v 0.848692 1.203560 2.700000
v 0.848692 0.848692 2.700000
v 1.203560 0.848692 2.700000
v 1.203560 0.418214 2.700000
v 0.848692 0.418214 2.700000
v 0.872608 0.000000 0.000000
v 0.872608 0.000000 2.700000
v 0.872608 0.394298 2.700000
v 0.872608 0.394298 0.000000
v 0.394298 0.000000 0.000000
v 0.872608 0.000000 0.000000
v 0.872608 0.394298 0.000000
v 1.266906 0.394298 0.000000
v 1.266906 0.872608 0.000000
v 0.872608 0.872608 0.000000
v 0.872608 1.266906 0.000000
v 0.394298 1.266906 0.000000
v 0.394298 0.872608 0.000000
v 0.000000 0.872608 0.000000
v 0.000000 0.394298 0.000000
v 0.394298 0.394298 0.000000
v 0.000000 0.394298 2.700000
v 0.000000 0.394298 0.000000
v 0.394298 0.394298 2.700000
v 0.394298 0.394298 0.000000
v 0.872608 0.394298 0.000000
v 0.872608 0.394298 2.700000
v 1.266906 0.394298 2.700000
v 1.266906 0.394298 0.000000
v 0.000000 0.872608 0.000000
v 0.000000 0.872608 2.700000
v 0.000000 0.394298 2.700000
v 0.000000 0.394298 0.000000
v 1.266906 0.394298 0.000000
v 1.266906 0.394298 2.700000
v 1.266906 0.872608 2.700000
v 1.266906 0.872608 0.000000
v 0.394298 0.872608 0.000000
v 0.394298 0.872608 2.700000
v 0.000000 0.872608 2.700000
v 0.000000 0.872608 0.000000
v 1.266906 0.872608 0.000000
v 1.266906 0.872608 2.700000
v 0.872608 0.872608 2.700000
v 0.872608 0.872608 0.000000
v 0.394298 1.266906 0.000000
v 0.394298 1.266906 2.700000
v 0.394298 0.872608 2.700000
v 0.394298 0.872608 0.000000
v 0.872608 0.872608 0.000000
v 0.872608 0.872608 2.700000
v 0.872608 1.266906 2.700000
v 0.872608 1.266906 0.000000
v 0.872608 1.266906 0.000000
v 0.872608 1.266906 2.700000
v 0.394298 1.266906 2.700000
v 0.394298 1.266906 0.000000
v 0.418214 0.063345 2.700000
v 0.418214 0.063345 3.600000
v 0.848692 0.063345 3.600000
v 0.848692 0.063345 2.700000
v 0.848692 0.063345 2.700000
v 0.848692 0.063345 3.600000
v 0.848692 0.418214 3.600000
v 0.848692 0.418214 2.700000
v 0.848692 0.418214 2.700000
v 0.848692 0.418214 3.600000
v 1.203560 0.418214 3.600000
v 1.203560 0.418214 2.700000
v 1.203560 0.418214 2.700000
v 1.203560 0.418214 3.600000
v 1.203560 0.848692 3.600000
v 1.203560 0.848692 2.700000
v 1.203560 0.848692 2.700000
v 1.203560 0.848692 3.600000
v 0.848692 0.848692 3.600000
v 0.848692 0.848692 2.700000
v 0.848692 0.848692 2.700000
v 0.848692 0.848692 3.600000
v 0.848692 1.203560 3.600000
v 0.848692 1.203560 2.700000
v 0.848692 1.203560 2.700000
v 0.848692 1.203560 3.600000
v 0.418214 1.203560 3.600000
v 0.418214 1.203560 2.700000
v 0.418214 1.203560 2.700000
v 0.418214 1.203560 3.600000
v 0.418214 0.848692 3.600000
v 0.418214 0.848692 2.700000
v 0.418214 0.848692 2.700000
v 0.418214 0.848692 3.600000
v 0.063345 0.848692 3.600000
v 0.063345 0.848692 2.700000
v 0.063345 0.848692 2.700000
v 0.063345 0.848692 3.600000
v 0.063345 0.418214 3.600000
v 0.063345 0.418214 2.700000
v 0.063345 0.418214 2.700000
v 0.063345 0.418214 3.600000
v 0.418214 0.418214 3.600000
v 0.418214 0.418214 2.700000
v 0.418214 0.418214 2.700000
v 0.418214 0.418214 3.600000
v 0.418214 0.063345 3.600000
v 0.418214 0.063345 2.700000
v 0.418214 0.063345 3.600000
v 0.848692 0.063345 3.600000
v 0.848692 0.418214 3.600000
v 1.203560 0.418214 3.600000
v 1.203560 0.848692 3.600000
v 0.848692 0.848692 3.600000
v 0.848692 1.203560 3.600000
v 0.418214 1.203560 3.600000
v 0.418214 0.848692 3.600000
v 0.063345 0.848692 3.600000
v 0.063345 0.418214 3.600000
v 0.418214 0.418214 3.600000

f 4 1 2
f 4 3 1
f 8 5 6
f 8 7 5
f 23 20 21
f 23 24 20
f 25 18 19
f 25 19 24
f 22 9 10
f 22 21 9
f 17 25 26
f 11 32 22
f 27 17 26
f 31 32 11
f 28 29 14
f 30 14 29
f 13 30 31
f 13 31 12
f 15 27 28
f 15 16 27
f 10 11 22
f 11 12 31
f 13 14 30
f 14 15 28
f 16 17 27
f 17 18 25
f 19 20 24
f 20 9 21
f 36 34 33
f 36 35 34
f 45 47 46
f 45 48 47
f 39 38 37
f 39 37 48
f 42 48 45
f 42 39 48
f 41 40 39
f 41 39 42
f 43 45 44
f 43 42 45
f 52 49 50
f 52 51 49
f 56 54 53
f 56 55 54
f 60 58 57
f 60 59 58
f 64 62 61
f 64 63 62
f 68 66 65
f 68 67 66
f 72 70 69
f 72 71 70
f 76 74 73
f 76 75 74
f 80 78 77
f 80 79 78
f 84 82 81
f 84 83 82
f 88 86 85
f 88 87 86
f 92 90 89
f 92 91 90
f 96 94 93
f 96 95 94
f 100 98 97
f 100 99 98
f 104 102 101
f 104 103 102
f 108 106 105
f 108 107 106
f 112 110 109
f 112 111 110
f 116 114 113
f 116 115 114
f 120 118 117
f 120 119 118
f 124 122 121
f 124 123 122
f 128 126 125
f 128 127 126
f 132 130 129
f 132 131 130
f 141 142 143
f 141 143 144
f 135 133 134
f 135 144 133
f 135 141 144
f 138 141 135
f 137 135 136
f 137 138 135
f 139 140 141
f 139 141 138
