# OBJ file generated from STEP using CadQuery
# Vertices: 144
# Faces: 92

v 1.687393 1.158349 3.200000
v 1.687393 1.158349 0.000000
v 1.487488 1.640963 3.200000
v 1.487488 1.640963 0.000000
v 1.487488 0.675735 3.200000
v 1.487488 0.675735 0.000000
v 1.687393 1.158349 3.200000
v 1.687393 1.158349 0.000000
v 1.687393 1.158349 3.200000
v 1.487488 1.640963 3.200000
v 1.004874 1.840868 3.200000
v 0.522260 1.640963 3.200000
v 0.322355 1.158349 3.200000
v 0.522260 0.675735 3.200000
v 1.004874 0.475830 3.200000
v 1.487488 0.675735 3.200000
v 1.653267 1.158349 3.200000
v 1.463357 1.616832 3.200000
v 1.463357 0.699866 3.200000
v 1.004874 0.509956 3.200000
v 0.546391 0.699866 3.200000
v 0.356481 1.158349 3.200000
v 0.546391 1.616832 3.200000
v 1.004874 1.806742 3.200000
v 1.487488 1.640963 0.000000
v 1.487488 1.640963 3.200000
v 1.004874 1.840868 3.200000
v 1.004874 1.840868 0.000000
v 1.687393 1.158349 0.000000
v 1.487488 1.640963 0.000000
v 1.004874 1.840868 0.000000
v 0.522260 1.640963 0.000000
v 0.322355 1.158349 0.000000
v 0.522260 0.675735 0.000000
v 1.004874 0.475830 0.000000
v 1.487488 0.675735 0.000000
v 1.004874 0.475830 3.200000
v 1.004874 0.475830 0.000000
v 1.487488 0.675735 3.200000
v 1.487488 0.675735 0.000000
v 1.004874 1.840868 0.000000
v 1.004874 1.840868 3.200000
v 0.522260 1.640963 3.200000
v 0.522260 1.640963 0.000000
v 0.522260 0.675735 0.000000
v 0.522260 0.675735 3.200000
v 1.004874 0.475830 3.200000
v 1.004874 0.475830 0.000000
v 0.522260 1.640963 0.000000
v 0.522260 1.640963 3.200000
v 0.322355 1.158349 3.200000
v 0.322355 1.158349 0.000000
v 0.322355 1.158349 0.000000
v 0.322355 1.158349 3.200000
v 0.522260 0.675735 3.200000
v 0.522260 0.675735 0.000000
v 1.653267 1.158349 3.200000
v 1.653267 1.158349 4.300000
v 1.463357 1.616832 4.300000
v 1.463357 1.616832 3.200000
v 1.463357 1.616832 3.200000
v 1.463357 1.616832 4.300000
v 1.004874 1.806742 4.300000
v 1.004874 1.806742 3.200000
v 1.004874 1.806742 3.200000
v 1.004874 1.806742 4.300000
v 0.546391 1.616832 4.300000
v 0.546391 1.616832 3.200000
v 0.546391 1.616832 3.200000
v 0.546391 1.616832 4.300000
v 0.356481 1.158349 4.300000
v 0.356481 1.158349 3.200000
v 0.356481 1.158349 3.200000
v 0.356481 1.158349 4.300000
v 0.546391 0.699866 4.300000
v 0.546391 0.699866 3.200000
v 0.546391 0.699866 3.200000
v 0.546391 0.699866 4.300000
v 1.004874 0.509956 4.300000
v 1.004874 0.509956 3.200000
v 1.004874 0.509956 3.200000
v 1.004874 0.509956 4.300000
v 1.463357 0.699866 4.300000
v 1.463357 0.699866 3.200000
v 1.463357 0.699866 3.200000
v 1.463357 0.699866 4.300000
v 1.653267 1.158349 4.300000
v 1.653267 1.158349 3.200000
v 1.653267 1.158349 4.300000
v 1.463357 1.616832 4.300000
v 1.004874 1.806742 4.300000
v 0.546391 1.616832 4.300000
v 0.356481 1.158349 4.300000
v 0.546391 0.699866 4.300000
v 1.004874 0.509956 4.300000
v 1.463357 0.699866 4.300000
v 1.556008 1.158349 4.300000
v 1.394585 1.548060 4.300000
v 1.394585 0.768638 4.300000
v 1.004874 0.607215 4.300000
v 0.615163 0.768638 4.300000
v 0.453740 1.158349 4.300000
v 0.615163 1.548060 4.300000
v 1.004874 1.709483 4.300000
v 1.556008 1.158349 4.300000
v 1.556008 1.158349 5.100000
v 1.394585 1.548060 5.100000
v 1.394585 1.548060 4.300000
v 1.394585 1.548060 4.300000
v 1.394585 1.548060 5.100000
v 1.004874 1.709483 5.100000
v 1.004874 1.709483 4.300000
v 1.004874 1.709483 4.300000
v 1.004874 1.709483 5.100000
v 0.615163 1.548060 5.100000
v 0.615163 1.548060 4.300000
v 0.615163 1.548060 4.300000
v 0.615163 1.548060 5.100000
v 0.453740 1.158349 5.100000
v 0.453740 1.158349 4.300000
v 0.453740 1.158349 4.300000
v 0.453740 1.158349 5.100000
v 0.615163 0.768638 5.100000
v 0.615163 0.768638 4.300000
v 0.615163 0.768638 4.300000
v 0.615163 0.768638 5.100000
v 1.004874 0.607215 5.100000
v 1.004874 0.607215 4.300000
v 1.004874 0.607215 4.300000
v 1.004874 0.607215 5.100000
v 1.394585 0.768638 5.100000
v 1.394585 0.768638 4.300000
v 1.394585 0.768638 4.300000
v 1.394585 0.768638 5.100000
v 1.556008 1.158349 5.100000
v 1.556008 1.158349 4.300000
v 1.556008 1.158349 5.100000
v 1.394585 1.548060 5.100000
v 1.004874 1.709483 5.100000
v 0.615163 1.548060 5.100000
v 0.453740 1.158349 5.100000
v 0.615163 0.768638 5.100000
v 1.004874 0.607215 5.100000
v 1.394585 0.768638 5.100000

f 4 1 2
f 4 3 1
f 8 5 6
f 8 7 5
f 13 14 21
f 22 13 21
f 20 14 15
f 20 21 14
f 23 13 22
f 12 13 23
f 19 15 16
f 19 20 15
f 17 19 16
f 24 12 23
f 9 17 16
f 11 12 24
f 18 17 9
f 10 24 18
f 10 18 9
f 10 11 24
f 28 26 25
f 28 27 26
f 36 34 33
f 36 35 34
f 31 33 32
f 31 29 36
f 31 36 33
f 30 29 31
f 40 37 38
f 40 39 37
f 44 42 41
f 44 43 42
f 45 47 46
f 48 47 45
f 49 51 50
f 52 51 49
f 56 54 53
f 56 55 54
f 60 58 57
f 60 59 58
f 64 62 61
f 64 63 62
f 68 66 65
f 68 67 66
f 72 70 69
f 72 71 70
f 76 74 73
f 76 75 74
f 80 78 77
f 80 79 78
f 84 82 81
f 84 83 82
f 88 86 85
f 88 87 86
f 95 101 94
f 102 93 94
f 102 94 101
f 100 101 95
f 96 99 100
f 96 100 95
f 92 93 102
f 103 92 102
f 89 97 99
f 89 99 96
f 91 103 104
f 91 92 103
f 98 97 89
f 90 104 98
f 90 91 104
f 90 98 89
f 108 106 105
f 108 107 106
f 112 110 109
f 112 111 110
f 116 114 113
f 116 115 114
f 120 118 117
f 120 119 118
f 124 122 121
f 124 123 122
f 128 126 125
f 128 127 126
f 132 130 129
f 132 131 130
f 136 134 133
f 136 135 134
f 144 142 143
f 139 140 141
f 139 141 142
f 139 144 137
f 139 142 144
f 138 139 137
