# OBJ file generated from STEP using CadQuery
# Vertices: 48
# Faces: 28

v -1.185238 -0.783837 0.447740
v 0.506007 -0.783837 0.447740
v 0.506007 -0.783837 -0.447740
v -1.185238 -0.783837 -0.447740
v 0.506007 -0.783837 0.447740
v 0.506007 -0.561194 0.447740
v 0.506007 -0.561194 -0.447740
v 0.506007 -0.783837 -0.447740
v 0.506007 -0.561194 0.447740
v 1.185238 -0.561194 0.447740
v 1.185238 -0.561194 -0.447740
v 0.506007 -0.561194 -0.447740
v 1.185238 -0.561194 0.447740
v 1.185238 0.783837 0.447740
v 1.185238 0.783837 -0.447740
v 1.185238 -0.561194 -0.447740
v 1.185238 0.783837 0.447740
v 0.506007 0.783837 0.447740
v 0.506007 0.783837 -0.447740
v 1.185238 0.783837 -0.447740
v 0.506007 0.783837 0.447740
v 0.506007 0.338551 0.447740
v 0.506007 0.338551 -0.447740
v 0.506007 0.783837 -0.447740
v 0.506007 0.338551 0.447740
v -1.185238 0.338551 0.447740
v -1.185238 0.338551 -0.447740
v 0.506007 0.338551 -0.447740
v -1.185238 0.338551 0.447740
v -1.185238 -0.783837 0.447740
v -1.185238 -0.783837 -0.447740
v -1.185238 0.338551 -0.447740
v 0.506007 -0.783837 -0.447740
v 0.506007 -0.561194 -0.447740
v 1.185238 -0.561194 -0.447740
v 1.185238 0.783837 -0.447740
v 0.506007 0.783837 -0.447740
v 0.506007 0.338551 -0.447740
v -1.185238 0.338551 -0.447740
v -1.185238 -0.783837 -0.447740
v -1.185238 -0.783837 0.447740
v 0.506007 -0.783837 0.447740
v 0.506007 -0.561194 0.447740
v 1.185238 -0.561194 0.447740
v 1.185238 0.783837 0.447740
v 0.506007 0.783837 0.447740
v 0.506007 0.338551 0.447740
v -1.185238 0.338551 0.447740

f 3 2 1
f 3 1 4
f 7 6 5
f 7 5 8
f 11 10 9
f 11 9 12
f 15 14 13
f 15 13 16
f 19 18 17
f 19 17 20
f 23 22 21
f 23 21 24
f 27 26 25
f 27 25 28
f 31 30 29
f 31 29 32
f 34 40 39
f 34 33 40
f 38 35 34
f 38 34 39
f 36 38 37
f 36 35 38
f 43 41 42
f 43 48 41
f 47 43 44
f 47 48 43
f 45 46 47
f 45 47 44
