# OBJ file generated from STEP using CadQuery
# Vertices: 48
# Faces: 28

v -0.678192 -0.563911 0.311988
v 0.678192 -0.563911 0.311988
v 0.678192 -0.563911 -0.311988
v -0.678192 -0.563911 -0.311988
v 0.678192 -0.563911 0.311988
v 0.678192 0.410191 0.311988
v 0.678192 0.410191 -0.311988
v 0.678192 -0.563911 -0.311988
v 0.678192 0.410191 0.311988
v 0.112699 0.410191 0.311988
v 0.112699 0.410191 -0.311988
v 0.678192 0.410191 -0.311988
v 0.112699 0.410191 0.311988
v 0.112699 0.563911 0.311988
v 0.112699 0.563911 -0.311988
v 0.112699 0.410191 -0.311988
v 0.112699 0.563911 0.311988
v -0.112699 0.563911 0.311988
v -0.112699 0.563911 -0.311988
v 0.112699 0.563911 -0.311988
v -0.112699 0.563911 0.311988
v -0.112699 0.410191 0.311988
v -0.112699 0.410191 -0.311988
v -0.112699 0.563911 -0.311988
v -0.112699 0.410191 0.311988
v -0.678192 0.410191 0.311988
v -0.678192 0.410191 -0.311988
v -0.112699 0.410191 -0.311988
v -0.678192 0.410191 0.311988
v -0.678192 -0.563911 0.311988
v -0.678192 -0.563911 -0.311988
v -0.678192 0.410191 -0.311988
v 0.678192 -0.563911 -0.311988
v 0.678192 0.410191 -0.311988
v 0.112699 0.410191 -0.311988
v 0.112699 0.563911 -0.311988
v -0.112699 0.563911 -0.311988
v -0.112699 0.410191 -0.311988
v -0.678192 0.410191 -0.311988
v -0.678192 -0.563911 -0.311988
v -0.678192 -0.563911 0.311988
v 0.678192 -0.563911 0.311988
v 0.678192 0.410191 0.311988
v 0.112699 0.410191 0.311988
v 0.112699 0.563911 0.311988
v -0.112699 0.563911 0.311988
v -0.112699 0.410191 0.311988
v -0.678192 0.410191 0.311988

f 3 2 1
f 3 1 4
f 7 6 5
f 7 5 8
f 11 10 9
f 11 9 12
f 15 14 13
f 15 13 16
f 19 18 17
f 19 17 20
f 23 22 21
f 23 21 24
f 27 26 25
f 27 25 28
f 31 30 29
f 31 29 32
f 38 40 39
f 35 33 40
f 35 40 38
f 36 38 37
f 36 35 38
f 34 33 35
f 47 48 41
f 44 41 42
f 44 47 41
f 45 46 47
f 45 47 44
f 43 44 42
