# OBJ file generated from STEP using CadQuery
# Vertices: 118
# Faces: 72

v -142.500000 1863.000000 -192.215000
v -349.500000 1541.000000 -192.215000
v -349.500000 1541.000000 100.340000
v -142.500000 1863.000000 100.340000
v -1042.500000 1118.000000 -192.215000
v -1258.500000 758.000000 -192.215000
v -1258.500000 758.000000 139.715000
v -1042.500000 1118.000000 139.715000
v -118.500000 1403.000000 100.340000
v -349.500000 1541.000000 100.340000
v -349.500000 1541.000000 139.715000
v -118.500000 1403.000000 139.715000
v -118.500000 1403.000000 139.715000
v 309.500000 1148.000000 139.715000
v 309.500000 1148.000000 -192.215000
v -118.500000 1403.000000 -192.215000
v -118.500000 1403.000000 100.340000
v -349.500000 1541.000000 100.340000
v -349.500000 1541.000000 139.715000
v -349.500000 1541.000000 -192.215000
v -665.500000 1745.000000 -192.215000
v -665.500000 1745.000000 139.715000
v 73.500000 1724.000000 100.340000
v -118.500000 1403.000000 100.340000
v -118.500000 1403.000000 -192.215000
v 73.500000 1724.000000 -192.215000
v -665.500000 1745.000000 -192.215000
v -881.500000 1395.000000 -192.215000
v -881.500000 1395.000000 139.715000
v -665.500000 1745.000000 139.715000
v -881.500000 1395.000000 -192.215000
v -902.500000 1401.000000 -192.215000
v -902.500000 1401.000000 139.715000
v -881.500000 1395.000000 139.715000
v -902.500000 1401.000000 -192.215000
v -1063.500000 1126.000000 -192.215000
v -1063.500000 1126.000000 139.715000
v -902.500000 1401.000000 139.715000
v -366.500000 -1863.000000 192.215000
v -1197.500000 -1362.000000 192.215000
v -1197.500000 -1362.000000 -192.215000
v -366.500000 -1863.000000 -192.215000
v 1258.500000 856.000000 192.215000
v -366.500000 -1863.000000 192.215000
v -366.500000 -1863.000000 -192.215000
v 1258.500000 856.000000 -192.215000
v 309.500000 1148.000000 139.715000
v -269.500000 169.000000 139.715000
v -269.500000 169.000000 192.215000
v 309.500000 1148.000000 192.215000
v 309.500000 1148.000000 192.215000
v 432.500000 1356.000000 192.215000
v 432.500000 1356.000000 -192.215000
v 309.500000 1148.000000 -192.215000
v 309.500000 1148.000000 139.715000
v -269.500000 169.000000 139.715000
v -269.500000 169.000000 192.215000
v -269.500000 169.000000 -192.215000
v -1008.000000 -1049.300000 -192.215000
v -1008.000000 -1049.300000 192.215000
v -1008.000000 -1049.300000 -192.215000
v -1197.500000 -1362.000000 -192.215000
v -1197.500000 -1362.000000 192.215000
v -1008.000000 -1049.300000 192.215000
v 1258.500000 856.000000 -192.215000
v 432.500000 1356.000000 -192.215000
v 432.500000 1356.000000 192.215000
v 1258.500000 856.000000 192.215000
v -1042.500000 1118.000000 139.715000
v -1063.500000 1126.000000 139.715000
v -1063.500000 1126.000000 -192.215000
v -1042.500000 1118.000000 -192.215000
v 73.500000 1724.000000 -192.215000
v -142.500000 1863.000000 -192.215000
v -142.500000 1863.000000 100.340000
v 73.500000 1724.000000 100.340000
v -269.500000 169.000000 139.715000
v -1258.500000 758.000000 139.715000
v -1258.500000 758.000000 -192.215000
v -269.500000 169.000000 -192.215000
v -118.500000 1403.000000 -192.215000
v 73.500000 1724.000000 -192.215000
v 309.500000 1148.000000 -192.215000
v 432.500000 1356.000000 -192.215000
v 1258.500000 856.000000 -192.215000
v -366.500000 -1863.000000 -192.215000
v -1197.500000 -1362.000000 -192.215000
v -1008.000000 -1049.300000 -192.215000
v -269.500000 169.000000 -192.215000
v -1258.500000 758.000000 -192.215000
v -1042.500000 1118.000000 -192.215000
v -1063.500000 1126.000000 -192.215000
v -902.500000 1401.000000 -192.215000
v -881.500000 1395.000000 -192.215000
v -665.500000 1745.000000 -192.215000
v -349.500000 1541.000000 -192.215000
v -142.500000 1863.000000 -192.215000
v 432.500000 1356.000000 192.215000
v 1258.500000 856.000000 192.215000
v 309.500000 1148.000000 192.215000
v -269.500000 169.000000 192.215000
v -1008.000000 -1049.300000 192.215000
v -1197.500000 -1362.000000 192.215000
v -366.500000 -1863.000000 192.215000
v -349.500000 1541.000000 139.715000
v -118.500000 1403.000000 139.715000
v -665.500000 1745.000000 139.715000
v -881.500000 1395.000000 139.715000
v -902.500000 1401.000000 139.715000
v -1063.500000 1126.000000 139.715000
v -1042.500000 1118.000000 139.715000
v -1258.500000 758.000000 139.715000
v -269.500000 169.000000 139.715000
v 309.500000 1148.000000 139.715000
v -142.500000 1863.000000 100.340000
v 73.500000 1724.000000 100.340000
v -349.500000 1541.000000 100.340000
v -118.500000 1403.000000 100.340000

f 1 2 3
f 4 1 3
f 5 6 7
f 8 5 7
f 9 10 11
f 12 9 11
f 17 13 14
f 17 14 15
f 16 17 15
f 21 18 20
f 22 19 18
f 22 18 21
f 26 23 24
f 26 24 25
f 27 28 29
f 30 27 29
f 33 31 32
f 34 31 33
f 37 35 36
f 38 35 37
f 39 40 41
f 42 39 41
f 46 43 44
f 46 44 45
f 50 47 48
f 50 48 49
f 55 51 52
f 53 55 52
f 54 55 53
f 59 56 58
f 60 57 56
f 60 56 59
f 63 61 62
f 64 61 63
f 65 66 67
f 68 65 67
f 72 69 70
f 72 70 71
f 75 73 74
f 76 73 75
f 80 77 78
f 80 78 79
f 88 86 87
f 89 86 88
f 85 86 89
f 83 85 89
f 84 85 83
f 91 89 90
f 81 83 89
f 81 89 91
f 94 81 91
f 93 91 92
f 93 94 91
f 96 81 94
f 97 82 81
f 97 81 96
f 95 96 94
f 99 98 100
f 101 99 100
f 104 101 102
f 104 102 103
f 104 99 101
f 108 105 107
f 106 105 108
f 111 108 109
f 111 109 110
f 111 106 108
f 113 111 112
f 113 114 106
f 113 106 111
f 118 116 115
f 118 115 117
