ISO-10303-21;
HEADER;
/* Generated by software containing ST-Developer
 * from STEP Tools, Inc. (www.steptools.com) 
 */

FILE_DESCRIPTION(
/* description */ ('Open CASCADE Model'),
/* implementation_level */ '2;1');

FILE_NAME(
/* name */ '11.step',
/* time_stamp */ '2025-12-23T14:05:08+08:00',
/* author */ (''),
/* organization */ (''),
/* preprocessor_version */ 'ST-DEVELOPER v20.1',
/* originating_system */ 'Autodesk Translation Framework v14.21.0.0',
/* authorisation */ '');

FILE_SCHEMA (('AUTOMOTIVE_DESIGN { 1 0 10303 214 3 1 1 }'));
ENDSEC;

DATA;
#10=MECHANICAL_DESIGN_GEOMETRIC_PRESENTATION_REPRESENTATION('',(#13),#708);
#11=SHAPE_REPRESENTATION_RELATIONSHIP('SRR','None',#715,#12);
#12=ADVANCED_BREP_SHAPE_REPRESENTATION('',(#14),#707);
#13=STYLED_ITEM('',(#724),#14);
#14=MANIFOLD_SOLID_BREP('\X2\5B9E4F53\X0\1',#440);
#15=FACE_OUTER_BOUND('',#38,.T.);
#16=FACE_OUTER_BOUND('',#39,.T.);
#17=FACE_OUTER_BOUND('',#40,.T.);
#18=FACE_OUTER_BOUND('',#41,.T.);
#19=FACE_OUTER_BOUND('',#42,.T.);
#20=FACE_OUTER_BOUND('',#43,.T.);
#21=FACE_OUTER_BOUND('',#44,.T.);
#22=FACE_OUTER_BOUND('',#45,.T.);
#23=FACE_OUTER_BOUND('',#46,.T.);
#24=FACE_OUTER_BOUND('',#47,.T.);
#25=FACE_OUTER_BOUND('',#48,.T.);
#26=FACE_OUTER_BOUND('',#49,.T.);
#27=FACE_OUTER_BOUND('',#50,.T.);
#28=FACE_OUTER_BOUND('',#51,.T.);
#29=FACE_OUTER_BOUND('',#52,.T.);
#30=FACE_OUTER_BOUND('',#53,.T.);
#31=FACE_OUTER_BOUND('',#54,.T.);
#32=FACE_OUTER_BOUND('',#55,.T.);
#33=FACE_OUTER_BOUND('',#56,.T.);
#34=FACE_OUTER_BOUND('',#57,.T.);
#35=FACE_OUTER_BOUND('',#58,.T.);
#36=FACE_OUTER_BOUND('',#59,.T.);
#37=FACE_OUTER_BOUND('',#60,.T.);
#38=EDGE_LOOP('',(#276,#277,#278,#279));
#39=EDGE_LOOP('',(#280,#281,#282,#283));
#40=EDGE_LOOP('',(#284,#285,#286,#287));
#41=EDGE_LOOP('',(#288,#289,#290,#291,#292));
#42=EDGE_LOOP('',(#293,#294,#295,#296,#297));
#43=EDGE_LOOP('',(#298,#299,#300,#301));
#44=EDGE_LOOP('',(#302,#303,#304,#305));
#45=EDGE_LOOP('',(#306,#307,#308,#309));
#46=EDGE_LOOP('',(#310,#311,#312,#313));
#47=EDGE_LOOP('',(#314,#315,#316,#317));
#48=EDGE_LOOP('',(#318,#319,#320,#321));
#49=EDGE_LOOP('',(#322,#323,#324,#325));
#50=EDGE_LOOP('',(#326,#327,#328,#329,#330));
#51=EDGE_LOOP('',(#331,#332,#333,#334,#335));
#52=EDGE_LOOP('',(#336,#337,#338,#339));
#53=EDGE_LOOP('',(#340,#341,#342,#343));
#54=EDGE_LOOP('',(#344,#345,#346,#347));
#55=EDGE_LOOP('',(#348,#349,#350,#351));
#56=EDGE_LOOP('',(#352,#353,#354,#355));
#57=EDGE_LOOP('',(#356,#357,#358,#359,#360,#361,#362,#363,#364,#365,#366,
#367,#368,#369,#370,#371,#372));
#58=EDGE_LOOP('',(#373,#374,#375,#376,#377,#378,#379));
#59=EDGE_LOOP('',(#380,#381,#382,#383,#384,#385,#386,#387,#388,#389));
#60=EDGE_LOOP('',(#390,#391,#392,#393));
#61=LINE('',#588,#120);
#62=LINE('',#590,#121);
#63=LINE('',#592,#122);
#64=LINE('',#593,#123);
#65=LINE('',#597,#124);
#66=LINE('',#599,#125);
#67=LINE('',#601,#126);
#68=LINE('',#602,#127);
#69=LINE('',#605,#128);
#70=LINE('',#607,#129);
#71=LINE('',#609,#130);
#72=LINE('',#610,#131);
#73=LINE('',#613,#132);
#74=LINE('',#615,#133);
#75=LINE('',#617,#134);
#76=LINE('',#618,#135);
#77=LINE('',#621,#136);
#78=LINE('',#623,#137);
#79=LINE('',#624,#138);
#80=LINE('',#627,#139);
#81=LINE('',#629,#140);
#82=LINE('',#630,#141);
#83=LINE('',#633,#142);
#84=LINE('',#635,#143);
#85=LINE('',#636,#144);
#86=LINE('',#639,#145);
#87=LINE('',#641,#146);
#88=LINE('',#642,#147);
#89=LINE('',#645,#148);
#90=LINE('',#647,#149);
#91=LINE('',#648,#150);
#92=LINE('',#652,#151);
#93=LINE('',#654,#152);
#94=LINE('',#656,#153);
#95=LINE('',#657,#154);
#96=LINE('',#660,#155);
#97=LINE('',#662,#156);
#98=LINE('',#663,#157);
#99=LINE('',#666,#158);
#100=LINE('',#668,#159);
#101=LINE('',#670,#160);
#102=LINE('',#671,#161);
#103=LINE('',#674,#162);
#104=LINE('',#676,#163);
#105=LINE('',#677,#164);
#106=LINE('',#680,#165);
#107=LINE('',#682,#166);
#108=LINE('',#684,#167);
#109=LINE('',#685,#168);
#110=LINE('',#687,#169);
#111=LINE('',#688,#170);
#112=LINE('',#690,#171);
#113=LINE('',#691,#172);
#114=LINE('',#693,#173);
#115=LINE('',#694,#174);
#116=LINE('',#696,#175);
#117=LINE('',#697,#176);
#118=LINE('',#699,#177);
#119=LINE('',#700,#178);
#120=VECTOR('',#481,0.999999999999505);
#121=VECTOR('',#482,1.);
#122=VECTOR('',#483,0.999999999999505);
#123=VECTOR('',#484,1.);
#124=VECTOR('',#487,1.00000000000046);
#125=VECTOR('',#488,1.);
#126=VECTOR('',#489,1.00000000000046);
#127=VECTOR('',#490,1.);
#128=VECTOR('',#493,0.99999999999996);
#129=VECTOR('',#494,1.);
#130=VECTOR('',#495,0.99999999999996);
#131=VECTOR('',#496,1.);
#132=VECTOR('',#499,1.00000000000045);
#133=VECTOR('',#500,1.);
#134=VECTOR('',#501,1.00000000000045);
#135=VECTOR('',#502,1.);
#136=VECTOR('',#505,0.999999999999999);
#137=VECTOR('',#506,1.);
#138=VECTOR('',#507,0.999999999999999);
#139=VECTOR('',#510,0.999999999999988);
#140=VECTOR('',#511,0.999999999999988);
#141=VECTOR('',#512,1.);
#142=VECTOR('',#515,1.00000000000014);
#143=VECTOR('',#516,1.);
#144=VECTOR('',#517,1.00000000000014);
#145=VECTOR('',#520,1.0000000000002);
#146=VECTOR('',#521,1.);
#147=VECTOR('',#522,1.0000000000002);
#148=VECTOR('',#525,1.00000000000031);
#149=VECTOR('',#526,1.);
#150=VECTOR('',#527,1.00000000000031);
#151=VECTOR('',#530,0.999999999999878);
#152=VECTOR('',#531,1.);
#153=VECTOR('',#532,0.999999999999878);
#154=VECTOR('',#533,1.);
#155=VECTOR('',#536,0.999999999999587);
#156=VECTOR('',#537,0.999999999999587);
#157=VECTOR('',#538,1.);
#158=VECTOR('',#541,0.999999999999637);
#159=VECTOR('',#542,1.);
#160=VECTOR('',#543,0.999999999999637);
#161=VECTOR('',#544,1.);
#162=VECTOR('',#547,0.999999999999864);
#163=VECTOR('',#548,1.);
#164=VECTOR('',#549,0.999999999999864);
#165=VECTOR('',#552,1.);
#166=VECTOR('',#553,0.999999999999816);
#167=VECTOR('',#554,1.);
#168=VECTOR('',#555,0.999999999999816);
#169=VECTOR('',#558,0.999999999999866);
#170=VECTOR('',#559,0.999999999999866);
#171=VECTOR('',#562,1.00000000000049);
#172=VECTOR('',#563,1.00000000000049);
#173=VECTOR('',#566,0.999999999999634);
#174=VECTOR('',#567,0.999999999999634);
#175=VECTOR('',#570,0.999999999999954);
#176=VECTOR('',#571,0.999999999999954);
#177=VECTOR('',#574,1.00000000000042);
#178=VECTOR('',#575,1.00000000000042);
#179=VERTEX_POINT('',#586);
#180=VERTEX_POINT('',#587);
#181=VERTEX_POINT('',#589);
#182=VERTEX_POINT('',#591);
#183=VERTEX_POINT('',#595);
#184=VERTEX_POINT('',#596);
#185=VERTEX_POINT('',#598);
#186=VERTEX_POINT('',#600);
#187=VERTEX_POINT('',#604);
#188=VERTEX_POINT('',#606);
#189=VERTEX_POINT('',#608);
#190=VERTEX_POINT('',#612);
#191=VERTEX_POINT('',#614);
#192=VERTEX_POINT('',#616);
#193=VERTEX_POINT('',#620);
#194=VERTEX_POINT('',#622);
#195=VERTEX_POINT('',#626);
#196=VERTEX_POINT('',#628);
#197=VERTEX_POINT('',#632);
#198=VERTEX_POINT('',#634);
#199=VERTEX_POINT('',#638);
#200=VERTEX_POINT('',#640);
#201=VERTEX_POINT('',#644);
#202=VERTEX_POINT('',#646);
#203=VERTEX_POINT('',#650);
#204=VERTEX_POINT('',#651);
#205=VERTEX_POINT('',#653);
#206=VERTEX_POINT('',#655);
#207=VERTEX_POINT('',#659);
#208=VERTEX_POINT('',#661);
#209=VERTEX_POINT('',#665);
#210=VERTEX_POINT('',#667);
#211=VERTEX_POINT('',#669);
#212=VERTEX_POINT('',#673);
#213=VERTEX_POINT('',#675);
#214=VERTEX_POINT('',#679);
#215=VERTEX_POINT('',#681);
#216=VERTEX_POINT('',#683);
#217=EDGE_CURVE('',#179,#180,#61,.T.);
#218=EDGE_CURVE('',#180,#181,#62,.T.);
#219=EDGE_CURVE('',#181,#182,#63,.T.);
#220=EDGE_CURVE('',#182,#179,#64,.T.);
#221=EDGE_CURVE('',#183,#184,#65,.T.);
#222=EDGE_CURVE('',#184,#185,#66,.T.);
#223=EDGE_CURVE('',#185,#186,#67,.T.);
#224=EDGE_CURVE('',#186,#183,#68,.T.);
#225=EDGE_CURVE('',#187,#181,#69,.T.);
#226=EDGE_CURVE('',#181,#188,#70,.T.);
#227=EDGE_CURVE('',#188,#189,#71,.T.);
#228=EDGE_CURVE('',#189,#187,#72,.T.);
#229=EDGE_CURVE('',#189,#190,#73,.T.);
#230=EDGE_CURVE('',#190,#191,#74,.T.);
#231=EDGE_CURVE('',#191,#192,#75,.T.);
#232=EDGE_CURVE('',#192,#187,#76,.T.);
#233=EDGE_CURVE('',#180,#193,#77,.T.);
#234=EDGE_CURVE('',#193,#194,#78,.T.);
#235=EDGE_CURVE('',#194,#188,#79,.T.);
#236=EDGE_CURVE('',#195,#187,#80,.T.);
#237=EDGE_CURVE('',#192,#196,#81,.T.);
#238=EDGE_CURVE('',#196,#195,#82,.T.);
#239=EDGE_CURVE('',#193,#197,#83,.T.);
#240=EDGE_CURVE('',#197,#198,#84,.T.);
#241=EDGE_CURVE('',#198,#194,#85,.T.);
#242=EDGE_CURVE('',#197,#199,#86,.T.);
#243=EDGE_CURVE('',#199,#200,#87,.T.);
#244=EDGE_CURVE('',#200,#198,#88,.T.);
#245=EDGE_CURVE('',#199,#201,#89,.T.);
#246=EDGE_CURVE('',#201,#202,#90,.T.);
#247=EDGE_CURVE('',#202,#200,#91,.T.);
#248=EDGE_CURVE('',#203,#204,#92,.T.);
#249=EDGE_CURVE('',#204,#205,#93,.T.);
#250=EDGE_CURVE('',#205,#206,#94,.T.);
#251=EDGE_CURVE('',#206,#203,#95,.T.);
#252=EDGE_CURVE('',#207,#203,#96,.T.);
#253=EDGE_CURVE('',#206,#208,#97,.T.);
#254=EDGE_CURVE('',#208,#207,#98,.T.);
#255=EDGE_CURVE('',#190,#209,#99,.T.);
#256=EDGE_CURVE('',#209,#210,#100,.T.);
#257=EDGE_CURVE('',#210,#211,#101,.T.);
#258=EDGE_CURVE('',#211,#190,#102,.T.);
#259=EDGE_CURVE('',#211,#212,#103,.T.);
#260=EDGE_CURVE('',#212,#213,#104,.T.);
#261=EDGE_CURVE('',#213,#191,#105,.T.);
#262=EDGE_CURVE('',#209,#214,#106,.T.);
#263=EDGE_CURVE('',#214,#215,#107,.T.);
#264=EDGE_CURVE('',#215,#216,#108,.T.);
#265=EDGE_CURVE('',#216,#210,#109,.T.);
#266=EDGE_CURVE('',#215,#205,#110,.T.);
#267=EDGE_CURVE('',#204,#216,#111,.T.);
#268=EDGE_CURVE('',#208,#213,#112,.T.);
#269=EDGE_CURVE('',#212,#207,#113,.T.);
#270=EDGE_CURVE('',#186,#202,#114,.T.);
#271=EDGE_CURVE('',#201,#183,#115,.T.);
#272=EDGE_CURVE('',#196,#179,#116,.T.);
#273=EDGE_CURVE('',#182,#195,#117,.T.);
#274=EDGE_CURVE('',#209,#185,#118,.T.);
#275=EDGE_CURVE('',#184,#214,#119,.T.);
#276=ORIENTED_EDGE('',*,*,#217,.T.);
#277=ORIENTED_EDGE('',*,*,#218,.T.);
#278=ORIENTED_EDGE('',*,*,#219,.T.);
#279=ORIENTED_EDGE('',*,*,#220,.T.);
#280=ORIENTED_EDGE('',*,*,#221,.T.);
#281=ORIENTED_EDGE('',*,*,#222,.T.);
#282=ORIENTED_EDGE('',*,*,#223,.T.);
#283=ORIENTED_EDGE('',*,*,#224,.T.);
#284=ORIENTED_EDGE('',*,*,#225,.T.);
#285=ORIENTED_EDGE('',*,*,#226,.T.);
#286=ORIENTED_EDGE('',*,*,#227,.T.);
#287=ORIENTED_EDGE('',*,*,#228,.T.);
#288=ORIENTED_EDGE('',*,*,#229,.T.);
#289=ORIENTED_EDGE('',*,*,#230,.T.);
#290=ORIENTED_EDGE('',*,*,#231,.T.);
#291=ORIENTED_EDGE('',*,*,#232,.T.);
#292=ORIENTED_EDGE('',*,*,#228,.F.);
#293=ORIENTED_EDGE('',*,*,#226,.F.);
#294=ORIENTED_EDGE('',*,*,#218,.F.);
#295=ORIENTED_EDGE('',*,*,#233,.T.);
#296=ORIENTED_EDGE('',*,*,#234,.T.);
#297=ORIENTED_EDGE('',*,*,#235,.T.);
#298=ORIENTED_EDGE('',*,*,#236,.T.);
#299=ORIENTED_EDGE('',*,*,#232,.F.);
#300=ORIENTED_EDGE('',*,*,#237,.T.);
#301=ORIENTED_EDGE('',*,*,#238,.T.);
#302=ORIENTED_EDGE('',*,*,#239,.T.);
#303=ORIENTED_EDGE('',*,*,#240,.T.);
#304=ORIENTED_EDGE('',*,*,#241,.T.);
#305=ORIENTED_EDGE('',*,*,#234,.F.);
#306=ORIENTED_EDGE('',*,*,#242,.T.);
#307=ORIENTED_EDGE('',*,*,#243,.T.);
#308=ORIENTED_EDGE('',*,*,#244,.T.);
#309=ORIENTED_EDGE('',*,*,#240,.F.);
#310=ORIENTED_EDGE('',*,*,#245,.T.);
#311=ORIENTED_EDGE('',*,*,#246,.T.);
#312=ORIENTED_EDGE('',*,*,#247,.T.);
#313=ORIENTED_EDGE('',*,*,#243,.F.);
#314=ORIENTED_EDGE('',*,*,#248,.T.);
#315=ORIENTED_EDGE('',*,*,#249,.T.);
#316=ORIENTED_EDGE('',*,*,#250,.T.);
#317=ORIENTED_EDGE('',*,*,#251,.T.);
#318=ORIENTED_EDGE('',*,*,#252,.T.);
#319=ORIENTED_EDGE('',*,*,#251,.F.);
#320=ORIENTED_EDGE('',*,*,#253,.T.);
#321=ORIENTED_EDGE('',*,*,#254,.T.);
#322=ORIENTED_EDGE('',*,*,#255,.T.);
#323=ORIENTED_EDGE('',*,*,#256,.T.);
#324=ORIENTED_EDGE('',*,*,#257,.T.);
#325=ORIENTED_EDGE('',*,*,#258,.T.);
#326=ORIENTED_EDGE('',*,*,#259,.T.);
#327=ORIENTED_EDGE('',*,*,#260,.T.);
#328=ORIENTED_EDGE('',*,*,#261,.T.);
#329=ORIENTED_EDGE('',*,*,#230,.F.);
#330=ORIENTED_EDGE('',*,*,#258,.F.);
#331=ORIENTED_EDGE('',*,*,#256,.F.);
#332=ORIENTED_EDGE('',*,*,#262,.T.);
#333=ORIENTED_EDGE('',*,*,#263,.T.);
#334=ORIENTED_EDGE('',*,*,#264,.T.);
#335=ORIENTED_EDGE('',*,*,#265,.T.);
#336=ORIENTED_EDGE('',*,*,#266,.T.);
#337=ORIENTED_EDGE('',*,*,#249,.F.);
#338=ORIENTED_EDGE('',*,*,#267,.T.);
#339=ORIENTED_EDGE('',*,*,#264,.F.);
#340=ORIENTED_EDGE('',*,*,#268,.T.);
#341=ORIENTED_EDGE('',*,*,#260,.F.);
#342=ORIENTED_EDGE('',*,*,#269,.T.);
#343=ORIENTED_EDGE('',*,*,#254,.F.);
#344=ORIENTED_EDGE('',*,*,#270,.T.);
#345=ORIENTED_EDGE('',*,*,#246,.F.);
#346=ORIENTED_EDGE('',*,*,#271,.T.);
#347=ORIENTED_EDGE('',*,*,#224,.F.);
#348=ORIENTED_EDGE('',*,*,#272,.T.);
#349=ORIENTED_EDGE('',*,*,#220,.F.);
#350=ORIENTED_EDGE('',*,*,#273,.T.);
#351=ORIENTED_EDGE('',*,*,#238,.F.);
#352=ORIENTED_EDGE('',*,*,#274,.T.);
#353=ORIENTED_EDGE('',*,*,#222,.F.);
#354=ORIENTED_EDGE('',*,*,#275,.T.);
#355=ORIENTED_EDGE('',*,*,#262,.F.);
#356=ORIENTED_EDGE('',*,*,#237,.F.);
#357=ORIENTED_EDGE('',*,*,#231,.F.);
#358=ORIENTED_EDGE('',*,*,#261,.F.);
#359=ORIENTED_EDGE('',*,*,#268,.F.);
#360=ORIENTED_EDGE('',*,*,#253,.F.);
#361=ORIENTED_EDGE('',*,*,#250,.F.);
#362=ORIENTED_EDGE('',*,*,#266,.F.);
#363=ORIENTED_EDGE('',*,*,#263,.F.);
#364=ORIENTED_EDGE('',*,*,#275,.F.);
#365=ORIENTED_EDGE('',*,*,#221,.F.);
#366=ORIENTED_EDGE('',*,*,#271,.F.);
#367=ORIENTED_EDGE('',*,*,#245,.F.);
#368=ORIENTED_EDGE('',*,*,#242,.F.);
#369=ORIENTED_EDGE('',*,*,#239,.F.);
#370=ORIENTED_EDGE('',*,*,#233,.F.);
#371=ORIENTED_EDGE('',*,*,#217,.F.);
#372=ORIENTED_EDGE('',*,*,#272,.F.);
#373=ORIENTED_EDGE('',*,*,#269,.F.);
#374=ORIENTED_EDGE('',*,*,#259,.F.);
#375=ORIENTED_EDGE('',*,*,#257,.F.);
#376=ORIENTED_EDGE('',*,*,#265,.F.);
#377=ORIENTED_EDGE('',*,*,#267,.F.);
#378=ORIENTED_EDGE('',*,*,#248,.F.);
#379=ORIENTED_EDGE('',*,*,#252,.F.);
#380=ORIENTED_EDGE('',*,*,#227,.F.);
#381=ORIENTED_EDGE('',*,*,#235,.F.);
#382=ORIENTED_EDGE('',*,*,#241,.F.);
#383=ORIENTED_EDGE('',*,*,#244,.F.);
#384=ORIENTED_EDGE('',*,*,#247,.F.);
#385=ORIENTED_EDGE('',*,*,#270,.F.);
#386=ORIENTED_EDGE('',*,*,#223,.F.);
#387=ORIENTED_EDGE('',*,*,#274,.F.);
#388=ORIENTED_EDGE('',*,*,#255,.F.);
#389=ORIENTED_EDGE('',*,*,#229,.F.);
#390=ORIENTED_EDGE('',*,*,#273,.F.);
#391=ORIENTED_EDGE('',*,*,#219,.F.);
#392=ORIENTED_EDGE('',*,*,#225,.F.);
#393=ORIENTED_EDGE('',*,*,#236,.F.);
#394=PLANE('',#454);
#395=PLANE('',#455);
#396=PLANE('',#456);
#397=PLANE('',#457);
#398=PLANE('',#458);
#399=PLANE('',#459);
#400=PLANE('',#460);
#401=PLANE('',#461);
#402=PLANE('',#462);
#403=PLANE('',#463);
#404=PLANE('',#464);
#405=PLANE('',#465);
#406=PLANE('',#466);
#407=PLANE('',#467);
#408=PLANE('',#468);
#409=PLANE('',#469);
#410=PLANE('',#470);
#411=PLANE('',#471);
#412=PLANE('',#472);
#413=PLANE('',#473);
#414=PLANE('',#474);
#415=PLANE('',#475);
#416=PLANE('',#476);
#417=ADVANCED_FACE('',(#15),#394,.T.);
#418=ADVANCED_FACE('',(#16),#395,.T.);
#419=ADVANCED_FACE('',(#17),#396,.T.);
#420=ADVANCED_FACE('',(#18),#397,.T.);
#421=ADVANCED_FACE('',(#19),#398,.T.);
#422=ADVANCED_FACE('',(#20),#399,.T.);
#423=ADVANCED_FACE('',(#21),#400,.T.);
#424=ADVANCED_FACE('',(#22),#401,.T.);
#425=ADVANCED_FACE('',(#23),#402,.T.);
#426=ADVANCED_FACE('',(#24),#403,.T.);
#427=ADVANCED_FACE('',(#25),#404,.T.);
#428=ADVANCED_FACE('',(#26),#405,.T.);
#429=ADVANCED_FACE('',(#27),#406,.T.);
#430=ADVANCED_FACE('',(#28),#407,.T.);
#431=ADVANCED_FACE('',(#29),#408,.T.);
#432=ADVANCED_FACE('',(#30),#409,.T.);
#433=ADVANCED_FACE('',(#31),#410,.T.);
#434=ADVANCED_FACE('',(#32),#411,.T.);
#435=ADVANCED_FACE('',(#33),#412,.T.);
#436=ADVANCED_FACE('',(#34),#413,.T.);
#437=ADVANCED_FACE('',(#35),#414,.T.);
#438=ADVANCED_FACE('',(#36),#415,.T.);
#439=ADVANCED_FACE('',(#37),#416,.T.);
#440=CLOSED_SHELL('',(#417,#418,#419,#420,#421,#422,#423,#424,#425,#426,
#427,#428,#429,#430,#431,#432,#433,#434,#435,#436,#437,#438,#439));
#441=DERIVED_UNIT_ELEMENT(#443,1.);
#442=DERIVED_UNIT_ELEMENT(#710,-3.);
#443=(
MASS_UNIT()
NAMED_UNIT(*)
SI_UNIT(.KILO.,.GRAM.)
);
#444=DERIVED_UNIT((#441,#442));
#445=MEASURE_REPRESENTATION_ITEM('density measure',
POSITIVE_RATIO_MEASURE(7850.),#444);
#446=PROPERTY_DEFINITION_REPRESENTATION(#451,#448);
#447=PROPERTY_DEFINITION_REPRESENTATION(#452,#449);
#448=REPRESENTATION('material name',(#450),#707);
#449=REPRESENTATION('density',(#445),#707);
#450=DESCRIPTIVE_REPRESENTATION_ITEM('\X2\94A2\X0\','\X2\94A2\X0\');
#451=PROPERTY_DEFINITION('material property','material name',#717);
#452=PROPERTY_DEFINITION('material property','density of part',#717);
#453=AXIS2_PLACEMENT_3D('',#584,#477,#478);
#454=AXIS2_PLACEMENT_3D('',#585,#479,#480);
#455=AXIS2_PLACEMENT_3D('',#594,#485,#486);
#456=AXIS2_PLACEMENT_3D('',#603,#491,#492);
#457=AXIS2_PLACEMENT_3D('',#611,#497,#498);
#458=AXIS2_PLACEMENT_3D('',#619,#503,#504);
#459=AXIS2_PLACEMENT_3D('',#625,#508,#509);
#460=AXIS2_PLACEMENT_3D('',#631,#513,#514);
#461=AXIS2_PLACEMENT_3D('',#637,#518,#519);
#462=AXIS2_PLACEMENT_3D('',#643,#523,#524);
#463=AXIS2_PLACEMENT_3D('',#649,#528,#529);
#464=AXIS2_PLACEMENT_3D('',#658,#534,#535);
#465=AXIS2_PLACEMENT_3D('',#664,#539,#540);
#466=AXIS2_PLACEMENT_3D('',#672,#545,#546);
#467=AXIS2_PLACEMENT_3D('',#678,#550,#551);
#468=AXIS2_PLACEMENT_3D('',#686,#556,#557);
#469=AXIS2_PLACEMENT_3D('',#689,#560,#561);
#470=AXIS2_PLACEMENT_3D('',#692,#564,#565);
#471=AXIS2_PLACEMENT_3D('',#695,#568,#569);
#472=AXIS2_PLACEMENT_3D('',#698,#572,#573);
#473=AXIS2_PLACEMENT_3D('',#701,#576,#577);
#474=AXIS2_PLACEMENT_3D('',#702,#578,#579);
#475=AXIS2_PLACEMENT_3D('',#703,#580,#581);
#476=AXIS2_PLACEMENT_3D('',#704,#582,#583);
#477=DIRECTION('axis',(0.,0.,1.));
#478=DIRECTION('refdir',(1.,0.,0.));
#479=DIRECTION('center_axis',(-0.841178475376456,0.54075759131365,0.));
#480=DIRECTION('ref_axis',(0.,0.,1.));
#481=DIRECTION('',(-0.540757591315268,-0.841178475375416,0.));
#482=DIRECTION('',(0.,0.,1.));
#483=DIRECTION('',(0.540757591315268,0.841178475375416,0.));
#484=DIRECTION('',(0.,0.,-1.));
#485=DIRECTION('center_axis',(-0.857492925711044,0.514495755430027,0.));
#486=DIRECTION('ref_axis',(0.,0.,1.));
#487=DIRECTION('',(-0.514495755430762,-0.857492925710603,0.));
#488=DIRECTION('',(0.,0.,1.));
#489=DIRECTION('',(0.514495755430762,0.857492925710603,0.));
#490=DIRECTION('',(0.,0.,-1.));
#491=DIRECTION('center_axis',(0.512855252128758,0.858475095948595,0.));
#492=DIRECTION('ref_axis',(0.,0.,1.));
#493=DIRECTION('',(-0.858475095949035,0.512855252128021,0.));
#494=DIRECTION('',(0.,0.,1.));
#495=DIRECTION('',(0.858475095949035,-0.512855252128021,0.));
#496=DIRECTION('',(0.,0.,-1.));
#497=DIRECTION('center_axis',(0.51183669447077,0.859082765624614,0.));
#498=DIRECTION('ref_axis',(0.,0.,-1.));
#499=DIRECTION('',(0.859082765624614,-0.51183669447077,0.));
#500=DIRECTION('',(0.,0.,-1.));
#501=DIRECTION('',(-0.859082765624614,0.51183669447077,0.));
#502=DIRECTION('',(0.,0.,1.));
#503=DIRECTION('center_axis',(0.542369077507,0.840140335756001,0.));
#504=DIRECTION('ref_axis',(-0.840140335756001,0.542369077507,0.));
#505=DIRECTION('',(-0.840140335756001,0.542369077507,0.));
#506=DIRECTION('',(0.,0.,1.));
#507=DIRECTION('',(0.840140335756001,-0.542369077507,0.));
#508=DIRECTION('center_axis',(0.85819981088501,-0.513315774740006,0.));
#509=DIRECTION('ref_axis',(0.,0.,-1.));
#510=DIRECTION('',(-0.513315774740006,-0.85819981088501,0.));
#511=DIRECTION('',(0.513315774740006,0.85819981088501,0.));
#512=DIRECTION('',(0.,0.,1.));
#513=DIRECTION('center_axis',(-0.850989773053879,0.525182259941925,0.));
#514=DIRECTION('ref_axis',(0.,0.,1.));
#515=DIRECTION('',(-0.525182259941925,-0.850989773053879,0.));
#516=DIRECTION('',(0.,0.,1.));
#517=DIRECTION('',(0.525182259941925,0.850989773053879,0.));
#518=DIRECTION('center_axis',(0.274721127872944,0.961523947647804,0.));
#519=DIRECTION('ref_axis',(0.,0.,1.));
#520=DIRECTION('',(-0.961523947645804,0.274721127879944,0.));
#521=DIRECTION('',(0.,0.,1.));
#522=DIRECTION('',(0.961523947645804,-0.274721127879944,0.));
#523=DIRECTION('center_axis',(-0.862981098073045,0.505236206510026,0.));
#524=DIRECTION('ref_axis',(0.,0.,1.));
#525=DIRECTION('',(-0.505236206508846,-0.862981098073736,0.));
#526=DIRECTION('',(0.,0.,1.));
#527=DIRECTION('',(0.505236206508846,0.862981098073736,0.));
#528=DIRECTION('center_axis',(-0.516313243030797,-0.856399810293663,0.));
#529=DIRECTION('ref_axis',(0.,0.,-1.));
#530=DIRECTION('',(-0.856399810294105,0.516313243030063,0.));
#531=DIRECTION('',(0.,0.,-1.));
#532=DIRECTION('',(0.856399810294105,-0.516313243030063,0.));
#533=DIRECTION('',(0.,0.,1.));
#534=DIRECTION('center_axis',(0.858383021504355,-0.513009345327212,0.));
#535=DIRECTION('ref_axis',(0.,0.,-1.));
#536=DIRECTION('',(-0.513009345327212,-0.858383021504355,0.));
#537=DIRECTION('',(0.513009345327212,0.858383021504355,0.));
#538=DIRECTION('',(0.,0.,1.));
#539=DIRECTION('center_axis',(-0.860733931824571,0.509055103702747,0.));
#540=DIRECTION('ref_axis',(0.,0.,1.));
#541=DIRECTION('',(-0.509055103703185,-0.860733931824312,0.));
#542=DIRECTION('',(0.,0.,1.));
#543=DIRECTION('',(0.509055103703185,0.860733931824312,0.));
#544=DIRECTION('',(0.,0.,-1.));
#545=DIRECTION('center_axis',(-0.860761712435117,0.509008128035069,0.));
#546=DIRECTION('ref_axis',(0.,0.,-1.));
#547=DIRECTION('',(0.509008128035069,0.860761712435117,0.));
#548=DIRECTION('',(0.,0.,-1.));
#549=DIRECTION('',(-0.509008128035069,-0.860761712435117,0.));
#550=DIRECTION('center_axis',(-0.855155402051157,0.518371718309095,0.));
#551=DIRECTION('ref_axis',(-0.518371718309095,-0.855155402051157,0.));
#552=DIRECTION('',(0.,0.,-1.));
#553=DIRECTION('',(-0.518371718309095,-0.855155402051157,0.));
#554=DIRECTION('',(0.,0.,1.));
#555=DIRECTION('',(0.518371718309095,0.855155402051157,0.));
#556=DIRECTION('center_axis',(-0.85521619865927,0.518271409158163,0.));
#557=DIRECTION('ref_axis',(0.,0.,1.));
#558=DIRECTION('',(-0.51827140916007,-0.855216198658115,0.));
#559=DIRECTION('',(0.51827140916007,0.855216198658115,0.));
#560=DIRECTION('center_axis',(0.517842573456191,0.855475931348316,0.));
#561=DIRECTION('ref_axis',(0.,0.,1.));
#562=DIRECTION('',(-0.855475931348584,0.517842573455748,0.));
#563=DIRECTION('',(0.855475931348584,-0.517842573455748,0.));
#564=DIRECTION('center_axis',(-0.355995327637814,-0.934487734911511,0.));
#565=DIRECTION('ref_axis',(0.,0.,-1.));
#566=DIRECTION('',(-0.934487734908342,0.355995327646131,0.));
#567=DIRECTION('',(0.934487734908342,-0.355995327646131,0.));
#568=DIRECTION('center_axis',(0.541151065883155,0.840925397341241,0.));
#569=DIRECTION('ref_axis',(0.,0.,1.));
#570=DIRECTION('',(-0.840925397340038,0.541151065885025,0.));
#571=DIRECTION('',(0.840925397340038,-0.541151065885025,0.));
#572=DIRECTION('center_axis',(-0.511682392357227,-0.859174679184381,0.));
#573=DIRECTION('ref_axis',(0.,0.,-1.));
#574=DIRECTION('',(-0.859174679184643,0.511682392356787,0.));
#575=DIRECTION('',(0.859174679184643,-0.511682392356787,0.));
#576=DIRECTION('center_axis',(-9.936278621781E-18,0.,-1.));
#577=DIRECTION('ref_axis',(-0.85819981088501,0.513315774740006,8.52731243411322E-18));
#578=DIRECTION('center_axis',(0.,0.,1.));
#579=DIRECTION('ref_axis',(-0.517842573455748,-0.855475931348584,0.));
#580=DIRECTION('center_axis',(8.096378165588E-17,0.,1.));
#581=DIRECTION('ref_axis',(-0.512855252128021,-0.858475095949035,4.15227006543644E-17));
#582=DIRECTION('center_axis',(0.,0.,1.));
#583=DIRECTION('ref_axis',(-0.541151065885025,-0.840925397340039,0.));
#584=CARTESIAN_POINT('',(0.,0.,0.));
#585=CARTESIAN_POINT('Origin',(-2460.,17020.,-459.375));
#586=CARTESIAN_POINT('',(-1424.99999999779,18630.0000000034,-1922.15));
#587=CARTESIAN_POINT('',(-3495.00000000265,15410.0000000026,-1922.15));
#588=CARTESIAN_POINT('',(-1425.,18630.,-1922.15));
#589=CARTESIAN_POINT('',(-3494.99999999851,15410.0000000024,1003.4));
#590=CARTESIAN_POINT('',(-3495.,15410.,-1922.15));
#591=CARTESIAN_POINT('',(-1424.99999999695,18629.9999999981,1003.4));
#592=CARTESIAN_POINT('',(-3495.,15410.,1003.4));
#593=CARTESIAN_POINT('',(-1425.,18630.,1003.4));
#594=CARTESIAN_POINT('Origin',(-11505.,9380.,-262.5));
#595=CARTESIAN_POINT('',(-10425.0000000021,11179.9999999943,-1922.15));
#596=CARTESIAN_POINT('',(-12585.0000000061,7580.00000000454,-1922.15));
#597=CARTESIAN_POINT('',(-10425.,11180.,-1922.15));
#598=CARTESIAN_POINT('',(-12584.9999999976,7580.00000000515,1397.15));
#599=CARTESIAN_POINT('',(-12585.,7580.,-1922.15));
#600=CARTESIAN_POINT('',(-10424.9999999937,11179.9999999963,1397.15));
#601=CARTESIAN_POINT('',(-12585.,7580.,1397.15));
#602=CARTESIAN_POINT('',(-10425.,11180.,1397.15));
#603=CARTESIAN_POINT('Origin',(-2340.,14720.,1200.275));
#604=CARTESIAN_POINT('',(-1185.00000000652,14029.9999999999,1003.4));
#605=CARTESIAN_POINT('',(-1185.,14030.,1003.4));
#606=CARTESIAN_POINT('',(-3494.99999999632,15410.0000000056,1397.15));
#607=CARTESIAN_POINT('',(-3495.,15410.,1003.4));
#608=CARTESIAN_POINT('',(-1185.00000000167,14029.9999999972,1397.15));
#609=CARTESIAN_POINT('',(-3495.,15410.,1397.15));
#610=CARTESIAN_POINT('',(-1185.,14030.,1397.15));
#611=CARTESIAN_POINT('Origin',(527.,13010.,-9.320000000001));
#612=CARTESIAN_POINT('',(3095.00000000012,11480.0000000028,1397.15));
#613=CARTESIAN_POINT('',(-1185.,14030.,1397.15));
#614=CARTESIAN_POINT('',(3094.99999999288,11480.0000000047,-1922.15));
#615=CARTESIAN_POINT('',(3095.,11480.,1397.15));
#616=CARTESIAN_POINT('',(-1185.00000000256,14029.9999999971,-1922.15));
#617=CARTESIAN_POINT('',(3095.,11480.,-1922.15));
#618=CARTESIAN_POINT('',(-1185.,14030.,-1922.15));
#619=CARTESIAN_POINT('Origin',(-4759.,16226.,-9.320000000001));
#620=CARTESIAN_POINT('',(-6655.00000000539,17449.9999999913,-1922.15));
#621=CARTESIAN_POINT('',(-3495.,15410.,-1922.15));
#622=CARTESIAN_POINT('',(-6655.00000000004,17449.9999999996,1397.15));
#623=CARTESIAN_POINT('',(-6655.,17450.,-1922.15));
#624=CARTESIAN_POINT('',(-6655.,17450.,1397.15));
#625=CARTESIAN_POINT('Origin',(-225.,15635.,-459.375));
#626=CARTESIAN_POINT('',(734.999999998383,17239.9999999961,1003.4));
#627=CARTESIAN_POINT('',(735.,17240.,1003.4));
#628=CARTESIAN_POINT('',(735.000000006667,17239.9999999957,-1922.15));
#629=CARTESIAN_POINT('',(-1185.,14030.,-1922.15));
#630=CARTESIAN_POINT('',(735.,17240.,-1922.15));
#631=CARTESIAN_POINT('Origin',(-7735.,15700.,-262.5));
#632=CARTESIAN_POINT('',(-8814.9999999998,13950.0000000009,-1922.15));
#633=CARTESIAN_POINT('',(-6655.,17450.,-1922.15));
#634=CARTESIAN_POINT('',(-8814.9999999995,13950.0000000015,1397.15));
#635=CARTESIAN_POINT('',(-8815.,13950.,-1922.15));
#636=CARTESIAN_POINT('',(-8815.,13950.,1397.15));
#637=CARTESIAN_POINT('Origin',(-8920.,13980.,-262.5));
#638=CARTESIAN_POINT('',(-9025.0000000002,14009.9999999982,-1922.15));
#639=CARTESIAN_POINT('',(-8815.,13950.,-1922.15));
#640=CARTESIAN_POINT('',(-9024.99999999966,14009.9999999994,1397.15));
#641=CARTESIAN_POINT('',(-9025.,14010.,-1922.15));
#642=CARTESIAN_POINT('',(-9025.,14010.,1397.15));
#643=CARTESIAN_POINT('Origin',(-9830.,12635.,-262.5));
#644=CARTESIAN_POINT('',(-10635.0000000001,11260.0000000005,-1922.15));
#645=CARTESIAN_POINT('',(-9025.,14010.,-1922.15));
#646=CARTESIAN_POINT('',(-10634.9999999976,11260.0000000057,1397.15));
#647=CARTESIAN_POINT('',(-10635.,11260.,-1922.15));
#648=CARTESIAN_POINT('',(-10635.,11260.,1397.15));
#649=CARTESIAN_POINT('Origin',(-7820.,-16125.,-9.094947017729E-13));
#650=CARTESIAN_POINT('',(-3665.00000000081,-18630.0000000003,1922.15));
#651=CARTESIAN_POINT('',(-11974.999999998,-13619.9999999974,1922.15));
#652=CARTESIAN_POINT('',(-3665.,-18630.,1922.15));
#653=CARTESIAN_POINT('',(-11974.9999999936,-13620.0000000031,-1922.15));
#654=CARTESIAN_POINT('',(-11975.,-13620.,1922.15));
#655=CARTESIAN_POINT('',(-3665.00000000183,-18630.000000003,-1922.15));
#656=CARTESIAN_POINT('',(-11975.,-13620.,-1922.15));
#657=CARTESIAN_POINT('',(-3665.,-18630.,-1922.15));
#658=CARTESIAN_POINT('Origin',(4460.,-5035.,-9.094947017729E-13));
#659=CARTESIAN_POINT('',(12584.9999999995,8559.99999999898,1922.15));
#660=CARTESIAN_POINT('',(12585.,8560.,1922.15));
#661=CARTESIAN_POINT('',(12585.0000000001,8559.99999999923,-1922.15));
#662=CARTESIAN_POINT('',(-3665.,-18630.,-1922.15));
#663=CARTESIAN_POINT('',(12585.,8560.,-1922.15));
#664=CARTESIAN_POINT('Origin',(200.,6585.,1659.65));
#665=CARTESIAN_POINT('',(-2694.99999999824,1689.99999999753,1397.15));
#666=CARTESIAN_POINT('',(3095.,11480.,1397.15));
#667=CARTESIAN_POINT('',(-2694.99999999659,1689.99999999796,1922.15));
#668=CARTESIAN_POINT('',(-2695.,1690.,1397.15));
#669=CARTESIAN_POINT('',(3094.99999999754,11480.0000000015,1922.15));
#670=CARTESIAN_POINT('',(-2695.,1690.,1922.15));
#671=CARTESIAN_POINT('',(3095.,11480.,1922.15));
#672=CARTESIAN_POINT('Origin',(3587.,12312.,279.43));
#673=CARTESIAN_POINT('',(4325.0000000082,13559.9999999962,1922.15));
#674=CARTESIAN_POINT('',(3095.,11480.,1922.15));
#675=CARTESIAN_POINT('',(4325.00000000073,13560.0000000006,-1922.15));
#676=CARTESIAN_POINT('',(4325.,13560.,1922.15));
#677=CARTESIAN_POINT('',(4325.,13560.,-1922.15));
#678=CARTESIAN_POINT('Origin',(-5649.,-3183.199999988,279.43));
#679=CARTESIAN_POINT('',(-2695.00000000341,1689.99999999509,-1922.15));
#680=CARTESIAN_POINT('',(-2695.,1690.,1397.15));
#681=CARTESIAN_POINT('',(-10080.0000000034,-10492.9999999979,-1922.15));
#682=CARTESIAN_POINT('',(-2695.,1690.,-1922.15));
#683=CARTESIAN_POINT('',(-10080.0000000039,-10492.9999999977,1922.15));
#684=CARTESIAN_POINT('',(-10080.,-10493.,-1922.15));
#685=CARTESIAN_POINT('',(-10080.,-10493.,1922.15));
#686=CARTESIAN_POINT('Origin',(-11027.5,-12056.5,-9.094947017729E-13));
#687=CARTESIAN_POINT('',(-10080.,-10493.,-1922.15));
#688=CARTESIAN_POINT('',(-11975.,-13620.,1922.15));
#689=CARTESIAN_POINT('Origin',(8455.,11060.,-9.094947017729E-13));
#690=CARTESIAN_POINT('',(12585.,8560.,-1922.15));
#691=CARTESIAN_POINT('',(4325.,13560.,1922.15));
#692=CARTESIAN_POINT('Origin',(-10530.,11220.,-262.5));
#693=CARTESIAN_POINT('',(-10425.,11180.,1397.15));
#694=CARTESIAN_POINT('',(-10635.,11260.,-1922.15));
#695=CARTESIAN_POINT('Origin',(-345.,17935.,-459.375));
#696=CARTESIAN_POINT('',(735.,17240.,-1922.15));
#697=CARTESIAN_POINT('',(-1425.,18630.,1003.4));
#698=CARTESIAN_POINT('Origin',(-7640.,4635.,-262.5));
#699=CARTESIAN_POINT('',(-2695.,1690.,1397.15));
#700=CARTESIAN_POINT('',(-12585.,7580.,-1922.15));
#701=CARTESIAN_POINT('Origin',(-4230.588235289,7840.411765039,-1922.15));
#702=CARTESIAN_POINT('Origin',(-1201.428571388,-1064.714286029,1922.15));
#703=CARTESIAN_POINT('Origin',(-6242.,11804.,1397.15));
#704=CARTESIAN_POINT('Origin',(-1342.5,16327.5,1003.4));
#705=UNCERTAINTY_MEASURE_WITH_UNIT(LENGTH_MEASURE(0.01),#709,
'DISTANCE_ACCURACY_VALUE',
'Maximum model space distance between geometric entities at asserted c
onnectivities');
#706=UNCERTAINTY_MEASURE_WITH_UNIT(LENGTH_MEASURE(0.01),#709,
'DISTANCE_ACCURACY_VALUE',
'Maximum model space distance between geometric entities at asserted c
onnectivities');
#707=(
GEOMETRIC_REPRESENTATION_CONTEXT(3)
GLOBAL_UNCERTAINTY_ASSIGNED_CONTEXT((#705))
GLOBAL_UNIT_ASSIGNED_CONTEXT((#709,#711,#712))
REPRESENTATION_CONTEXT('','3D')
);
#708=(
GEOMETRIC_REPRESENTATION_CONTEXT(3)
GLOBAL_UNCERTAINTY_ASSIGNED_CONTEXT((#706))
GLOBAL_UNIT_ASSIGNED_CONTEXT((#709,#711,#712))
REPRESENTATION_CONTEXT('','3D')
);
#709=(
LENGTH_UNIT()
NAMED_UNIT(*)
SI_UNIT(.MILLI.,.METRE.)
);
#710=(
LENGTH_UNIT()
NAMED_UNIT(*)
SI_UNIT($,.METRE.)
);
#711=(
NAMED_UNIT(*)
PLANE_ANGLE_UNIT()
SI_UNIT($,.RADIAN.)
);
#712=(
NAMED_UNIT(*)
SI_UNIT($,.STERADIAN.)
SOLID_ANGLE_UNIT()
);
#713=SHAPE_DEFINITION_REPRESENTATION(#714,#715);
#714=PRODUCT_DEFINITION_SHAPE('',$,#717);
#715=SHAPE_REPRESENTATION('',(#453),#707);
#716=PRODUCT_DEFINITION_CONTEXT('part definition',#721,'design');
#717=PRODUCT_DEFINITION('Open CASCADE STEP translator 7.7 15',
'(\X2\672A4FDD5B58\X0\)',#718,#716);
#718=PRODUCT_DEFINITION_FORMATION('',$,#723);
#719=PRODUCT_RELATED_PRODUCT_CATEGORY('(\X2\672A4FDD5B58\X0\)',
'(\X2\672A4FDD5B58\X0\)',(#723));
#720=APPLICATION_PROTOCOL_DEFINITION('international standard',
'automotive_design',2009,#721);
#721=APPLICATION_CONTEXT(
'Core Data for Automotive Mechanical Design Process');
#722=PRODUCT_CONTEXT('part definition',#721,'mechanical');
#723=PRODUCT('Open CASCADE STEP translator 7.7 15','(\X2\672A4FDD5B58\X0\)',
'Open CASCADE Model',(#722));
#724=PRESENTATION_STYLE_ASSIGNMENT((#725));
#725=SURFACE_STYLE_USAGE(.BOTH.,#726);
#726=SURFACE_SIDE_STYLE('',(#727));
#727=SURFACE_STYLE_FILL_AREA(#728);
#728=FILL_AREA_STYLE('\X2\94A2\X0\ - \X2\7F0E5149\X0\',(#729));
#729=FILL_AREA_STYLE_COLOUR('\X2\94A2\X0\ - \X2\7F0E5149\X0\',#730);
#730=COLOUR_RGB('\X2\94A2\X0\ - \X2\7F0E5149\X0\',0.627450980392157,0.627450980392157,
0.627450980392157);
ENDSEC;
END-ISO-10303-21;
