# OBJ file generated from STEP using CadQuery
# Vertices: 36
# Faces: 20

v -0.788472 -0.618711 0.419466
v 0.468299 -0.618711 0.419466
v 0.468299 -0.618711 -0.419466
v -0.788472 -0.618711 -0.419466
v 0.468299 -0.618711 0.419466
v 0.468299 -0.000000 0.419466
v 0.468299 -0.000000 -0.419466
v 0.468299 -0.618711 -0.419466
v 0.468299 -0.000000 0.419466
v 0.788472 -0.000000 0.419466
v 0.788472 -0.000000 -0.419466
v 0.468299 -0.000000 -0.419466
v 0.788472 -0.000000 0.419466
v 0.788472 0.618711 0.419466
v 0.788472 0.618711 -0.419466
v 0.788472 -0.000000 -0.419466
v 0.788472 0.618711 0.419466
v -0.788472 0.618711 0.419466
v -0.788472 0.618711 -0.419466
v 0.788472 0.618711 -0.419466
v -0.788472 0.618711 0.419466
v -0.788472 -0.618711 0.419466
v -0.788472 -0.618711 -0.419466
v -0.788472 0.618711 -0.419466
v 0.468299 -0.618711 -0.419466
v 0.468299 -0.000000 -0.419466
v 0.788472 -0.000000 -0.419466
v 0.788472 0.618711 -0.419466
v -0.788472 0.618711 -0.419466
v -0.788472 -0.618711 -0.419466
v -0.788472 -0.618711 0.419466
v 0.468299 -0.618711 0.419466
v 0.468299 -0.000000 0.419466
v 0.788472 -0.000000 0.419466
v 0.788472 0.618711 0.419466
v -0.788472 0.618711 0.419466

f 3 2 1
f 3 1 4
f 7 6 5
f 7 5 8
f 12 10 9
f 11 10 12
f 15 14 13
f 15 13 16
f 19 18 17
f 19 17 20
f 23 22 21
f 23 21 24
f 26 30 29
f 26 25 30
f 28 27 26
f 28 26 29
f 33 31 32
f 33 36 31
f 35 33 34
f 35 36 33
