# OBJ file generated from STEP using CadQuery
# Vertices: 204
# Faces: 132

v 459.500000 528.207150 -236.436000
v 371.500000 645.207150 -236.436000
v 371.500000 645.207150 115.811000
v 459.500000 528.207150 115.811000
v -151.746200 723.309750 -236.436000
v -204.500000 690.207150 -236.436000
v -204.500000 690.207150 115.811000
v -151.746200 723.309750 115.811000
v -411.276707 400.559149 115.811000
v -475.499995 483.207154 115.811000
v -475.499999 483.207151 -236.436000
v -353.500000 326.207147 -236.436000
v -353.500001 326.207159 236.436000
v -411.276705 400.559149 236.436000
v -353.500000 326.207147 -236.436000
v -340.500000 227.207150 -236.436000
v -340.500000 227.207150 236.436000
v -353.500001 326.207159 236.436000
v -679.500000 -800.792850 236.436000
v -809.500000 163.207150 236.436000
v -809.500000 163.207150 -236.436000
v -679.500000 -800.792850 -236.436000
v 667.500000 -487.792850 115.811000
v 660.846700 -488.748050 115.811000
v 660.846700 -488.748050 -236.436000
v 667.500000 -487.792850 -236.436000
v 409.650200 -524.810850 115.811000
v 393.766199 -527.091240 115.811000
v 393.766199 -527.091243 236.436000
v 263.500001 -545.792857 236.436000
v 263.500000 -545.792847 -236.436000
v 409.650200 -524.810850 -236.436000
v 508.763900 -510.581650 115.811000
v 409.650200 -524.810850 115.811000
v 409.650200 -524.810850 -236.436000
v 508.763900 -510.581650 -236.436000
v 660.846700 -488.748050 115.811000
v 508.763900 -510.581650 115.811000
v 508.763900 -510.581650 -236.436000
v 660.846700 -488.748050 -236.436000
v 381.500000 754.207150 -236.436000
v 330.500000 772.207150 -236.436000
v 330.500000 772.207150 115.811000
v 381.500000 754.207150 115.811000
v 84.315200 797.679450 -236.436000
v 22.754400 788.243950 -236.436000
v 22.754400 788.243950 115.811000
v 84.315200 797.679450 115.811000
v 605.500000 640.207150 -236.436000
v 577.500000 620.207150 -236.436000
v 577.500000 620.207150 115.811000
v 605.500000 640.207150 115.811000
v 270.253400 787.990050 -236.436000
v 208.712200 797.551850 -236.436000
v 208.712200 797.551850 115.811000
v 270.253400 787.990050 115.811000
v 393.766199 -527.091240 115.811000
v 253.370900 478.968950 115.811000
v 253.370900 478.968950 236.436000
v 393.766199 -527.091243 236.436000
v 809.500000 377.207150 115.811000
v 782.500000 356.207150 115.811000
v 782.500000 356.207150 -236.436000
v 809.500000 377.207150 -236.436000
v 782.500000 356.207150 115.811000
v 574.500000 194.207150 115.811000
v 574.500000 194.207150 -236.436000
v 782.500000 356.207150 -236.436000
v 381.500000 754.207150 115.811000
v 371.500000 645.207150 115.811000
v 371.500000 645.207150 -236.436000
v 381.500000 754.207150 -236.436000
v 263.500001 -545.792857 236.436000
v 263.500000 -545.792847 -236.436000
v 280.500000 -667.792850 236.436000
v 280.500000 -667.792850 -236.436000
v -95.893800 750.864550 -236.436000
v -151.746200 723.309750 -236.436000
v -151.746200 723.309750 115.811000
v -95.893800 750.864550 115.811000
v -411.276705 400.559149 236.436000
v 253.370900 478.968950 236.436000
v 253.370900 478.968950 115.811000
v -411.276707 400.559149 115.811000
v 280.500000 -667.792850 236.436000
v -679.500000 -800.792850 236.436000
v -679.500000 -800.792850 -236.436000
v 280.500000 -667.792850 -236.436000
v 146.516900 800.792850 -236.436000
v 84.315200 797.679450 -236.436000
v 84.315200 797.679450 115.811000
v 146.516900 800.792850 115.811000
v 611.588400 -77.774450 -236.436000
v 574.500000 194.207150 -236.436000
v 574.500000 194.207150 115.811000
v 611.588400 -77.774450 115.811000
v 667.500000 -487.792850 -236.436000
v 629.169300 -206.701150 -236.436000
v 629.169300 -206.701150 115.811000
v 667.500000 -487.792850 115.811000
v 629.169300 -206.701150 -236.436000
v 611.588400 -77.774450 -236.436000
v 611.588400 -77.774450 115.811000
v 629.169300 -206.701150 115.811000
v 809.500000 377.207150 -236.436000
v 605.500000 640.207150 -236.436000
v 605.500000 640.207150 115.811000
v 809.500000 377.207150 115.811000
v 263.500000 -545.792847 -236.436000
v 409.650200 -524.810850 -236.436000
v 280.500000 -667.792850 -236.436000
v -679.500000 -800.792850 -236.436000
v -809.500000 163.207150 -236.436000
v -340.500000 227.207150 -236.436000
v -353.500000 326.207147 -236.436000
v -475.499999 483.207151 -236.436000
v -204.500000 690.207150 -236.436000
v -151.746200 723.309750 -236.436000
v -95.893800 750.864550 -236.436000
v -37.524400 772.584650 -236.436000
v 22.754400 788.243950 -236.436000
v 84.315200 797.679450 -236.436000
v 146.516900 800.792850 -236.436000
v 208.712200 797.551850 -236.436000
v 270.253400 787.990050 -236.436000
v 330.500000 772.207150 -236.436000
v 381.500000 754.207150 -236.436000
v 371.500000 645.207150 -236.436000
v 459.500000 528.207150 -236.436000
v 577.500000 620.207150 -236.436000
v 605.500000 640.207150 -236.436000
v 809.500000 377.207150 -236.436000
v 782.500000 356.207150 -236.436000
v 574.500000 194.207150 -236.436000
v 611.588400 -77.774450 -236.436000
v 629.169300 -206.701150 -236.436000
v 667.500000 -487.792850 -236.436000
v 660.846700 -488.748050 -236.436000
v 508.763900 -510.581650 -236.436000
v -95.893800 750.864550 -236.436000
v -37.524400 772.584650 -236.436000
v -95.893800 750.864550 115.811000
v -37.524400 772.584650 115.811000
v 146.516900 800.792850 -236.436000
v 208.712200 797.551850 -236.436000
v 146.516900 800.792850 115.811000
v 208.712200 797.551850 115.811000
v -475.499995 483.207154 115.811000
v -475.499999 483.207151 -236.436000
v -204.500000 690.207150 115.811000
v -204.500000 690.207150 -236.436000
v 459.500000 528.207150 -236.436000
v 577.500000 620.207150 -236.436000
v 459.500000 528.207150 115.811000
v 577.500000 620.207150 115.811000
v 270.253400 787.990050 -236.436000
v 330.500000 772.207150 -236.436000
v 270.253400 787.990050 115.811000
v 330.500000 772.207150 115.811000
v -809.500000 163.207150 -236.436000
v -340.500000 227.207150 -236.436000
v -809.500000 163.207150 236.436000
v -340.500000 227.207150 236.436000
v -37.524400 772.584650 -236.436000
v 22.754400 788.243950 -236.436000
v -37.524400 772.584650 115.811000
v 22.754400 788.243950 115.811000
v 508.763900 -510.581650 115.811000
v 409.650200 -524.810850 115.811000
v 660.846700 -488.748050 115.811000
v 667.500000 -487.792850 115.811000
v 629.169300 -206.701150 115.811000
v 611.588400 -77.774450 115.811000
v 574.500000 194.207150 115.811000
v 782.500000 356.207150 115.811000
v 809.500000 377.207150 115.811000
v 605.500000 640.207150 115.811000
v 577.500000 620.207150 115.811000
v 459.500000 528.207150 115.811000
v 371.500000 645.207150 115.811000
v 381.500000 754.207150 115.811000
v 330.500000 772.207150 115.811000
v 270.253400 787.990050 115.811000
v 208.712200 797.551850 115.811000
v 146.516900 800.792850 115.811000
v 84.315200 797.679450 115.811000
v 22.754400 788.243950 115.811000
v -37.524400 772.584650 115.811000
v -95.893800 750.864550 115.811000
v -151.746200 723.309750 115.811000
v -204.500000 690.207150 115.811000
v -475.499995 483.207154 115.811000
v -411.276707 400.559149 115.811000
v 253.370900 478.968950 115.811000
v 393.766199 -527.091240 115.811000
v -353.500001 326.207159 236.436000
v -411.276705 400.559149 236.436000
v -340.500000 227.207150 236.436000
v -809.500000 163.207150 236.436000
v -679.500000 -800.792850 236.436000
v 280.500000 -667.792850 236.436000
v 263.500001 -545.792857 236.436000
v 393.766199 -527.091243 236.436000
v 253.370900 478.968950 236.436000

f 3 1 2
f 4 1 3
f 8 5 6
f 8 6 7
f 9 13 14
f 11 9 10
f 12 9 11
f 12 13 9
f 15 17 18
f 16 17 15
f 19 20 21
f 22 19 21
f 26 23 24
f 26 24 25
f 28 29 30
f 31 28 30
f 32 27 28
f 32 28 31
f 36 33 34
f 36 34 35
f 39 37 38
f 40 37 39
f 44 41 42
f 44 42 43
f 47 45 46
f 48 45 47
f 51 49 50
f 52 49 51
f 55 53 54
f 56 53 55
f 57 58 59
f 60 57 59
f 64 61 62
f 64 62 63
f 68 65 66
f 68 66 67
f 72 69 70
f 72 70 71
f 73 76 74
f 75 76 73
f 80 77 78
f 80 78 79
f 83 84 81
f 82 83 81
f 85 86 87
f 88 85 87
f 92 89 90
f 92 90 91
f 95 93 94
f 96 93 95
f 100 97 98
f 100 98 99
f 103 101 102
f 104 101 103
f 108 105 106
f 108 106 107
f 128 119 120
f 128 120 121
f 128 121 122
f 128 122 123
f 128 123 124
f 128 124 125
f 128 125 126
f 128 126 127
f 133 129 130
f 133 130 131
f 133 131 132
f 115 116 117
f 115 117 118
f 115 118 119
f 115 119 128
f 134 129 133
f 114 128 129
f 114 115 128
f 114 129 134
f 135 114 134
f 138 136 137
f 139 136 138
f 110 136 139
f 109 135 136
f 109 114 135
f 109 136 110
f 112 109 111
f 112 113 114
f 112 114 109
f 142 141 140
f 143 141 142
f 146 145 144
f 147 145 146
f 148 151 149
f 150 151 148
f 154 153 152
f 155 153 154
f 159 157 156
f 159 156 158
f 163 161 160
f 163 160 162
f 167 165 164
f 167 164 166
f 172 169 168
f 172 168 170
f 172 170 171
f 172 195 169
f 173 195 172
f 177 175 176
f 178 175 177
f 179 174 175
f 179 175 178
f 194 173 174
f 194 195 173
f 194 174 179
f 180 194 179
f 182 180 181
f 183 180 182
f 184 194 180
f 184 180 183
f 185 194 184
f 186 194 185
f 187 194 186
f 188 194 187
f 189 194 188
f 190 194 189
f 191 193 194
f 191 194 190
f 192 193 191
f 196 204 197
f 198 204 196
f 202 203 204
f 202 204 198
f 200 198 199
f 200 201 202
f 200 202 198
