ISO-10303-21;
HEADER;
/* Generated by software containing ST-Developer
 * from STEP Tools, Inc. (www.steptools.com) 
 */

FILE_DESCRIPTION(
/* description */ ('Open CASCADE Model'),
/* implementation_level */ '2;1');

FILE_NAME(
/* name */ '13.step',
/* time_stamp */ '2025-12-23T14:05:32+08:00',
/* author */ (''),
/* organization */ (''),
/* preprocessor_version */ 'ST-DEVELOPER v20.1',
/* originating_system */ 'Autodesk Translation Framework v14.21.0.0',
/* authorisation */ '');

FILE_SCHEMA (('AUTOMOTIVE_DESIGN { 1 0 10303 214 3 1 1 }'));
ENDSEC;

DATA;
#10=MECHANICAL_DESIGN_GEOMETRIC_PRESENTATION_REPRESENTATION('',(#13),#1173);
#11=SHAPE_REPRESENTATION_RELATIONSHIP('SRR','None',#1180,#12);
#12=ADVANCED_BREP_SHAPE_REPRESENTATION('',(#14),#1172);
#13=STYLED_ITEM('',(#1189),#14);
#14=MANIFOLD_SOLID_BREP('\X2\5B9E4F53\X0\1',#737);
#15=FACE_OUTER_BOUND('',#51,.T.);
#16=FACE_OUTER_BOUND('',#52,.T.);
#17=FACE_OUTER_BOUND('',#53,.T.);
#18=FACE_OUTER_BOUND('',#54,.T.);
#19=FACE_OUTER_BOUND('',#55,.T.);
#20=FACE_OUTER_BOUND('',#56,.T.);
#21=FACE_OUTER_BOUND('',#57,.T.);
#22=FACE_OUTER_BOUND('',#58,.T.);
#23=FACE_OUTER_BOUND('',#59,.T.);
#24=FACE_OUTER_BOUND('',#60,.T.);
#25=FACE_OUTER_BOUND('',#61,.T.);
#26=FACE_OUTER_BOUND('',#62,.T.);
#27=FACE_OUTER_BOUND('',#63,.T.);
#28=FACE_OUTER_BOUND('',#64,.T.);
#29=FACE_OUTER_BOUND('',#65,.T.);
#30=FACE_OUTER_BOUND('',#66,.T.);
#31=FACE_OUTER_BOUND('',#67,.T.);
#32=FACE_OUTER_BOUND('',#68,.T.);
#33=FACE_OUTER_BOUND('',#69,.T.);
#34=FACE_OUTER_BOUND('',#70,.T.);
#35=FACE_OUTER_BOUND('',#71,.T.);
#36=FACE_OUTER_BOUND('',#72,.T.);
#37=FACE_OUTER_BOUND('',#73,.T.);
#38=FACE_OUTER_BOUND('',#74,.T.);
#39=FACE_OUTER_BOUND('',#75,.T.);
#40=FACE_OUTER_BOUND('',#76,.T.);
#41=FACE_OUTER_BOUND('',#77,.T.);
#42=FACE_OUTER_BOUND('',#78,.T.);
#43=FACE_OUTER_BOUND('',#79,.T.);
#44=FACE_OUTER_BOUND('',#80,.T.);
#45=FACE_OUTER_BOUND('',#81,.T.);
#46=FACE_OUTER_BOUND('',#82,.T.);
#47=FACE_OUTER_BOUND('',#83,.T.);
#48=FACE_OUTER_BOUND('',#84,.T.);
#49=FACE_OUTER_BOUND('',#85,.T.);
#50=FACE_OUTER_BOUND('',#86,.T.);
#51=EDGE_LOOP('',(#461,#462,#463,#464));
#52=EDGE_LOOP('',(#465,#466,#467,#468));
#53=EDGE_LOOP('',(#469,#470,#471,#472,#473,#474));
#54=EDGE_LOOP('',(#475,#476,#477,#478));
#55=EDGE_LOOP('',(#479,#480,#481,#482));
#56=EDGE_LOOP('',(#483,#484,#485,#486));
#57=EDGE_LOOP('',(#487,#488,#489,#490,#491,#492));
#58=EDGE_LOOP('',(#493,#494,#495,#496));
#59=EDGE_LOOP('',(#497,#498,#499,#500));
#60=EDGE_LOOP('',(#501,#502,#503,#504));
#61=EDGE_LOOP('',(#505,#506,#507,#508));
#62=EDGE_LOOP('',(#509,#510,#511,#512));
#63=EDGE_LOOP('',(#513,#514,#515,#516));
#64=EDGE_LOOP('',(#517,#518,#519,#520));
#65=EDGE_LOOP('',(#521,#522,#523,#524));
#66=EDGE_LOOP('',(#525,#526,#527,#528));
#67=EDGE_LOOP('',(#529,#530,#531,#532));
#68=EDGE_LOOP('',(#533,#534,#535,#536));
#69=EDGE_LOOP('',(#537,#538,#539,#540));
#70=EDGE_LOOP('',(#541,#542,#543,#544));
#71=EDGE_LOOP('',(#545,#546,#547,#548));
#72=EDGE_LOOP('',(#549,#550,#551,#552));
#73=EDGE_LOOP('',(#553,#554,#555,#556));
#74=EDGE_LOOP('',(#557,#558,#559,#560));
#75=EDGE_LOOP('',(#561,#562,#563,#564));
#76=EDGE_LOOP('',(#565,#566,#567,#568));
#77=EDGE_LOOP('',(#569,#570,#571,#572,#573,#574,#575,#576,#577,#578,#579,
#580,#581,#582,#583,#584,#585,#586,#587,#588,#589,#590,#591,#592,#593,#594,
#595,#596,#597,#598,#599));
#78=EDGE_LOOP('',(#600,#601,#602,#603));
#79=EDGE_LOOP('',(#604,#605,#606,#607));
#80=EDGE_LOOP('',(#608,#609,#610,#611));
#81=EDGE_LOOP('',(#612,#613,#614,#615));
#82=EDGE_LOOP('',(#616,#617,#618,#619));
#83=EDGE_LOOP('',(#620,#621,#622,#623));
#84=EDGE_LOOP('',(#624,#625,#626,#627));
#85=EDGE_LOOP('',(#628,#629,#630,#631,#632,#633,#634,#635,#636,#637,#638,
#639,#640,#641,#642,#643,#644,#645,#646,#647,#648,#649,#650,#651,#652,#653,
#654,#655));
#86=EDGE_LOOP('',(#656,#657,#658,#659,#660,#661,#662,#663,#664));
#87=LINE('',#967,#189);
#88=LINE('',#969,#190);
#89=LINE('',#971,#191);
#90=LINE('',#972,#192);
#91=LINE('',#976,#193);
#92=LINE('',#978,#194);
#93=LINE('',#980,#195);
#94=LINE('',#981,#196);
#95=LINE('',#985,#197);
#96=LINE('',#987,#198);
#97=LINE('',#989,#199);
#98=LINE('',#991,#200);
#99=LINE('',#993,#201);
#100=LINE('',#994,#202);
#101=LINE('',#997,#203);
#102=LINE('',#999,#204);
#103=LINE('',#1000,#205);
#104=LINE('',#1004,#206);
#105=LINE('',#1006,#207);
#106=LINE('',#1008,#208);
#107=LINE('',#1009,#209);
#108=LINE('',#1013,#210);
#109=LINE('',#1015,#211);
#110=LINE('',#1017,#212);
#111=LINE('',#1018,#213);
#112=LINE('',#1022,#214);
#113=LINE('',#1024,#215);
#114=LINE('',#1026,#216);
#115=LINE('',#1028,#217);
#116=LINE('',#1030,#218);
#117=LINE('',#1031,#219);
#118=LINE('',#1034,#220);
#119=LINE('',#1036,#221);
#120=LINE('',#1037,#222);
#121=LINE('',#1039,#223);
#122=LINE('',#1040,#224);
#123=LINE('',#1044,#225);
#124=LINE('',#1046,#226);
#125=LINE('',#1048,#227);
#126=LINE('',#1049,#228);
#127=LINE('',#1053,#229);
#128=LINE('',#1055,#230);
#129=LINE('',#1057,#231);
#130=LINE('',#1058,#232);
#131=LINE('',#1062,#233);
#132=LINE('',#1064,#234);
#133=LINE('',#1066,#235);
#134=LINE('',#1067,#236);
#135=LINE('',#1071,#237);
#136=LINE('',#1073,#238);
#137=LINE('',#1075,#239);
#138=LINE('',#1076,#240);
#139=LINE('',#1079,#241);
#140=LINE('',#1081,#242);
#141=LINE('',#1082,#243);
#142=LINE('',#1086,#244);
#143=LINE('',#1088,#245);
#144=LINE('',#1090,#246);
#145=LINE('',#1091,#247);
#146=LINE('',#1094,#248);
#147=LINE('',#1096,#249);
#148=LINE('',#1097,#250);
#149=LINE('',#1099,#251);
#150=LINE('',#1100,#252);
#151=LINE('',#1103,#253);
#152=LINE('',#1105,#254);
#153=LINE('',#1106,#255);
#154=LINE('',#1109,#256);
#155=LINE('',#1111,#257);
#156=LINE('',#1112,#258);
#157=LINE('',#1114,#259);
#158=LINE('',#1115,#260);
#159=LINE('',#1117,#261);
#160=LINE('',#1118,#262);
#161=LINE('',#1121,#263);
#162=LINE('',#1123,#264);
#163=LINE('',#1124,#265);
#164=LINE('',#1127,#266);
#165=LINE('',#1129,#267);
#166=LINE('',#1130,#268);
#167=LINE('',#1133,#269);
#168=LINE('',#1135,#270);
#169=LINE('',#1136,#271);
#170=LINE('',#1138,#272);
#171=LINE('',#1139,#273);
#172=LINE('',#1141,#274);
#173=LINE('',#1142,#275);
#174=LINE('',#1144,#276);
#175=LINE('',#1145,#277);
#176=LINE('',#1146,#278);
#177=LINE('',#1148,#279);
#178=LINE('',#1149,#280);
#179=LINE('',#1150,#281);
#180=LINE('',#1151,#282);
#181=LINE('',#1154,#283);
#182=LINE('',#1155,#284);
#183=LINE('',#1157,#285);
#184=LINE('',#1159,#286);
#185=LINE('',#1161,#287);
#186=LINE('',#1163,#288);
#187=LINE('',#1165,#289);
#188=LINE('',#1167,#290);
#189=VECTOR('',#791,1.00000000000012);
#190=VECTOR('',#792,1.);
#191=VECTOR('',#793,1.00000000000012);
#192=VECTOR('',#794,1.);
#193=VECTOR('',#797,0.99999999999959);
#194=VECTOR('',#798,1.);
#195=VECTOR('',#799,0.99999999999959);
#196=VECTOR('',#800,1.);
#197=VECTOR('',#803,0.999999999999975);
#198=VECTOR('',#804,1.);
#199=VECTOR('',#805,0.999999999999975);
#200=VECTOR('',#806,1.);
#201=VECTOR('',#807,0.999999999999975);
#202=VECTOR('',#808,1.);
#203=VECTOR('',#811,0.99999999999974);
#204=VECTOR('',#812,0.99999999999974);
#205=VECTOR('',#813,1.);
#206=VECTOR('',#816,1.00000000000047);
#207=VECTOR('',#817,1.);
#208=VECTOR('',#818,1.00000000000047);
#209=VECTOR('',#819,1.);
#210=VECTOR('',#822,0.999999999999631);
#211=VECTOR('',#823,1.);
#212=VECTOR('',#824,0.999999999999631);
#213=VECTOR('',#825,1.);
#214=VECTOR('',#828,0.999999999999702);
#215=VECTOR('',#829,1.);
#216=VECTOR('',#830,0.999999999999702);
#217=VECTOR('',#831,1.);
#218=VECTOR('',#832,0.999999999999702);
#219=VECTOR('',#833,1.);
#220=VECTOR('',#836,1.00000000000025);
#221=VECTOR('',#837,1.00000000000025);
#222=VECTOR('',#838,1.);
#223=VECTOR('',#841,0.999999999999939);
#224=VECTOR('',#842,0.999999999999939);
#225=VECTOR('',#845,1.00000000000022);
#226=VECTOR('',#846,1.);
#227=VECTOR('',#847,1.00000000000022);
#228=VECTOR('',#848,1.);
#229=VECTOR('',#851,0.999999999999776);
#230=VECTOR('',#852,1.);
#231=VECTOR('',#853,0.999999999999776);
#232=VECTOR('',#854,1.);
#233=VECTOR('',#857,1.00000000000028);
#234=VECTOR('',#858,1.);
#235=VECTOR('',#859,1.00000000000028);
#236=VECTOR('',#860,1.);
#237=VECTOR('',#863,1.00000000000002);
#238=VECTOR('',#864,1.);
#239=VECTOR('',#865,1.00000000000002);
#240=VECTOR('',#866,1.);
#241=VECTOR('',#869,0.999999999999691);
#242=VECTOR('',#870,1.);
#243=VECTOR('',#871,0.999999999999691);
#244=VECTOR('',#874,0.999999999999704);
#245=VECTOR('',#875,1.);
#246=VECTOR('',#876,0.999999999999704);
#247=VECTOR('',#877,1.);
#248=VECTOR('',#880,1.0000000000003);
#249=VECTOR('',#881,1.);
#250=VECTOR('',#882,1.0000000000003);
#251=VECTOR('',#885,0.999999999999564);
#252=VECTOR('',#886,0.999999999999564);
#253=VECTOR('',#889,1.0000000000003);
#254=VECTOR('',#890,1.0000000000003);
#255=VECTOR('',#891,1.);
#256=VECTOR('',#894,1.00000000000001);
#257=VECTOR('',#895,1.00000000000001);
#258=VECTOR('',#896,1.);
#259=VECTOR('',#899,0.999999999999735);
#260=VECTOR('',#900,0.999999999999735);
#261=VECTOR('',#903,1.0000000000002);
#262=VECTOR('',#904,1.0000000000002);
#263=VECTOR('',#907,1.00000000000018);
#264=VECTOR('',#908,1.00000000000018);
#265=VECTOR('',#909,1.);
#266=VECTOR('',#912,1.00000000000038);
#267=VECTOR('',#913,1.00000000000038);
#268=VECTOR('',#914,1.);
#269=VECTOR('',#917,0.999999999999527);
#270=VECTOR('',#918,1.);
#271=VECTOR('',#919,0.999999999999527);
#272=VECTOR('',#922,0.999999999999847);
#273=VECTOR('',#923,0.999999999999847);
#274=VECTOR('',#926,1.0000000000002);
#275=VECTOR('',#927,1.0000000000002);
#276=VECTOR('',#930,1.00000000000024);
#277=VECTOR('',#931,0.999999999999756);
#278=VECTOR('',#932,1.0000000000001);
#279=VECTOR('',#933,1.00000000000019);
#280=VECTOR('',#934,1.00000000000025);
#281=VECTOR('',#935,1.00000000000014);
#282=VECTOR('',#936,0.999999999999605);
#283=VECTOR('',#939,1.00000000000019);
#284=VECTOR('',#940,1.);
#285=VECTOR('',#943,1.00000000000014);
#286=VECTOR('',#946,1.0000000000001);
#287=VECTOR('',#949,1.00000000000024);
#288=VECTOR('',#952,0.999999999999605);
#289=VECTOR('',#955,0.999999999999756);
#290=VECTOR('',#958,1.00000000000025);
#291=VERTEX_POINT('',#965);
#292=VERTEX_POINT('',#966);
#293=VERTEX_POINT('',#968);
#294=VERTEX_POINT('',#970);
#295=VERTEX_POINT('',#974);
#296=VERTEX_POINT('',#975);
#297=VERTEX_POINT('',#977);
#298=VERTEX_POINT('',#979);
#299=VERTEX_POINT('',#983);
#300=VERTEX_POINT('',#984);
#301=VERTEX_POINT('',#986);
#302=VERTEX_POINT('',#988);
#303=VERTEX_POINT('',#990);
#304=VERTEX_POINT('',#992);
#305=VERTEX_POINT('',#996);
#306=VERTEX_POINT('',#998);
#307=VERTEX_POINT('',#1002);
#308=VERTEX_POINT('',#1003);
#309=VERTEX_POINT('',#1005);
#310=VERTEX_POINT('',#1007);
#311=VERTEX_POINT('',#1011);
#312=VERTEX_POINT('',#1012);
#313=VERTEX_POINT('',#1014);
#314=VERTEX_POINT('',#1016);
#315=VERTEX_POINT('',#1020);
#316=VERTEX_POINT('',#1021);
#317=VERTEX_POINT('',#1023);
#318=VERTEX_POINT('',#1025);
#319=VERTEX_POINT('',#1027);
#320=VERTEX_POINT('',#1029);
#321=VERTEX_POINT('',#1033);
#322=VERTEX_POINT('',#1035);
#323=VERTEX_POINT('',#1042);
#324=VERTEX_POINT('',#1043);
#325=VERTEX_POINT('',#1045);
#326=VERTEX_POINT('',#1047);
#327=VERTEX_POINT('',#1051);
#328=VERTEX_POINT('',#1052);
#329=VERTEX_POINT('',#1054);
#330=VERTEX_POINT('',#1056);
#331=VERTEX_POINT('',#1060);
#332=VERTEX_POINT('',#1061);
#333=VERTEX_POINT('',#1063);
#334=VERTEX_POINT('',#1065);
#335=VERTEX_POINT('',#1069);
#336=VERTEX_POINT('',#1070);
#337=VERTEX_POINT('',#1072);
#338=VERTEX_POINT('',#1074);
#339=VERTEX_POINT('',#1078);
#340=VERTEX_POINT('',#1080);
#341=VERTEX_POINT('',#1084);
#342=VERTEX_POINT('',#1085);
#343=VERTEX_POINT('',#1087);
#344=VERTEX_POINT('',#1089);
#345=VERTEX_POINT('',#1093);
#346=VERTEX_POINT('',#1095);
#347=VERTEX_POINT('',#1102);
#348=VERTEX_POINT('',#1104);
#349=VERTEX_POINT('',#1108);
#350=VERTEX_POINT('',#1110);
#351=VERTEX_POINT('',#1120);
#352=VERTEX_POINT('',#1122);
#353=VERTEX_POINT('',#1126);
#354=VERTEX_POINT('',#1128);
#355=VERTEX_POINT('',#1132);
#356=VERTEX_POINT('',#1134);
#357=VERTEX_POINT('',#1147);
#358=VERTEX_POINT('',#1153);
#359=EDGE_CURVE('',#291,#292,#87,.T.);
#360=EDGE_CURVE('',#292,#293,#88,.T.);
#361=EDGE_CURVE('',#293,#294,#89,.T.);
#362=EDGE_CURVE('',#294,#291,#90,.T.);
#363=EDGE_CURVE('',#295,#296,#91,.T.);
#364=EDGE_CURVE('',#296,#297,#92,.T.);
#365=EDGE_CURVE('',#297,#298,#93,.T.);
#366=EDGE_CURVE('',#298,#295,#94,.T.);
#367=EDGE_CURVE('',#299,#300,#95,.T.);
#368=EDGE_CURVE('',#300,#301,#96,.T.);
#369=EDGE_CURVE('',#301,#302,#97,.T.);
#370=EDGE_CURVE('',#302,#303,#98,.T.);
#371=EDGE_CURVE('',#303,#304,#99,.T.);
#372=EDGE_CURVE('',#304,#299,#100,.T.);
#373=EDGE_CURVE('',#305,#299,#101,.T.);
#374=EDGE_CURVE('',#304,#306,#102,.T.);
#375=EDGE_CURVE('',#306,#305,#103,.T.);
#376=EDGE_CURVE('',#307,#308,#104,.T.);
#377=EDGE_CURVE('',#308,#309,#105,.T.);
#378=EDGE_CURVE('',#309,#310,#106,.T.);
#379=EDGE_CURVE('',#310,#307,#107,.T.);
#380=EDGE_CURVE('',#311,#312,#108,.T.);
#381=EDGE_CURVE('',#312,#313,#109,.T.);
#382=EDGE_CURVE('',#313,#314,#110,.T.);
#383=EDGE_CURVE('',#314,#311,#111,.T.);
#384=EDGE_CURVE('',#315,#316,#112,.T.);
#385=EDGE_CURVE('',#316,#317,#113,.T.);
#386=EDGE_CURVE('',#317,#318,#114,.T.);
#387=EDGE_CURVE('',#318,#319,#115,.T.);
#388=EDGE_CURVE('',#319,#320,#116,.T.);
#389=EDGE_CURVE('',#320,#315,#117,.T.);
#390=EDGE_CURVE('',#321,#315,#118,.T.);
#391=EDGE_CURVE('',#320,#322,#119,.T.);
#392=EDGE_CURVE('',#322,#321,#120,.T.);
#393=EDGE_CURVE('',#312,#321,#121,.T.);
#394=EDGE_CURVE('',#322,#313,#122,.T.);
#395=EDGE_CURVE('',#323,#324,#123,.T.);
#396=EDGE_CURVE('',#324,#325,#124,.T.);
#397=EDGE_CURVE('',#325,#326,#125,.T.);
#398=EDGE_CURVE('',#326,#323,#126,.T.);
#399=EDGE_CURVE('',#327,#328,#127,.T.);
#400=EDGE_CURVE('',#328,#329,#128,.T.);
#401=EDGE_CURVE('',#329,#330,#129,.T.);
#402=EDGE_CURVE('',#330,#327,#130,.T.);
#403=EDGE_CURVE('',#331,#332,#131,.T.);
#404=EDGE_CURVE('',#332,#333,#132,.T.);
#405=EDGE_CURVE('',#333,#334,#133,.T.);
#406=EDGE_CURVE('',#334,#331,#134,.T.);
#407=EDGE_CURVE('',#335,#336,#135,.T.);
#408=EDGE_CURVE('',#336,#337,#136,.T.);
#409=EDGE_CURVE('',#337,#338,#137,.T.);
#410=EDGE_CURVE('',#338,#335,#138,.T.);
#411=EDGE_CURVE('',#316,#339,#139,.T.);
#412=EDGE_CURVE('',#339,#340,#140,.T.);
#413=EDGE_CURVE('',#340,#317,#141,.T.);
#414=EDGE_CURVE('',#341,#342,#142,.T.);
#415=EDGE_CURVE('',#342,#343,#143,.T.);
#416=EDGE_CURVE('',#343,#344,#144,.T.);
#417=EDGE_CURVE('',#344,#341,#145,.T.);
#418=EDGE_CURVE('',#342,#345,#146,.T.);
#419=EDGE_CURVE('',#345,#346,#147,.T.);
#420=EDGE_CURVE('',#346,#343,#148,.T.);
#421=EDGE_CURVE('',#326,#293,#149,.T.);
#422=EDGE_CURVE('',#292,#323,#150,.T.);
#423=EDGE_CURVE('',#347,#319,#151,.T.);
#424=EDGE_CURVE('',#318,#348,#152,.T.);
#425=EDGE_CURVE('',#348,#347,#153,.T.);
#426=EDGE_CURVE('',#349,#295,#154,.T.);
#427=EDGE_CURVE('',#298,#350,#155,.T.);
#428=EDGE_CURVE('',#350,#349,#156,.T.);
#429=EDGE_CURVE('',#339,#301,#157,.T.);
#430=EDGE_CURVE('',#300,#340,#158,.T.);
#431=EDGE_CURVE('',#348,#307,#159,.T.);
#432=EDGE_CURVE('',#310,#347,#160,.T.);
#433=EDGE_CURVE('',#351,#327,#161,.T.);
#434=EDGE_CURVE('',#330,#352,#162,.T.);
#435=EDGE_CURVE('',#352,#351,#163,.T.);
#436=EDGE_CURVE('',#353,#346,#164,.T.);
#437=EDGE_CURVE('',#345,#354,#165,.T.);
#438=EDGE_CURVE('',#354,#353,#166,.T.);
#439=EDGE_CURVE('',#314,#355,#167,.T.);
#440=EDGE_CURVE('',#355,#356,#168,.T.);
#441=EDGE_CURVE('',#356,#311,#169,.T.);
#442=EDGE_CURVE('',#355,#353,#170,.T.);
#443=EDGE_CURVE('',#354,#356,#171,.T.);
#444=EDGE_CURVE('',#344,#331,#172,.T.);
#445=EDGE_CURVE('',#334,#341,#173,.T.);
#446=EDGE_CURVE('',#291,#332,#174,.T.);
#447=EDGE_CURVE('',#309,#306,#175,.T.);
#448=EDGE_CURVE('',#303,#296,#176,.T.);
#449=EDGE_CURVE('',#349,#357,#177,.T.);
#450=EDGE_CURVE('',#357,#328,#178,.T.);
#451=EDGE_CURVE('',#351,#336,#179,.T.);
#452=EDGE_CURVE('',#335,#324,#180,.T.);
#453=EDGE_CURVE('',#350,#358,#181,.T.);
#454=EDGE_CURVE('',#358,#357,#182,.T.);
#455=EDGE_CURVE('',#352,#337,#183,.T.);
#456=EDGE_CURVE('',#302,#297,#184,.T.);
#457=EDGE_CURVE('',#294,#333,#185,.T.);
#458=EDGE_CURVE('',#338,#325,#186,.T.);
#459=EDGE_CURVE('',#308,#305,#187,.T.);
#460=EDGE_CURVE('',#358,#329,#188,.T.);
#461=ORIENTED_EDGE('',*,*,#359,.T.);
#462=ORIENTED_EDGE('',*,*,#360,.T.);
#463=ORIENTED_EDGE('',*,*,#361,.T.);
#464=ORIENTED_EDGE('',*,*,#362,.T.);
#465=ORIENTED_EDGE('',*,*,#363,.T.);
#466=ORIENTED_EDGE('',*,*,#364,.T.);
#467=ORIENTED_EDGE('',*,*,#365,.T.);
#468=ORIENTED_EDGE('',*,*,#366,.T.);
#469=ORIENTED_EDGE('',*,*,#367,.T.);
#470=ORIENTED_EDGE('',*,*,#368,.T.);
#471=ORIENTED_EDGE('',*,*,#369,.T.);
#472=ORIENTED_EDGE('',*,*,#370,.T.);
#473=ORIENTED_EDGE('',*,*,#371,.T.);
#474=ORIENTED_EDGE('',*,*,#372,.T.);
#475=ORIENTED_EDGE('',*,*,#373,.T.);
#476=ORIENTED_EDGE('',*,*,#372,.F.);
#477=ORIENTED_EDGE('',*,*,#374,.T.);
#478=ORIENTED_EDGE('',*,*,#375,.T.);
#479=ORIENTED_EDGE('',*,*,#376,.T.);
#480=ORIENTED_EDGE('',*,*,#377,.T.);
#481=ORIENTED_EDGE('',*,*,#378,.T.);
#482=ORIENTED_EDGE('',*,*,#379,.T.);
#483=ORIENTED_EDGE('',*,*,#380,.T.);
#484=ORIENTED_EDGE('',*,*,#381,.T.);
#485=ORIENTED_EDGE('',*,*,#382,.T.);
#486=ORIENTED_EDGE('',*,*,#383,.T.);
#487=ORIENTED_EDGE('',*,*,#384,.T.);
#488=ORIENTED_EDGE('',*,*,#385,.T.);
#489=ORIENTED_EDGE('',*,*,#386,.T.);
#490=ORIENTED_EDGE('',*,*,#387,.T.);
#491=ORIENTED_EDGE('',*,*,#388,.T.);
#492=ORIENTED_EDGE('',*,*,#389,.T.);
#493=ORIENTED_EDGE('',*,*,#390,.T.);
#494=ORIENTED_EDGE('',*,*,#389,.F.);
#495=ORIENTED_EDGE('',*,*,#391,.T.);
#496=ORIENTED_EDGE('',*,*,#392,.T.);
#497=ORIENTED_EDGE('',*,*,#393,.T.);
#498=ORIENTED_EDGE('',*,*,#392,.F.);
#499=ORIENTED_EDGE('',*,*,#394,.T.);
#500=ORIENTED_EDGE('',*,*,#381,.F.);
#501=ORIENTED_EDGE('',*,*,#395,.T.);
#502=ORIENTED_EDGE('',*,*,#396,.T.);
#503=ORIENTED_EDGE('',*,*,#397,.T.);
#504=ORIENTED_EDGE('',*,*,#398,.T.);
#505=ORIENTED_EDGE('',*,*,#399,.T.);
#506=ORIENTED_EDGE('',*,*,#400,.T.);
#507=ORIENTED_EDGE('',*,*,#401,.T.);
#508=ORIENTED_EDGE('',*,*,#402,.T.);
#509=ORIENTED_EDGE('',*,*,#403,.T.);
#510=ORIENTED_EDGE('',*,*,#404,.T.);
#511=ORIENTED_EDGE('',*,*,#405,.T.);
#512=ORIENTED_EDGE('',*,*,#406,.T.);
#513=ORIENTED_EDGE('',*,*,#407,.T.);
#514=ORIENTED_EDGE('',*,*,#408,.T.);
#515=ORIENTED_EDGE('',*,*,#409,.T.);
#516=ORIENTED_EDGE('',*,*,#410,.T.);
#517=ORIENTED_EDGE('',*,*,#411,.T.);
#518=ORIENTED_EDGE('',*,*,#412,.T.);
#519=ORIENTED_EDGE('',*,*,#413,.T.);
#520=ORIENTED_EDGE('',*,*,#385,.F.);
#521=ORIENTED_EDGE('',*,*,#414,.T.);
#522=ORIENTED_EDGE('',*,*,#415,.T.);
#523=ORIENTED_EDGE('',*,*,#416,.T.);
#524=ORIENTED_EDGE('',*,*,#417,.T.);
#525=ORIENTED_EDGE('',*,*,#418,.T.);
#526=ORIENTED_EDGE('',*,*,#419,.T.);
#527=ORIENTED_EDGE('',*,*,#420,.T.);
#528=ORIENTED_EDGE('',*,*,#415,.F.);
#529=ORIENTED_EDGE('',*,*,#421,.T.);
#530=ORIENTED_EDGE('',*,*,#360,.F.);
#531=ORIENTED_EDGE('',*,*,#422,.T.);
#532=ORIENTED_EDGE('',*,*,#398,.F.);
#533=ORIENTED_EDGE('',*,*,#423,.T.);
#534=ORIENTED_EDGE('',*,*,#387,.F.);
#535=ORIENTED_EDGE('',*,*,#424,.T.);
#536=ORIENTED_EDGE('',*,*,#425,.T.);
#537=ORIENTED_EDGE('',*,*,#426,.T.);
#538=ORIENTED_EDGE('',*,*,#366,.F.);
#539=ORIENTED_EDGE('',*,*,#427,.T.);
#540=ORIENTED_EDGE('',*,*,#428,.T.);
#541=ORIENTED_EDGE('',*,*,#429,.T.);
#542=ORIENTED_EDGE('',*,*,#368,.F.);
#543=ORIENTED_EDGE('',*,*,#430,.T.);
#544=ORIENTED_EDGE('',*,*,#412,.F.);
#545=ORIENTED_EDGE('',*,*,#431,.T.);
#546=ORIENTED_EDGE('',*,*,#379,.F.);
#547=ORIENTED_EDGE('',*,*,#432,.T.);
#548=ORIENTED_EDGE('',*,*,#425,.F.);
#549=ORIENTED_EDGE('',*,*,#433,.T.);
#550=ORIENTED_EDGE('',*,*,#402,.F.);
#551=ORIENTED_EDGE('',*,*,#434,.T.);
#552=ORIENTED_EDGE('',*,*,#435,.T.);
#553=ORIENTED_EDGE('',*,*,#436,.T.);
#554=ORIENTED_EDGE('',*,*,#419,.F.);
#555=ORIENTED_EDGE('',*,*,#437,.T.);
#556=ORIENTED_EDGE('',*,*,#438,.T.);
#557=ORIENTED_EDGE('',*,*,#439,.T.);
#558=ORIENTED_EDGE('',*,*,#440,.T.);
#559=ORIENTED_EDGE('',*,*,#441,.T.);
#560=ORIENTED_EDGE('',*,*,#383,.F.);
#561=ORIENTED_EDGE('',*,*,#442,.T.);
#562=ORIENTED_EDGE('',*,*,#438,.F.);
#563=ORIENTED_EDGE('',*,*,#443,.T.);
#564=ORIENTED_EDGE('',*,*,#440,.F.);
#565=ORIENTED_EDGE('',*,*,#444,.T.);
#566=ORIENTED_EDGE('',*,*,#406,.F.);
#567=ORIENTED_EDGE('',*,*,#445,.T.);
#568=ORIENTED_EDGE('',*,*,#417,.F.);
#569=ORIENTED_EDGE('',*,*,#446,.T.);
#570=ORIENTED_EDGE('',*,*,#403,.F.);
#571=ORIENTED_EDGE('',*,*,#444,.F.);
#572=ORIENTED_EDGE('',*,*,#416,.F.);
#573=ORIENTED_EDGE('',*,*,#420,.F.);
#574=ORIENTED_EDGE('',*,*,#436,.F.);
#575=ORIENTED_EDGE('',*,*,#442,.F.);
#576=ORIENTED_EDGE('',*,*,#439,.F.);
#577=ORIENTED_EDGE('',*,*,#382,.F.);
#578=ORIENTED_EDGE('',*,*,#394,.F.);
#579=ORIENTED_EDGE('',*,*,#391,.F.);
#580=ORIENTED_EDGE('',*,*,#388,.F.);
#581=ORIENTED_EDGE('',*,*,#423,.F.);
#582=ORIENTED_EDGE('',*,*,#432,.F.);
#583=ORIENTED_EDGE('',*,*,#378,.F.);
#584=ORIENTED_EDGE('',*,*,#447,.T.);
#585=ORIENTED_EDGE('',*,*,#374,.F.);
#586=ORIENTED_EDGE('',*,*,#371,.F.);
#587=ORIENTED_EDGE('',*,*,#448,.T.);
#588=ORIENTED_EDGE('',*,*,#363,.F.);
#589=ORIENTED_EDGE('',*,*,#426,.F.);
#590=ORIENTED_EDGE('',*,*,#449,.T.);
#591=ORIENTED_EDGE('',*,*,#450,.T.);
#592=ORIENTED_EDGE('',*,*,#399,.F.);
#593=ORIENTED_EDGE('',*,*,#433,.F.);
#594=ORIENTED_EDGE('',*,*,#451,.T.);
#595=ORIENTED_EDGE('',*,*,#407,.F.);
#596=ORIENTED_EDGE('',*,*,#452,.T.);
#597=ORIENTED_EDGE('',*,*,#395,.F.);
#598=ORIENTED_EDGE('',*,*,#422,.F.);
#599=ORIENTED_EDGE('',*,*,#359,.F.);
#600=ORIENTED_EDGE('',*,*,#449,.F.);
#601=ORIENTED_EDGE('',*,*,#428,.F.);
#602=ORIENTED_EDGE('',*,*,#453,.T.);
#603=ORIENTED_EDGE('',*,*,#454,.T.);
#604=ORIENTED_EDGE('',*,*,#451,.F.);
#605=ORIENTED_EDGE('',*,*,#435,.F.);
#606=ORIENTED_EDGE('',*,*,#455,.T.);
#607=ORIENTED_EDGE('',*,*,#408,.F.);
#608=ORIENTED_EDGE('',*,*,#448,.F.);
#609=ORIENTED_EDGE('',*,*,#370,.F.);
#610=ORIENTED_EDGE('',*,*,#456,.T.);
#611=ORIENTED_EDGE('',*,*,#364,.F.);
#612=ORIENTED_EDGE('',*,*,#446,.F.);
#613=ORIENTED_EDGE('',*,*,#362,.F.);
#614=ORIENTED_EDGE('',*,*,#457,.T.);
#615=ORIENTED_EDGE('',*,*,#404,.F.);
#616=ORIENTED_EDGE('',*,*,#452,.F.);
#617=ORIENTED_EDGE('',*,*,#410,.F.);
#618=ORIENTED_EDGE('',*,*,#458,.T.);
#619=ORIENTED_EDGE('',*,*,#396,.F.);
#620=ORIENTED_EDGE('',*,*,#447,.F.);
#621=ORIENTED_EDGE('',*,*,#377,.F.);
#622=ORIENTED_EDGE('',*,*,#459,.T.);
#623=ORIENTED_EDGE('',*,*,#375,.F.);
#624=ORIENTED_EDGE('',*,*,#450,.F.);
#625=ORIENTED_EDGE('',*,*,#454,.F.);
#626=ORIENTED_EDGE('',*,*,#460,.T.);
#627=ORIENTED_EDGE('',*,*,#400,.F.);
#628=ORIENTED_EDGE('',*,*,#429,.F.);
#629=ORIENTED_EDGE('',*,*,#411,.F.);
#630=ORIENTED_EDGE('',*,*,#384,.F.);
#631=ORIENTED_EDGE('',*,*,#390,.F.);
#632=ORIENTED_EDGE('',*,*,#393,.F.);
#633=ORIENTED_EDGE('',*,*,#380,.F.);
#634=ORIENTED_EDGE('',*,*,#441,.F.);
#635=ORIENTED_EDGE('',*,*,#443,.F.);
#636=ORIENTED_EDGE('',*,*,#437,.F.);
#637=ORIENTED_EDGE('',*,*,#418,.F.);
#638=ORIENTED_EDGE('',*,*,#414,.F.);
#639=ORIENTED_EDGE('',*,*,#445,.F.);
#640=ORIENTED_EDGE('',*,*,#405,.F.);
#641=ORIENTED_EDGE('',*,*,#457,.F.);
#642=ORIENTED_EDGE('',*,*,#361,.F.);
#643=ORIENTED_EDGE('',*,*,#421,.F.);
#644=ORIENTED_EDGE('',*,*,#397,.F.);
#645=ORIENTED_EDGE('',*,*,#458,.F.);
#646=ORIENTED_EDGE('',*,*,#409,.F.);
#647=ORIENTED_EDGE('',*,*,#455,.F.);
#648=ORIENTED_EDGE('',*,*,#434,.F.);
#649=ORIENTED_EDGE('',*,*,#401,.F.);
#650=ORIENTED_EDGE('',*,*,#460,.F.);
#651=ORIENTED_EDGE('',*,*,#453,.F.);
#652=ORIENTED_EDGE('',*,*,#427,.F.);
#653=ORIENTED_EDGE('',*,*,#365,.F.);
#654=ORIENTED_EDGE('',*,*,#456,.F.);
#655=ORIENTED_EDGE('',*,*,#369,.F.);
#656=ORIENTED_EDGE('',*,*,#413,.F.);
#657=ORIENTED_EDGE('',*,*,#430,.F.);
#658=ORIENTED_EDGE('',*,*,#367,.F.);
#659=ORIENTED_EDGE('',*,*,#373,.F.);
#660=ORIENTED_EDGE('',*,*,#459,.F.);
#661=ORIENTED_EDGE('',*,*,#376,.F.);
#662=ORIENTED_EDGE('',*,*,#431,.F.);
#663=ORIENTED_EDGE('',*,*,#424,.F.);
#664=ORIENTED_EDGE('',*,*,#386,.F.);
#665=PLANE('',#751);
#666=PLANE('',#752);
#667=PLANE('',#753);
#668=PLANE('',#754);
#669=PLANE('',#755);
#670=PLANE('',#756);
#671=PLANE('',#757);
#672=PLANE('',#758);
#673=PLANE('',#759);
#674=PLANE('',#760);
#675=PLANE('',#761);
#676=PLANE('',#762);
#677=PLANE('',#763);
#678=PLANE('',#764);
#679=PLANE('',#765);
#680=PLANE('',#766);
#681=PLANE('',#767);
#682=PLANE('',#768);
#683=PLANE('',#769);
#684=PLANE('',#770);
#685=PLANE('',#771);
#686=PLANE('',#772);
#687=PLANE('',#773);
#688=PLANE('',#774);
#689=PLANE('',#775);
#690=PLANE('',#776);
#691=PLANE('',#777);
#692=PLANE('',#778);
#693=PLANE('',#779);
#694=PLANE('',#780);
#695=PLANE('',#781);
#696=PLANE('',#782);
#697=PLANE('',#783);
#698=PLANE('',#784);
#699=PLANE('',#785);
#700=PLANE('',#786);
#701=ADVANCED_FACE('',(#15),#665,.T.);
#702=ADVANCED_FACE('',(#16),#666,.T.);
#703=ADVANCED_FACE('',(#17),#667,.T.);
#704=ADVANCED_FACE('',(#18),#668,.T.);
#705=ADVANCED_FACE('',(#19),#669,.T.);
#706=ADVANCED_FACE('',(#20),#670,.T.);
#707=ADVANCED_FACE('',(#21),#671,.T.);
#708=ADVANCED_FACE('',(#22),#672,.T.);
#709=ADVANCED_FACE('',(#23),#673,.T.);
#710=ADVANCED_FACE('',(#24),#674,.T.);
#711=ADVANCED_FACE('',(#25),#675,.T.);
#712=ADVANCED_FACE('',(#26),#676,.T.);
#713=ADVANCED_FACE('',(#27),#677,.T.);
#714=ADVANCED_FACE('',(#28),#678,.T.);
#715=ADVANCED_FACE('',(#29),#679,.T.);
#716=ADVANCED_FACE('',(#30),#680,.T.);
#717=ADVANCED_FACE('',(#31),#681,.T.);
#718=ADVANCED_FACE('',(#32),#682,.T.);
#719=ADVANCED_FACE('',(#33),#683,.T.);
#720=ADVANCED_FACE('',(#34),#684,.T.);
#721=ADVANCED_FACE('',(#35),#685,.T.);
#722=ADVANCED_FACE('',(#36),#686,.T.);
#723=ADVANCED_FACE('',(#37),#687,.T.);
#724=ADVANCED_FACE('',(#38),#688,.T.);
#725=ADVANCED_FACE('',(#39),#689,.T.);
#726=ADVANCED_FACE('',(#40),#690,.T.);
#727=ADVANCED_FACE('',(#41),#691,.T.);
#728=ADVANCED_FACE('',(#42),#692,.T.);
#729=ADVANCED_FACE('',(#43),#693,.T.);
#730=ADVANCED_FACE('',(#44),#694,.T.);
#731=ADVANCED_FACE('',(#45),#695,.T.);
#732=ADVANCED_FACE('',(#46),#696,.T.);
#733=ADVANCED_FACE('',(#47),#697,.T.);
#734=ADVANCED_FACE('',(#48),#698,.T.);
#735=ADVANCED_FACE('',(#49),#699,.T.);
#736=ADVANCED_FACE('',(#50),#700,.T.);
#737=CLOSED_SHELL('',(#701,#702,#703,#704,#705,#706,#707,#708,#709,#710,
#711,#712,#713,#714,#715,#716,#717,#718,#719,#720,#721,#722,#723,#724,#725,
#726,#727,#728,#729,#730,#731,#732,#733,#734,#735,#736));
#738=DERIVED_UNIT_ELEMENT(#740,1.);
#739=DERIVED_UNIT_ELEMENT(#1175,-3.);
#740=(
MASS_UNIT()
NAMED_UNIT(*)
SI_UNIT(.KILO.,.GRAM.)
);
#741=DERIVED_UNIT((#738,#739));
#742=MEASURE_REPRESENTATION_ITEM('density measure',
POSITIVE_RATIO_MEASURE(7850.),#741);
#743=PROPERTY_DEFINITION_REPRESENTATION(#748,#745);
#744=PROPERTY_DEFINITION_REPRESENTATION(#749,#746);
#745=REPRESENTATION('material name',(#747),#1172);
#746=REPRESENTATION('density',(#742),#1172);
#747=DESCRIPTIVE_REPRESENTATION_ITEM('\X2\94A2\X0\','\X2\94A2\X0\');
#748=PROPERTY_DEFINITION('material property','material name',#1182);
#749=PROPERTY_DEFINITION('material property','density of part',#1182);
#750=AXIS2_PLACEMENT_3D('',#963,#787,#788);
#751=AXIS2_PLACEMENT_3D('',#964,#789,#790);
#752=AXIS2_PLACEMENT_3D('',#973,#795,#796);
#753=AXIS2_PLACEMENT_3D('',#982,#801,#802);
#754=AXIS2_PLACEMENT_3D('',#995,#809,#810);
#755=AXIS2_PLACEMENT_3D('',#1001,#814,#815);
#756=AXIS2_PLACEMENT_3D('',#1010,#820,#821);
#757=AXIS2_PLACEMENT_3D('',#1019,#826,#827);
#758=AXIS2_PLACEMENT_3D('',#1032,#834,#835);
#759=AXIS2_PLACEMENT_3D('',#1038,#839,#840);
#760=AXIS2_PLACEMENT_3D('',#1041,#843,#844);
#761=AXIS2_PLACEMENT_3D('',#1050,#849,#850);
#762=AXIS2_PLACEMENT_3D('',#1059,#855,#856);
#763=AXIS2_PLACEMENT_3D('',#1068,#861,#862);
#764=AXIS2_PLACEMENT_3D('',#1077,#867,#868);
#765=AXIS2_PLACEMENT_3D('',#1083,#872,#873);
#766=AXIS2_PLACEMENT_3D('',#1092,#878,#879);
#767=AXIS2_PLACEMENT_3D('',#1098,#883,#884);
#768=AXIS2_PLACEMENT_3D('',#1101,#887,#888);
#769=AXIS2_PLACEMENT_3D('',#1107,#892,#893);
#770=AXIS2_PLACEMENT_3D('',#1113,#897,#898);
#771=AXIS2_PLACEMENT_3D('',#1116,#901,#902);
#772=AXIS2_PLACEMENT_3D('',#1119,#905,#906);
#773=AXIS2_PLACEMENT_3D('',#1125,#910,#911);
#774=AXIS2_PLACEMENT_3D('',#1131,#915,#916);
#775=AXIS2_PLACEMENT_3D('',#1137,#920,#921);
#776=AXIS2_PLACEMENT_3D('',#1140,#924,#925);
#777=AXIS2_PLACEMENT_3D('',#1143,#928,#929);
#778=AXIS2_PLACEMENT_3D('',#1152,#937,#938);
#779=AXIS2_PLACEMENT_3D('',#1156,#941,#942);
#780=AXIS2_PLACEMENT_3D('',#1158,#944,#945);
#781=AXIS2_PLACEMENT_3D('',#1160,#947,#948);
#782=AXIS2_PLACEMENT_3D('',#1162,#950,#951);
#783=AXIS2_PLACEMENT_3D('',#1164,#953,#954);
#784=AXIS2_PLACEMENT_3D('',#1166,#956,#957);
#785=AXIS2_PLACEMENT_3D('',#1168,#959,#960);
#786=AXIS2_PLACEMENT_3D('',#1169,#961,#962);
#787=DIRECTION('axis',(0.,0.,1.));
#788=DIRECTION('refdir',(1.,0.,0.));
#789=DIRECTION('center_axis',(0.799179582122066,0.60109233526905,0.));
#790=DIRECTION('ref_axis',(0.,0.,1.));
#791=DIRECTION('',(-0.601092335271927,0.799179582119902,0.));
#792=DIRECTION('',(0.,0.,1.));
#793=DIRECTION('',(0.601092335271927,-0.799179582119902,0.));
#794=DIRECTION('',(0.,0.,-1.));
#795=DIRECTION('center_axis',(-0.531516145777988,0.847048160836981,0.));
#796=DIRECTION('ref_axis',(0.,0.,1.));
#797=DIRECTION('',(-0.847048160839347,-0.531516145774218,0.));
#798=DIRECTION('',(0.,0.,1.));
#799=DIRECTION('',(0.847048160839347,0.531516145774218,0.));
#800=DIRECTION('',(0.,0.,-1.));
#801=DIRECTION('center_axis',(-0.78962296648902,-0.613592349034015,1.29008430179803E-8));
#802=DIRECTION('ref_axis',(-1.0186802698048E-8,-7.91585758876544E-9,-1.));
#803=DIRECTION('',(-0.613592349034015,0.78962296648902,-9.08847241781823E-18));
#804=DIRECTION('',(-1.49660071844E-8,-1.765569649372E-9,-1.));
#805=DIRECTION('',(-0.613592349034015,0.78962296648902,-6.96871207221117E-18));
#806=DIRECTION('',(-1.025253282255E-8,-7.8312704586E-9,-1.));
#807=DIRECTION('',(0.613592349034015,-0.78962296648902,1.24685930114003E-17));
#808=DIRECTION('',(-3.322289063855E-9,2.530050902453E-8,1.));
#809=DIRECTION('center_axis',(-0.99148834962495,-0.130195439850993,0.));
#810=DIRECTION('ref_axis',(0.,0.,-1.));
#811=DIRECTION('',(-0.130195439841034,0.991488349626258,0.));
#812=DIRECTION('',(0.130195439841034,-0.991488349626258,0.));
#813=DIRECTION('',(0.,0.,1.));
#814=DIRECTION('center_axis',(-0.99102926654067,-0.133645025570956,0.));
#815=DIRECTION('ref_axis',(0.,0.,-1.));
#816=DIRECTION('',(-0.133645025571938,0.991029266540538,0.));
#817=DIRECTION('',(0.,0.,-1.));
#818=DIRECTION('',(0.133645025571938,-0.991029266540538,0.));
#819=DIRECTION('',(0.,0.,1.));
#820=DIRECTION('center_axis',(0.142110749978052,-0.989850763873361,0.));
#821=DIRECTION('ref_axis',(0.,0.,-1.));
#822=DIRECTION('',(-0.989850763874366,-0.142110749971052,0.));
#823=DIRECTION('',(0.,0.,-1.));
#824=DIRECTION('',(0.989850763874366,0.142110749971052,0.));
#825=DIRECTION('',(0.,0.,1.));
#826=DIRECTION('center_axis',(0.142107593484042,-0.989851217039295,-2.08364493808262E-8));
#827=DIRECTION('ref_axis',(-2.96104300032592E-9,2.06249811430364E-8,-1.));
#828=DIRECTION('',(-0.989851217039295,-0.142107593484042,-1.12419721933234E-17));
#829=DIRECTION('',(2.879834854643E-9,-2.063663975794E-8,1.));
#830=DIRECTION('',(-0.989851217039295,-0.142107593484042,-1.46615835382744E-17));
#831=DIRECTION('',(-2.875680451612E-9,2.063723618315E-8,-1.));
#832=DIRECTION('',(0.989851217039295,0.142107593484042,2.0114416332826E-17));
#833=DIRECTION('',(0.,0.,1.));
#834=DIRECTION('center_axis',(0.142107411088965,-0.989851243224754,0.));
#835=DIRECTION('ref_axis',(0.,0.,-1.));
#836=DIRECTION('',(-0.989851243224755,-0.142107411088965,0.));
#837=DIRECTION('',(0.989851243224755,0.142107411088965,0.));
#838=DIRECTION('',(0.,0.,1.));
#839=DIRECTION('center_axis',(0.142106915809029,-0.9898513143292,0.));
#840=DIRECTION('ref_axis',(0.,0.,-1.));
#841=DIRECTION('',(-0.98985131432906,-0.142106915810009,0.));
#842=DIRECTION('',(0.98985131432906,0.142106915810009,0.));
#843=DIRECTION('center_axis',(0.332820117726925,0.942990333585788,0.));
#844=DIRECTION('ref_axis',(0.,0.,1.));
#845=DIRECTION('',(-0.942990333585788,0.332820117726925,0.));
#846=DIRECTION('',(0.,0.,1.));
#847=DIRECTION('',(0.942990333585788,-0.332820117726925,0.));
#848=DIRECTION('',(0.,0.,-1.));
#849=DIRECTION('center_axis',(-0.151502019690011,0.988456947990072,0.));
#850=DIRECTION('ref_axis',(0.,0.,1.));
#851=DIRECTION('',(-0.988456947990222,-0.151502019689034,0.));
#852=DIRECTION('',(0.,0.,1.));
#853=DIRECTION('',(0.988456947990222,0.151502019689034,0.));
#854=DIRECTION('',(0.,0.,-1.));
#855=DIRECTION('center_axis',(-0.581238193748042,0.813733471186059,0.));
#856=DIRECTION('ref_axis',(0.,0.,1.));
#857=DIRECTION('',(-0.813733471189776,-0.58123819374284,0.));
#858=DIRECTION('',(0.,0.,1.));
#859=DIRECTION('',(0.813733471189776,0.58123819374284,0.));
#860=DIRECTION('',(0.,0.,-1.));
#861=DIRECTION('center_axis',(0.153530233884996,0.988143950688977,0.));
#862=DIRECTION('ref_axis',(0.,0.,1.));
#863=DIRECTION('',(-0.988143950688977,0.153530233884996,0.));
#864=DIRECTION('',(0.,0.,1.));
#865=DIRECTION('',(0.988143950688977,-0.153530233884996,0.));
#866=DIRECTION('',(0.,0.,-1.));
#867=DIRECTION('center_axis',(0.990402900171306,0.138210330049043,0.));
#868=DIRECTION('ref_axis',(0.,0.,1.));
#869=DIRECTION('',(-0.138210330049043,0.990402900171306,0.));
#870=DIRECTION('',(0.,0.,1.));
#871=DIRECTION('',(0.138210330049043,-0.990402900171306,0.));
#872=DIRECTION('center_axis',(0.61394061355902,-0.789352217342026,0.));
#873=DIRECTION('ref_axis',(0.,0.,-1.));
#874=DIRECTION('',(-0.789352217351234,-0.613940613547182,0.));
#875=DIRECTION('',(0.,0.,-1.));
#876=DIRECTION('',(0.789352217351234,0.613940613547182,0.));
#877=DIRECTION('',(0.,0.,1.));
#878=DIRECTION('center_axis',(0.61446566195471,-0.788943565965627,0.));
#879=DIRECTION('ref_axis',(0.,0.,-1.));
#880=DIRECTION('',(-0.788943565964765,-0.614465661955817,0.));
#881=DIRECTION('',(0.,0.,-1.));
#882=DIRECTION('',(0.788943565964765,0.614465661955817,0.));
#883=DIRECTION('center_axis',(0.995817981008337,-0.0913594477899209,0.));
#884=DIRECTION('ref_axis',(0.,0.,-1.));
#885=DIRECTION('',(-0.0913594477888598,-0.995817981008434,0.));
#886=DIRECTION('',(0.0913594477888598,0.995817981008434,0.));
#887=DIRECTION('center_axis',(0.990430718745974,0.138010837850996,0.));
#888=DIRECTION('ref_axis',(0.,0.,1.));
#889=DIRECTION('',(-0.138010837852958,0.9904307187457,0.));
#890=DIRECTION('',(0.138010837852958,-0.9904307187457,0.));
#891=DIRECTION('',(0.,0.,-1.));
#892=DIRECTION('center_axis',(-0.442436495777976,0.89679983675495,0.));
#893=DIRECTION('ref_axis',(0.,0.,1.));
#894=DIRECTION('',(-0.896799836750993,-0.442436495785997,0.));
#895=DIRECTION('',(0.896799836750993,0.442436495785997,0.));
#896=DIRECTION('',(0.,0.,-1.));
#897=DIRECTION('center_axis',(-0.117159529572031,0.993113107672263,0.));
#898=DIRECTION('ref_axis',(0.,0.,1.));
#899=DIRECTION('',(-0.993113107672263,-0.117159529572031,0.));
#900=DIRECTION('',(0.993113107672263,0.117159529572031,0.));
#901=DIRECTION('center_axis',(0.137230935137973,-0.990539080723803,0.));
#902=DIRECTION('ref_axis',(0.,0.,-1.));
#903=DIRECTION('',(-0.990539080723803,-0.137230935137973,0.));
#904=DIRECTION('',(0.990539080723803,0.137230935137973,0.));
#905=DIRECTION('center_axis',(-0.0499907118482899,0.998749682717798,0.));
#906=DIRECTION('ref_axis',(0.,0.,1.));
#907=DIRECTION('',(-0.998749682717817,-0.0499907118479108,0.));
#908=DIRECTION('',(0.998749682717817,0.0499907118479108,0.));
#909=DIRECTION('',(0.,0.,-1.));
#910=DIRECTION('center_axis',(0.990830168044889,0.135113204728985,0.));
#911=DIRECTION('ref_axis',(0.,0.,1.));
#912=DIRECTION('',(-0.135113204730948,0.990830168044622,0.));
#913=DIRECTION('',(0.135113204730948,-0.990830168044622,0.));
#914=DIRECTION('',(0.,0.,-1.));
#915=DIRECTION('center_axis',(0.990830161609487,0.13511325192193,0.));
#916=DIRECTION('ref_axis',(0.,0.,1.));
#917=DIRECTION('',(-0.135113251922064,0.990830161609468,0.));
#918=DIRECTION('',(0.,0.,1.));
#919=DIRECTION('',(0.135113251922064,-0.990830161609468,0.));
#920=DIRECTION('center_axis',(0.990830182072196,0.135113101862027,0.));
#921=DIRECTION('ref_axis',(0.,0.,1.));
#922=DIRECTION('',(-0.135113101855021,0.990830182073152,0.));
#923=DIRECTION('',(0.135113101855021,-0.990830182073152,0.));
#924=DIRECTION('center_axis',(0.790160412484843,0.612900091810878,0.));
#925=DIRECTION('ref_axis',(0.,0.,1.));
#926=DIRECTION('',(-0.612900091810878,0.790160412484843,0.));
#927=DIRECTION('',(0.612900091810878,-0.790160412484843,0.));
#928=DIRECTION('center_axis',(2.032064616032E-17,0.,-1.));
#929=DIRECTION('ref_axis',(0.614865574588855,-0.788631932643814,1.2494465777382E-17));
#930=DIRECTION('',(0.788631932643814,0.614865574588855,0.));
#931=DIRECTION('',(0.990817307878242,0.135207479116033,0.));
#932=DIRECTION('',(0.794690654199918,0.607014632547937,0.));
#933=DIRECTION('',(0.93721527262382,0.348751391051933,0.));
#934=DIRECTION('',(0.967874056566754,0.251435499929936,0.));
#935=DIRECTION('',(0.998645030404857,-0.0520394393482726,0.));
#936=DIRECTION('',(0.967356367613382,-0.2534199243111,0.));
#937=DIRECTION('center_axis',(-0.348751391054895,0.937215272622718,0.));
#938=DIRECTION('ref_axis',(0.,0.,1.));
#939=DIRECTION('',(0.93721527262382,0.348751391051933,0.));
#940=DIRECTION('',(0.,0.,-1.));
#941=DIRECTION('center_axis',(0.0520394393484521,0.998645030404848,0.));
#942=DIRECTION('ref_axis',(0.,0.,1.));
#943=DIRECTION('',(0.998645030404857,-0.0520394393482726,0.));
#944=DIRECTION('center_axis',(-0.607014632547937,0.794690654199918,0.));
#945=DIRECTION('ref_axis',(0.,0.,1.));
#946=DIRECTION('',(0.794690654199918,0.607014632547937,0.));
#947=DIRECTION('center_axis',(-0.614865574588233,0.788631932644299,0.));
#948=DIRECTION('ref_axis',(0.,0.,1.));
#949=DIRECTION('',(0.788631932643814,0.614865574588855,0.));
#950=DIRECTION('center_axis',(0.253419924308048,0.967356367614182,0.));
#951=DIRECTION('ref_axis',(0.,0.,1.));
#952=DIRECTION('',(0.967356367613382,-0.2534199243111,0.));
#953=DIRECTION('center_axis',(-0.135207479116033,0.990817307878242,0.));
#954=DIRECTION('ref_axis',(0.,0.,1.));
#955=DIRECTION('',(0.990817307878242,0.135207479116033,0.));
#956=DIRECTION('center_axis',(-0.251435499928062,0.96787405656724,0.));
#957=DIRECTION('ref_axis',(0.,0.,1.));
#958=DIRECTION('',(0.967874056566754,0.251435499929936,0.));
#959=DIRECTION('center_axis',(-1.135723429926E-17,0.,1.));
#960=DIRECTION('ref_axis',(-0.117159529572031,0.993113107672263,-1.33060822774064E-18));
#961=DIRECTION('center_axis',(-1.481190636116E-17,0.,1.));
#962=DIRECTION('ref_axis',(-0.990402900171306,-0.138210330049043,-1.46697550171587E-17));
#963=CARTESIAN_POINT('',(0.,0.,0.));
#964=CARTESIAN_POINT('Origin',(4155.,5867.071500003,-603.125));
#965=CARTESIAN_POINT('',(4594.99999999943,5282.0715000036,-2364.36));
#966=CARTESIAN_POINT('',(3714.99999999937,6452.07150000201,-2364.36));
#967=CARTESIAN_POINT('',(4595.,5282.071500003,-2364.36));
#968=CARTESIAN_POINT('',(3715.00000000424,6452.07150000175,1158.11));
#969=CARTESIAN_POINT('',(3715.,6452.071500003,-2364.36));
#970=CARTESIAN_POINT('',(4595.00000000036,5282.07150000431,1158.11));
#971=CARTESIAN_POINT('',(3715.,6452.071500003,1158.11));
#972=CARTESIAN_POINT('',(4595.,5282.071500003,1158.11));
#973=CARTESIAN_POINT('Origin',(-1781.231000006,7067.584500015,-603.125));
#974=CARTESIAN_POINT('',(-1517.46200000132,7233.09750003253,-2364.36));
#975=CARTESIAN_POINT('',(-2045.00000000206,6902.07150000579,-2364.36));
#976=CARTESIAN_POINT('',(-1517.461999997,7233.097500026,-2364.36));
#977=CARTESIAN_POINT('',(-2045.0000000023,6902.0715000059,1158.11));
#978=CARTESIAN_POINT('',(-2045.,6902.071500003,-2364.36));
#979=CARTESIAN_POINT('',(-1517.46199999838,7233.09750002582,1158.11));
#980=CARTESIAN_POINT('',(-2045.,6902.071500003,1158.11));
#981=CARTESIAN_POINT('',(-1517.461999997,7233.097500026,1158.11));
#982=CARTESIAN_POINT('Origin',(-4134.255666703,4033.244832993,386.03666666666));
#983=CARTESIAN_POINT('',(-3535.0000115977,3262.07158905223,2364.36));
#984=CARTESIAN_POINT('',(-4112.76705275198,4005.59149405414,2364.36));
#985=CARTESIAN_POINT('',(-2417.958688304,1824.567544997,2364.36));
#986=CARTESIAN_POINT('',(-4112.76707083923,4005.59149188388,1158.11));
#987=CARTESIAN_POINT('',(-4112.767072007,4005.591492057,1073.635858411));
#988=CARTESIAN_POINT('',(-4754.99995154325,4832.07153696064,1158.11));
#989=CARTESIAN_POINT('',(-2709.594716489,2199.869633019,1158.11));
#990=CARTESIAN_POINT('',(-4754.99998751402,4832.07150948579,-2364.36));
#991=CARTESIAN_POINT('',(-4754.999964505,4832.071527004,-108.5441556137));
#992=CARTESIAN_POINT('',(-3534.99999589356,3262.07146942141,-2364.36));
#993=CARTESIAN_POINT('',(-2662.489027202,2139.249941051,-2364.36));
#994=CARTESIAN_POINT('',(-3535.0000045,3262.071533978,193.01833771447));
#995=CARTESIAN_POINT('Origin',(-3470.,2767.071500003,2.273736754432E-13));
#996=CARTESIAN_POINT('',(-3405.00000000073,2272.07150000882,2364.36));
#997=CARTESIAN_POINT('',(-3405.,2272.071500003,2364.36));
#998=CARTESIAN_POINT('',(-3405.00000000349,2272.07150000805,-2364.36));
#999=CARTESIAN_POINT('',(-3535.,3262.071500003,-2364.36));
#1000=CARTESIAN_POINT('',(-3405.,2272.071500003,-2364.36));
#1001=CARTESIAN_POINT('Origin',(-7445.,-3187.928499997,2.273736754432E-13));
#1002=CARTESIAN_POINT('',(-6795.0000000025,-8007.92849997829,2364.36));
#1003=CARTESIAN_POINT('',(-8095.00000000514,1632.07150000214,2364.36));
#1004=CARTESIAN_POINT('',(-6795.,-8007.928499997,2364.36));
#1005=CARTESIAN_POINT('',(-8094.99999999998,1632.07150000252,-2364.36));
#1006=CARTESIAN_POINT('',(-8095.,1632.071500003,2364.36));
#1007=CARTESIAN_POINT('',(-6794.99999999492,-8007.92849999566,-2364.36));
#1008=CARTESIAN_POINT('',(-8095.,1632.071500003,-2364.36));
#1009=CARTESIAN_POINT('',(-6795.,-8007.928499997,-2364.36));
#1010=CARTESIAN_POINT('Origin',(6641.733500004,-4882.70450002,-603.125));
#1011=CARTESIAN_POINT('',(6674.99999999984,-4877.92849999727,1158.11));
#1012=CARTESIAN_POINT('',(6608.46699999519,-4887.48049999823,1158.11));
#1013=CARTESIAN_POINT('',(6675.,-4877.928499997,1158.11));
#1014=CARTESIAN_POINT('',(6608.46699999458,-4887.48049999404,-2364.36));
#1015=CARTESIAN_POINT('',(6608.466999993,-4887.480499983,1158.11));
#1016=CARTESIAN_POINT('',(6674.99999999672,-4877.92849997453,-2364.36));
#1017=CARTESIAN_POINT('',(6608.466999993,-4887.480499983,-2364.36));
#1018=CARTESIAN_POINT('',(6675.,-4877.928499997,-2364.36));
#1019=CARTESIAN_POINT('Origin',(3556.387999997,-5325.649832964,386.03666666666));
#1020=CARTESIAN_POINT('',(4096.50200004503,-5248.10850039428,1158.11));
#1021=CARTESIAN_POINT('',(3937.66198639148,-5270.91240280822,1158.11));
#1022=CARTESIAN_POINT('',(3915.087729499,-5274.153267026,1158.11));
#1023=CARTESIAN_POINT('',(3937.66198985333,-5270.91242757459,2364.36));
#1024=CARTESIAN_POINT('',(3937.661986098,-5270.912401021,1073.635780434));
#1025=CARTESIAN_POINT('',(2635.00001014817,-5457.92857282348,2364.36));
#1026=CARTESIAN_POINT('',(1351.016891405,-5642.263094962,2364.36));
#1027=CARTESIAN_POINT('',(2634.99999651963,-5457.92847499989,-2364.36));
#1028=CARTESIAN_POINT('',(2635.000003904,-5457.928528011,193.01833970978));
#1029=CARTESIAN_POINT('',(4096.501999989,-5248.108500004,-2364.36));
#1030=CARTESIAN_POINT('',(3414.285539106,-5346.050657988,-2364.36));
#1031=CARTESIAN_POINT('',(4096.501999989,-5248.108500004,-2364.36));
#1032=CARTESIAN_POINT('Origin',(4592.070500001,-5176.962499976,-603.125));
#1033=CARTESIAN_POINT('',(5087.63899999742,-5105.81649999696,1158.11));
#1034=CARTESIAN_POINT('',(5087.638999999,-5105.816500008,1158.11));
#1035=CARTESIAN_POINT('',(5087.63899999858,-5105.81650000505,-2364.36));
#1036=CARTESIAN_POINT('',(4096.501999989,-5248.108500004,-2364.36));
#1037=CARTESIAN_POINT('',(5087.638999999,-5105.816500008,-2364.36));
#1038=CARTESIAN_POINT('Origin',(5848.053000003,-4996.648500025,-603.125));
#1039=CARTESIAN_POINT('',(6608.466999993,-4887.480499983,1158.11));
#1040=CARTESIAN_POINT('',(5087.638999999,-5105.816500008,-2364.36));
#1041=CARTESIAN_POINT('Origin',(3560.,7632.071500003,-603.125));
#1042=CARTESIAN_POINT('',(3814.99999999494,7542.07150000407,-2364.36));
#1043=CARTESIAN_POINT('',(3305.00000000095,7722.07150000923,-2364.36));
#1044=CARTESIAN_POINT('',(3815.,7542.071500003,-2364.36));
#1045=CARTESIAN_POINT('',(3305.00000000152,7722.0715000107,1158.11));
#1046=CARTESIAN_POINT('',(3305.,7722.071500003,-2364.36));
#1047=CARTESIAN_POINT('',(3815.00000000027,7542.07150000533,1158.11));
#1048=CARTESIAN_POINT('',(3305.,7722.071500003,1158.11));
#1049=CARTESIAN_POINT('',(3815.,7542.071500003,1158.11));
#1050=CARTESIAN_POINT('Origin',(535.34800000488,7929.617000043,-603.125));
#1051=CARTESIAN_POINT('',(843.151999993953,7976.79449999764,-2364.36));
#1052=CARTESIAN_POINT('',(227.544000001278,7882.43949997699,-2364.36));
#1053=CARTESIAN_POINT('',(843.15199999511,7976.794499993,-2364.36));
#1054=CARTESIAN_POINT('',(227.544000001236,7882.43949997337,1158.11));
#1055=CARTESIAN_POINT('',(227.54399999976,7882.439499974,-2364.36));
#1056=CARTESIAN_POINT('',(843.151999995142,7976.79449998952,1158.11));
#1057=CARTESIAN_POINT('',(227.54399999976,7882.439499974,1158.11));
#1058=CARTESIAN_POINT('',(843.15199999511,7976.794499993,1158.11));
#1059=CARTESIAN_POINT('Origin',(5915.,6302.071500003,-603.125));
#1060=CARTESIAN_POINT('',(6055.00000000219,6402.07150000524,-2364.36));
#1061=CARTESIAN_POINT('',(5775.00000000556,6202.07149999571,-2364.36));
#1062=CARTESIAN_POINT('',(6055.,6402.071500003,-2364.36));
#1063=CARTESIAN_POINT('',(5775.0000000045,6202.07149999708,1158.11));
#1064=CARTESIAN_POINT('',(5775.,6202.071500003,-2364.36));
#1065=CARTESIAN_POINT('',(6054.99999999778,6402.07150000728,1158.11));
#1066=CARTESIAN_POINT('',(5775.,6202.071500003,1158.11));
#1067=CARTESIAN_POINT('',(6055.,6402.071500003,1158.11));
#1068=CARTESIAN_POINT('Origin',(2394.827999994,7927.709500015,-603.125));
#1069=CARTESIAN_POINT('',(2702.53400000846,7879.9005000001,-2364.36));
#1070=CARTESIAN_POINT('',(2087.12199999345,7975.51850002104,-2364.36));
#1071=CARTESIAN_POINT('',(2702.534000009,7879.9005,-2364.36));
#1072=CARTESIAN_POINT('',(2087.12199999346,7975.51850002252,1158.11));
#1073=CARTESIAN_POINT('',(2087.121999994,7975.51850003,-2364.36));
#1074=CARTESIAN_POINT('',(2702.53400000899,7879.90050000296,1158.11));
#1075=CARTESIAN_POINT('',(2087.121999994,7975.51850003,1158.11));
#1076=CARTESIAN_POINT('',(2702.534000009,7879.9005,1158.11));
#1077=CARTESIAN_POINT('Origin',(3235.685500011,-240.6115000247,1761.235));
#1078=CARTESIAN_POINT('',(2533.70899999945,4789.68949997387,1158.11));
#1079=CARTESIAN_POINT('',(3937.662,-5270.912500024,1158.11));
#1080=CARTESIAN_POINT('',(2533.709000007,4789.68949996611,2364.36));
#1081=CARTESIAN_POINT('',(2533.709000006,4789.689499974,1158.11));
#1082=CARTESIAN_POINT('',(2533.709000006,4789.689499974,2364.36));
#1083=CARTESIAN_POINT('Origin',(7960.,3667.071500003,-603.125));
#1084=CARTESIAN_POINT('',(8094.99999999698,3772.07150000173,1158.11));
#1085=CARTESIAN_POINT('',(7825.00000000286,3562.07149999932,1158.11));
#1086=CARTESIAN_POINT('',(8095.,3772.071500003,1158.11));
#1087=CARTESIAN_POINT('',(7824.99999999894,3562.07150000436,-2364.36));
#1088=CARTESIAN_POINT('',(7825.,3562.071500003,1158.11));
#1089=CARTESIAN_POINT('',(8094.99999999489,3772.07150000817,-2364.36));
#1090=CARTESIAN_POINT('',(7825.,3562.071500003,-2364.36));
#1091=CARTESIAN_POINT('',(8095.,3772.071500003,-2364.36));
#1092=CARTESIAN_POINT('Origin',(6785.,2752.071500003,-603.125));
#1093=CARTESIAN_POINT('',(5745.0000000008,1942.07150000053,1158.11));
#1094=CARTESIAN_POINT('',(7825.,3562.071500003,1158.11));
#1095=CARTESIAN_POINT('',(5744.99999999836,1942.07150000205,-2364.36));
#1096=CARTESIAN_POINT('',(5745.,1942.071500003,1158.11));
#1097=CARTESIAN_POINT('',(5745.,1942.071500003,-2364.36));
#1098=CARTESIAN_POINT('Origin',(3765.,6997.071500003,-603.125));
#1099=CARTESIAN_POINT('',(3815.,7542.071500003,1158.11));
#1100=CARTESIAN_POINT('',(3715.,6452.071500003,-2364.36));
#1101=CARTESIAN_POINT('Origin',(2720.,-6067.928499997,2.273736754432E-13));
#1102=CARTESIAN_POINT('',(2805.00000000217,-6677.92850001575,-2364.36));
#1103=CARTESIAN_POINT('',(2805.,-6677.928499997,-2364.36));
#1104=CARTESIAN_POINT('',(2804.99999999701,-6677.92849999807,2364.36));
#1105=CARTESIAN_POINT('',(2635.,-5457.928499997,2364.36));
#1106=CARTESIAN_POINT('',(2805.,-6677.928499997,2364.36));
#1107=CARTESIAN_POINT('Origin',(-1238.200000003,7370.871499956,-603.125));
#1108=CARTESIAN_POINT('',(-958.937999991911,7508.64550000469,-2364.36));
#1109=CARTESIAN_POINT('',(-958.9379999935,7508.645500004,-2364.36));
#1110=CARTESIAN_POINT('',(-958.93799998763,7508.64549999797,1158.11));
#1111=CARTESIAN_POINT('',(-1517.461999997,7233.097500026,1158.11));
#1112=CARTESIAN_POINT('',(-958.9379999935,7508.645500004,1158.11));
#1113=CARTESIAN_POINT('Origin',(-789.5289999991,4397.640500009,1761.235));
#1114=CARTESIAN_POINT('',(2533.709000006,4789.689499974,1158.11));
#1115=CARTESIAN_POINT('',(-4112.767000005,4005.591499984,2364.36));
#1116=CARTESIAN_POINT('Origin',(-1995.,-7342.928499997,2.273736754432E-13));
#1117=CARTESIAN_POINT('',(2805.,-6677.928499997,2364.36));
#1118=CARTESIAN_POINT('',(-6795.,-8007.928499997,-2364.36));
#1119=CARTESIAN_POINT('Origin',(1154.160500005,7992.361500025,-603.125));
#1120=CARTESIAN_POINT('',(1465.16899999935,8007.92849999703,-2364.36));
#1121=CARTESIAN_POINT('',(1465.169,8007.928499997,-2364.36));
#1122=CARTESIAN_POINT('',(1465.16899999996,8007.92849999234,1158.11));
#1123=CARTESIAN_POINT('',(843.15199999511,7976.794499993,1158.11));
#1124=CARTESIAN_POINT('',(1465.169,8007.928499997,1158.11));
#1125=CARTESIAN_POINT('Origin',(5930.441999987,582.16350001096,-603.125));
#1126=CARTESIAN_POINT('',(6115.88399998932,-777.744499981221,-2364.36));
#1127=CARTESIAN_POINT('',(6115.883999988,-777.7444999814,-2364.36));
#1128=CARTESIAN_POINT('',(6115.88399998907,-777.744499981255,1158.11));
#1129=CARTESIAN_POINT('',(5745.,1942.071500003,1158.11));
#1130=CARTESIAN_POINT('',(6115.883999988,-777.7444999814,1158.11));
#1131=CARTESIAN_POINT('Origin',(6483.346499994,-3472.470000029,-603.125));
#1132=CARTESIAN_POINT('',(6291.69300000387,-2067.01150000102,-2364.36));
#1133=CARTESIAN_POINT('',(6675.,-4877.928499997,-2364.36));
#1134=CARTESIAN_POINT('',(6291.69300000268,-2067.01150000118,1158.11));
#1135=CARTESIAN_POINT('',(6291.693000004,-2067.011500001,-2364.36));
#1136=CARTESIAN_POINT('',(6291.693000004,-2067.011500001,1158.11));
#1137=CARTESIAN_POINT('Origin',(6203.788499996,-1422.378000021,-603.125));
#1138=CARTESIAN_POINT('',(6291.693000004,-2067.011500001,-2364.36));
#1139=CARTESIAN_POINT('',(6115.883999988,-777.7444999814,1158.11));
#1140=CARTESIAN_POINT('Origin',(7075.,5087.071500003,-603.125));
#1141=CARTESIAN_POINT('',(8095.,3772.071500003,-2364.36));
#1142=CARTESIAN_POINT('',(6055.,6402.071500003,1158.11));
#1143=CARTESIAN_POINT('Origin',(2099.485871002,2801.977306008,-2364.36));
#1144=CARTESIAN_POINT('',(4595.,5282.071500003,-2364.36));
#1145=CARTESIAN_POINT('',(-8095.,1632.071500003,-2364.36));
#1146=CARTESIAN_POINT('',(-4755.,4832.071500003,-2364.36));
#1147=CARTESIAN_POINT('',(-375.244000007483,7725.84649999138,-2364.36));
#1148=CARTESIAN_POINT('',(-958.9379999935,7508.645500004,-2364.36));
#1149=CARTESIAN_POINT('',(-375.2440000027,7725.846499979,-2364.36));
#1150=CARTESIAN_POINT('',(1465.169,8007.928499997,-2364.36));
#1151=CARTESIAN_POINT('',(2702.534000009,7879.9005,-2364.36));
#1152=CARTESIAN_POINT('Origin',(-667.0910000056,7617.245999992,-603.125));
#1153=CARTESIAN_POINT('',(-375.244000007483,7725.84649999138,1158.11));
#1154=CARTESIAN_POINT('',(-958.9379999935,7508.645500004,1158.11));
#1155=CARTESIAN_POINT('',(-375.2440000027,7725.846499979,1158.11));
#1156=CARTESIAN_POINT('Origin',(1776.145499989,7991.723500013,-603.125));
#1157=CARTESIAN_POINT('',(1465.169,8007.928499997,1158.11));
#1158=CARTESIAN_POINT('Origin',(-3400.,5867.071500003,-603.125));
#1159=CARTESIAN_POINT('',(-4755.,4832.071500003,1158.11));
#1160=CARTESIAN_POINT('Origin',(5185.,5742.071500003,-603.125));
#1161=CARTESIAN_POINT('',(4595.,5282.071500003,1158.11));
#1162=CARTESIAN_POINT('Origin',(3003.767000005,7800.986000001,-603.125));
#1163=CARTESIAN_POINT('',(2702.534000009,7879.9005,1158.11));
#1164=CARTESIAN_POINT('Origin',(-5750.,1952.071500003,2.273736754432E-13));
#1165=CARTESIAN_POINT('',(-8095.,1632.071500003,2364.36));
#1166=CARTESIAN_POINT('Origin',(-73.85000000894,7804.143000007,-603.125));
#1167=CARTESIAN_POINT('',(-375.2440000027,7725.846499979,1158.11));
#1168=CARTESIAN_POINT('Origin',(2994.02378571,3691.544143021,1158.11));
#1169=CARTESIAN_POINT('Origin',(-1559.044,-1050.355832994,2364.36));
#1170=UNCERTAINTY_MEASURE_WITH_UNIT(LENGTH_MEASURE(0.01),#1174,
'DISTANCE_ACCURACY_VALUE',
'Maximum model space distance between geometric entities at asserted c
onnectivities');
#1171=UNCERTAINTY_MEASURE_WITH_UNIT(LENGTH_MEASURE(0.01),#1174,
'DISTANCE_ACCURACY_VALUE',
'Maximum model space distance between geometric entities at asserted c
onnectivities');
#1172=(
GEOMETRIC_REPRESENTATION_CONTEXT(3)
GLOBAL_UNCERTAINTY_ASSIGNED_CONTEXT((#1170))
GLOBAL_UNIT_ASSIGNED_CONTEXT((#1174,#1176,#1177))
REPRESENTATION_CONTEXT('','3D')
);
#1173=(
GEOMETRIC_REPRESENTATION_CONTEXT(3)
GLOBAL_UNCERTAINTY_ASSIGNED_CONTEXT((#1171))
GLOBAL_UNIT_ASSIGNED_CONTEXT((#1174,#1176,#1177))
REPRESENTATION_CONTEXT('','3D')
);
#1174=(
LENGTH_UNIT()
NAMED_UNIT(*)
SI_UNIT(.MILLI.,.METRE.)
);
#1175=(
LENGTH_UNIT()
NAMED_UNIT(*)
SI_UNIT($,.METRE.)
);
#1176=(
NAMED_UNIT(*)
PLANE_ANGLE_UNIT()
SI_UNIT($,.RADIAN.)
);
#1177=(
NAMED_UNIT(*)
SI_UNIT($,.STERADIAN.)
SOLID_ANGLE_UNIT()
);
#1178=SHAPE_DEFINITION_REPRESENTATION(#1179,#1180);
#1179=PRODUCT_DEFINITION_SHAPE('',$,#1182);
#1180=SHAPE_REPRESENTATION('',(#750),#1172);
#1181=PRODUCT_DEFINITION_CONTEXT('part definition',#1186,'design');
#1182=PRODUCT_DEFINITION('Open CASCADE STEP translator 7.7 16',
'(\X2\672A4FDD5B58\X0\)',#1183,#1181);
#1183=PRODUCT_DEFINITION_FORMATION('',$,#1188);
#1184=PRODUCT_RELATED_PRODUCT_CATEGORY('(\X2\672A4FDD5B58\X0\)',
'(\X2\672A4FDD5B58\X0\)',(#1188));
#1185=APPLICATION_PROTOCOL_DEFINITION('international standard',
'automotive_design',2009,#1186);
#1186=APPLICATION_CONTEXT(
'Core Data for Automotive Mechanical Design Process');
#1187=PRODUCT_CONTEXT('part definition',#1186,'mechanical');
#1188=PRODUCT('Open CASCADE STEP translator 7.7 16','(\X2\672A4FDD5B58\X0\)',
'Open CASCADE Model',(#1187));
#1189=PRESENTATION_STYLE_ASSIGNMENT((#1190));
#1190=SURFACE_STYLE_USAGE(.BOTH.,#1191);
#1191=SURFACE_SIDE_STYLE('',(#1192));
#1192=SURFACE_STYLE_FILL_AREA(#1193);
#1193=FILL_AREA_STYLE('\X2\94A2\X0\ - \X2\7F0E5149\X0\',(#1194));
#1194=FILL_AREA_STYLE_COLOUR('\X2\94A2\X0\ - \X2\7F0E5149\X0\',#1195);
#1195=COLOUR_RGB('\X2\94A2\X0\ - \X2\7F0E5149\X0\',0.627450980392157,0.627450980392157,
0.627450980392157);
ENDSEC;
END-ISO-10303-21;
