# OBJ file generated from STEP using CadQuery
# Vertices: 60
# Faces: 36

v 184.300000 -386.700000 -150.552808
v 449.900000 -264.300000 -150.552808
v 863.400000 -1128.100000 -150.552808
v 309.400000 -1387.200000 -150.552808
v -863.400000 1110.700000 -150.552808
v -271.600000 1387.200000 -150.552808
v -10.600000 834.300000 -150.552808
v -53.100000 814.200000 -150.552808
v 205.500000 269.600000 -150.552808
v -70.500000 145.700000 -150.552808
v -70.500000 145.700000 150.552808
v 205.500000 269.600000 150.552808
v -53.100000 814.200000 150.552808
v -10.600000 834.300000 150.552808
v -271.600000 1387.200000 150.552808
v -863.400000 1110.700000 150.552808
v 309.400000 -1387.200000 150.552808
v 863.400000 -1128.100000 150.552808
v 449.900000 -264.300000 150.552808
v 184.300000 -386.700000 150.552808
v -863.400000 1110.700000 150.552808
v 309.400000 -1387.200000 150.552808
v -863.400000 1110.700000 -150.552808
v 309.400000 -1387.200000 -150.552808
v -863.400000 1110.700000 -150.552808
v -271.600000 1387.200000 -150.552808
v -863.400000 1110.700000 150.552808
v -271.600000 1387.200000 150.552808
v -271.600000 1387.200000 -150.552808
v -10.600000 834.300000 -150.552808
v -271.600000 1387.200000 150.552808
v -10.600000 834.300000 150.552808
v -53.100000 814.200000 150.552808
v -10.600000 834.300000 150.552808
v -53.100000 814.200000 -150.552808
v -10.600000 834.300000 -150.552808
v -53.100000 814.200000 -150.552808
v 205.500000 269.600000 -150.552808
v -53.100000 814.200000 150.552808
v 205.500000 269.600000 150.552808
v -70.500000 145.700000 150.552808
v 205.500000 269.600000 150.552808
v -70.500000 145.700000 -150.552808
v 205.500000 269.600000 -150.552808
v -70.500000 145.700000 -150.552808
v 184.300000 -386.700000 -150.552808
v -70.500000 145.700000 150.552808
v 184.300000 -386.700000 150.552808
v 184.300000 -386.700000 -150.552808
v 449.900000 -264.300000 -150.552808
v 184.300000 -386.700000 150.552808
v 449.900000 -264.300000 150.552808
v 449.900000 -264.300000 -150.552808
v 863.400000 -1128.100000 -150.552808
v 449.900000 -264.300000 150.552808
v 863.400000 -1128.100000 150.552808
v 309.400000 -1387.200000 150.552808
v 863.400000 -1128.100000 150.552808
v 309.400000 -1387.200000 -150.552808
v 863.400000 -1128.100000 -150.552808

f 8 6 7
f 5 6 8
f 10 8 9
f 10 5 8
f 3 1 2
f 4 1 3
f 4 5 10
f 4 10 1
f 20 17 18
f 20 18 19
f 13 11 12
f 15 13 14
f 16 13 15
f 16 11 13
f 16 17 11
f 11 17 20
f 22 21 23
f 24 22 23
f 28 26 25
f 28 25 27
f 32 30 29
f 32 29 31
f 36 34 33
f 36 33 35
f 38 37 39
f 40 38 39
f 42 41 43
f 44 42 43
f 46 45 47
f 48 46 47
f 52 50 49
f 52 49 51
f 54 53 55
f 56 54 55
f 58 57 59
f 60 58 59
