# OBJ file generated from STEP using CadQuery
# Vertices: 48
# Faces: 28

v 207.800000 -15.950000 -130.958930
v 63.300000 -190.250000 -130.958930
v -5.800000 -133.250000 -130.958930
v -207.800000 31.750000 -130.958930
v -103.800000 158.750000 -130.958930
v -78.100000 190.250000 -130.958930
v 27.300000 102.950000 -130.958930
v 42.400000 121.250000 -130.958930
v 42.400000 121.250000 130.958930
v 27.300000 102.950000 130.958930
v -78.100000 190.250000 130.958930
v -103.800000 158.750000 130.958930
v -207.800000 31.750000 130.958930
v -5.800000 -133.250000 130.958930
v 63.300000 -190.250000 130.958930
v 207.800000 -15.950000 130.958930
v -78.100000 190.250000 -130.958930
v 27.300000 102.950000 -130.958930
v -78.100000 190.250000 130.958930
v 27.300000 102.950000 130.958930
v 27.300000 102.950000 -130.958930
v 42.400000 121.250000 -130.958930
v 27.300000 102.950000 130.958930
v 42.400000 121.250000 130.958930
v 42.400000 121.250000 -130.958930
v 207.800000 -15.950000 -130.958930
v 42.400000 121.250000 130.958930
v 207.800000 -15.950000 130.958930
v 63.300000 -190.250000 130.958930
v 207.800000 -15.950000 130.958930
v 63.300000 -190.250000 -130.958930
v 207.800000 -15.950000 -130.958930
v -5.800000 -133.250000 130.958930
v 63.300000 -190.250000 130.958930
v -5.800000 -133.250000 -130.958930
v 63.300000 -190.250000 -130.958930
v -207.800000 31.750000 130.958930
v -5.800000 -133.250000 130.958930
v -207.800000 31.750000 -130.958930
v -5.800000 -133.250000 -130.958930
v -207.800000 31.750000 -130.958930
v -103.800000 158.750000 -130.958930
v -207.800000 31.750000 130.958930
v -103.800000 158.750000 130.958930
v -103.800000 158.750000 -130.958930
v -78.100000 190.250000 -130.958930
v -103.800000 158.750000 130.958930
v -78.100000 190.250000 130.958930

f 1 2 3
f 7 3 4
f 7 1 3
f 8 1 7
f 5 7 4
f 6 7 5
f 10 11 12
f 10 12 13
f 10 13 14
f 16 9 10
f 16 14 15
f 16 10 14
f 20 18 17
f 20 17 19
f 24 22 21
f 24 21 23
f 28 26 25
f 28 25 27
f 32 30 29
f 32 29 31
f 36 34 33
f 36 33 35
f 39 38 37
f 40 38 39
f 44 42 41
f 44 41 43
f 48 46 45
f 48 45 47
