# OBJ file generated from STEP using CadQuery
# Vertices: 108
# Faces: 68

v 697.500000 706.499998 -447.825000
v -418.500000 931.499998 -447.825000
v -418.500000 931.499998 447.825000
v 697.500000 706.499998 447.825000
v 569.700000 -407.500002 -447.825000
v 472.500000 -897.300002 -447.825000
v 465.500001 -931.499998 -447.825000
v 374.300000 -913.500002 -447.825000
v -742.500000 -692.500002 -447.825000
v -630.500000 -132.500002 -447.825000
v -513.500000 -155.500002 -447.825000
v -407.500000 370.499998 -447.825000
v -525.500000 394.499998 -447.825000
v -418.500000 931.499998 -447.825000
v 697.500000 706.499998 -447.825000
v 695.500000 697.499998 -447.825000
v 652.500000 481.499998 -447.825000
v 742.500000 465.499998 -447.825000
v 687.500000 186.499998 -447.825000
v 472.500000 -897.300002 137.825000
v 514.550483 -685.403698 137.825000
v 430.187800 -668.662002 137.825000
v 381.324998 -914.886511 137.825000
v 465.500002 -931.499992 137.825000
v 569.700000 -407.500002 447.825000
v 687.500000 186.499998 447.825000
v 742.500000 465.499998 447.825000
v 652.500000 481.499998 447.825000
v 695.500000 697.499998 447.825000
v 697.500000 706.499998 447.825000
v -418.500000 931.499998 447.825000
v -525.500000 394.499998 447.825000
v -407.500000 370.499998 447.825000
v -513.500000 -155.500002 447.825000
v -630.500000 -132.500002 447.825000
v -742.500000 -692.500002 447.825000
v 374.300000 -913.500002 447.825000
v 381.324999 -914.886508 447.825000
v 430.187800 -668.662002 447.825000
v 514.550489 -685.403699 447.825000
v 430.187800 -668.662002 447.825000
v 514.550489 -685.403699 447.825000
v 430.187800 -668.662002 137.825000
v 514.550483 -685.403698 137.825000
v 381.324999 -914.886508 447.825000
v 381.324998 -914.886511 137.825000
v 430.187800 -668.662002 137.825000
v 430.187800 -668.662002 447.825000
v 687.500000 186.499998 -447.825000
v 569.700000 -407.500002 -447.825000
v 687.500000 186.499998 447.825000
v 569.700000 -407.500002 447.825000
v 742.500000 465.499998 -447.825000
v 687.500000 186.499998 -447.825000
v 742.500000 465.499998 447.825000
v 687.500000 186.499998 447.825000
v 465.500002 -931.499992 137.825000
v 472.500000 -897.300002 137.825000
v 465.500001 -931.499998 -447.825000
v 472.500000 -897.300002 -447.825000
v 472.500000 -897.300002 -447.825000
v 472.500000 -897.300002 137.825000
v 569.700000 -407.500002 -447.825000
v 569.700000 -407.500002 447.825000
v 514.550489 -685.403699 447.825000
v 514.550483 -685.403698 137.825000
v 381.324999 -914.886508 447.825000
v 381.324998 -914.886511 137.825000
v 374.300000 -913.500002 447.825000
v 374.300000 -913.500002 -447.825000
v 465.500001 -931.499998 -447.825000
v 465.500002 -931.499992 137.825000
v 374.300000 -913.500002 -447.825000
v -742.500000 -692.500002 -447.825000
v 374.300000 -913.500002 447.825000
v -742.500000 -692.500002 447.825000
v -742.500000 -692.500002 -447.825000
v -630.500000 -132.500002 -447.825000
v -742.500000 -692.500002 447.825000
v -630.500000 -132.500002 447.825000
v -630.500000 -132.500002 -447.825000
v -513.500000 -155.500002 -447.825000
v -630.500000 -132.500002 447.825000
v -513.500000 -155.500002 447.825000
v -513.500000 -155.500002 -447.825000
v -407.500000 370.499998 -447.825000
v -513.500000 -155.500002 447.825000
v -407.500000 370.499998 447.825000
v -407.500000 370.499998 -447.825000
v -525.500000 394.499998 -447.825000
v -407.500000 370.499998 447.825000
v -525.500000 394.499998 447.825000
v -525.500000 394.499998 -447.825000
v -418.500000 931.499998 -447.825000
v -525.500000 394.499998 447.825000
v -418.500000 931.499998 447.825000
v 652.500000 481.499998 -447.825000
v 742.500000 465.499998 -447.825000
v 652.500000 481.499998 447.825000
v 742.500000 465.499998 447.825000
v 697.500000 706.499998 -447.825000
v 695.500000 697.499998 -447.825000
v 697.500000 706.499998 447.825000
v 695.500000 697.499998 447.825000
v 695.500000 697.499998 -447.825000
v 652.500000 481.499998 -447.825000
v 695.500000 697.499998 447.825000
v 652.500000 481.499998 447.825000

f 4 1 2
f 4 2 3
f 8 6 7
f 5 6 8
f 17 18 19
f 11 8 9
f 11 19 5
f 11 5 8
f 10 11 9
f 12 19 11
f 12 17 19
f 14 12 13
f 14 15 16
f 14 16 17
f 14 17 12
f 20 21 22
f 23 24 20
f 23 20 22
f 26 27 28
f 31 28 29
f 31 29 30
f 39 40 25
f 33 26 28
f 33 28 31
f 37 38 39
f 32 33 31
f 34 25 26
f 34 26 33
f 34 39 25
f 36 34 35
f 36 37 39
f 36 39 34
f 41 43 44
f 41 44 42
f 45 46 47
f 45 47 48
f 52 50 49
f 52 49 51
f 55 54 53
f 56 54 55
f 57 59 60
f 57 60 58
f 66 62 61
f 66 61 63
f 64 65 66
f 64 66 63
f 68 67 69
f 71 72 68
f 70 71 68
f 69 70 68
f 76 74 73
f 76 73 75
f 80 78 77
f 80 77 79
f 84 82 81
f 84 81 83
f 88 86 85
f 88 85 87
f 92 90 89
f 92 89 91
f 96 94 93
f 96 93 95
f 99 98 97
f 100 98 99
f 104 102 101
f 104 101 103
f 107 106 105
f 108 106 107
