ISO-10303-21;
HEADER;
/* Generated by software containing ST-Developer
 * from STEP Tools, Inc. (www.steptools.com) 
 */

FILE_DESCRIPTION(
/* description */ ('Open CASCADE Model'),
/* implementation_level */ '2;1');

FILE_NAME(
/* name */ '16.step',
/* time_stamp */ '2025-12-23T14:06:10+08:00',
/* author */ (''),
/* organization */ (''),
/* preprocessor_version */ 'ST-DEVELOPER v20.1',
/* originating_system */ 'Autodesk Translation Framework v14.21.0.0',
/* authorisation */ '');

FILE_SCHEMA (('AUTOMOTIVE_DESIGN { 1 0 10303 214 3 1 1 }'));
ENDSEC;

DATA;
#10=MECHANICAL_DESIGN_GEOMETRIC_PRESENTATION_REPRESENTATION('',(#13),#645);
#11=SHAPE_REPRESENTATION_RELATIONSHIP('SRR','None',#652,#12);
#12=ADVANCED_BREP_SHAPE_REPRESENTATION('',(#14),#644);
#13=STYLED_ITEM('',(#661),#14);
#14=MANIFOLD_SOLID_BREP('\X2\5B9E4F53\X0\1',#401);
#15=FACE_OUTER_BOUND('',#35,.T.);
#16=FACE_OUTER_BOUND('',#36,.T.);
#17=FACE_OUTER_BOUND('',#37,.T.);
#18=FACE_OUTER_BOUND('',#38,.T.);
#19=FACE_OUTER_BOUND('',#39,.T.);
#20=FACE_OUTER_BOUND('',#40,.T.);
#21=FACE_OUTER_BOUND('',#41,.T.);
#22=FACE_OUTER_BOUND('',#42,.T.);
#23=FACE_OUTER_BOUND('',#43,.T.);
#24=FACE_OUTER_BOUND('',#44,.T.);
#25=FACE_OUTER_BOUND('',#45,.T.);
#26=FACE_OUTER_BOUND('',#46,.T.);
#27=FACE_OUTER_BOUND('',#47,.T.);
#28=FACE_OUTER_BOUND('',#48,.T.);
#29=FACE_OUTER_BOUND('',#49,.T.);
#30=FACE_OUTER_BOUND('',#50,.T.);
#31=FACE_OUTER_BOUND('',#51,.T.);
#32=FACE_OUTER_BOUND('',#52,.T.);
#33=FACE_OUTER_BOUND('',#53,.T.);
#34=FACE_OUTER_BOUND('',#54,.T.);
#35=EDGE_LOOP('',(#253,#254,#255,#256));
#36=EDGE_LOOP('',(#257,#258,#259,#260,#261,#262,#263,#264,#265,#266,#267,
#268,#269,#270,#271));
#37=EDGE_LOOP('',(#272,#273,#274,#275,#276));
#38=EDGE_LOOP('',(#277,#278,#279,#280,#281,#282,#283,#284,#285,#286,#287,
#288,#289,#290,#291,#292));
#39=EDGE_LOOP('',(#293,#294,#295,#296));
#40=EDGE_LOOP('',(#297,#298,#299,#300));
#41=EDGE_LOOP('',(#301,#302,#303,#304));
#42=EDGE_LOOP('',(#305,#306,#307,#308));
#43=EDGE_LOOP('',(#309,#310,#311,#312));
#44=EDGE_LOOP('',(#313,#314,#315,#316,#317,#318));
#45=EDGE_LOOP('',(#319,#320,#321,#322,#323,#324));
#46=EDGE_LOOP('',(#325,#326,#327,#328));
#47=EDGE_LOOP('',(#329,#330,#331,#332));
#48=EDGE_LOOP('',(#333,#334,#335,#336));
#49=EDGE_LOOP('',(#337,#338,#339,#340));
#50=EDGE_LOOP('',(#341,#342,#343,#344));
#51=EDGE_LOOP('',(#345,#346,#347,#348));
#52=EDGE_LOOP('',(#349,#350,#351,#352));
#53=EDGE_LOOP('',(#353,#354,#355,#356));
#54=EDGE_LOOP('',(#357,#358,#359,#360));
#55=LINE('',#535,#109);
#56=LINE('',#537,#110);
#57=LINE('',#539,#111);
#58=LINE('',#540,#112);
#59=LINE('',#544,#113);
#60=LINE('',#546,#114);
#61=LINE('',#548,#115);
#62=LINE('',#550,#116);
#63=LINE('',#552,#117);
#64=LINE('',#554,#118);
#65=LINE('',#556,#119);
#66=LINE('',#558,#120);
#67=LINE('',#560,#121);
#68=LINE('',#562,#122);
#69=LINE('',#563,#123);
#70=LINE('',#565,#124);
#71=LINE('',#567,#125);
#72=LINE('',#568,#126);
#73=LINE('',#572,#127);
#74=LINE('',#574,#128);
#75=LINE('',#576,#129);
#76=LINE('',#578,#130);
#77=LINE('',#579,#131);
#78=LINE('',#583,#132);
#79=LINE('',#585,#133);
#80=LINE('',#587,#134);
#81=LINE('',#589,#135);
#82=LINE('',#591,#136);
#83=LINE('',#593,#137);
#84=LINE('',#595,#138);
#85=LINE('',#596,#139);
#86=LINE('',#598,#140);
#87=LINE('',#600,#141);
#88=LINE('',#602,#142);
#89=LINE('',#604,#143);
#90=LINE('',#606,#144);
#91=LINE('',#608,#145);
#92=LINE('',#609,#146);
#93=LINE('',#611,#147);
#94=LINE('',#612,#148);
#95=LINE('',#614,#149);
#96=LINE('',#616,#150);
#97=LINE('',#617,#151);
#98=LINE('',#619,#152);
#99=LINE('',#621,#153);
#100=LINE('',#622,#154);
#101=LINE('',#625,#155);
#102=LINE('',#627,#156);
#103=LINE('',#629,#157);
#104=LINE('',#631,#158);
#105=LINE('',#633,#159);
#106=LINE('',#635,#160);
#107=LINE('',#638,#161);
#108=LINE('',#640,#162);
#109=VECTOR('',#439,0.999999999999628);
#110=VECTOR('',#440,1.);
#111=VECTOR('',#441,0.999999999999628);
#112=VECTOR('',#442,1.);
#113=VECTOR('',#445,1.00000000000048);
#114=VECTOR('',#446,1.00000000000042);
#115=VECTOR('',#447,1.00000000000049);
#116=VECTOR('',#448,1.00000000000034);
#117=VECTOR('',#449,0.999999999999767);
#118=VECTOR('',#450,1.00000000000016);
#119=VECTOR('',#451,0.99999999999965);
#120=VECTOR('',#452,0.999999999999938);
#121=VECTOR('',#453,0.999999999999924);
#122=VECTOR('',#454,0.99999999999966);
#123=VECTOR('',#455,0.9999999999996);
#124=VECTOR('',#456,1.00000000000034);
#125=VECTOR('',#457,0.999999999999614);
#126=VECTOR('',#458,1.0000000000004);
#127=VECTOR('',#461,1.00000000000049);
#128=VECTOR('',#462,1.00000000000032);
#129=VECTOR('',#463,0.999999999999438);
#130=VECTOR('',#464,0.999999999999767);
#131=VECTOR('',#465,1.00000000000034);
#132=VECTOR('',#468,0.999999999999438);
#133=VECTOR('',#469,1.00000000000032);
#134=VECTOR('',#470,1.00000000000049);
#135=VECTOR('',#471,1.00000000000042);
#136=VECTOR('',#472,1.00000000000048);
#137=VECTOR('',#473,1.0000000000004);
#138=VECTOR('',#474,0.999999999999614);
#139=VECTOR('',#475,1.00000000000034);
#140=VECTOR('',#476,0.9999999999996);
#141=VECTOR('',#477,0.99999999999966);
#142=VECTOR('',#478,0.999999999999924);
#143=VECTOR('',#479,0.999999999999938);
#144=VECTOR('',#480,0.99999999999965);
#145=VECTOR('',#481,1.00000000000016);
#146=VECTOR('',#482,0.999999999999767);
#147=VECTOR('',#485,1.);
#148=VECTOR('',#486,1.);
#149=VECTOR('',#489,1.);
#150=VECTOR('',#492,1.);
#151=VECTOR('',#493,1.);
#152=VECTOR('',#496,1.);
#153=VECTOR('',#499,1.);
#154=VECTOR('',#500,1.);
#155=VECTOR('',#505,1.);
#156=VECTOR('',#508,1.);
#157=VECTOR('',#511,1.);
#158=VECTOR('',#514,1.);
#159=VECTOR('',#517,1.);
#160=VECTOR('',#520,1.);
#161=VECTOR('',#525,1.);
#162=VECTOR('',#528,1.);
#163=VERTEX_POINT('',#533);
#164=VERTEX_POINT('',#534);
#165=VERTEX_POINT('',#536);
#166=VERTEX_POINT('',#538);
#167=VERTEX_POINT('',#542);
#168=VERTEX_POINT('',#543);
#169=VERTEX_POINT('',#545);
#170=VERTEX_POINT('',#547);
#171=VERTEX_POINT('',#549);
#172=VERTEX_POINT('',#551);
#173=VERTEX_POINT('',#553);
#174=VERTEX_POINT('',#555);
#175=VERTEX_POINT('',#557);
#176=VERTEX_POINT('',#559);
#177=VERTEX_POINT('',#561);
#178=VERTEX_POINT('',#564);
#179=VERTEX_POINT('',#566);
#180=VERTEX_POINT('',#570);
#181=VERTEX_POINT('',#571);
#182=VERTEX_POINT('',#573);
#183=VERTEX_POINT('',#575);
#184=VERTEX_POINT('',#577);
#185=VERTEX_POINT('',#581);
#186=VERTEX_POINT('',#582);
#187=VERTEX_POINT('',#584);
#188=VERTEX_POINT('',#586);
#189=VERTEX_POINT('',#588);
#190=VERTEX_POINT('',#590);
#191=VERTEX_POINT('',#592);
#192=VERTEX_POINT('',#594);
#193=VERTEX_POINT('',#597);
#194=VERTEX_POINT('',#599);
#195=VERTEX_POINT('',#601);
#196=VERTEX_POINT('',#603);
#197=VERTEX_POINT('',#605);
#198=VERTEX_POINT('',#607);
#199=EDGE_CURVE('',#163,#164,#55,.T.);
#200=EDGE_CURVE('',#164,#165,#56,.T.);
#201=EDGE_CURVE('',#165,#166,#57,.T.);
#202=EDGE_CURVE('',#166,#163,#58,.T.);
#203=EDGE_CURVE('',#167,#168,#59,.T.);
#204=EDGE_CURVE('',#168,#169,#60,.T.);
#205=EDGE_CURVE('',#169,#170,#61,.T.);
#206=EDGE_CURVE('',#170,#171,#62,.T.);
#207=EDGE_CURVE('',#171,#172,#63,.T.);
#208=EDGE_CURVE('',#172,#173,#64,.T.);
#209=EDGE_CURVE('',#173,#174,#65,.T.);
#210=EDGE_CURVE('',#174,#175,#66,.T.);
#211=EDGE_CURVE('',#175,#176,#67,.T.);
#212=EDGE_CURVE('',#176,#177,#68,.T.);
#213=EDGE_CURVE('',#177,#164,#69,.T.);
#214=EDGE_CURVE('',#163,#178,#70,.T.);
#215=EDGE_CURVE('',#178,#179,#71,.T.);
#216=EDGE_CURVE('',#179,#167,#72,.T.);
#217=EDGE_CURVE('',#180,#181,#73,.T.);
#218=EDGE_CURVE('',#181,#182,#74,.T.);
#219=EDGE_CURVE('',#182,#183,#75,.T.);
#220=EDGE_CURVE('',#183,#184,#76,.T.);
#221=EDGE_CURVE('',#184,#180,#77,.T.);
#222=EDGE_CURVE('',#185,#186,#78,.T.);
#223=EDGE_CURVE('',#186,#187,#79,.T.);
#224=EDGE_CURVE('',#187,#188,#80,.T.);
#225=EDGE_CURVE('',#188,#189,#81,.T.);
#226=EDGE_CURVE('',#189,#190,#82,.T.);
#227=EDGE_CURVE('',#190,#191,#83,.T.);
#228=EDGE_CURVE('',#191,#192,#84,.T.);
#229=EDGE_CURVE('',#192,#166,#85,.T.);
#230=EDGE_CURVE('',#165,#193,#86,.T.);
#231=EDGE_CURVE('',#193,#194,#87,.T.);
#232=EDGE_CURVE('',#194,#195,#88,.T.);
#233=EDGE_CURVE('',#195,#196,#89,.T.);
#234=EDGE_CURVE('',#196,#197,#90,.T.);
#235=EDGE_CURVE('',#197,#198,#91,.T.);
#236=EDGE_CURVE('',#198,#185,#92,.T.);
#237=EDGE_CURVE('',#181,#187,#93,.T.);
#238=EDGE_CURVE('',#186,#182,#94,.T.);
#239=EDGE_CURVE('',#185,#183,#95,.T.);
#240=EDGE_CURVE('',#168,#189,#96,.T.);
#241=EDGE_CURVE('',#188,#169,#97,.T.);
#242=EDGE_CURVE('',#167,#190,#98,.T.);
#243=EDGE_CURVE('',#170,#180,#99,.T.);
#244=EDGE_CURVE('',#184,#171,#100,.T.);
#245=EDGE_CURVE('',#198,#172,#101,.T.);
#246=EDGE_CURVE('',#197,#173,#102,.T.);
#247=EDGE_CURVE('',#196,#174,#103,.T.);
#248=EDGE_CURVE('',#195,#175,#104,.T.);
#249=EDGE_CURVE('',#194,#176,#105,.T.);
#250=EDGE_CURVE('',#193,#177,#106,.T.);
#251=EDGE_CURVE('',#179,#191,#107,.T.);
#252=EDGE_CURVE('',#192,#178,#108,.T.);
#253=ORIENTED_EDGE('',*,*,#199,.T.);
#254=ORIENTED_EDGE('',*,*,#200,.T.);
#255=ORIENTED_EDGE('',*,*,#201,.T.);
#256=ORIENTED_EDGE('',*,*,#202,.T.);
#257=ORIENTED_EDGE('',*,*,#203,.T.);
#258=ORIENTED_EDGE('',*,*,#204,.T.);
#259=ORIENTED_EDGE('',*,*,#205,.T.);
#260=ORIENTED_EDGE('',*,*,#206,.T.);
#261=ORIENTED_EDGE('',*,*,#207,.T.);
#262=ORIENTED_EDGE('',*,*,#208,.T.);
#263=ORIENTED_EDGE('',*,*,#209,.T.);
#264=ORIENTED_EDGE('',*,*,#210,.T.);
#265=ORIENTED_EDGE('',*,*,#211,.T.);
#266=ORIENTED_EDGE('',*,*,#212,.T.);
#267=ORIENTED_EDGE('',*,*,#213,.T.);
#268=ORIENTED_EDGE('',*,*,#199,.F.);
#269=ORIENTED_EDGE('',*,*,#214,.T.);
#270=ORIENTED_EDGE('',*,*,#215,.T.);
#271=ORIENTED_EDGE('',*,*,#216,.T.);
#272=ORIENTED_EDGE('',*,*,#217,.T.);
#273=ORIENTED_EDGE('',*,*,#218,.T.);
#274=ORIENTED_EDGE('',*,*,#219,.T.);
#275=ORIENTED_EDGE('',*,*,#220,.T.);
#276=ORIENTED_EDGE('',*,*,#221,.T.);
#277=ORIENTED_EDGE('',*,*,#222,.T.);
#278=ORIENTED_EDGE('',*,*,#223,.T.);
#279=ORIENTED_EDGE('',*,*,#224,.T.);
#280=ORIENTED_EDGE('',*,*,#225,.T.);
#281=ORIENTED_EDGE('',*,*,#226,.T.);
#282=ORIENTED_EDGE('',*,*,#227,.T.);
#283=ORIENTED_EDGE('',*,*,#228,.T.);
#284=ORIENTED_EDGE('',*,*,#229,.T.);
#285=ORIENTED_EDGE('',*,*,#201,.F.);
#286=ORIENTED_EDGE('',*,*,#230,.T.);
#287=ORIENTED_EDGE('',*,*,#231,.T.);
#288=ORIENTED_EDGE('',*,*,#232,.T.);
#289=ORIENTED_EDGE('',*,*,#233,.T.);
#290=ORIENTED_EDGE('',*,*,#234,.T.);
#291=ORIENTED_EDGE('',*,*,#235,.T.);
#292=ORIENTED_EDGE('',*,*,#236,.T.);
#293=ORIENTED_EDGE('',*,*,#218,.F.);
#294=ORIENTED_EDGE('',*,*,#237,.T.);
#295=ORIENTED_EDGE('',*,*,#223,.F.);
#296=ORIENTED_EDGE('',*,*,#238,.T.);
#297=ORIENTED_EDGE('',*,*,#219,.F.);
#298=ORIENTED_EDGE('',*,*,#238,.F.);
#299=ORIENTED_EDGE('',*,*,#222,.F.);
#300=ORIENTED_EDGE('',*,*,#239,.T.);
#301=ORIENTED_EDGE('',*,*,#204,.F.);
#302=ORIENTED_EDGE('',*,*,#240,.T.);
#303=ORIENTED_EDGE('',*,*,#225,.F.);
#304=ORIENTED_EDGE('',*,*,#241,.T.);
#305=ORIENTED_EDGE('',*,*,#203,.F.);
#306=ORIENTED_EDGE('',*,*,#242,.T.);
#307=ORIENTED_EDGE('',*,*,#226,.F.);
#308=ORIENTED_EDGE('',*,*,#240,.F.);
#309=ORIENTED_EDGE('',*,*,#206,.F.);
#310=ORIENTED_EDGE('',*,*,#243,.T.);
#311=ORIENTED_EDGE('',*,*,#221,.F.);
#312=ORIENTED_EDGE('',*,*,#244,.T.);
#313=ORIENTED_EDGE('',*,*,#243,.F.);
#314=ORIENTED_EDGE('',*,*,#205,.F.);
#315=ORIENTED_EDGE('',*,*,#241,.F.);
#316=ORIENTED_EDGE('',*,*,#224,.F.);
#317=ORIENTED_EDGE('',*,*,#237,.F.);
#318=ORIENTED_EDGE('',*,*,#217,.F.);
#319=ORIENTED_EDGE('',*,*,#239,.F.);
#320=ORIENTED_EDGE('',*,*,#236,.F.);
#321=ORIENTED_EDGE('',*,*,#245,.T.);
#322=ORIENTED_EDGE('',*,*,#207,.F.);
#323=ORIENTED_EDGE('',*,*,#244,.F.);
#324=ORIENTED_EDGE('',*,*,#220,.F.);
#325=ORIENTED_EDGE('',*,*,#208,.F.);
#326=ORIENTED_EDGE('',*,*,#245,.F.);
#327=ORIENTED_EDGE('',*,*,#235,.F.);
#328=ORIENTED_EDGE('',*,*,#246,.T.);
#329=ORIENTED_EDGE('',*,*,#209,.F.);
#330=ORIENTED_EDGE('',*,*,#246,.F.);
#331=ORIENTED_EDGE('',*,*,#234,.F.);
#332=ORIENTED_EDGE('',*,*,#247,.T.);
#333=ORIENTED_EDGE('',*,*,#210,.F.);
#334=ORIENTED_EDGE('',*,*,#247,.F.);
#335=ORIENTED_EDGE('',*,*,#233,.F.);
#336=ORIENTED_EDGE('',*,*,#248,.T.);
#337=ORIENTED_EDGE('',*,*,#211,.F.);
#338=ORIENTED_EDGE('',*,*,#248,.F.);
#339=ORIENTED_EDGE('',*,*,#232,.F.);
#340=ORIENTED_EDGE('',*,*,#249,.T.);
#341=ORIENTED_EDGE('',*,*,#212,.F.);
#342=ORIENTED_EDGE('',*,*,#249,.F.);
#343=ORIENTED_EDGE('',*,*,#231,.F.);
#344=ORIENTED_EDGE('',*,*,#250,.T.);
#345=ORIENTED_EDGE('',*,*,#213,.F.);
#346=ORIENTED_EDGE('',*,*,#250,.F.);
#347=ORIENTED_EDGE('',*,*,#230,.F.);
#348=ORIENTED_EDGE('',*,*,#200,.F.);
#349=ORIENTED_EDGE('',*,*,#216,.F.);
#350=ORIENTED_EDGE('',*,*,#251,.T.);
#351=ORIENTED_EDGE('',*,*,#227,.F.);
#352=ORIENTED_EDGE('',*,*,#242,.F.);
#353=ORIENTED_EDGE('',*,*,#214,.F.);
#354=ORIENTED_EDGE('',*,*,#202,.F.);
#355=ORIENTED_EDGE('',*,*,#229,.F.);
#356=ORIENTED_EDGE('',*,*,#252,.T.);
#357=ORIENTED_EDGE('',*,*,#215,.F.);
#358=ORIENTED_EDGE('',*,*,#252,.F.);
#359=ORIENTED_EDGE('',*,*,#228,.F.);
#360=ORIENTED_EDGE('',*,*,#251,.F.);
#361=PLANE('',#415);
#362=PLANE('',#416);
#363=PLANE('',#417);
#364=PLANE('',#418);
#365=PLANE('',#419);
#366=PLANE('',#420);
#367=PLANE('',#421);
#368=PLANE('',#422);
#369=PLANE('',#423);
#370=PLANE('',#424);
#371=PLANE('',#425);
#372=PLANE('',#426);
#373=PLANE('',#427);
#374=PLANE('',#428);
#375=PLANE('',#429);
#376=PLANE('',#430);
#377=PLANE('',#431);
#378=PLANE('',#432);
#379=PLANE('',#433);
#380=PLANE('',#434);
#381=ADVANCED_FACE('',(#15),#361,.T.);
#382=ADVANCED_FACE('',(#16),#362,.T.);
#383=ADVANCED_FACE('',(#17),#363,.T.);
#384=ADVANCED_FACE('',(#18),#364,.T.);
#385=ADVANCED_FACE('',(#19),#365,.T.);
#386=ADVANCED_FACE('',(#20),#366,.T.);
#387=ADVANCED_FACE('',(#21),#367,.T.);
#388=ADVANCED_FACE('',(#22),#368,.T.);
#389=ADVANCED_FACE('',(#23),#369,.T.);
#390=ADVANCED_FACE('',(#24),#370,.T.);
#391=ADVANCED_FACE('',(#25),#371,.T.);
#392=ADVANCED_FACE('',(#26),#372,.T.);
#393=ADVANCED_FACE('',(#27),#373,.T.);
#394=ADVANCED_FACE('',(#28),#374,.T.);
#395=ADVANCED_FACE('',(#29),#375,.T.);
#396=ADVANCED_FACE('',(#30),#376,.T.);
#397=ADVANCED_FACE('',(#31),#377,.T.);
#398=ADVANCED_FACE('',(#32),#378,.T.);
#399=ADVANCED_FACE('',(#33),#379,.T.);
#400=ADVANCED_FACE('',(#34),#380,.T.);
#401=CLOSED_SHELL('',(#381,#382,#383,#384,#385,#386,#387,#388,#389,#390,
#391,#392,#393,#394,#395,#396,#397,#398,#399,#400));
#402=DERIVED_UNIT_ELEMENT(#404,1.);
#403=DERIVED_UNIT_ELEMENT(#647,-3.);
#404=(
MASS_UNIT()
NAMED_UNIT(*)
SI_UNIT(.KILO.,.GRAM.)
);
#405=DERIVED_UNIT((#402,#403));
#406=MEASURE_REPRESENTATION_ITEM('density measure',
POSITIVE_RATIO_MEASURE(7850.),#405);
#407=PROPERTY_DEFINITION_REPRESENTATION(#412,#409);
#408=PROPERTY_DEFINITION_REPRESENTATION(#413,#410);
#409=REPRESENTATION('material name',(#411),#644);
#410=REPRESENTATION('density',(#406),#644);
#411=DESCRIPTIVE_REPRESENTATION_ITEM('\X2\94A2\X0\','\X2\94A2\X0\');
#412=PROPERTY_DEFINITION('material property','material name',#654);
#413=PROPERTY_DEFINITION('material property','density of part',#654);
#414=AXIS2_PLACEMENT_3D('',#531,#435,#436);
#415=AXIS2_PLACEMENT_3D('',#532,#437,#438);
#416=AXIS2_PLACEMENT_3D('',#541,#443,#444);
#417=AXIS2_PLACEMENT_3D('',#569,#459,#460);
#418=AXIS2_PLACEMENT_3D('',#580,#466,#467);
#419=AXIS2_PLACEMENT_3D('',#610,#483,#484);
#420=AXIS2_PLACEMENT_3D('',#613,#487,#488);
#421=AXIS2_PLACEMENT_3D('',#615,#490,#491);
#422=AXIS2_PLACEMENT_3D('',#618,#494,#495);
#423=AXIS2_PLACEMENT_3D('',#620,#497,#498);
#424=AXIS2_PLACEMENT_3D('',#623,#501,#502);
#425=AXIS2_PLACEMENT_3D('',#624,#503,#504);
#426=AXIS2_PLACEMENT_3D('',#626,#506,#507);
#427=AXIS2_PLACEMENT_3D('',#628,#509,#510);
#428=AXIS2_PLACEMENT_3D('',#630,#512,#513);
#429=AXIS2_PLACEMENT_3D('',#632,#515,#516);
#430=AXIS2_PLACEMENT_3D('',#634,#518,#519);
#431=AXIS2_PLACEMENT_3D('',#636,#521,#522);
#432=AXIS2_PLACEMENT_3D('',#637,#523,#524);
#433=AXIS2_PLACEMENT_3D('',#639,#526,#527);
#434=AXIS2_PLACEMENT_3D('',#641,#529,#530);
#435=DIRECTION('axis',(0.,0.,1.));
#436=DIRECTION('refdir',(1.,0.,0.));
#437=DIRECTION('center_axis',(0.197636177727035,0.980275441523171,0.));
#438=DIRECTION('ref_axis',(0.,0.,1.));
#439=DIRECTION('',(-0.980275441523365,0.197636177726074,0.));
#440=DIRECTION('',(0.,0.,1.));
#441=DIRECTION('',(0.980275441523365,-0.197636177726074,0.));
#442=DIRECTION('',(0.,0.,-1.));
#443=DIRECTION('center_axis',(2.106746770843E-17,0.,-1.));
#444=DIRECTION('ref_axis',(-0.981117952578528,0.193410349071907,-2.06696707841091E-17));
#445=DIRECTION('',(-0.193410349071907,-0.981117952578528,0.));
#446=DIRECTION('',(-0.194528049489919,-0.980896955832593,0.));
#447=DIRECTION('',(-0.194652456795904,-0.980872275611519,-4.10083434791299E-18));
#448=DIRECTION('',(-0.200521214074931,-0.979689360310663,0.));
#449=DIRECTION('',(-0.981074041949229,0.193632962621045,-2.06687456983448E-17));
#450=DIRECTION('',(-0.980977300228843,0.194122477924969,0.));
#451=DIRECTION('',(0.196116135136069,0.980580675691343,0.));
#452=DIRECTION('',(0.981220485849061,-0.192889497252012,0.));
#453=DIRECTION('',(0.197549521494015,0.980292908552074,0.));
#454=DIRECTION('',(-0.979936662275333,0.199309151643068,0.));
#455=DIRECTION('',(0.195413663311078,0.980720908409393,0.));
#456=DIRECTION('',(-0.216930457801927,-0.97618706018767,0.));
#457=DIRECTION('',(-0.195242878143075,-0.980754922768379,0.));
#458=DIRECTION('',(0.984562507779607,-0.17503333475293,0.));
#459=DIRECTION('center_axis',(0.,0.,1.));
#460=DIRECTION('ref_axis',(-0.980872244754347,0.194652612288069,0.));
#461=DIRECTION('',(0.194652456795904,0.980872275611519,0.));
#462=DIRECTION('',(-0.980872134028684,0.194653170243937,0.));
#463=DIRECTION('',(-0.19465230823811,-0.980872305092552,0.));
#464=DIRECTION('',(0.981074041949229,-0.193632962621045,0.));
#465=DIRECTION('',(0.200521214074931,0.979689360310663,0.));
#466=DIRECTION('center_axis',(8.478126659374E-17,0.,1.));
#467=DIRECTION('ref_axis',(-0.980872305092552,0.19465230823811,8.31595963924679E-17));
#468=DIRECTION('',(0.19465230823811,0.980872305092552,0.));
#469=DIRECTION('',(0.980872134028684,-0.194653170243937,0.));
#470=DIRECTION('',(0.194652456795904,0.980872275611519,-1.65028818327319E-17));
#471=DIRECTION('',(0.194528049489919,0.980896955832593,0.));
#472=DIRECTION('',(0.193410349071907,0.981117952578528,0.));
#473=DIRECTION('',(-0.984562507779607,0.17503333475293,0.));
#474=DIRECTION('',(0.195242878143075,0.980754922768379,0.));
#475=DIRECTION('',(0.216930457801927,0.97618706018767,0.));
#476=DIRECTION('',(-0.195413663311078,-0.980720908409393,0.));
#477=DIRECTION('',(0.979936662275333,-0.199309151643068,0.));
#478=DIRECTION('',(-0.197549521494015,-0.980292908552074,0.));
#479=DIRECTION('',(-0.981220485849061,0.192889497252012,0.));
#480=DIRECTION('',(-0.196116135136069,-0.980580675691343,0.));
#481=DIRECTION('',(0.980977300228843,-0.194122477924969,0.));
#482=DIRECTION('',(0.981074041949229,-0.193632962621045,-8.31766998987194E-17));
#483=DIRECTION('center_axis',(-0.194653170243937,-0.980872134028684,0.));
#484=DIRECTION('ref_axis',(0.,0.,1.));
#485=DIRECTION('',(1.875089798248E-8,-3.721098408844E-9,1.));
#486=DIRECTION('',(0.,0.,-1.));
#487=DIRECTION('center_axis',(0.980872305092781,-0.194652308236956,0.));
#488=DIRECTION('ref_axis',(0.,0.,1.));
#489=DIRECTION('',(-2.061632701207E-9,-1.038877184763E-8,-1.));
#490=DIRECTION('center_axis',(0.980896955832593,-0.194528049489919,0.));
#491=DIRECTION('ref_axis',(0.,0.,1.));
#492=DIRECTION('',(0.,0.,1.));
#493=DIRECTION('',(0.,0.,-1.));
#494=DIRECTION('center_axis',(0.981117952578908,-0.193410349069982,0.));
#495=DIRECTION('ref_axis',(0.,0.,1.));
#496=DIRECTION('',(0.,0.,1.));
#497=DIRECTION('center_axis',(0.979689360313927,-0.200521214058985,0.));
#498=DIRECTION('ref_axis',(0.,0.,1.));
#499=DIRECTION('',(0.,0.,1.));
#500=DIRECTION('',(-2.123843672024E-9,-1.037649337112E-8,-1.));
#501=DIRECTION('center_axis',(0.980872275611518,-0.194652456795904,-1.91165569210806E-8));
#502=DIRECTION('ref_axis',(0.194652456795904,0.980872275611518,2.48154183765786E-24));
#503=DIRECTION('center_axis',(-0.193632962621045,-0.981074041949229,1.05913544352225E-8));
#504=DIRECTION('ref_axis',(-0.981074041949229,0.193632962621045,0.));
#505=DIRECTION('',(0.,0.,-1.));
#506=DIRECTION('center_axis',(-0.194122477924969,-0.980977300228843,0.));
#507=DIRECTION('ref_axis',(0.,0.,1.));
#508=DIRECTION('',(0.,0.,-1.));
#509=DIRECTION('center_axis',(-0.980580675691151,0.19611613513703,0.));
#510=DIRECTION('ref_axis',(0.,0.,1.));
#511=DIRECTION('',(0.,0.,-1.));
#512=DIRECTION('center_axis',(0.192889497252975,0.981220485848871,0.));
#513=DIRECTION('ref_axis',(0.,0.,1.));
#514=DIRECTION('',(0.,0.,-1.));
#515=DIRECTION('center_axis',(-0.980292908551687,0.197549521495937,0.));
#516=DIRECTION('ref_axis',(0.,0.,1.));
#517=DIRECTION('',(0.,0.,-1.));
#518=DIRECTION('center_axis',(-0.199309151642108,-0.979936662275529,0.));
#519=DIRECTION('ref_axis',(0.,0.,1.));
#520=DIRECTION('',(0.,0.,-1.));
#521=DIRECTION('center_axis',(-0.980720908409393,0.195413663311078,0.));
#522=DIRECTION('ref_axis',(0.,0.,1.));
#523=DIRECTION('center_axis',(0.175033334754072,0.984562507779404,0.));
#524=DIRECTION('ref_axis',(0.,0.,1.));
#525=DIRECTION('',(0.,0.,1.));
#526=DIRECTION('center_axis',(0.976187060210988,-0.216930457696997,0.));
#527=DIRECTION('ref_axis',(0.,0.,1.));
#528=DIRECTION('',(0.,0.,-1.));
#529=DIRECTION('center_axis',(0.980754922768379,-0.195242878143075,0.));
#530=DIRECTION('ref_axis',(0.,0.,1.));
#531=CARTESIAN_POINT('',(0.,0.,0.));
#532=CARTESIAN_POINT('Origin',(1395.,8189.999984026,9.094947017729E-13));
#533=CARTESIAN_POINT('',(6974.99999999949,7064.99998402583,-4478.25));
#534=CARTESIAN_POINT('',(-4185.00000000877,9314.99998402598,-4478.25));
#535=CARTESIAN_POINT('',(6975.,7064.999984026,-4478.25));
#536=CARTESIAN_POINT('',(-4185.00000000071,9314.99998402645,4478.25));
#537=CARTESIAN_POINT('',(-4185.,9314.999984026,-4478.25));
#538=CARTESIAN_POINT('',(6974.99999999954,7064.99998402826,4478.25));
#539=CARTESIAN_POINT('',(-4185.,9314.999984026,4478.25));
#540=CARTESIAN_POINT('',(6975.,7064.999984026,4478.25));
#541=CARTESIAN_POINT('Origin',(1413.,69.133317053318,-4478.25));
#542=CARTESIAN_POINT('',(7424.99999999504,4654.99998401047,-4478.25));
#543=CARTESIAN_POINT('',(6875.00000000272,1864.99998402546,-4478.25));
#544=CARTESIAN_POINT('',(7425.,4654.999984026,-4478.25));
#545=CARTESIAN_POINT('',(5697.,-4075.000015974,-4478.25));
#546=CARTESIAN_POINT('',(6875.,1864.999984026,-4478.25));
#547=CARTESIAN_POINT('',(4725.,-8973.000015974,-4478.25));
#548=CARTESIAN_POINT('',(5757.542640597,-3769.919577003,-4478.25));
#549=CARTESIAN_POINT('',(4655.00000659733,-9314.99998365244,-4478.25));
#550=CARTESIAN_POINT('',(4725.,-8973.000015974,-4478.25));
#551=CARTESIAN_POINT('',(3743.,-9135.000015974,-4478.25));
#552=CARTESIAN_POINT('',(1911.141855508,-8773.449233949,-4478.25));
#553=CARTESIAN_POINT('',(-7425.0000000035,-6925.00001599334,-4478.25));
#554=CARTESIAN_POINT('',(3743.,-9135.000015974,-4478.25));
#555=CARTESIAN_POINT('',(-6305.00000000579,-1325.00001597215,-4478.25));
#556=CARTESIAN_POINT('',(-7425.,-6925.000015974,-4478.25));
#557=CARTESIAN_POINT('',(-5135.00000000436,-1555.0000159929,-4478.25));
#558=CARTESIAN_POINT('',(-6305.,-1325.000015974,-4478.25));
#559=CARTESIAN_POINT('',(-4075.00000000274,3704.99998402682,-4478.25));
#560=CARTESIAN_POINT('',(-5135.,-1555.000015974,-4478.25));
#561=CARTESIAN_POINT('',(-5254.99999999995,3944.99998402231,-4478.25));
#562=CARTESIAN_POINT('',(-4075.,3704.999984026,-4478.25));
#563=CARTESIAN_POINT('',(-5255.,3944.999984026,-4478.25));
#564=CARTESIAN_POINT('',(6955.00000000051,6974.99998402586,-4478.25));
#565=CARTESIAN_POINT('',(6975.,7064.999984026,-4478.25));
#566=CARTESIAN_POINT('',(6525.00000000081,4814.99998402643,-4478.25));
#567=CARTESIAN_POINT('',(6955.,6974.999984026,-4478.25));
#568=CARTESIAN_POINT('',(6525.,4814.999984026,-4478.25));
#569=CARTESIAN_POINT('Origin',(4528.126599997,-8195.504415929,1378.25));
#570=CARTESIAN_POINT('',(4724.99999995216,-8973.00001661138,1378.25));
#571=CARTESIAN_POINT('',(5145.50483208902,-6854.03698272346,1378.25));
#572=CARTESIAN_POINT('',(5027.577839896,-7448.282332003,1378.25));
#573=CARTESIAN_POINT('',(4301.87800000524,-6686.62001598231,1378.25));
#574=CARTESIAN_POINT('',(5145.504999995,-6854.037015975,1378.25));
#575=CARTESIAN_POINT('',(3813.24998154706,-9148.86510914085,1378.25));
#576=CARTESIAN_POINT('',(4301.878000006,-6686.620015979,1378.25));
#577=CARTESIAN_POINT('',(4655.00001900029,-9314.99992303772,1378.25));
#578=CARTESIAN_POINT('',(4195.315798506,-9224.272808015,1378.25));
#579=CARTESIAN_POINT('',(4655.,-9315.000015974,1378.25));
#580=CARTESIAN_POINT('Origin',(1567.227062494,-210.2826409935,4478.25));
#581=CARTESIAN_POINT('',(3813.24998794868,-9148.86507688417,4478.25));
#582=CARTESIAN_POINT('',(4301.87800000593,-6686.62001597802,4478.25));
#583=CARTESIAN_POINT('',(3813.25,-9148.865015984,4478.25));
#584=CARTESIAN_POINT('',(5145.50489011676,-6854.03699423489,4478.25));
#585=CARTESIAN_POINT('',(4301.878000006,-6686.620015979,4478.25));
#586=CARTESIAN_POINT('',(5696.99999997182,-4075.00001595332,4478.25));
#587=CARTESIAN_POINT('',(5733.790275291,-3889.610887945,4478.25));
#588=CARTESIAN_POINT('',(6874.99999999978,1864.99998402605,4478.25));
#589=CARTESIAN_POINT('',(5697.,-4075.000015974,4478.25));
#590=CARTESIAN_POINT('',(7424.99999999606,4654.99998402615,4478.25));
#591=CARTESIAN_POINT('',(6875.,1864.999984026,4478.25));
#592=CARTESIAN_POINT('',(6525.00000000321,4814.99998404181,4478.25));
#593=CARTESIAN_POINT('',(7425.,4654.999984026,4478.25));
#594=CARTESIAN_POINT('',(6954.99999999955,6974.99998402606,4478.25));
#595=CARTESIAN_POINT('',(6525.,4814.999984026,4478.25));
#596=CARTESIAN_POINT('',(6955.,6974.999984026,4478.25));
#597=CARTESIAN_POINT('',(-5254.99999999165,3944.99998402394,4478.25));
#598=CARTESIAN_POINT('',(-4185.,9314.999984026,4478.25));
#599=CARTESIAN_POINT('',(-4074.99999999902,3704.99998402907,4478.25));
#600=CARTESIAN_POINT('',(-5255.,3944.999984026,4478.25));
#601=CARTESIAN_POINT('',(-5134.99999999705,-1555.00001597529,4478.25));
#602=CARTESIAN_POINT('',(-4075.,3704.999984026,4478.25));
#603=CARTESIAN_POINT('',(-6304.99999999723,-1325.00001595479,4478.25));
#604=CARTESIAN_POINT('',(-5135.,-1555.000015974,4478.25));
#605=CARTESIAN_POINT('',(-7424.99999999421,-6925.00001597584,4478.25));
#606=CARTESIAN_POINT('',(-6305.,-1325.000015974,4478.25));
#607=CARTESIAN_POINT('',(3743.00000007319,-9135.00001576643,4478.25));
#608=CARTESIAN_POINT('',(-7425.,-6925.000015974,4478.25));
#609=CARTESIAN_POINT('',(2011.904215306,-8793.336437941,4478.25));
#610=CARTESIAN_POINT('Origin',(4723.691500008,-6770.328515947,2928.25));
#611=CARTESIAN_POINT('',(5145.504838005,-6854.036983967,1693.833329223));
#612=CARTESIAN_POINT('',(4301.878000006,-6686.620015979,4478.25));
#613=CARTESIAN_POINT('Origin',(4057.563999996,-7917.742515981,2928.25));
#614=CARTESIAN_POINT('',(3813.249982208,-9148.865105987,1693.833339982));
#615=CARTESIAN_POINT('Origin',(6286.,-1105.000015974,9.094947017729E-13));
#616=CARTESIAN_POINT('',(6875.,1864.999984026,-4478.25));
#617=CARTESIAN_POINT('',(5697.,-4075.000015974,4478.25));
#618=CARTESIAN_POINT('Origin',(7150.,3259.999984026,9.094947017729E-13));
#619=CARTESIAN_POINT('',(7425.,4654.999984026,-4478.25));
#620=CARTESIAN_POINT('Origin',(4690.,-9144.000015974,-1550.));
#621=CARTESIAN_POINT('',(4725.,-8973.000015974,-4478.25));
#622=CARTESIAN_POINT('',(4655.000014901,-9314.999942958,-545.2916657644));
#623=CARTESIAN_POINT('Origin',(5189.168333307,-6634.01234895,459.41666666667));
#624=CARTESIAN_POINT('Origin',(4070.416666701,-9199.621683002,459.41666666667));
#625=CARTESIAN_POINT('',(3743.,-9135.000015974,4478.25));
#626=CARTESIAN_POINT('Origin',(-1841.,-8030.000015974,9.094947017729E-13));
#627=CARTESIAN_POINT('',(-7425.,-6925.000015974,4478.25));
#628=CARTESIAN_POINT('Origin',(-6865.,-4125.000015974,9.094947017729E-13));
#629=CARTESIAN_POINT('',(-6305.,-1325.000015974,4478.25));
#630=CARTESIAN_POINT('Origin',(-5720.,-1440.000015974,9.094947017729E-13));
#631=CARTESIAN_POINT('',(-5135.,-1555.000015974,4478.25));
#632=CARTESIAN_POINT('Origin',(-4605.,1074.999984026,9.094947017729E-13));
#633=CARTESIAN_POINT('',(-4075.,3704.999984026,4478.25));
#634=CARTESIAN_POINT('Origin',(-4665.,3824.999984026,9.094947017729E-13));
#635=CARTESIAN_POINT('',(-5255.,3944.999984026,4478.25));
#636=CARTESIAN_POINT('Origin',(-4720.,6629.999984026,9.094947017729E-13));
#637=CARTESIAN_POINT('Origin',(6975.,4734.999984026,9.094947017729E-13));
#638=CARTESIAN_POINT('',(6525.,4814.999984026,-4478.25));
#639=CARTESIAN_POINT('Origin',(6965.,7019.999984026,9.094947017729E-13));
#640=CARTESIAN_POINT('',(6955.,6974.999984026,4478.25));
#641=CARTESIAN_POINT('Origin',(6740.,5894.999984026,9.094947017729E-13));
#642=UNCERTAINTY_MEASURE_WITH_UNIT(LENGTH_MEASURE(0.01),#646,
'DISTANCE_ACCURACY_VALUE',
'Maximum model space distance between geometric entities at asserted c
onnectivities');
#643=UNCERTAINTY_MEASURE_WITH_UNIT(LENGTH_MEASURE(0.01),#646,
'DISTANCE_ACCURACY_VALUE',
'Maximum model space distance between geometric entities at asserted c
onnectivities');
#644=(
GEOMETRIC_REPRESENTATION_CONTEXT(3)
GLOBAL_UNCERTAINTY_ASSIGNED_CONTEXT((#642))
GLOBAL_UNIT_ASSIGNED_CONTEXT((#646,#648,#649))
REPRESENTATION_CONTEXT('','3D')
);
#645=(
GEOMETRIC_REPRESENTATION_CONTEXT(3)
GLOBAL_UNCERTAINTY_ASSIGNED_CONTEXT((#643))
GLOBAL_UNIT_ASSIGNED_CONTEXT((#646,#648,#649))
REPRESENTATION_CONTEXT('','3D')
);
#646=(
LENGTH_UNIT()
NAMED_UNIT(*)
SI_UNIT(.MILLI.,.METRE.)
);
#647=(
LENGTH_UNIT()
NAMED_UNIT(*)
SI_UNIT($,.METRE.)
);
#648=(
NAMED_UNIT(*)
PLANE_ANGLE_UNIT()
SI_UNIT($,.RADIAN.)
);
#649=(
NAMED_UNIT(*)
SI_UNIT($,.STERADIAN.)
SOLID_ANGLE_UNIT()
);
#650=SHAPE_DEFINITION_REPRESENTATION(#651,#652);
#651=PRODUCT_DEFINITION_SHAPE('',$,#654);
#652=SHAPE_REPRESENTATION('',(#414),#644);
#653=PRODUCT_DEFINITION_CONTEXT('part definition',#658,'design');
#654=PRODUCT_DEFINITION('Open CASCADE STEP translator 7.7 19',
'(\X2\672A4FDD5B58\X0\)',#655,#653);
#655=PRODUCT_DEFINITION_FORMATION('',$,#660);
#656=PRODUCT_RELATED_PRODUCT_CATEGORY('(\X2\672A4FDD5B58\X0\)',
'(\X2\672A4FDD5B58\X0\)',(#660));
#657=APPLICATION_PROTOCOL_DEFINITION('international standard',
'automotive_design',2009,#658);
#658=APPLICATION_CONTEXT(
'Core Data for Automotive Mechanical Design Process');
#659=PRODUCT_CONTEXT('part definition',#658,'mechanical');
#660=PRODUCT('Open CASCADE STEP translator 7.7 19','(\X2\672A4FDD5B58\X0\)',
'Open CASCADE Model',(#659));
#661=PRESENTATION_STYLE_ASSIGNMENT((#662));
#662=SURFACE_STYLE_USAGE(.BOTH.,#663);
#663=SURFACE_SIDE_STYLE('',(#664));
#664=SURFACE_STYLE_FILL_AREA(#665);
#665=FILL_AREA_STYLE('\X2\94A2\X0\ - \X2\7F0E5149\X0\',(#666));
#666=FILL_AREA_STYLE_COLOUR('\X2\94A2\X0\ - \X2\7F0E5149\X0\',#667);
#667=COLOUR_RGB('\X2\94A2\X0\ - \X2\7F0E5149\X0\',0.627450980392157,0.627450980392157,
0.627450980392157);
ENDSEC;
END-ISO-10303-21;
