# OBJ file generated from STEP using CadQuery
# Vertices: 84
# Faces: 52

v 848.000000 18.000000 -442.515000
v 996.000000 753.000000 -442.515000
v 996.000000 753.000000 442.515000
v 848.000000 18.000000 442.515000
v 437.000000 100.000000 -442.515000
v 408.000000 -47.200000 -442.515000
v 309.000000 -546.000000 -442.515000
v 252.000000 -831.000000 -442.515000
v 162.000000 -813.000000 -442.515000
v 120.000000 -1027.000000 -442.515000
v -996.000000 -802.000000 -442.515000
v -891.000000 -277.000000 -442.515000
v -775.000000 -300.000000 -442.515000
v -649.000000 331.800000 -442.515000
v -529.000000 935.000000 -442.515000
v -386.000000 1027.000000 -442.515000
v 996.000000 753.000000 -442.515000
v 848.000000 18.000000 -442.515000
v 996.000000 753.000000 442.515000
v 848.000000 18.000000 442.515000
v -386.000000 1027.000000 442.515000
v -529.000000 935.000000 442.515000
v -649.000000 331.800000 442.515000
v -775.000000 -300.000000 442.515000
v -891.000000 -277.000000 442.515000
v -996.000000 -802.000000 442.515000
v 120.000000 -1027.000000 442.515000
v 162.000000 -813.000000 442.515000
v 252.000000 -831.000000 442.515000
v 309.000000 -546.000000 442.515000
v 408.000000 -47.200000 442.515000
v 437.000000 100.000000 442.515000
v 437.000000 100.000000 -442.515000
v 408.000000 -47.200000 -442.515000
v 437.000000 100.000000 442.515000
v 408.000000 -47.200000 442.515000
v 309.000000 -546.000000 -442.515000
v 252.000000 -831.000000 -442.515000
v 309.000000 -546.000000 442.515000
v 252.000000 -831.000000 442.515000
v 408.000000 -47.200000 -442.515000
v 309.000000 -546.000000 -442.515000
v 408.000000 -47.200000 442.515000
v 309.000000 -546.000000 442.515000
v 252.000000 -831.000000 -442.515000
v 162.000000 -813.000000 -442.515000
v 252.000000 -831.000000 442.515000
v 162.000000 -813.000000 442.515000
v 162.000000 -813.000000 -442.515000
v 120.000000 -1027.000000 -442.515000
v 162.000000 -813.000000 442.515000
v 120.000000 -1027.000000 442.515000
v 120.000000 -1027.000000 -442.515000
v -996.000000 -802.000000 -442.515000
v 120.000000 -1027.000000 442.515000
v -996.000000 -802.000000 442.515000
v -996.000000 -802.000000 -442.515000
v -891.000000 -277.000000 -442.515000
v -996.000000 -802.000000 442.515000
v -891.000000 -277.000000 442.515000
v -891.000000 -277.000000 -442.515000
v -775.000000 -300.000000 -442.515000
v -891.000000 -277.000000 442.515000
v -775.000000 -300.000000 442.515000
v -775.000000 -300.000000 -442.515000
v -649.000000 331.800000 -442.515000
v -775.000000 -300.000000 442.515000
v -649.000000 331.800000 442.515000
v -649.000000 331.800000 -442.515000
v -529.000000 935.000000 -442.515000
v -649.000000 331.800000 442.515000
v -529.000000 935.000000 442.515000
v -529.000000 935.000000 -442.515000
v -386.000000 1027.000000 -442.515000
v -529.000000 935.000000 442.515000
v -386.000000 1027.000000 442.515000
v -386.000000 1027.000000 -442.515000
v 996.000000 753.000000 -442.515000
v -386.000000 1027.000000 442.515000
v 996.000000 753.000000 442.515000
v 848.000000 18.000000 -442.515000
v 437.000000 100.000000 -442.515000
v 848.000000 18.000000 442.515000
v 437.000000 100.000000 442.515000

f 4 1 2
f 4 2 3
f 7 8 9
f 11 9 10
f 17 18 5
f 13 6 7
f 13 7 9
f 13 9 11
f 12 13 11
f 14 5 6
f 14 6 13
f 16 17 5
f 16 5 14
f 15 16 14
f 32 20 19
f 21 32 19
f 28 29 30
f 23 21 22
f 23 31 32
f 23 32 21
f 24 30 31
f 24 31 23
f 24 28 30
f 26 24 25
f 26 27 28
f 26 28 24
f 36 34 33
f 36 33 35
f 39 38 37
f 40 38 39
f 44 42 41
f 44 41 43
f 48 46 45
f 48 45 47
f 51 50 49
f 52 50 51
f 54 53 55
f 56 54 55
f 60 58 57
f 60 57 59
f 63 62 61
f 64 62 63
f 68 66 65
f 68 65 67
f 72 70 69
f 72 69 71
f 75 74 73
f 76 74 75
f 78 77 79
f 80 78 79
f 83 82 81
f 84 82 83
