ISO-10303-21;
HEADER;
/* Generated by software containing ST-Developer
 * from STEP Tools, Inc. (www.steptools.com) 
 */

FILE_DESCRIPTION(
/* description */ ('Open CASCADE Model'),
/* implementation_level */ '2;1');

FILE_NAME(
/* name */ '17.step',
/* time_stamp */ '2025-12-23T14:06:26+08:00',
/* author */ (''),
/* organization */ (''),
/* preprocessor_version */ 'ST-DEVELOPER v20.1',
/* originating_system */ 'Autodesk Translation Framework v14.21.0.0',
/* authorisation */ '');

FILE_SCHEMA (('AUTOMOTIVE_DESIGN { 1 0 10303 214 3 1 1 }'));
ENDSEC;

DATA;
#10=MECHANICAL_DESIGN_GEOMETRIC_PRESENTATION_REPRESENTATION('',(#13),#513);
#11=SHAPE_REPRESENTATION_RELATIONSHIP('SRR','None',#520,#12);
#12=ADVANCED_BREP_SHAPE_REPRESENTATION('',(#14),#512);
#13=STYLED_ITEM('',(#529),#14);
#14=MANIFOLD_SOLID_BREP('\X2\5B9E4F53\X0\1',#317);
#15=FACE_OUTER_BOUND('',#31,.T.);
#16=FACE_OUTER_BOUND('',#32,.T.);
#17=FACE_OUTER_BOUND('',#33,.T.);
#18=FACE_OUTER_BOUND('',#34,.T.);
#19=FACE_OUTER_BOUND('',#35,.T.);
#20=FACE_OUTER_BOUND('',#36,.T.);
#21=FACE_OUTER_BOUND('',#37,.T.);
#22=FACE_OUTER_BOUND('',#38,.T.);
#23=FACE_OUTER_BOUND('',#39,.T.);
#24=FACE_OUTER_BOUND('',#40,.T.);
#25=FACE_OUTER_BOUND('',#41,.T.);
#26=FACE_OUTER_BOUND('',#42,.T.);
#27=FACE_OUTER_BOUND('',#43,.T.);
#28=FACE_OUTER_BOUND('',#44,.T.);
#29=FACE_OUTER_BOUND('',#45,.T.);
#30=FACE_OUTER_BOUND('',#46,.T.);
#31=EDGE_LOOP('',(#201,#202,#203,#204));
#32=EDGE_LOOP('',(#205,#206,#207,#208,#209,#210,#211,#212,#213,#214,#215,
#216,#217,#218));
#33=EDGE_LOOP('',(#219,#220,#221,#222,#223,#224,#225,#226,#227,#228,#229,
#230,#231,#232));
#34=EDGE_LOOP('',(#233,#234,#235,#236));
#35=EDGE_LOOP('',(#237,#238,#239,#240));
#36=EDGE_LOOP('',(#241,#242,#243,#244));
#37=EDGE_LOOP('',(#245,#246,#247,#248));
#38=EDGE_LOOP('',(#249,#250,#251,#252));
#39=EDGE_LOOP('',(#253,#254,#255,#256));
#40=EDGE_LOOP('',(#257,#258,#259,#260));
#41=EDGE_LOOP('',(#261,#262,#263,#264));
#42=EDGE_LOOP('',(#265,#266,#267,#268));
#43=EDGE_LOOP('',(#269,#270,#271,#272));
#44=EDGE_LOOP('',(#273,#274,#275,#276));
#45=EDGE_LOOP('',(#277,#278,#279,#280));
#46=EDGE_LOOP('',(#281,#282,#283,#284));
#47=LINE('',#427,#89);
#48=LINE('',#429,#90);
#49=LINE('',#431,#91);
#50=LINE('',#432,#92);
#51=LINE('',#436,#93);
#52=LINE('',#438,#94);
#53=LINE('',#440,#95);
#54=LINE('',#442,#96);
#55=LINE('',#444,#97);
#56=LINE('',#446,#98);
#57=LINE('',#448,#99);
#58=LINE('',#450,#100);
#59=LINE('',#452,#101);
#60=LINE('',#454,#102);
#61=LINE('',#456,#103);
#62=LINE('',#457,#104);
#63=LINE('',#458,#105);
#64=LINE('',#461,#106);
#65=LINE('',#463,#107);
#66=LINE('',#465,#108);
#67=LINE('',#467,#109);
#68=LINE('',#469,#110);
#69=LINE('',#471,#111);
#70=LINE('',#473,#112);
#71=LINE('',#475,#113);
#72=LINE('',#477,#114);
#73=LINE('',#479,#115);
#74=LINE('',#481,#116);
#75=LINE('',#483,#117);
#76=LINE('',#484,#118);
#77=LINE('',#486,#119);
#78=LINE('',#487,#120);
#79=LINE('',#489,#121);
#80=LINE('',#490,#122);
#81=LINE('',#493,#123);
#82=LINE('',#495,#124);
#83=LINE('',#497,#125);
#84=LINE('',#499,#126);
#85=LINE('',#501,#127);
#86=LINE('',#503,#128);
#87=LINE('',#505,#129);
#88=LINE('',#507,#130);
#89=VECTOR('',#351,1.00000000000054);
#90=VECTOR('',#352,1.);
#91=VECTOR('',#353,1.00000000000054);
#92=VECTOR('',#354,1.);
#93=VECTOR('',#357,0.999999999999541);
#94=VECTOR('',#358,1.00000000000001);
#95=VECTOR('',#359,1.00000000000004);
#96=VECTOR('',#360,1.00000000000024);
#97=VECTOR('',#361,0.999999999999846);
#98=VECTOR('',#362,0.999999999999628);
#99=VECTOR('',#363,1.00000000000024);
#100=VECTOR('',#364,0.999999999999792);
#101=VECTOR('',#365,0.999999999999593);
#102=VECTOR('',#366,1.00000000000027);
#103=VECTOR('',#367,0.99999999999982);
#104=VECTOR('',#368,0.99999999999991);
#105=VECTOR('',#369,1.00000000000008);
#106=VECTOR('',#372,0.99999999999991);
#107=VECTOR('',#373,0.99999999999982);
#108=VECTOR('',#374,1.00000000000027);
#109=VECTOR('',#375,0.999999999999593);
#110=VECTOR('',#376,0.999999999999792);
#111=VECTOR('',#377,1.00000000000024);
#112=VECTOR('',#378,0.999999999999628);
#113=VECTOR('',#379,0.999999999999846);
#114=VECTOR('',#380,1.00000000000024);
#115=VECTOR('',#381,1.00000000000004);
#116=VECTOR('',#382,1.00000000000001);
#117=VECTOR('',#383,0.999999999999541);
#118=VECTOR('',#384,1.00000000000008);
#119=VECTOR('',#387,1.);
#120=VECTOR('',#388,1.);
#121=VECTOR('',#391,1.);
#122=VECTOR('',#392,1.);
#123=VECTOR('',#397,1.);
#124=VECTOR('',#400,1.);
#125=VECTOR('',#403,1.);
#126=VECTOR('',#406,1.);
#127=VECTOR('',#409,1.);
#128=VECTOR('',#412,1.);
#129=VECTOR('',#415,1.);
#130=VECTOR('',#418,1.);
#131=VERTEX_POINT('',#425);
#132=VERTEX_POINT('',#426);
#133=VERTEX_POINT('',#428);
#134=VERTEX_POINT('',#430);
#135=VERTEX_POINT('',#434);
#136=VERTEX_POINT('',#435);
#137=VERTEX_POINT('',#437);
#138=VERTEX_POINT('',#439);
#139=VERTEX_POINT('',#441);
#140=VERTEX_POINT('',#443);
#141=VERTEX_POINT('',#445);
#142=VERTEX_POINT('',#447);
#143=VERTEX_POINT('',#449);
#144=VERTEX_POINT('',#451);
#145=VERTEX_POINT('',#453);
#146=VERTEX_POINT('',#455);
#147=VERTEX_POINT('',#460);
#148=VERTEX_POINT('',#462);
#149=VERTEX_POINT('',#464);
#150=VERTEX_POINT('',#466);
#151=VERTEX_POINT('',#468);
#152=VERTEX_POINT('',#470);
#153=VERTEX_POINT('',#472);
#154=VERTEX_POINT('',#474);
#155=VERTEX_POINT('',#476);
#156=VERTEX_POINT('',#478);
#157=VERTEX_POINT('',#480);
#158=VERTEX_POINT('',#482);
#159=EDGE_CURVE('',#131,#132,#47,.T.);
#160=EDGE_CURVE('',#132,#133,#48,.T.);
#161=EDGE_CURVE('',#133,#134,#49,.T.);
#162=EDGE_CURVE('',#134,#131,#50,.T.);
#163=EDGE_CURVE('',#135,#136,#51,.T.);
#164=EDGE_CURVE('',#136,#137,#52,.T.);
#165=EDGE_CURVE('',#137,#138,#53,.T.);
#166=EDGE_CURVE('',#138,#139,#54,.T.);
#167=EDGE_CURVE('',#139,#140,#55,.T.);
#168=EDGE_CURVE('',#140,#141,#56,.T.);
#169=EDGE_CURVE('',#141,#142,#57,.T.);
#170=EDGE_CURVE('',#142,#143,#58,.T.);
#171=EDGE_CURVE('',#143,#144,#59,.T.);
#172=EDGE_CURVE('',#144,#145,#60,.T.);
#173=EDGE_CURVE('',#145,#146,#61,.T.);
#174=EDGE_CURVE('',#146,#132,#62,.T.);
#175=EDGE_CURVE('',#131,#135,#63,.T.);
#176=EDGE_CURVE('',#133,#147,#64,.T.);
#177=EDGE_CURVE('',#147,#148,#65,.T.);
#178=EDGE_CURVE('',#148,#149,#66,.T.);
#179=EDGE_CURVE('',#149,#150,#67,.T.);
#180=EDGE_CURVE('',#150,#151,#68,.T.);
#181=EDGE_CURVE('',#151,#152,#69,.T.);
#182=EDGE_CURVE('',#152,#153,#70,.T.);
#183=EDGE_CURVE('',#153,#154,#71,.T.);
#184=EDGE_CURVE('',#154,#155,#72,.T.);
#185=EDGE_CURVE('',#155,#156,#73,.T.);
#186=EDGE_CURVE('',#156,#157,#74,.T.);
#187=EDGE_CURVE('',#157,#158,#75,.T.);
#188=EDGE_CURVE('',#158,#134,#76,.T.);
#189=EDGE_CURVE('',#135,#158,#77,.T.);
#190=EDGE_CURVE('',#157,#136,#78,.T.);
#191=EDGE_CURVE('',#137,#156,#79,.T.);
#192=EDGE_CURVE('',#155,#138,#80,.T.);
#193=EDGE_CURVE('',#154,#139,#81,.T.);
#194=EDGE_CURVE('',#153,#140,#82,.T.);
#195=EDGE_CURVE('',#152,#141,#83,.T.);
#196=EDGE_CURVE('',#151,#142,#84,.T.);
#197=EDGE_CURVE('',#150,#143,#85,.T.);
#198=EDGE_CURVE('',#149,#144,#86,.T.);
#199=EDGE_CURVE('',#148,#145,#87,.T.);
#200=EDGE_CURVE('',#147,#146,#88,.T.);
#201=ORIENTED_EDGE('',*,*,#159,.T.);
#202=ORIENTED_EDGE('',*,*,#160,.T.);
#203=ORIENTED_EDGE('',*,*,#161,.T.);
#204=ORIENTED_EDGE('',*,*,#162,.T.);
#205=ORIENTED_EDGE('',*,*,#163,.T.);
#206=ORIENTED_EDGE('',*,*,#164,.T.);
#207=ORIENTED_EDGE('',*,*,#165,.T.);
#208=ORIENTED_EDGE('',*,*,#166,.T.);
#209=ORIENTED_EDGE('',*,*,#167,.T.);
#210=ORIENTED_EDGE('',*,*,#168,.T.);
#211=ORIENTED_EDGE('',*,*,#169,.T.);
#212=ORIENTED_EDGE('',*,*,#170,.T.);
#213=ORIENTED_EDGE('',*,*,#171,.T.);
#214=ORIENTED_EDGE('',*,*,#172,.T.);
#215=ORIENTED_EDGE('',*,*,#173,.T.);
#216=ORIENTED_EDGE('',*,*,#174,.T.);
#217=ORIENTED_EDGE('',*,*,#159,.F.);
#218=ORIENTED_EDGE('',*,*,#175,.T.);
#219=ORIENTED_EDGE('',*,*,#161,.F.);
#220=ORIENTED_EDGE('',*,*,#176,.T.);
#221=ORIENTED_EDGE('',*,*,#177,.T.);
#222=ORIENTED_EDGE('',*,*,#178,.T.);
#223=ORIENTED_EDGE('',*,*,#179,.T.);
#224=ORIENTED_EDGE('',*,*,#180,.T.);
#225=ORIENTED_EDGE('',*,*,#181,.T.);
#226=ORIENTED_EDGE('',*,*,#182,.T.);
#227=ORIENTED_EDGE('',*,*,#183,.T.);
#228=ORIENTED_EDGE('',*,*,#184,.T.);
#229=ORIENTED_EDGE('',*,*,#185,.T.);
#230=ORIENTED_EDGE('',*,*,#186,.T.);
#231=ORIENTED_EDGE('',*,*,#187,.T.);
#232=ORIENTED_EDGE('',*,*,#188,.T.);
#233=ORIENTED_EDGE('',*,*,#163,.F.);
#234=ORIENTED_EDGE('',*,*,#189,.T.);
#235=ORIENTED_EDGE('',*,*,#187,.F.);
#236=ORIENTED_EDGE('',*,*,#190,.T.);
#237=ORIENTED_EDGE('',*,*,#165,.F.);
#238=ORIENTED_EDGE('',*,*,#191,.T.);
#239=ORIENTED_EDGE('',*,*,#185,.F.);
#240=ORIENTED_EDGE('',*,*,#192,.T.);
#241=ORIENTED_EDGE('',*,*,#164,.F.);
#242=ORIENTED_EDGE('',*,*,#190,.F.);
#243=ORIENTED_EDGE('',*,*,#186,.F.);
#244=ORIENTED_EDGE('',*,*,#191,.F.);
#245=ORIENTED_EDGE('',*,*,#166,.F.);
#246=ORIENTED_EDGE('',*,*,#192,.F.);
#247=ORIENTED_EDGE('',*,*,#184,.F.);
#248=ORIENTED_EDGE('',*,*,#193,.T.);
#249=ORIENTED_EDGE('',*,*,#167,.F.);
#250=ORIENTED_EDGE('',*,*,#193,.F.);
#251=ORIENTED_EDGE('',*,*,#183,.F.);
#252=ORIENTED_EDGE('',*,*,#194,.T.);
#253=ORIENTED_EDGE('',*,*,#168,.F.);
#254=ORIENTED_EDGE('',*,*,#194,.F.);
#255=ORIENTED_EDGE('',*,*,#182,.F.);
#256=ORIENTED_EDGE('',*,*,#195,.T.);
#257=ORIENTED_EDGE('',*,*,#169,.F.);
#258=ORIENTED_EDGE('',*,*,#195,.F.);
#259=ORIENTED_EDGE('',*,*,#181,.F.);
#260=ORIENTED_EDGE('',*,*,#196,.T.);
#261=ORIENTED_EDGE('',*,*,#170,.F.);
#262=ORIENTED_EDGE('',*,*,#196,.F.);
#263=ORIENTED_EDGE('',*,*,#180,.F.);
#264=ORIENTED_EDGE('',*,*,#197,.T.);
#265=ORIENTED_EDGE('',*,*,#171,.F.);
#266=ORIENTED_EDGE('',*,*,#197,.F.);
#267=ORIENTED_EDGE('',*,*,#179,.F.);
#268=ORIENTED_EDGE('',*,*,#198,.T.);
#269=ORIENTED_EDGE('',*,*,#172,.F.);
#270=ORIENTED_EDGE('',*,*,#198,.F.);
#271=ORIENTED_EDGE('',*,*,#178,.F.);
#272=ORIENTED_EDGE('',*,*,#199,.T.);
#273=ORIENTED_EDGE('',*,*,#173,.F.);
#274=ORIENTED_EDGE('',*,*,#199,.F.);
#275=ORIENTED_EDGE('',*,*,#177,.F.);
#276=ORIENTED_EDGE('',*,*,#200,.T.);
#277=ORIENTED_EDGE('',*,*,#174,.F.);
#278=ORIENTED_EDGE('',*,*,#200,.F.);
#279=ORIENTED_EDGE('',*,*,#176,.F.);
#280=ORIENTED_EDGE('',*,*,#160,.F.);
#281=ORIENTED_EDGE('',*,*,#175,.F.);
#282=ORIENTED_EDGE('',*,*,#162,.F.);
#283=ORIENTED_EDGE('',*,*,#188,.F.);
#284=ORIENTED_EDGE('',*,*,#189,.F.);
#285=PLANE('',#331);
#286=PLANE('',#332);
#287=PLANE('',#333);
#288=PLANE('',#334);
#289=PLANE('',#335);
#290=PLANE('',#336);
#291=PLANE('',#337);
#292=PLANE('',#338);
#293=PLANE('',#339);
#294=PLANE('',#340);
#295=PLANE('',#341);
#296=PLANE('',#342);
#297=PLANE('',#343);
#298=PLANE('',#344);
#299=PLANE('',#345);
#300=PLANE('',#346);
#301=ADVANCED_FACE('',(#15),#285,.T.);
#302=ADVANCED_FACE('',(#16),#286,.T.);
#303=ADVANCED_FACE('',(#17),#287,.T.);
#304=ADVANCED_FACE('',(#18),#288,.T.);
#305=ADVANCED_FACE('',(#19),#289,.T.);
#306=ADVANCED_FACE('',(#20),#290,.T.);
#307=ADVANCED_FACE('',(#21),#291,.T.);
#308=ADVANCED_FACE('',(#22),#292,.T.);
#309=ADVANCED_FACE('',(#23),#293,.T.);
#310=ADVANCED_FACE('',(#24),#294,.T.);
#311=ADVANCED_FACE('',(#25),#295,.T.);
#312=ADVANCED_FACE('',(#26),#296,.T.);
#313=ADVANCED_FACE('',(#27),#297,.T.);
#314=ADVANCED_FACE('',(#28),#298,.T.);
#315=ADVANCED_FACE('',(#29),#299,.T.);
#316=ADVANCED_FACE('',(#30),#300,.T.);
#317=CLOSED_SHELL('',(#301,#302,#303,#304,#305,#306,#307,#308,#309,#310,
#311,#312,#313,#314,#315,#316));
#318=DERIVED_UNIT_ELEMENT(#320,1.);
#319=DERIVED_UNIT_ELEMENT(#515,-3.);
#320=(
MASS_UNIT()
NAMED_UNIT(*)
SI_UNIT(.KILO.,.GRAM.)
);
#321=DERIVED_UNIT((#318,#319));
#322=MEASURE_REPRESENTATION_ITEM('density measure',
POSITIVE_RATIO_MEASURE(7850.),#321);
#323=PROPERTY_DEFINITION_REPRESENTATION(#328,#325);
#324=PROPERTY_DEFINITION_REPRESENTATION(#329,#326);
#325=REPRESENTATION('material name',(#327),#512);
#326=REPRESENTATION('density',(#322),#512);
#327=DESCRIPTIVE_REPRESENTATION_ITEM('\X2\94A2\X0\','\X2\94A2\X0\');
#328=PROPERTY_DEFINITION('material property','material name',#522);
#329=PROPERTY_DEFINITION('material property','density of part',#522);
#330=AXIS2_PLACEMENT_3D('',#423,#347,#348);
#331=AXIS2_PLACEMENT_3D('',#424,#349,#350);
#332=AXIS2_PLACEMENT_3D('',#433,#355,#356);
#333=AXIS2_PLACEMENT_3D('',#459,#370,#371);
#334=AXIS2_PLACEMENT_3D('',#485,#385,#386);
#335=AXIS2_PLACEMENT_3D('',#488,#389,#390);
#336=AXIS2_PLACEMENT_3D('',#491,#393,#394);
#337=AXIS2_PLACEMENT_3D('',#492,#395,#396);
#338=AXIS2_PLACEMENT_3D('',#494,#398,#399);
#339=AXIS2_PLACEMENT_3D('',#496,#401,#402);
#340=AXIS2_PLACEMENT_3D('',#498,#404,#405);
#341=AXIS2_PLACEMENT_3D('',#500,#407,#408);
#342=AXIS2_PLACEMENT_3D('',#502,#410,#411);
#343=AXIS2_PLACEMENT_3D('',#504,#413,#414);
#344=AXIS2_PLACEMENT_3D('',#506,#416,#417);
#345=AXIS2_PLACEMENT_3D('',#508,#419,#420);
#346=AXIS2_PLACEMENT_3D('',#509,#421,#422);
#347=DIRECTION('axis',(0.,0.,1.));
#348=DIRECTION('refdir',(1.,0.,0.));
#349=DIRECTION('center_axis',(0.980323342177432,-0.197398441691087,0.));
#350=DIRECTION('ref_axis',(0.,0.,1.));
#351=DIRECTION('',(0.197398441690894,0.980323342177471,0.));
#352=DIRECTION('',(0.,0.,1.));
#353=DIRECTION('',(-0.197398441690894,-0.980323342177471,0.));
#354=DIRECTION('',(0.,0.,-1.));
#355=DIRECTION('center_axis',(-1.388953678781E-17,0.,-1.));
#356=DIRECTION('ref_axis',(-0.98114061263945,0.193295365256089,1.36275886332701E-17));
#357=DIRECTION('',(-0.193295365256089,-0.98114061263945,0.));
#358=DIRECTION('',(-0.194678900803999,-0.980867027471995,0.));
#359=DIRECTION('',(-0.196116135132992,-0.980580675691959,0.));
#360=DIRECTION('',(-0.980580675692767,0.196116135128953,0.));
#361=DIRECTION('',(-0.19258762055403,-0.981279780903151,0.));
#362=DIRECTION('',(-0.980275441523365,0.197636177726074,0.));
#363=DIRECTION('',(0.196116135138953,0.980580675690766,0.));
#364=DIRECTION('',(0.980904560895204,-0.194489697452041,0.));
#365=DIRECTION('',(0.19557880129608,0.980687989364399,0.));
#366=DIRECTION('',(0.195115441032948,0.980780283585737,0.));
#367=DIRECTION('',(0.840987342455152,0.541054793741098,0.));
#368=DIRECTION('',(0.980906895445088,-0.194477922830018,0.));
#369=DIRECTION('',(-0.98067234002592,0.195657255188984,0.));
#370=DIRECTION('center_axis',(1.792198295208E-17,0.,1.));
#371=DIRECTION('ref_axis',(-0.980323342177471,0.197398441690893,1.75693382260307E-17));
#372=DIRECTION('',(-0.980906895445088,0.194477922830018,0.));
#373=DIRECTION('',(-0.840987342455152,-0.541054793741098,0.));
#374=DIRECTION('',(-0.195115441032948,-0.980780283585737,0.));
#375=DIRECTION('',(-0.19557880129608,-0.980687989364399,0.));
#376=DIRECTION('',(-0.980904560895204,0.194489697452041,0.));
#377=DIRECTION('',(-0.196116135138953,-0.980580675690766,0.));
#378=DIRECTION('',(0.980275441523365,-0.197636177726074,0.));
#379=DIRECTION('',(0.19258762055403,0.981279780903151,0.));
#380=DIRECTION('',(0.980580675692767,-0.196116135128953,0.));
#381=DIRECTION('',(0.196116135132992,0.980580675691959,0.));
#382=DIRECTION('',(0.194678900803999,0.980867027471995,0.));
#383=DIRECTION('',(0.193295365256089,0.98114061263945,0.));
#384=DIRECTION('',(0.98067234002592,-0.195657255188984,0.));
#385=DIRECTION('center_axis',(0.981140612639677,-0.193295365254936,0.));
#386=DIRECTION('ref_axis',(0.,0.,1.));
#387=DIRECTION('',(0.,0.,1.));
#388=DIRECTION('',(0.,0.,-1.));
#389=DIRECTION('center_axis',(0.980580675691574,-0.196116135134915,0.));
#390=DIRECTION('ref_axis',(0.,0.,1.));
#391=DIRECTION('',(0.,0.,1.));
#392=DIRECTION('',(0.,0.,-1.));
#393=DIRECTION('center_axis',(0.980867027471804,-0.194678900804961,0.));
#394=DIRECTION('ref_axis',(0.,0.,1.));
#395=DIRECTION('center_axis',(-0.196116135129915,-0.980580675692574,0.));
#396=DIRECTION('ref_axis',(0.,0.,1.));
#397=DIRECTION('',(0.,0.,-1.));
#398=DIRECTION('center_axis',(0.981279780903152,-0.19258762055403,0.));
#399=DIRECTION('ref_axis',(0.,0.,1.));
#400=DIRECTION('',(0.,0.,-1.));
#401=DIRECTION('center_axis',(-0.197636177726074,-0.980275441523365,0.));
#402=DIRECTION('ref_axis',(0.,0.,1.));
#403=DIRECTION('',(0.,0.,-1.));
#404=DIRECTION('center_axis',(-0.980580675690766,0.196116135138953,0.));
#405=DIRECTION('ref_axis',(0.,0.,1.));
#406=DIRECTION('',(0.,0.,-1.));
#407=DIRECTION('center_axis',(0.194489697452041,0.980904560895204,0.));
#408=DIRECTION('ref_axis',(0.,0.,1.));
#409=DIRECTION('',(0.,0.,-1.));
#410=DIRECTION('center_axis',(-0.980687989364438,0.195578801295888,0.));
#411=DIRECTION('ref_axis',(0.,0.,1.));
#412=DIRECTION('',(0.,0.,-1.));
#413=DIRECTION('center_axis',(-0.980780283585737,0.195115441032948,0.));
#414=DIRECTION('ref_axis',(0.,0.,1.));
#415=DIRECTION('',(0.,0.,-1.));
#416=DIRECTION('center_axis',(-0.541054793738773,0.840987342456647,0.));
#417=DIRECTION('ref_axis',(0.,0.,1.));
#418=DIRECTION('',(0.,0.,-1.));
#419=DIRECTION('center_axis',(0.194477922830018,0.980906895445088,0.));
#420=DIRECTION('ref_axis',(0.,0.,1.));
#421=DIRECTION('center_axis',(-0.195657255189946,-0.980672340025728,0.));
#422=DIRECTION('ref_axis',(0.,0.,1.));
#423=CARTESIAN_POINT('',(0.,0.,0.));
#424=CARTESIAN_POINT('Origin',(9220.,3855.,0.));
#425=CARTESIAN_POINT('',(8479.99999999966,179.999999999685,-4425.15));
#426=CARTESIAN_POINT('',(9960.00000000337,7530.00000000354,-4425.15));
#427=CARTESIAN_POINT('',(8480.,180.,-4425.15));
#428=CARTESIAN_POINT('',(9960.00000000026,7530.00000000022,4425.15));
#429=CARTESIAN_POINT('',(9960.,7530.,-4425.15));
#430=CARTESIAN_POINT('',(8479.99999999686,179.999999997624,4425.15));
#431=CARTESIAN_POINT('',(9960.,7530.,4425.15));
#432=CARTESIAN_POINT('',(8480.,180.,4425.15));
#433=CARTESIAN_POINT('Origin',(-495.7142857015,-1056.,-4425.15));
#434=CARTESIAN_POINT('',(4370.00000000015,1000.00000000283,-4425.15));
#435=CARTESIAN_POINT('',(4080.00000000277,-472.000000000546,-4425.15));
#436=CARTESIAN_POINT('',(4370.,1000.,-4425.15));
#437=CARTESIAN_POINT('',(3089.99999999345,-5459.9999999987,-4425.15));
#438=CARTESIAN_POINT('',(4080.,-472.,-4425.15));
#439=CARTESIAN_POINT('',(2520.00000000714,-8310.00000000112,-4425.15));
#440=CARTESIAN_POINT('',(3090.,-5460.,-4425.15));
#441=CARTESIAN_POINT('',(1619.9999999994,-8130.00000000404,-4425.15));
#442=CARTESIAN_POINT('',(2520.,-8310.,-4425.15));
#443=CARTESIAN_POINT('',(1199.99999999745,-10269.9999999991,-4425.15));
#444=CARTESIAN_POINT('',(1620.,-8130.,-4425.15));
#445=CARTESIAN_POINT('',(-9960.00000000049,-8020.00000000207,-4425.15));
#446=CARTESIAN_POINT('',(1200.,-10270.,-4425.15));
#447=CARTESIAN_POINT('',(-8909.99999999782,-2769.99999999977,-4425.15));
#448=CARTESIAN_POINT('',(-9960.,-8020.,-4425.15));
#449=CARTESIAN_POINT('',(-7750.00000000313,-3000.0000000188,-4425.15));
#450=CARTESIAN_POINT('',(-8910.,-2770.,-4425.15));
#451=CARTESIAN_POINT('',(-6490.00000000463,3318.00000000092,-4425.15));
#452=CARTESIAN_POINT('',(-7750.,-3000.,-4425.15));
#453=CARTESIAN_POINT('',(-5289.99999999644,9350.00000000054,-4425.15));
#454=CARTESIAN_POINT('',(-6490.,3318.,-4425.15));
#455=CARTESIAN_POINT('',(-3859.99999999781,10269.9999999971,-4425.15));
#456=CARTESIAN_POINT('',(-5290.,9350.,-4425.15));
#457=CARTESIAN_POINT('',(-3860.,10270.,-4425.15));
#458=CARTESIAN_POINT('',(8480.,180.,-4425.15));
#459=CARTESIAN_POINT('Origin',(-495.7142857015,-1056.,4425.15));
#460=CARTESIAN_POINT('',(-3859.99999999999,10269.9999999967,4425.15));
#461=CARTESIAN_POINT('',(9960.,7530.,4425.15));
#462=CARTESIAN_POINT('',(-5290.00000000101,9350.00000000393,4425.15));
#463=CARTESIAN_POINT('',(-3860.,10270.,4425.15));
#464=CARTESIAN_POINT('',(-6490.00000000463,3318.00000000092,4425.15));
#465=CARTESIAN_POINT('',(-5290.,9350.,4425.15));
#466=CARTESIAN_POINT('',(-7749.99999999497,-3000.00000000166,4425.15));
#467=CARTESIAN_POINT('',(-6490.,3318.,4425.15));
#468=CARTESIAN_POINT('',(-8909.99999999607,-2769.99999998136,4425.15));
#469=CARTESIAN_POINT('',(-7750.,-3000.,4425.15));
#470=CARTESIAN_POINT('',(-9960.00000000165,-8019.99999999993,4425.15));
#471=CARTESIAN_POINT('',(-8910.,-2770.,4425.15));
#472=CARTESIAN_POINT('',(1199.99999999981,-10269.999999998,4425.15));
#473=CARTESIAN_POINT('',(-9960.,-8020.,4425.15));
#474=CARTESIAN_POINT('',(1620.0000000025,-8130.00000000122,4425.15));
#475=CARTESIAN_POINT('',(1200.,-10270.,4425.15));
#476=CARTESIAN_POINT('',(2520.00000000118,-8309.99999999601,4425.15));
#477=CARTESIAN_POINT('',(1620.,-8130.,4425.15));
#478=CARTESIAN_POINT('',(3089.99999999345,-5459.9999999987,4425.15));
#479=CARTESIAN_POINT('',(2520.,-8310.,4425.15));
#480=CARTESIAN_POINT('',(4080.00000000668,-472.000000001324,4425.15));
#481=CARTESIAN_POINT('',(3090.,-5460.,4425.15));
#482=CARTESIAN_POINT('',(4369.99999999627,1000.00000000188,4425.15));
#483=CARTESIAN_POINT('',(4080.,-472.,4425.15));
#484=CARTESIAN_POINT('',(4370.,1000.,4425.15));
#485=CARTESIAN_POINT('Origin',(4225.,264.,0.));
#486=CARTESIAN_POINT('',(4370.,1000.,-4425.15));
#487=CARTESIAN_POINT('',(4080.,-472.,4425.15));
#488=CARTESIAN_POINT('Origin',(2805.,-6885.,0.));
#489=CARTESIAN_POINT('',(3090.,-5460.,-4425.15));
#490=CARTESIAN_POINT('',(2520.,-8310.,4425.15));
#491=CARTESIAN_POINT('Origin',(3585.,-2966.,0.));
#492=CARTESIAN_POINT('Origin',(2070.,-8220.,0.));
#493=CARTESIAN_POINT('',(1620.,-8130.,4425.15));
#494=CARTESIAN_POINT('Origin',(1410.,-9200.,0.));
#495=CARTESIAN_POINT('',(1200.,-10270.,4425.15));
#496=CARTESIAN_POINT('Origin',(-4380.,-9145.,0.));
#497=CARTESIAN_POINT('',(-9960.,-8020.,4425.15));
#498=CARTESIAN_POINT('Origin',(-9435.,-5395.,0.));
#499=CARTESIAN_POINT('',(-8910.,-2770.,4425.15));
#500=CARTESIAN_POINT('Origin',(-8330.,-2885.,0.));
#501=CARTESIAN_POINT('',(-7750.,-3000.,4425.15));
#502=CARTESIAN_POINT('Origin',(-7120.,159.,0.));
#503=CARTESIAN_POINT('',(-6490.,3318.,4425.15));
#504=CARTESIAN_POINT('Origin',(-5890.,6334.,0.));
#505=CARTESIAN_POINT('',(-5290.,9350.,4425.15));
#506=CARTESIAN_POINT('Origin',(-4575.,9810.,0.));
#507=CARTESIAN_POINT('',(-3860.,10270.,4425.15));
#508=CARTESIAN_POINT('Origin',(3050.,8900.,0.));
#509=CARTESIAN_POINT('Origin',(6425.,590.,0.));
#510=UNCERTAINTY_MEASURE_WITH_UNIT(LENGTH_MEASURE(0.01),#514,
'DISTANCE_ACCURACY_VALUE',
'Maximum model space distance between geometric entities at asserted c
onnectivities');
#511=UNCERTAINTY_MEASURE_WITH_UNIT(LENGTH_MEASURE(0.01),#514,
'DISTANCE_ACCURACY_VALUE',
'Maximum model space distance between geometric entities at asserted c
onnectivities');
#512=(
GEOMETRIC_REPRESENTATION_CONTEXT(3)
GLOBAL_UNCERTAINTY_ASSIGNED_CONTEXT((#510))
GLOBAL_UNIT_ASSIGNED_CONTEXT((#514,#516,#517))
REPRESENTATION_CONTEXT('','3D')
);
#513=(
GEOMETRIC_REPRESENTATION_CONTEXT(3)
GLOBAL_UNCERTAINTY_ASSIGNED_CONTEXT((#511))
GLOBAL_UNIT_ASSIGNED_CONTEXT((#514,#516,#517))
REPRESENTATION_CONTEXT('','3D')
);
#514=(
LENGTH_UNIT()
NAMED_UNIT(*)
SI_UNIT(.MILLI.,.METRE.)
);
#515=(
LENGTH_UNIT()
NAMED_UNIT(*)
SI_UNIT($,.METRE.)
);
#516=(
NAMED_UNIT(*)
PLANE_ANGLE_UNIT()
SI_UNIT($,.RADIAN.)
);
#517=(
NAMED_UNIT(*)
SI_UNIT($,.STERADIAN.)
SOLID_ANGLE_UNIT()
);
#518=SHAPE_DEFINITION_REPRESENTATION(#519,#520);
#519=PRODUCT_DEFINITION_SHAPE('',$,#522);
#520=SHAPE_REPRESENTATION('',(#330),#512);
#521=PRODUCT_DEFINITION_CONTEXT('part definition',#526,'design');
#522=PRODUCT_DEFINITION('Open CASCADE STEP translator 7.7 20',
'(\X2\672A4FDD5B58\X0\)',#523,#521);
#523=PRODUCT_DEFINITION_FORMATION('',$,#528);
#524=PRODUCT_RELATED_PRODUCT_CATEGORY('(\X2\672A4FDD5B58\X0\)',
'(\X2\672A4FDD5B58\X0\)',(#528));
#525=APPLICATION_PROTOCOL_DEFINITION('international standard',
'automotive_design',2009,#526);
#526=APPLICATION_CONTEXT(
'Core Data for Automotive Mechanical Design Process');
#527=PRODUCT_CONTEXT('part definition',#526,'mechanical');
#528=PRODUCT('Open CASCADE STEP translator 7.7 20','(\X2\672A4FDD5B58\X0\)',
'Open CASCADE Model',(#527));
#529=PRESENTATION_STYLE_ASSIGNMENT((#530));
#530=SURFACE_STYLE_USAGE(.BOTH.,#531);
#531=SURFACE_SIDE_STYLE('',(#532));
#532=SURFACE_STYLE_FILL_AREA(#533);
#533=FILL_AREA_STYLE('\X2\94A2\X0\ - \X2\7F0E5149\X0\',(#534));
#534=FILL_AREA_STYLE_COLOUR('\X2\94A2\X0\ - \X2\7F0E5149\X0\',#535);
#535=COLOUR_RGB('\X2\94A2\X0\ - \X2\7F0E5149\X0\',0.627450980392157,0.627450980392157,
0.627450980392157);
ENDSEC;
END-ISO-10303-21;
