# OBJ file generated from STEP using CadQuery
# Vertices: 88
# Faces: 52

v 872.500000 241.000000 301.831550
v 671.500000 1.000000 301.831550
v 671.500000 1.000000 14.518450
v 872.500000 241.000000 14.518450
v -97.500000 -922.000000 14.518450
v -97.500000 -922.000000 -301.831550
v 671.500000 1.000000 -301.831550
v 671.500000 1.000000 14.518450
v 671.500000 1.000000 301.831550
v -97.500000 -922.000000 301.831550
v 671.500000 1.000000 14.518450
v 231.500000 367.000000 14.518450
v 428.500000 603.000000 14.518450
v 872.500000 241.000000 14.518450
v -190.500000 -1026.000000 14.518450
v -495.500000 -786.000000 14.518450
v -401.500000 -672.000000 14.518450
v -97.500000 -922.000000 14.518450
v -495.500000 -786.000000 14.518450
v -401.500000 -672.000000 14.518450
v -495.500000 -786.000000 -301.831550
v -401.500000 -672.000000 -301.831550
v -401.500000 -672.000000 14.518450
v -97.500000 -922.000000 14.518450
v -401.500000 -672.000000 -301.831550
v -97.500000 -922.000000 -301.831550
v 428.500000 603.000000 14.518450
v 872.500000 241.000000 14.518450
v 428.500000 603.000000 301.831550
v 872.500000 241.000000 301.831550
v 428.500000 603.000000 14.518450
v 428.500000 603.000000 301.831550
v 428.500000 603.000000 -301.831550
v -81.500000 1026.000000 -301.831550
v -81.500000 1026.000000 301.831550
v 231.500000 367.000000 14.518450
v 428.500000 603.000000 14.518450
v 231.500000 367.000000 -301.831550
v 428.500000 603.000000 -301.831550
v -97.500000 -922.000000 301.831550
v -190.500000 -1026.000000 301.831550
v -190.500000 -1026.000000 14.518450
v -97.500000 -922.000000 14.518450
v -190.500000 -1026.000000 301.831550
v -495.500000 -786.000000 301.831550
v -495.500000 -786.000000 14.518450
v -190.500000 -1026.000000 14.518450
v -495.500000 -786.000000 14.518450
v -495.500000 -786.000000 -301.831550
v -495.500000 -786.000000 301.831550
v -872.500000 -470.000000 301.831550
v -872.500000 -470.000000 -301.831550
v -81.500000 1026.000000 -301.831550
v -554.500000 459.000000 -301.831550
v -554.500000 459.000000 301.831550
v -81.500000 1026.000000 301.831550
v -285.500000 234.000000 301.831550
v -554.500000 459.000000 301.831550
v -554.500000 459.000000 -301.831550
v -285.500000 234.000000 -301.831550
v -285.500000 234.000000 -301.831550
v -872.500000 -470.000000 -301.831550
v -872.500000 -470.000000 301.831550
v -285.500000 234.000000 301.831550
v 671.500000 1.000000 -301.831550
v 231.500000 367.000000 -301.831550
v 231.500000 367.000000 14.518450
v 671.500000 1.000000 14.518450
v 428.500000 603.000000 -301.831550
v -81.500000 1026.000000 -301.831550
v 231.500000 367.000000 -301.831550
v 671.500000 1.000000 -301.831550
v -97.500000 -922.000000 -301.831550
v -401.500000 -672.000000 -301.831550
v -495.500000 -786.000000 -301.831550
v -872.500000 -470.000000 -301.831550
v -285.500000 234.000000 -301.831550
v -554.500000 459.000000 -301.831550
v 428.500000 603.000000 301.831550
v 872.500000 241.000000 301.831550
v -81.500000 1026.000000 301.831550
v -554.500000 459.000000 301.831550
v -285.500000 234.000000 301.831550
v -872.500000 -470.000000 301.831550
v -495.500000 -786.000000 301.831550
v -190.500000 -1026.000000 301.831550
v -97.500000 -922.000000 301.831550
v 671.500000 1.000000 301.831550

f 4 1 2
f 4 2 3
f 7 5 6
f 8 5 7
f 9 10 5
f 9 5 8
f 11 12 13
f 14 11 13
f 15 16 17
f 18 15 17
f 22 20 19
f 22 19 21
f 26 24 23
f 26 23 25
f 30 28 27
f 30 27 29
f 34 31 33
f 35 32 31
f 35 31 34
f 39 37 36
f 39 36 38
f 43 40 41
f 43 41 42
f 47 44 45
f 47 45 46
f 51 48 50
f 52 49 48
f 52 48 51
f 53 54 55
f 56 53 55
f 59 57 58
f 60 57 59
f 61 62 63
f 64 61 63
f 68 65 66
f 68 66 67
f 70 69 71
f 77 71 72
f 77 70 71
f 74 72 73
f 74 77 72
f 78 70 77
f 76 74 75
f 76 77 74
f 83 79 81
f 83 81 82
f 88 80 79
f 88 79 83
f 85 83 84
f 87 88 83
f 87 83 85
f 86 87 85
