ISO-10303-21;
HEADER;
/* Generated by software containing ST-Developer
 * from STEP Tools, Inc. (www.steptools.com) 
 */

FILE_DESCRIPTION(
/* description */ ('Open CASCADE Model'),
/* implementation_level */ '2;1');

FILE_NAME(
/* name */ '18.step',
/* time_stamp */ '2025-12-23T14:06:39+08:00',
/* author */ (''),
/* organization */ (''),
/* preprocessor_version */ 'ST-DEVELOPER v20.1',
/* originating_system */ 'Autodesk Translation Framework v14.21.0.0',
/* authorisation */ '');

FILE_SCHEMA (('AUTOMOTIVE_DESIGN { 1 0 10303 214 3 1 1 }'));
ENDSEC;

DATA;
#10=MECHANICAL_DESIGN_GEOMETRIC_PRESENTATION_REPRESENTATION('',(#13),#543);
#11=SHAPE_REPRESENTATION_RELATIONSHIP('SRR','None',#550,#12);
#12=ADVANCED_BREP_SHAPE_REPRESENTATION('',(#14),#542);
#13=STYLED_ITEM('',(#559),#14);
#14=MANIFOLD_SOLID_BREP('\X2\5B9E4F53\X0\1',#335);
#15=FACE_OUTER_BOUND('',#33,.T.);
#16=FACE_OUTER_BOUND('',#34,.T.);
#17=FACE_OUTER_BOUND('',#35,.T.);
#18=FACE_OUTER_BOUND('',#36,.T.);
#19=FACE_OUTER_BOUND('',#37,.T.);
#20=FACE_OUTER_BOUND('',#38,.T.);
#21=FACE_OUTER_BOUND('',#39,.T.);
#22=FACE_OUTER_BOUND('',#40,.T.);
#23=FACE_OUTER_BOUND('',#41,.T.);
#24=FACE_OUTER_BOUND('',#42,.T.);
#25=FACE_OUTER_BOUND('',#43,.T.);
#26=FACE_OUTER_BOUND('',#44,.T.);
#27=FACE_OUTER_BOUND('',#45,.T.);
#28=FACE_OUTER_BOUND('',#46,.T.);
#29=FACE_OUTER_BOUND('',#47,.T.);
#30=FACE_OUTER_BOUND('',#48,.T.);
#31=FACE_OUTER_BOUND('',#49,.T.);
#32=FACE_OUTER_BOUND('',#50,.T.);
#33=EDGE_LOOP('',(#211,#212,#213,#214));
#34=EDGE_LOOP('',(#215,#216,#217,#218,#219,#220));
#35=EDGE_LOOP('',(#221,#222,#223,#224));
#36=EDGE_LOOP('',(#225,#226,#227,#228));
#37=EDGE_LOOP('',(#229,#230,#231,#232));
#38=EDGE_LOOP('',(#233,#234,#235,#236));
#39=EDGE_LOOP('',(#237,#238,#239,#240));
#40=EDGE_LOOP('',(#241,#242,#243,#244,#245));
#41=EDGE_LOOP('',(#246,#247,#248,#249));
#42=EDGE_LOOP('',(#250,#251,#252,#253));
#43=EDGE_LOOP('',(#254,#255,#256,#257));
#44=EDGE_LOOP('',(#258,#259,#260,#261,#262));
#45=EDGE_LOOP('',(#263,#264,#265,#266));
#46=EDGE_LOOP('',(#267,#268,#269,#270));
#47=EDGE_LOOP('',(#271,#272,#273,#274));
#48=EDGE_LOOP('',(#275,#276,#277,#278));
#49=EDGE_LOOP('',(#279,#280,#281,#282,#283,#284,#285,#286,#287,#288));
#50=EDGE_LOOP('',(#289,#290,#291,#292,#293,#294,#295,#296,#297,#298));
#51=LINE('',#453,#95);
#52=LINE('',#455,#96);
#53=LINE('',#457,#97);
#54=LINE('',#458,#98);
#55=LINE('',#462,#99);
#56=LINE('',#464,#100);
#57=LINE('',#465,#101);
#58=LINE('',#467,#102);
#59=LINE('',#468,#103);
#60=LINE('',#471,#104);
#61=LINE('',#473,#105);
#62=LINE('',#474,#106);
#63=LINE('',#478,#107);
#64=LINE('',#480,#108);
#65=LINE('',#481,#109);
#66=LINE('',#482,#110);
#67=LINE('',#485,#111);
#68=LINE('',#487,#112);
#69=LINE('',#488,#113);
#70=LINE('',#490,#114);
#71=LINE('',#493,#115);
#72=LINE('',#494,#116);
#73=LINE('',#497,#117);
#74=LINE('',#499,#118);
#75=LINE('',#501,#119);
#76=LINE('',#502,#120);
#77=LINE('',#505,#121);
#78=LINE('',#506,#122);
#79=LINE('',#509,#123);
#80=LINE('',#510,#124);
#81=LINE('',#513,#125);
#82=LINE('',#514,#126);
#83=LINE('',#517,#127);
#84=LINE('',#519,#128);
#85=LINE('',#520,#129);
#86=LINE('',#523,#130);
#87=LINE('',#525,#131);
#88=LINE('',#526,#132);
#89=LINE('',#529,#133);
#90=LINE('',#531,#134);
#91=LINE('',#532,#135);
#92=LINE('',#534,#136);
#93=LINE('',#535,#137);
#94=LINE('',#537,#138);
#95=VECTOR('',#371,1.00000000000021);
#96=VECTOR('',#372,1.);
#97=VECTOR('',#373,1.00000000000021);
#98=VECTOR('',#374,1.);
#99=VECTOR('',#377,1.);
#100=VECTOR('',#378,1.00000000000029);
#101=VECTOR('',#379,1.);
#102=VECTOR('',#380,1.00000000000029);
#103=VECTOR('',#381,1.);
#104=VECTOR('',#384,1.00000000000034);
#105=VECTOR('',#385,0.999999999999834);
#106=VECTOR('',#386,0.999999999999875);
#107=VECTOR('',#389,0.999999999999612);
#108=VECTOR('',#390,1.00000000000025);
#109=VECTOR('',#391,1.00000000000038);
#110=VECTOR('',#392,1.00000000000029);
#111=VECTOR('',#395,1.);
#112=VECTOR('',#396,1.00000000000025);
#113=VECTOR('',#397,1.);
#114=VECTOR('',#400,1.00000000000038);
#115=VECTOR('',#403,1.);
#116=VECTOR('',#404,0.999999999999875);
#117=VECTOR('',#407,1.);
#118=VECTOR('',#408,1.00000000000044);
#119=VECTOR('',#409,1.);
#120=VECTOR('',#410,1.00000000000044);
#121=VECTOR('',#413,1.);
#122=VECTOR('',#414,0.999999999999834);
#123=VECTOR('',#417,1.00000000000029);
#124=VECTOR('',#418,1.);
#125=VECTOR('',#421,0.999999999999612);
#126=VECTOR('',#422,1.);
#127=VECTOR('',#425,1.00000000000041);
#128=VECTOR('',#426,1.);
#129=VECTOR('',#427,1.00000000000041);
#130=VECTOR('',#430,1.00000000000012);
#131=VECTOR('',#431,1.);
#132=VECTOR('',#432,1.00000000000012);
#133=VECTOR('',#435,1.00000000000057);
#134=VECTOR('',#436,1.00000000000057);
#135=VECTOR('',#437,1.);
#136=VECTOR('',#440,0.999999999999865);
#137=VECTOR('',#441,0.999999999999865);
#138=VECTOR('',#444,1.00000000000034);
#139=VERTEX_POINT('',#451);
#140=VERTEX_POINT('',#452);
#141=VERTEX_POINT('',#454);
#142=VERTEX_POINT('',#456);
#143=VERTEX_POINT('',#460);
#144=VERTEX_POINT('',#461);
#145=VERTEX_POINT('',#463);
#146=VERTEX_POINT('',#466);
#147=VERTEX_POINT('',#470);
#148=VERTEX_POINT('',#472);
#149=VERTEX_POINT('',#476);
#150=VERTEX_POINT('',#477);
#151=VERTEX_POINT('',#479);
#152=VERTEX_POINT('',#484);
#153=VERTEX_POINT('',#486);
#154=VERTEX_POINT('',#492);
#155=VERTEX_POINT('',#496);
#156=VERTEX_POINT('',#498);
#157=VERTEX_POINT('',#500);
#158=VERTEX_POINT('',#504);
#159=VERTEX_POINT('',#508);
#160=VERTEX_POINT('',#512);
#161=VERTEX_POINT('',#516);
#162=VERTEX_POINT('',#518);
#163=VERTEX_POINT('',#522);
#164=VERTEX_POINT('',#524);
#165=VERTEX_POINT('',#528);
#166=VERTEX_POINT('',#530);
#167=EDGE_CURVE('',#139,#140,#51,.T.);
#168=EDGE_CURVE('',#140,#141,#52,.T.);
#169=EDGE_CURVE('',#141,#142,#53,.T.);
#170=EDGE_CURVE('',#142,#139,#54,.T.);
#171=EDGE_CURVE('',#143,#144,#55,.T.);
#172=EDGE_CURVE('',#144,#145,#56,.T.);
#173=EDGE_CURVE('',#145,#141,#57,.T.);
#174=EDGE_CURVE('',#140,#146,#58,.T.);
#175=EDGE_CURVE('',#146,#143,#59,.T.);
#176=EDGE_CURVE('',#141,#147,#60,.T.);
#177=EDGE_CURVE('',#147,#148,#61,.T.);
#178=EDGE_CURVE('',#148,#142,#62,.T.);
#179=EDGE_CURVE('',#149,#150,#63,.T.);
#180=EDGE_CURVE('',#150,#151,#64,.T.);
#181=EDGE_CURVE('',#151,#143,#65,.T.);
#182=EDGE_CURVE('',#143,#149,#66,.T.);
#183=EDGE_CURVE('',#150,#152,#67,.T.);
#184=EDGE_CURVE('',#152,#153,#68,.T.);
#185=EDGE_CURVE('',#153,#151,#69,.T.);
#186=EDGE_CURVE('',#153,#144,#70,.T.);
#187=EDGE_CURVE('',#148,#154,#71,.T.);
#188=EDGE_CURVE('',#154,#139,#72,.T.);
#189=EDGE_CURVE('',#148,#155,#73,.T.);
#190=EDGE_CURVE('',#155,#156,#74,.T.);
#191=EDGE_CURVE('',#156,#157,#75,.T.);
#192=EDGE_CURVE('',#157,#154,#76,.T.);
#193=EDGE_CURVE('',#147,#158,#77,.T.);
#194=EDGE_CURVE('',#158,#155,#78,.T.);
#195=EDGE_CURVE('',#146,#159,#79,.T.);
#196=EDGE_CURVE('',#159,#149,#80,.T.);
#197=EDGE_CURVE('',#159,#160,#81,.T.);
#198=EDGE_CURVE('',#160,#150,#82,.T.);
#199=EDGE_CURVE('',#160,#161,#83,.T.);
#200=EDGE_CURVE('',#161,#162,#84,.T.);
#201=EDGE_CURVE('',#162,#152,#85,.T.);
#202=EDGE_CURVE('',#156,#163,#86,.T.);
#203=EDGE_CURVE('',#163,#164,#87,.T.);
#204=EDGE_CURVE('',#164,#157,#88,.T.);
#205=EDGE_CURVE('',#165,#164,#89,.T.);
#206=EDGE_CURVE('',#163,#166,#90,.T.);
#207=EDGE_CURVE('',#166,#165,#91,.T.);
#208=EDGE_CURVE('',#166,#162,#92,.T.);
#209=EDGE_CURVE('',#161,#165,#93,.T.);
#210=EDGE_CURVE('',#145,#158,#94,.T.);
#211=ORIENTED_EDGE('',*,*,#167,.T.);
#212=ORIENTED_EDGE('',*,*,#168,.T.);
#213=ORIENTED_EDGE('',*,*,#169,.T.);
#214=ORIENTED_EDGE('',*,*,#170,.T.);
#215=ORIENTED_EDGE('',*,*,#171,.T.);
#216=ORIENTED_EDGE('',*,*,#172,.T.);
#217=ORIENTED_EDGE('',*,*,#173,.T.);
#218=ORIENTED_EDGE('',*,*,#168,.F.);
#219=ORIENTED_EDGE('',*,*,#174,.T.);
#220=ORIENTED_EDGE('',*,*,#175,.T.);
#221=ORIENTED_EDGE('',*,*,#176,.T.);
#222=ORIENTED_EDGE('',*,*,#177,.T.);
#223=ORIENTED_EDGE('',*,*,#178,.T.);
#224=ORIENTED_EDGE('',*,*,#169,.F.);
#225=ORIENTED_EDGE('',*,*,#179,.T.);
#226=ORIENTED_EDGE('',*,*,#180,.T.);
#227=ORIENTED_EDGE('',*,*,#181,.T.);
#228=ORIENTED_EDGE('',*,*,#182,.T.);
#229=ORIENTED_EDGE('',*,*,#180,.F.);
#230=ORIENTED_EDGE('',*,*,#183,.T.);
#231=ORIENTED_EDGE('',*,*,#184,.T.);
#232=ORIENTED_EDGE('',*,*,#185,.T.);
#233=ORIENTED_EDGE('',*,*,#181,.F.);
#234=ORIENTED_EDGE('',*,*,#185,.F.);
#235=ORIENTED_EDGE('',*,*,#186,.T.);
#236=ORIENTED_EDGE('',*,*,#171,.F.);
#237=ORIENTED_EDGE('',*,*,#178,.F.);
#238=ORIENTED_EDGE('',*,*,#187,.T.);
#239=ORIENTED_EDGE('',*,*,#188,.T.);
#240=ORIENTED_EDGE('',*,*,#170,.F.);
#241=ORIENTED_EDGE('',*,*,#187,.F.);
#242=ORIENTED_EDGE('',*,*,#189,.T.);
#243=ORIENTED_EDGE('',*,*,#190,.T.);
#244=ORIENTED_EDGE('',*,*,#191,.T.);
#245=ORIENTED_EDGE('',*,*,#192,.T.);
#246=ORIENTED_EDGE('',*,*,#177,.F.);
#247=ORIENTED_EDGE('',*,*,#193,.T.);
#248=ORIENTED_EDGE('',*,*,#194,.T.);
#249=ORIENTED_EDGE('',*,*,#189,.F.);
#250=ORIENTED_EDGE('',*,*,#195,.T.);
#251=ORIENTED_EDGE('',*,*,#196,.T.);
#252=ORIENTED_EDGE('',*,*,#182,.F.);
#253=ORIENTED_EDGE('',*,*,#175,.F.);
#254=ORIENTED_EDGE('',*,*,#197,.T.);
#255=ORIENTED_EDGE('',*,*,#198,.T.);
#256=ORIENTED_EDGE('',*,*,#179,.F.);
#257=ORIENTED_EDGE('',*,*,#196,.F.);
#258=ORIENTED_EDGE('',*,*,#183,.F.);
#259=ORIENTED_EDGE('',*,*,#198,.F.);
#260=ORIENTED_EDGE('',*,*,#199,.T.);
#261=ORIENTED_EDGE('',*,*,#200,.T.);
#262=ORIENTED_EDGE('',*,*,#201,.T.);
#263=ORIENTED_EDGE('',*,*,#202,.T.);
#264=ORIENTED_EDGE('',*,*,#203,.T.);
#265=ORIENTED_EDGE('',*,*,#204,.T.);
#266=ORIENTED_EDGE('',*,*,#191,.F.);
#267=ORIENTED_EDGE('',*,*,#205,.T.);
#268=ORIENTED_EDGE('',*,*,#203,.F.);
#269=ORIENTED_EDGE('',*,*,#206,.T.);
#270=ORIENTED_EDGE('',*,*,#207,.T.);
#271=ORIENTED_EDGE('',*,*,#208,.T.);
#272=ORIENTED_EDGE('',*,*,#200,.F.);
#273=ORIENTED_EDGE('',*,*,#209,.T.);
#274=ORIENTED_EDGE('',*,*,#207,.F.);
#275=ORIENTED_EDGE('',*,*,#210,.T.);
#276=ORIENTED_EDGE('',*,*,#193,.F.);
#277=ORIENTED_EDGE('',*,*,#176,.F.);
#278=ORIENTED_EDGE('',*,*,#173,.F.);
#279=ORIENTED_EDGE('',*,*,#190,.F.);
#280=ORIENTED_EDGE('',*,*,#194,.F.);
#281=ORIENTED_EDGE('',*,*,#210,.F.);
#282=ORIENTED_EDGE('',*,*,#172,.F.);
#283=ORIENTED_EDGE('',*,*,#186,.F.);
#284=ORIENTED_EDGE('',*,*,#184,.F.);
#285=ORIENTED_EDGE('',*,*,#201,.F.);
#286=ORIENTED_EDGE('',*,*,#208,.F.);
#287=ORIENTED_EDGE('',*,*,#206,.F.);
#288=ORIENTED_EDGE('',*,*,#202,.F.);
#289=ORIENTED_EDGE('',*,*,#188,.F.);
#290=ORIENTED_EDGE('',*,*,#192,.F.);
#291=ORIENTED_EDGE('',*,*,#204,.F.);
#292=ORIENTED_EDGE('',*,*,#205,.F.);
#293=ORIENTED_EDGE('',*,*,#209,.F.);
#294=ORIENTED_EDGE('',*,*,#199,.F.);
#295=ORIENTED_EDGE('',*,*,#197,.F.);
#296=ORIENTED_EDGE('',*,*,#195,.F.);
#297=ORIENTED_EDGE('',*,*,#174,.F.);
#298=ORIENTED_EDGE('',*,*,#167,.F.);
#299=PLANE('',#349);
#300=PLANE('',#350);
#301=PLANE('',#351);
#302=PLANE('',#352);
#303=PLANE('',#353);
#304=PLANE('',#354);
#305=PLANE('',#355);
#306=PLANE('',#356);
#307=PLANE('',#357);
#308=PLANE('',#358);
#309=PLANE('',#359);
#310=PLANE('',#360);
#311=PLANE('',#361);
#312=PLANE('',#362);
#313=PLANE('',#363);
#314=PLANE('',#364);
#315=PLANE('',#365);
#316=PLANE('',#366);
#317=ADVANCED_FACE('',(#15),#299,.T.);
#318=ADVANCED_FACE('',(#16),#300,.T.);
#319=ADVANCED_FACE('',(#17),#301,.T.);
#320=ADVANCED_FACE('',(#18),#302,.T.);
#321=ADVANCED_FACE('',(#19),#303,.T.);
#322=ADVANCED_FACE('',(#20),#304,.T.);
#323=ADVANCED_FACE('',(#21),#305,.T.);
#324=ADVANCED_FACE('',(#22),#306,.T.);
#325=ADVANCED_FACE('',(#23),#307,.T.);
#326=ADVANCED_FACE('',(#24),#308,.T.);
#327=ADVANCED_FACE('',(#25),#309,.T.);
#328=ADVANCED_FACE('',(#26),#310,.T.);
#329=ADVANCED_FACE('',(#27),#311,.T.);
#330=ADVANCED_FACE('',(#28),#312,.T.);
#331=ADVANCED_FACE('',(#29),#313,.T.);
#332=ADVANCED_FACE('',(#30),#314,.T.);
#333=ADVANCED_FACE('',(#31),#315,.T.);
#334=ADVANCED_FACE('',(#32),#316,.T.);
#335=CLOSED_SHELL('',(#317,#318,#319,#320,#321,#322,#323,#324,#325,#326,
#327,#328,#329,#330,#331,#332,#333,#334));
#336=DERIVED_UNIT_ELEMENT(#338,1.);
#337=DERIVED_UNIT_ELEMENT(#545,-3.);
#338=(
MASS_UNIT()
NAMED_UNIT(*)
SI_UNIT(.KILO.,.GRAM.)
);
#339=DERIVED_UNIT((#336,#337));
#340=MEASURE_REPRESENTATION_ITEM('density measure',
POSITIVE_RATIO_MEASURE(7850.),#339);
#341=PROPERTY_DEFINITION_REPRESENTATION(#346,#343);
#342=PROPERTY_DEFINITION_REPRESENTATION(#347,#344);
#343=REPRESENTATION('material name',(#345),#542);
#344=REPRESENTATION('density',(#340),#542);
#345=DESCRIPTIVE_REPRESENTATION_ITEM('\X2\94A2\X0\','\X2\94A2\X0\');
#346=PROPERTY_DEFINITION('material property','material name',#552);
#347=PROPERTY_DEFINITION('material property','density of part',#552);
#348=AXIS2_PLACEMENT_3D('',#449,#367,#368);
#349=AXIS2_PLACEMENT_3D('',#450,#369,#370);
#350=AXIS2_PLACEMENT_3D('',#459,#375,#376);
#351=AXIS2_PLACEMENT_3D('',#469,#382,#383);
#352=AXIS2_PLACEMENT_3D('',#475,#387,#388);
#353=AXIS2_PLACEMENT_3D('',#483,#393,#394);
#354=AXIS2_PLACEMENT_3D('',#489,#398,#399);
#355=AXIS2_PLACEMENT_3D('',#491,#401,#402);
#356=AXIS2_PLACEMENT_3D('',#495,#405,#406);
#357=AXIS2_PLACEMENT_3D('',#503,#411,#412);
#358=AXIS2_PLACEMENT_3D('',#507,#415,#416);
#359=AXIS2_PLACEMENT_3D('',#511,#419,#420);
#360=AXIS2_PLACEMENT_3D('',#515,#423,#424);
#361=AXIS2_PLACEMENT_3D('',#521,#428,#429);
#362=AXIS2_PLACEMENT_3D('',#527,#433,#434);
#363=AXIS2_PLACEMENT_3D('',#533,#438,#439);
#364=AXIS2_PLACEMENT_3D('',#536,#442,#443);
#365=AXIS2_PLACEMENT_3D('',#538,#445,#446);
#366=AXIS2_PLACEMENT_3D('',#539,#447,#448);
#367=DIRECTION('axis',(0.,0.,1.));
#368=DIRECTION('refdir',(1.,0.,0.));
#369=DIRECTION('center_axis',(0.766647966544842,-0.642067671972868,0.));
#370=DIRECTION('ref_axis',(0.,0.,-1.));
#371=DIRECTION('',(-0.642067671972868,-0.766647966544842,0.));
#372=DIRECTION('',(0.,0.,-1.));
#373=DIRECTION('',(0.642067671972868,0.766647966544842,0.));
#374=DIRECTION('',(0.,0.,1.));
#375=DIRECTION('center_axis',(0.768289503347778,-0.640102522292815,0.));
#376=DIRECTION('ref_axis',(0.640102522292815,0.768289503347778,0.));
#377=DIRECTION('',(0.,0.,-1.));
#378=DIRECTION('',(0.640102522292815,0.768289503347778,0.));
#379=DIRECTION('',(0.,0.,1.));
#380=DIRECTION('',(-0.640102522292815,-0.768289503347778,0.));
#381=DIRECTION('',(0.,0.,-1.));
#382=DIRECTION('center_axis',(-5.000103695829E-17,0.,-1.));
#383=DIRECTION('ref_axis',(0.639496697288781,0.768793843729736,-3.19754979958407E-17));
#384=DIRECTION('',(-0.768793843729736,0.63949669728878,0.));
#385=DIRECTION('',(0.640824095111106,0.767687748453127,0.));
#386=DIRECTION('',(0.775044992689097,-0.631906052596079,0.));
#387=DIRECTION('center_axis',(7.916310917388E-17,0.,-1.));
#388=DIRECTION('ref_axis',(0.61839036134824,0.785871084206305,4.89537036874858E-17));
#389=DIRECTION('',(-0.785871084206305,0.61839036134824,0.));
#390=DIRECTION('',(0.636181582745841,0.771539366315807,0.));
#391=DIRECTION('',(0.772370087901707,-0.635172769657759,0.));
#392=DIRECTION('',(-0.666585319106806,-0.745428743979783,0.));
#393=DIRECTION('center_axis',(0.771539366315807,-0.636181582745841,0.));
#394=DIRECTION('ref_axis',(0.,0.,-1.));
#395=DIRECTION('',(0.,0.,-1.));
#396=DIRECTION('',(0.636181582745841,0.771539366315807,0.));
#397=DIRECTION('',(0.,0.,1.));
#398=DIRECTION('center_axis',(-0.635172769657759,-0.772370087901707,0.));
#399=DIRECTION('ref_axis',(0.,0.,-1.));
#400=DIRECTION('',(0.772370087901707,-0.635172769657759,0.));
#401=DIRECTION('center_axis',(0.631906052596079,0.775044992689097,0.));
#402=DIRECTION('ref_axis',(0.,0.,1.));
#403=DIRECTION('',(0.,0.,1.));
#404=DIRECTION('',(0.775044992689097,-0.631906052596079,0.));
#405=DIRECTION('center_axis',(0.63840130063972,0.769703695808662,0.));
#406=DIRECTION('ref_axis',(-0.769703695808662,0.63840130063972,0.));
#407=DIRECTION('',(0.,0.,-1.));
#408=DIRECTION('',(-0.769703695808662,0.63840130063972,0.));
#409=DIRECTION('',(0.,0.,1.));
#410=DIRECTION('',(0.769703695808662,-0.63840130063972,0.));
#411=DIRECTION('center_axis',(0.767687748453127,-0.640824095111106,0.));
#412=DIRECTION('ref_axis',(0.,0.,-1.));
#413=DIRECTION('',(0.,0.,-1.));
#414=DIRECTION('',(0.640824095111106,0.767687748453127,0.));
#415=DIRECTION('center_axis',(0.745428743979783,-0.666585319106806,0.));
#416=DIRECTION('ref_axis',(0.,0.,-1.));
#417=DIRECTION('',(-0.666585319106806,-0.745428743979783,0.));
#418=DIRECTION('',(0.,0.,-1.));
#419=DIRECTION('center_axis',(-0.61839036134824,-0.785871084206305,0.));
#420=DIRECTION('ref_axis',(0.,0.,-1.));
#421=DIRECTION('',(-0.785871084206305,0.61839036134824,0.));
#422=DIRECTION('',(0.,0.,-1.));
#423=DIRECTION('center_axis',(-0.642381255085737,-0.766385231534686,0.));
#424=DIRECTION('ref_axis',(-0.766385231534686,0.642381255085737,0.));
#425=DIRECTION('',(-0.766385231534686,0.642381255085737,0.));
#426=DIRECTION('',(0.,0.,-1.));
#427=DIRECTION('',(0.766385231534686,-0.642381255085737,0.));
#428=DIRECTION('center_axis',(-0.767888151039905,0.640583942580921,0.));
#429=DIRECTION('ref_axis',(0.,0.,1.));
#430=DIRECTION('',(-0.640583942580921,-0.767888151039905,0.));
#431=DIRECTION('',(0.,0.,1.));
#432=DIRECTION('',(0.640583942580921,0.767888151039905,0.));
#433=DIRECTION('center_axis',(-0.641585706122637,-0.767051355320566,0.));
#434=DIRECTION('ref_axis',(0.,0.,-1.));
#435=DIRECTION('',(-0.767051355320566,0.641585706122637,0.));
#436=DIRECTION('',(0.767051355320566,-0.641585706122637,0.));
#437=DIRECTION('',(0.,0.,1.));
#438=DIRECTION('center_axis',(-0.768042402188104,0.640398991599087,0.));
#439=DIRECTION('ref_axis',(0.,0.,1.));
#440=DIRECTION('',(-0.640398991599087,-0.768042402188104,0.));
#441=DIRECTION('',(0.640398991599087,0.768042402188104,0.));
#442=DIRECTION('center_axis',(0.639496697288781,0.768793843729736,0.));
#443=DIRECTION('ref_axis',(0.,0.,1.));
#444=DIRECTION('',(-0.768793843729736,0.63949669728878,0.));
#445=DIRECTION('center_axis',(4.764801838479E-17,0.,-1.));
#446=DIRECTION('ref_axis',(-0.63840130063972,-0.769703695808662,-3.04185569097552E-17));
#447=DIRECTION('center_axis',(0.,0.,1.));
#448=DIRECTION('ref_axis',(-0.631906052596079,-0.775044992689096,0.));
#449=CARTESIAN_POINT('',(0.,0.,0.));
#450=CARTESIAN_POINT('Origin',(7720.000000001,1210.000000021,1581.75));
#451=CARTESIAN_POINT('',(8724.99999999946,2410.00000003356,3018.3155));
#452=CARTESIAN_POINT('',(6715.00000000464,10.0000000087886,3018.3155));
#453=CARTESIAN_POINT('',(8724.999999999,2410.000000033,3018.3155));
#454=CARTESIAN_POINT('',(6715.00000000444,10.0000000088689,145.1845));
#455=CARTESIAN_POINT('',(6715.000000004,10.000000009322,3018.3155));
#456=CARTESIAN_POINT('',(8724.99999999915,2410.00000003382,145.1845));
#457=CARTESIAN_POINT('',(6715.000000004,10.000000009322,145.1845));
#458=CARTESIAN_POINT('',(8724.999999999,2410.000000033,145.1845));
#459=CARTESIAN_POINT('Origin',(2870.000000003,-4604.999999981,48.39483333333));
#460=CARTESIAN_POINT('',(-974.999999998807,-9219.99999997217,145.1845));
#461=CARTESIAN_POINT('',(-974.999999998974,-9219.99999997219,-3018.3155));
#462=CARTESIAN_POINT('',(-974.9999999985,-9219.999999972,145.1845));
#463=CARTESIAN_POINT('',(6715.00000000529,10.0000000082074,-3018.3155));
#464=CARTESIAN_POINT('',(-974.9999999985,-9219.999999972,-3018.3155));
#465=CARTESIAN_POINT('',(6715.000000004,10.000000009322,-3018.3155));
#466=CARTESIAN_POINT('',(-974.999999999632,-9219.99999997107,3018.3155));
#467=CARTESIAN_POINT('',(6715.000000004,10.000000009322,3018.3155));
#468=CARTESIAN_POINT('',(-974.9999999985,-9219.999999972,3018.3155));
#469=CARTESIAN_POINT('Origin',(5509.999999998,3030.000000028,145.1845));
#470=CARTESIAN_POINT('',(2314.999999995,3670.000000042,145.1845));
#471=CARTESIAN_POINT('',(6715.000000004,10.000000009322,145.1845));
#472=CARTESIAN_POINT('',(4284.99999999571,6030.00000002753,145.1845));
#473=CARTESIAN_POINT('',(2314.999999995,3670.000000042,145.1845));
#474=CARTESIAN_POINT('',(4284.999999996,6030.000000028,145.1845));
#475=CARTESIAN_POINT('Origin',(-2962.499999994,-8514.999999985,145.1845));
#476=CARTESIAN_POINT('',(-1904.999999992,-10260.00000001,145.1845));
#477=CARTESIAN_POINT('',(-4954.999999995,-7859.999999986,145.1845));
#478=CARTESIAN_POINT('',(-1904.999999992,-10260.00000001,145.1845));
#479=CARTESIAN_POINT('',(-4014.999999992,-6719.999999972,145.1845));
#480=CARTESIAN_POINT('',(-4954.999999995,-7859.999999986,145.1845));
#481=CARTESIAN_POINT('',(-4014.999999992,-6719.999999972,145.1845));
#482=CARTESIAN_POINT('',(-974.9999999985,-9219.999999972,145.1845));
#483=CARTESIAN_POINT('Origin',(-4484.999999993,-7289.999999979,-1436.5655));
#484=CARTESIAN_POINT('',(-4954.999999995,-7859.999999986,-3018.3155));
#485=CARTESIAN_POINT('',(-4954.999999995,-7859.999999986,145.1845));
#486=CARTESIAN_POINT('',(-4014.999999992,-6719.999999972,-3018.3155));
#487=CARTESIAN_POINT('',(-4954.999999995,-7859.999999986,-3018.3155));
#488=CARTESIAN_POINT('',(-4014.999999992,-6719.999999972,-3018.3155));
#489=CARTESIAN_POINT('Origin',(-2494.999999995,-7969.999999972,-1436.5655));
#490=CARTESIAN_POINT('',(-4014.999999992,-6719.999999972,-3018.3155));
#491=CARTESIAN_POINT('Origin',(6504.999999997,4220.00000003,1581.75));
#492=CARTESIAN_POINT('',(4284.99999999554,6030.00000002744,3018.3155));
#493=CARTESIAN_POINT('',(4284.999999996,6030.000000028,145.1845));
#494=CARTESIAN_POINT('',(4284.999999996,6030.000000028,3018.3155));
#495=CARTESIAN_POINT('Origin',(2245.,7722.00000002,29.0369));
#496=CARTESIAN_POINT('',(4284.999999996,6030.000000028,-3018.3155));
#497=CARTESIAN_POINT('',(4284.999999996,6030.000000028,145.1845));
#498=CARTESIAN_POINT('',(-814.999999995,10260.00000001,-3018.3155));
#499=CARTESIAN_POINT('',(4284.999999996,6030.000000028,-3018.3155));
#500=CARTESIAN_POINT('',(-814.999999996238,10260.000000011,3018.3155));
#501=CARTESIAN_POINT('',(-814.999999995,10260.00000001,-3018.3155));
#502=CARTESIAN_POINT('',(-814.999999995,10260.00000001,3018.3155));
#503=CARTESIAN_POINT('Origin',(3299.999999996,4850.000000035,-1436.5655));
#504=CARTESIAN_POINT('',(2314.999999995,3670.000000042,-3018.3155));
#505=CARTESIAN_POINT('',(2314.999999995,3670.000000042,145.1845));
#506=CARTESIAN_POINT('',(2314.999999995,3670.000000042,-3018.3155));
#507=CARTESIAN_POINT('Origin',(-1439.999999995,-9739.999999991,1581.75));
#508=CARTESIAN_POINT('',(-1904.999999992,-10260.00000001,3018.3155));
#509=CARTESIAN_POINT('',(-974.9999999985,-9219.999999972,3018.3155));
#510=CARTESIAN_POINT('',(-1904.999999992,-10260.00000001,3018.3155));
#511=CARTESIAN_POINT('Origin',(-3429.999999993,-9059.999999998,1581.75));
#512=CARTESIAN_POINT('',(-4954.999999995,-7859.999999986,3018.3155));
#513=CARTESIAN_POINT('',(-1904.999999992,-10260.00000001,3018.3155));
#514=CARTESIAN_POINT('',(-4954.999999995,-7859.999999986,3018.3155));
#515=CARTESIAN_POINT('Origin',(-6462.999999996,-6595.999999973,29.0369));
#516=CARTESIAN_POINT('',(-8724.99999999914,-4699.99999995255,3018.3155));
#517=CARTESIAN_POINT('',(-4954.999999995,-7859.999999986,3018.3155));
#518=CARTESIAN_POINT('',(-8724.99999999982,-4699.9999999522,-3018.3155));
#519=CARTESIAN_POINT('',(-8724.999999999,-4699.999999953,3018.3155));
#520=CARTESIAN_POINT('',(-8724.999999999,-4699.999999953,-3018.3155));
#521=CARTESIAN_POINT('Origin',(-3180.,7425.000000017,0.));
#522=CARTESIAN_POINT('',(-5545.00000000479,4590.00000002507,-3018.3155));
#523=CARTESIAN_POINT('',(-814.999999995,10260.00000001,-3018.3155));
#524=CARTESIAN_POINT('',(-5545.00000000515,4590.00000002555,3018.3155));
#525=CARTESIAN_POINT('',(-5545.000000006,4590.000000026,-3018.3155));
#526=CARTESIAN_POINT('',(-5545.000000006,4590.000000026,3018.3155));
#527=CARTESIAN_POINT('Origin',(-4200.000000004,3465.000000026,0.));
#528=CARTESIAN_POINT('',(-2855.00000000207,2340.00000002523,3018.3155));
#529=CARTESIAN_POINT('',(-2855.000000003,2340.000000026,3018.3155));
#530=CARTESIAN_POINT('',(-2855.00000000252,2340.00000002562,-3018.3155));
#531=CARTESIAN_POINT('',(-5545.000000006,4590.000000026,-3018.3155));
#532=CARTESIAN_POINT('',(-2855.000000003,2340.000000026,-3018.3155));
#533=CARTESIAN_POINT('Origin',(-5790.000000001,-1179.999999964,0.));
#534=CARTESIAN_POINT('',(-2855.000000003,2340.000000026,-3018.3155));
#535=CARTESIAN_POINT('',(-8724.999999999,-4699.999999953,3018.3155));
#536=CARTESIAN_POINT('Origin',(4514.999999999,1840.000000026,-1436.5655));
#537=CARTESIAN_POINT('',(6715.000000004,10.000000009322,-3018.3155));
#538=CARTESIAN_POINT('Origin',(-1456.999999999,-159.9999999743,-3018.3155));
#539=CARTESIAN_POINT('Origin',(-604.9999999988,-639.999999979,3018.3155));
#540=UNCERTAINTY_MEASURE_WITH_UNIT(LENGTH_MEASURE(0.01),#544,
'DISTANCE_ACCURACY_VALUE',
'Maximum model space distance between geometric entities at asserted c
onnectivities');
#541=UNCERTAINTY_MEASURE_WITH_UNIT(LENGTH_MEASURE(0.01),#544,
'DISTANCE_ACCURACY_VALUE',
'Maximum model space distance between geometric entities at asserted c
onnectivities');
#542=(
GEOMETRIC_REPRESENTATION_CONTEXT(3)
GLOBAL_UNCERTAINTY_ASSIGNED_CONTEXT((#540))
GLOBAL_UNIT_ASSIGNED_CONTEXT((#544,#546,#547))
REPRESENTATION_CONTEXT('','3D')
);
#543=(
GEOMETRIC_REPRESENTATION_CONTEXT(3)
GLOBAL_UNCERTAINTY_ASSIGNED_CONTEXT((#541))
GLOBAL_UNIT_ASSIGNED_CONTEXT((#544,#546,#547))
REPRESENTATION_CONTEXT('','3D')
);
#544=(
LENGTH_UNIT()
NAMED_UNIT(*)
SI_UNIT(.MILLI.,.METRE.)
);
#545=(
LENGTH_UNIT()
NAMED_UNIT(*)
SI_UNIT($,.METRE.)
);
#546=(
NAMED_UNIT(*)
PLANE_ANGLE_UNIT()
SI_UNIT($,.RADIAN.)
);
#547=(
NAMED_UNIT(*)
SI_UNIT($,.STERADIAN.)
SOLID_ANGLE_UNIT()
);
#548=SHAPE_DEFINITION_REPRESENTATION(#549,#550);
#549=PRODUCT_DEFINITION_SHAPE('',$,#552);
#550=SHAPE_REPRESENTATION('',(#348),#542);
#551=PRODUCT_DEFINITION_CONTEXT('part definition',#556,'design');
#552=PRODUCT_DEFINITION('Open CASCADE STEP translator 7.7 21',
'(\X2\672A4FDD5B58\X0\)',#553,#551);
#553=PRODUCT_DEFINITION_FORMATION('',$,#558);
#554=PRODUCT_RELATED_PRODUCT_CATEGORY('(\X2\672A4FDD5B58\X0\)',
'(\X2\672A4FDD5B58\X0\)',(#558));
#555=APPLICATION_PROTOCOL_DEFINITION('international standard',
'automotive_design',2009,#556);
#556=APPLICATION_CONTEXT(
'Core Data for Automotive Mechanical Design Process');
#557=PRODUCT_CONTEXT('part definition',#556,'mechanical');
#558=PRODUCT('Open CASCADE STEP translator 7.7 21','(\X2\672A4FDD5B58\X0\)',
'Open CASCADE Model',(#557));
#559=PRESENTATION_STYLE_ASSIGNMENT((#560));
#560=SURFACE_STYLE_USAGE(.BOTH.,#561);
#561=SURFACE_SIDE_STYLE('',(#562));
#562=SURFACE_STYLE_FILL_AREA(#563);
#563=FILL_AREA_STYLE('\X2\94A2\X0\ - \X2\7F0E5149\X0\',(#564));
#564=FILL_AREA_STYLE_COLOUR('\X2\94A2\X0\ - \X2\7F0E5149\X0\',#565);
#565=COLOUR_RGB('\X2\94A2\X0\ - \X2\7F0E5149\X0\',0.627450980392157,0.627450980392157,
0.627450980392157);
ENDSEC;
END-ISO-10303-21;
