# OBJ file generated from STEP using CadQuery
# Vertices: 104
# Faces: 64

v -557.800000 -585.900001 -215.123050
v -600.900000 -600.200001 -215.123050
v -600.900000 -600.200001 115.123050
v -557.800000 -585.900001 115.123050
v -804.500000 553.599999 -215.123050
v -557.800000 -585.900001 -215.123050
v -557.800000 -585.900001 115.123050
v -804.500000 553.599999 115.123050
v -600.900000 -600.200001 -215.123050
v -456.599998 -1030.800008 -215.123050
v -456.599990 -1030.800030 115.123050
v -600.900000 -600.200001 115.123050
v -456.599998 -1030.800008 -215.123050
v -456.599990 -1030.800030 115.123050
v 194.199993 -732.099996 -215.123050
v 194.200022 -732.100017 215.123050
v 160.421690 -747.603379 215.123050
v 160.421687 -747.603373 115.123050
v 371.300004 -1148.299999 -215.123050
v 923.400000 -913.400001 -215.123050
v 923.400000 -913.400001 115.123050
v 371.300017 -1148.299994 115.123050
v 923.400000 -913.400001 -215.123050
v 673.600000 -326.300001 -215.123050
v 673.600000 -326.300001 115.123050
v 923.400000 -913.400001 115.123050
v -804.500000 553.599999 115.123050
v -711.573000 351.268599 115.123050
v -711.573000 351.268599 215.123050
v -804.500000 553.599999 215.123050
v -923.400000 822.699999 215.123050
v -923.400000 822.699999 -215.123050
v -804.500000 553.599999 -215.123050
v -804.500000 553.599999 115.123050
v -804.500000 553.599999 215.123050
v 219.698883 -792.024508 115.123050
v 611.341300 -612.150601 115.123050
v 611.341300 -612.150601 215.123050
v 219.698887 -792.024507 215.123050
v 611.341300 -612.150601 115.123050
v 511.700000 -395.200001 115.123050
v 511.700000 -395.200001 215.123050
v 611.341300 -612.150601 215.123050
v -197.200000 1148.299999 215.123050
v 511.700000 -395.200001 215.123050
v 511.700000 -395.200001 115.123050
v 511.700000 -395.200001 -215.123050
v -197.200000 1148.299999 -215.123050
v -197.200000 1148.299999 -215.123050
v -923.400000 822.699999 -215.123050
v -923.400000 822.699999 215.123050
v -197.200000 1148.299999 215.123050
v 511.700000 -395.200001 -215.123050
v -197.200000 1148.299999 -215.123050
v 673.600000 -326.300001 -215.123050
v 923.400000 -913.400001 -215.123050
v 371.300004 -1148.299999 -215.123050
v 194.199993 -732.099996 -215.123050
v -456.599998 -1030.800008 -215.123050
v -600.900000 -600.200001 -215.123050
v -557.800000 -585.900001 -215.123050
v -804.500000 553.599999 -215.123050
v -923.400000 822.699999 -215.123050
v -408.251500 490.578399 115.123050
v 160.421687 -747.603373 115.123050
v 160.421690 -747.603379 215.123050
v -408.251500 490.578399 215.123050
v -711.573000 351.268599 115.123050
v -408.251500 490.578399 115.123050
v -408.251500 490.578399 215.123050
v -711.573000 351.268599 215.123050
v 219.698887 -792.024507 215.123050
v 194.200022 -732.100017 215.123050
v 194.199993 -732.099996 -215.123050
v 371.300004 -1148.299999 -215.123050
v 371.300017 -1148.299994 115.123050
v 219.698883 -792.024508 115.123050
v 511.700000 -395.200001 -215.123050
v 673.600000 -326.300001 -215.123050
v 511.700000 -395.200001 115.123050
v 673.600000 -326.300001 115.123050
v 371.300017 -1148.299994 115.123050
v 219.698883 -792.024508 115.123050
v 923.400000 -913.400001 115.123050
v 673.600000 -326.300001 115.123050
v 511.700000 -395.200001 115.123050
v 611.341300 -612.150601 115.123050
v 611.341300 -612.150601 215.123050
v 219.698887 -792.024507 215.123050
v 511.700000 -395.200001 215.123050
v -197.200000 1148.299999 215.123050
v -923.400000 822.699999 215.123050
v -804.500000 553.599999 215.123050
v -711.573000 351.268599 215.123050
v -408.251500 490.578399 215.123050
v 160.421690 -747.603379 215.123050
v 194.200022 -732.100017 215.123050
v -711.573000 351.268599 115.123050
v -408.251500 490.578399 115.123050
v -804.500000 553.599999 115.123050
v -557.800000 -585.900001 115.123050
v -600.900000 -600.200001 115.123050
v -456.599990 -1030.800030 115.123050
v 160.421687 -747.603373 115.123050

f 4 1 2
f 4 2 3
f 8 5 6
f 8 6 7
f 12 9 10
f 12 10 11
f 18 14 13
f 18 13 15
f 16 17 18
f 16 18 15
f 22 19 20
f 22 20 21
f 26 23 24
f 26 24 25
f 27 28 29
f 30 27 29
f 34 31 32
f 34 32 33
f 35 31 34
f 39 36 37
f 39 37 38
f 40 41 42
f 43 40 42
f 44 45 46
f 48 46 47
f 48 44 46
f 52 49 50
f 52 50 51
f 53 55 56
f 58 56 57
f 58 53 56
f 61 58 59
f 61 53 58
f 60 61 59
f 62 54 53
f 62 53 61
f 63 54 62
f 67 64 65
f 67 65 66
f 68 69 70
f 71 68 70
f 77 72 73
f 74 77 73
f 75 76 77
f 75 77 74
f 80 79 78
f 81 79 80
f 87 83 82
f 87 82 84
f 85 86 87
f 85 87 84
f 97 89 88
f 97 88 90
f 96 97 90
f 95 96 90
f 91 95 90
f 93 94 95
f 92 93 95
f 92 95 91
f 101 99 98
f 103 101 102
f 104 99 101
f 104 101 103
f 100 101 98
