ISO-10303-21;
HEADER;
/* Generated by software containing ST-Developer
 * from STEP Tools, Inc. (www.steptools.com) 
 */

FILE_DESCRIPTION(
/* description */ ('Open CASCADE Model'),
/* implementation_level */ '2;1');

FILE_NAME(
/* name */ '19.step',
/* time_stamp */ '2025-12-23T14:06:54+08:00',
/* author */ (''),
/* organization */ (''),
/* preprocessor_version */ 'ST-DEVELOPER v20.1',
/* originating_system */ 'Autodesk Translation Framework v14.21.0.0',
/* authorisation */ '');

FILE_SCHEMA (('AUTOMOTIVE_DESIGN { 1 0 10303 214 3 1 1 }'));
ENDSEC;

DATA;
#10=MECHANICAL_DESIGN_GEOMETRIC_PRESENTATION_REPRESENTATION('',(#13),#627);
#11=SHAPE_REPRESENTATION_RELATIONSHIP('SRR','None',#634,#12);
#12=ADVANCED_BREP_SHAPE_REPRESENTATION('',(#14),#626);
#13=STYLED_ITEM('',(#643),#14);
#14=MANIFOLD_SOLID_BREP('\X2\5B9E4F53\X0\1',#389);
#15=FACE_OUTER_BOUND('',#35,.T.);
#16=FACE_OUTER_BOUND('',#36,.T.);
#17=FACE_OUTER_BOUND('',#37,.T.);
#18=FACE_OUTER_BOUND('',#38,.T.);
#19=FACE_OUTER_BOUND('',#39,.T.);
#20=FACE_OUTER_BOUND('',#40,.T.);
#21=FACE_OUTER_BOUND('',#41,.T.);
#22=FACE_OUTER_BOUND('',#42,.T.);
#23=FACE_OUTER_BOUND('',#43,.T.);
#24=FACE_OUTER_BOUND('',#44,.T.);
#25=FACE_OUTER_BOUND('',#45,.T.);
#26=FACE_OUTER_BOUND('',#46,.T.);
#27=FACE_OUTER_BOUND('',#47,.T.);
#28=FACE_OUTER_BOUND('',#48,.T.);
#29=FACE_OUTER_BOUND('',#49,.T.);
#30=FACE_OUTER_BOUND('',#50,.T.);
#31=FACE_OUTER_BOUND('',#51,.T.);
#32=FACE_OUTER_BOUND('',#52,.T.);
#33=FACE_OUTER_BOUND('',#53,.T.);
#34=FACE_OUTER_BOUND('',#54,.T.);
#35=EDGE_LOOP('',(#245,#246,#247,#248));
#36=EDGE_LOOP('',(#249,#250,#251,#252));
#37=EDGE_LOOP('',(#253,#254,#255,#256));
#38=EDGE_LOOP('',(#257,#258,#259,#260,#261,#262));
#39=EDGE_LOOP('',(#263,#264,#265,#266));
#40=EDGE_LOOP('',(#267,#268,#269,#270));
#41=EDGE_LOOP('',(#271,#272,#273,#274));
#42=EDGE_LOOP('',(#275,#276,#277,#278,#279));
#43=EDGE_LOOP('',(#280,#281,#282,#283));
#44=EDGE_LOOP('',(#284,#285,#286,#287));
#45=EDGE_LOOP('',(#288,#289,#290,#291,#292));
#46=EDGE_LOOP('',(#293,#294,#295,#296));
#47=EDGE_LOOP('',(#297,#298,#299,#300,#301,#302,#303,#304,#305,#306,#307));
#48=EDGE_LOOP('',(#308,#309,#310,#311));
#49=EDGE_LOOP('',(#312,#313,#314,#315));
#50=EDGE_LOOP('',(#316,#317,#318,#319,#320,#321));
#51=EDGE_LOOP('',(#322,#323,#324,#325));
#52=EDGE_LOOP('',(#326,#327,#328,#329,#330,#331));
#53=EDGE_LOOP('',(#332,#333,#334,#335,#336,#337,#338,#339,#340,#341));
#54=EDGE_LOOP('',(#342,#343,#344,#345,#346,#347,#348));
#55=LINE('',#521,#107);
#56=LINE('',#523,#108);
#57=LINE('',#525,#109);
#58=LINE('',#526,#110);
#59=LINE('',#529,#111);
#60=LINE('',#531,#112);
#61=LINE('',#532,#113);
#62=LINE('',#535,#114);
#63=LINE('',#537,#115);
#64=LINE('',#538,#116);
#65=LINE('',#541,#117);
#66=LINE('',#543,#118);
#67=LINE('',#545,#119);
#68=LINE('',#547,#120);
#69=LINE('',#548,#121);
#70=LINE('',#552,#122);
#71=LINE('',#554,#123);
#72=LINE('',#556,#124);
#73=LINE('',#557,#125);
#74=LINE('',#560,#126);
#75=LINE('',#562,#127);
#76=LINE('',#563,#128);
#77=LINE('',#566,#129);
#78=LINE('',#568,#130);
#79=LINE('',#570,#131);
#80=LINE('',#571,#132);
#81=LINE('',#575,#133);
#82=LINE('',#576,#134);
#83=LINE('',#577,#135);
#84=LINE('',#581,#136);
#85=LINE('',#583,#137);
#86=LINE('',#585,#138);
#87=LINE('',#586,#139);
#88=LINE('',#589,#140);
#89=LINE('',#591,#141);
#90=LINE('',#592,#142);
#91=LINE('',#595,#143);
#92=LINE('',#597,#144);
#93=LINE('',#599,#145);
#94=LINE('',#600,#146);
#95=LINE('',#602,#147);
#96=LINE('',#603,#148);
#97=LINE('',#605,#149);
#98=LINE('',#606,#150);
#99=LINE('',#609,#151);
#100=LINE('',#611,#152);
#101=LINE('',#612,#153);
#102=LINE('',#614,#154);
#103=LINE('',#615,#155);
#104=LINE('',#617,#156);
#105=LINE('',#618,#157);
#106=LINE('',#620,#158);
#107=VECTOR('',#427,1.00000000000005);
#108=VECTOR('',#428,1.);
#109=VECTOR('',#429,1.00000000000005);
#110=VECTOR('',#430,1.);
#111=VECTOR('',#433,1.00000000000007);
#112=VECTOR('',#434,1.00000000000007);
#113=VECTOR('',#435,1.);
#114=VECTOR('',#438,0.999999999999686);
#115=VECTOR('',#439,1.);
#116=VECTOR('',#440,0.999999999999686);
#117=VECTOR('',#443,0.999999999999777);
#118=VECTOR('',#444,1.);
#119=VECTOR('',#445,0.999999999999777);
#120=VECTOR('',#446,1.);
#121=VECTOR('',#447,0.999999999999777);
#122=VECTOR('',#450,1.0000000000001);
#123=VECTOR('',#451,1.);
#124=VECTOR('',#452,1.0000000000001);
#125=VECTOR('',#453,1.);
#126=VECTOR('',#456,1.00000000000061);
#127=VECTOR('',#457,1.);
#128=VECTOR('',#458,1.00000000000061);
#129=VECTOR('',#461,0.99999999999983);
#130=VECTOR('',#462,1.);
#131=VECTOR('',#463,0.99999999999983);
#132=VECTOR('',#464,1.);
#133=VECTOR('',#467,1.);
#134=VECTOR('',#468,1.00000000000012);
#135=VECTOR('',#469,1.00000000000012);
#136=VECTOR('',#472,0.99999999999966);
#137=VECTOR('',#473,1.);
#138=VECTOR('',#474,0.99999999999966);
#139=VECTOR('',#475,1.);
#140=VECTOR('',#478,1.00000000000022);
#141=VECTOR('',#479,1.);
#142=VECTOR('',#480,1.00000000000022);
#143=VECTOR('',#483,1.00000000000005);
#144=VECTOR('',#484,1.);
#145=VECTOR('',#485,1.00000000000005);
#146=VECTOR('',#486,1.);
#147=VECTOR('',#489,0.999999999999992);
#148=VECTOR('',#490,0.999999999999992);
#149=VECTOR('',#493,0.999999999999718);
#150=VECTOR('',#494,0.999999999999496);
#151=VECTOR('',#497,0.999999999999753);
#152=VECTOR('',#498,0.999999999999753);
#153=VECTOR('',#499,1.);
#154=VECTOR('',#502,0.999999999999689);
#155=VECTOR('',#503,0.999999999999689);
#156=VECTOR('',#506,0.999999999999496);
#157=VECTOR('',#507,0.999999999999496);
#158=VECTOR('',#510,0.999999999999718);
#159=VERTEX_POINT('',#519);
#160=VERTEX_POINT('',#520);
#161=VERTEX_POINT('',#522);
#162=VERTEX_POINT('',#524);
#163=VERTEX_POINT('',#528);
#164=VERTEX_POINT('',#530);
#165=VERTEX_POINT('',#534);
#166=VERTEX_POINT('',#536);
#167=VERTEX_POINT('',#540);
#168=VERTEX_POINT('',#542);
#169=VERTEX_POINT('',#544);
#170=VERTEX_POINT('',#546);
#171=VERTEX_POINT('',#550);
#172=VERTEX_POINT('',#551);
#173=VERTEX_POINT('',#553);
#174=VERTEX_POINT('',#555);
#175=VERTEX_POINT('',#559);
#176=VERTEX_POINT('',#561);
#177=VERTEX_POINT('',#565);
#178=VERTEX_POINT('',#567);
#179=VERTEX_POINT('',#569);
#180=VERTEX_POINT('',#573);
#181=VERTEX_POINT('',#574);
#182=VERTEX_POINT('',#579);
#183=VERTEX_POINT('',#580);
#184=VERTEX_POINT('',#582);
#185=VERTEX_POINT('',#584);
#186=VERTEX_POINT('',#588);
#187=VERTEX_POINT('',#590);
#188=VERTEX_POINT('',#594);
#189=VERTEX_POINT('',#596);
#190=VERTEX_POINT('',#598);
#191=VERTEX_POINT('',#608);
#192=VERTEX_POINT('',#610);
#193=EDGE_CURVE('',#159,#160,#55,.T.);
#194=EDGE_CURVE('',#160,#161,#56,.T.);
#195=EDGE_CURVE('',#161,#162,#57,.T.);
#196=EDGE_CURVE('',#162,#159,#58,.T.);
#197=EDGE_CURVE('',#163,#159,#59,.T.);
#198=EDGE_CURVE('',#162,#164,#60,.T.);
#199=EDGE_CURVE('',#164,#163,#61,.T.);
#200=EDGE_CURVE('',#160,#165,#62,.T.);
#201=EDGE_CURVE('',#165,#166,#63,.T.);
#202=EDGE_CURVE('',#166,#161,#64,.T.);
#203=EDGE_CURVE('',#165,#167,#65,.T.);
#204=EDGE_CURVE('',#167,#168,#66,.T.);
#205=EDGE_CURVE('',#168,#169,#67,.T.);
#206=EDGE_CURVE('',#169,#170,#68,.T.);
#207=EDGE_CURVE('',#170,#166,#69,.T.);
#208=EDGE_CURVE('',#171,#172,#70,.T.);
#209=EDGE_CURVE('',#172,#173,#71,.T.);
#210=EDGE_CURVE('',#173,#174,#72,.T.);
#211=EDGE_CURVE('',#174,#171,#73,.T.);
#212=EDGE_CURVE('',#172,#175,#74,.T.);
#213=EDGE_CURVE('',#175,#176,#75,.T.);
#214=EDGE_CURVE('',#176,#173,#76,.T.);
#215=EDGE_CURVE('',#164,#177,#77,.T.);
#216=EDGE_CURVE('',#177,#178,#78,.T.);
#217=EDGE_CURVE('',#178,#179,#79,.T.);
#218=EDGE_CURVE('',#179,#164,#80,.T.);
#219=EDGE_CURVE('',#180,#181,#81,.T.);
#220=EDGE_CURVE('',#181,#163,#82,.T.);
#221=EDGE_CURVE('',#179,#180,#83,.T.);
#222=EDGE_CURVE('',#182,#183,#84,.T.);
#223=EDGE_CURVE('',#183,#184,#85,.T.);
#224=EDGE_CURVE('',#184,#185,#86,.T.);
#225=EDGE_CURVE('',#185,#182,#87,.T.);
#226=EDGE_CURVE('',#183,#186,#88,.T.);
#227=EDGE_CURVE('',#186,#187,#89,.T.);
#228=EDGE_CURVE('',#187,#184,#90,.T.);
#229=EDGE_CURVE('',#188,#187,#91,.T.);
#230=EDGE_CURVE('',#186,#189,#92,.T.);
#231=EDGE_CURVE('',#189,#190,#93,.T.);
#232=EDGE_CURVE('',#190,#188,#94,.T.);
#233=EDGE_CURVE('',#190,#181,#95,.T.);
#234=EDGE_CURVE('',#180,#188,#96,.T.);
#235=EDGE_CURVE('',#189,#175,#97,.T.);
#236=EDGE_CURVE('',#171,#167,#98,.T.);
#237=EDGE_CURVE('',#191,#170,#99,.T.);
#238=EDGE_CURVE('',#169,#192,#100,.T.);
#239=EDGE_CURVE('',#192,#191,#101,.T.);
#240=EDGE_CURVE('',#177,#191,#102,.T.);
#241=EDGE_CURVE('',#192,#178,#103,.T.);
#242=EDGE_CURVE('',#185,#168,#104,.T.);
#243=EDGE_CURVE('',#174,#182,#105,.T.);
#244=EDGE_CURVE('',#186,#176,#106,.T.);
#245=ORIENTED_EDGE('',*,*,#193,.T.);
#246=ORIENTED_EDGE('',*,*,#194,.T.);
#247=ORIENTED_EDGE('',*,*,#195,.T.);
#248=ORIENTED_EDGE('',*,*,#196,.T.);
#249=ORIENTED_EDGE('',*,*,#197,.T.);
#250=ORIENTED_EDGE('',*,*,#196,.F.);
#251=ORIENTED_EDGE('',*,*,#198,.T.);
#252=ORIENTED_EDGE('',*,*,#199,.T.);
#253=ORIENTED_EDGE('',*,*,#200,.T.);
#254=ORIENTED_EDGE('',*,*,#201,.T.);
#255=ORIENTED_EDGE('',*,*,#202,.T.);
#256=ORIENTED_EDGE('',*,*,#194,.F.);
#257=ORIENTED_EDGE('',*,*,#201,.F.);
#258=ORIENTED_EDGE('',*,*,#203,.T.);
#259=ORIENTED_EDGE('',*,*,#204,.T.);
#260=ORIENTED_EDGE('',*,*,#205,.T.);
#261=ORIENTED_EDGE('',*,*,#206,.T.);
#262=ORIENTED_EDGE('',*,*,#207,.T.);
#263=ORIENTED_EDGE('',*,*,#208,.T.);
#264=ORIENTED_EDGE('',*,*,#209,.T.);
#265=ORIENTED_EDGE('',*,*,#210,.T.);
#266=ORIENTED_EDGE('',*,*,#211,.T.);
#267=ORIENTED_EDGE('',*,*,#212,.T.);
#268=ORIENTED_EDGE('',*,*,#213,.T.);
#269=ORIENTED_EDGE('',*,*,#214,.T.);
#270=ORIENTED_EDGE('',*,*,#209,.F.);
#271=ORIENTED_EDGE('',*,*,#215,.T.);
#272=ORIENTED_EDGE('',*,*,#216,.T.);
#273=ORIENTED_EDGE('',*,*,#217,.T.);
#274=ORIENTED_EDGE('',*,*,#218,.T.);
#275=ORIENTED_EDGE('',*,*,#219,.T.);
#276=ORIENTED_EDGE('',*,*,#220,.T.);
#277=ORIENTED_EDGE('',*,*,#199,.F.);
#278=ORIENTED_EDGE('',*,*,#218,.F.);
#279=ORIENTED_EDGE('',*,*,#221,.T.);
#280=ORIENTED_EDGE('',*,*,#222,.T.);
#281=ORIENTED_EDGE('',*,*,#223,.T.);
#282=ORIENTED_EDGE('',*,*,#224,.T.);
#283=ORIENTED_EDGE('',*,*,#225,.T.);
#284=ORIENTED_EDGE('',*,*,#226,.T.);
#285=ORIENTED_EDGE('',*,*,#227,.T.);
#286=ORIENTED_EDGE('',*,*,#228,.T.);
#287=ORIENTED_EDGE('',*,*,#223,.F.);
#288=ORIENTED_EDGE('',*,*,#229,.T.);
#289=ORIENTED_EDGE('',*,*,#227,.F.);
#290=ORIENTED_EDGE('',*,*,#230,.T.);
#291=ORIENTED_EDGE('',*,*,#231,.T.);
#292=ORIENTED_EDGE('',*,*,#232,.T.);
#293=ORIENTED_EDGE('',*,*,#233,.T.);
#294=ORIENTED_EDGE('',*,*,#219,.F.);
#295=ORIENTED_EDGE('',*,*,#234,.T.);
#296=ORIENTED_EDGE('',*,*,#232,.F.);
#297=ORIENTED_EDGE('',*,*,#231,.F.);
#298=ORIENTED_EDGE('',*,*,#235,.T.);
#299=ORIENTED_EDGE('',*,*,#212,.F.);
#300=ORIENTED_EDGE('',*,*,#208,.F.);
#301=ORIENTED_EDGE('',*,*,#236,.T.);
#302=ORIENTED_EDGE('',*,*,#203,.F.);
#303=ORIENTED_EDGE('',*,*,#200,.F.);
#304=ORIENTED_EDGE('',*,*,#193,.F.);
#305=ORIENTED_EDGE('',*,*,#197,.F.);
#306=ORIENTED_EDGE('',*,*,#220,.F.);
#307=ORIENTED_EDGE('',*,*,#233,.F.);
#308=ORIENTED_EDGE('',*,*,#237,.T.);
#309=ORIENTED_EDGE('',*,*,#206,.F.);
#310=ORIENTED_EDGE('',*,*,#238,.T.);
#311=ORIENTED_EDGE('',*,*,#239,.T.);
#312=ORIENTED_EDGE('',*,*,#240,.T.);
#313=ORIENTED_EDGE('',*,*,#239,.F.);
#314=ORIENTED_EDGE('',*,*,#241,.T.);
#315=ORIENTED_EDGE('',*,*,#216,.F.);
#316=ORIENTED_EDGE('',*,*,#242,.T.);
#317=ORIENTED_EDGE('',*,*,#204,.F.);
#318=ORIENTED_EDGE('',*,*,#236,.F.);
#319=ORIENTED_EDGE('',*,*,#211,.F.);
#320=ORIENTED_EDGE('',*,*,#243,.T.);
#321=ORIENTED_EDGE('',*,*,#225,.F.);
#322=ORIENTED_EDGE('',*,*,#235,.F.);
#323=ORIENTED_EDGE('',*,*,#230,.F.);
#324=ORIENTED_EDGE('',*,*,#244,.T.);
#325=ORIENTED_EDGE('',*,*,#213,.F.);
#326=ORIENTED_EDGE('',*,*,#243,.F.);
#327=ORIENTED_EDGE('',*,*,#210,.F.);
#328=ORIENTED_EDGE('',*,*,#214,.F.);
#329=ORIENTED_EDGE('',*,*,#244,.F.);
#330=ORIENTED_EDGE('',*,*,#226,.F.);
#331=ORIENTED_EDGE('',*,*,#222,.F.);
#332=ORIENTED_EDGE('',*,*,#224,.F.);
#333=ORIENTED_EDGE('',*,*,#228,.F.);
#334=ORIENTED_EDGE('',*,*,#229,.F.);
#335=ORIENTED_EDGE('',*,*,#234,.F.);
#336=ORIENTED_EDGE('',*,*,#221,.F.);
#337=ORIENTED_EDGE('',*,*,#217,.F.);
#338=ORIENTED_EDGE('',*,*,#241,.F.);
#339=ORIENTED_EDGE('',*,*,#238,.F.);
#340=ORIENTED_EDGE('',*,*,#205,.F.);
#341=ORIENTED_EDGE('',*,*,#242,.F.);
#342=ORIENTED_EDGE('',*,*,#240,.F.);
#343=ORIENTED_EDGE('',*,*,#215,.F.);
#344=ORIENTED_EDGE('',*,*,#198,.F.);
#345=ORIENTED_EDGE('',*,*,#195,.F.);
#346=ORIENTED_EDGE('',*,*,#202,.F.);
#347=ORIENTED_EDGE('',*,*,#207,.F.);
#348=ORIENTED_EDGE('',*,*,#237,.F.);
#349=PLANE('',#403);
#350=PLANE('',#404);
#351=PLANE('',#405);
#352=PLANE('',#406);
#353=PLANE('',#407);
#354=PLANE('',#408);
#355=PLANE('',#409);
#356=PLANE('',#410);
#357=PLANE('',#411);
#358=PLANE('',#412);
#359=PLANE('',#413);
#360=PLANE('',#414);
#361=PLANE('',#415);
#362=PLANE('',#416);
#363=PLANE('',#417);
#364=PLANE('',#418);
#365=PLANE('',#419);
#366=PLANE('',#420);
#367=PLANE('',#421);
#368=PLANE('',#422);
#369=ADVANCED_FACE('',(#15),#349,.T.);
#370=ADVANCED_FACE('',(#16),#350,.T.);
#371=ADVANCED_FACE('',(#17),#351,.T.);
#372=ADVANCED_FACE('',(#18),#352,.T.);
#373=ADVANCED_FACE('',(#19),#353,.T.);
#374=ADVANCED_FACE('',(#20),#354,.T.);
#375=ADVANCED_FACE('',(#21),#355,.T.);
#376=ADVANCED_FACE('',(#22),#356,.T.);
#377=ADVANCED_FACE('',(#23),#357,.T.);
#378=ADVANCED_FACE('',(#24),#358,.T.);
#379=ADVANCED_FACE('',(#25),#359,.T.);
#380=ADVANCED_FACE('',(#26),#360,.T.);
#381=ADVANCED_FACE('',(#27),#361,.T.);
#382=ADVANCED_FACE('',(#28),#362,.T.);
#383=ADVANCED_FACE('',(#29),#363,.T.);
#384=ADVANCED_FACE('',(#30),#364,.T.);
#385=ADVANCED_FACE('',(#31),#365,.T.);
#386=ADVANCED_FACE('',(#32),#366,.T.);
#387=ADVANCED_FACE('',(#33),#367,.T.);
#388=ADVANCED_FACE('',(#34),#368,.T.);
#389=CLOSED_SHELL('',(#369,#370,#371,#372,#373,#374,#375,#376,#377,#378,
#379,#380,#381,#382,#383,#384,#385,#386,#387,#388));
#390=DERIVED_UNIT_ELEMENT(#392,1.);
#391=DERIVED_UNIT_ELEMENT(#629,-3.);
#392=(
MASS_UNIT()
NAMED_UNIT(*)
SI_UNIT(.KILO.,.GRAM.)
);
#393=DERIVED_UNIT((#390,#391));
#394=MEASURE_REPRESENTATION_ITEM('density measure',
POSITIVE_RATIO_MEASURE(7850.),#393);
#395=PROPERTY_DEFINITION_REPRESENTATION(#400,#397);
#396=PROPERTY_DEFINITION_REPRESENTATION(#401,#398);
#397=REPRESENTATION('material name',(#399),#626);
#398=REPRESENTATION('density',(#394),#626);
#399=DESCRIPTIVE_REPRESENTATION_ITEM('\X2\94A2\X0\','\X2\94A2\X0\');
#400=PROPERTY_DEFINITION('material property','material name',#636);
#401=PROPERTY_DEFINITION('material property','density of part',#636);
#402=AXIS2_PLACEMENT_3D('',#517,#423,#424);
#403=AXIS2_PLACEMENT_3D('',#518,#425,#426);
#404=AXIS2_PLACEMENT_3D('',#527,#431,#432);
#405=AXIS2_PLACEMENT_3D('',#533,#436,#437);
#406=AXIS2_PLACEMENT_3D('',#539,#441,#442);
#407=AXIS2_PLACEMENT_3D('',#549,#448,#449);
#408=AXIS2_PLACEMENT_3D('',#558,#454,#455);
#409=AXIS2_PLACEMENT_3D('',#564,#459,#460);
#410=AXIS2_PLACEMENT_3D('',#572,#465,#466);
#411=AXIS2_PLACEMENT_3D('',#578,#470,#471);
#412=AXIS2_PLACEMENT_3D('',#587,#476,#477);
#413=AXIS2_PLACEMENT_3D('',#593,#481,#482);
#414=AXIS2_PLACEMENT_3D('',#601,#487,#488);
#415=AXIS2_PLACEMENT_3D('',#604,#491,#492);
#416=AXIS2_PLACEMENT_3D('',#607,#495,#496);
#417=AXIS2_PLACEMENT_3D('',#613,#500,#501);
#418=AXIS2_PLACEMENT_3D('',#616,#504,#505);
#419=AXIS2_PLACEMENT_3D('',#619,#508,#509);
#420=AXIS2_PLACEMENT_3D('',#621,#511,#512);
#421=AXIS2_PLACEMENT_3D('',#622,#513,#514);
#422=AXIS2_PLACEMENT_3D('',#623,#515,#516);
#423=DIRECTION('axis',(0.,0.,1.));
#424=DIRECTION('refdir',(1.,0.,0.));
#425=DIRECTION('center_axis',(-0.314906174628985,0.949122806163954,0.));
#426=DIRECTION('ref_axis',(0.,0.,1.));
#427=DIRECTION('',(-0.949122806163954,-0.314906174628985,0.));
#428=DIRECTION('',(0.,0.,1.));
#429=DIRECTION('',(0.949122806163954,0.314906174628985,0.));
#430=DIRECTION('',(0.,0.,-1.));
#431=DIRECTION('center_axis',(-0.977357148956932,-0.211596321760985,0.));
#432=DIRECTION('ref_axis',(0.,0.,1.));
#433=DIRECTION('',(0.211596321760985,-0.977357148956932,0.));
#434=DIRECTION('',(-0.211596321760985,0.977357148956932,0.));
#435=DIRECTION('',(0.,0.,-1.));
#436=DIRECTION('center_axis',(-0.948175624347298,-0.3177467315231,0.));
#437=DIRECTION('ref_axis',(0.,0.,1.));
#438=DIRECTION('',(0.3177467315231,-0.948175624347298,0.));
#439=DIRECTION('',(2.29570299934299E-8,-6.85051775130498E-8,0.999999999999997));
#440=DIRECTION('',(-0.3177467315231,0.948175624347298,0.));
#441=DIRECTION('center_axis',(0.417135532377092,-0.9088442922902,-7.18367325031858E-8));
#442=DIRECTION('ref_axis',(0.908844292290203,0.417135532377093,3.30872245021285E-24));
#443=DIRECTION('',(0.908844292290203,0.417135532377093,7.71373563403172E-17));
#444=DIRECTION('',(6.67211934226398E-8,-4.84185820797598E-8,0.999999999999997));
#445=DIRECTION('',(-0.908844292290203,-0.417135532377093,-1.59810993825436E-17));
#446=DIRECTION('',(-2.99822218416199E-8,6.52807999529898E-8,-0.999999999999998));
#447=DIRECTION('',(-0.908844292290203,-0.417135532377093,-4.35512477416797E-17));
#448=DIRECTION('center_axis',(0.391504121696961,-0.920176354126909,0.));
#449=DIRECTION('ref_axis',(0.,0.,1.));
#450=DIRECTION('',(0.920176354126909,0.391504121696961,0.));
#451=DIRECTION('',(0.,0.,1.));
#452=DIRECTION('',(-0.920176354126909,-0.391504121696961,0.));
#453=DIRECTION('',(-3.904877494911E-8,-1.661394174196E-8,-0.999999999999999));
#454=DIRECTION('center_axis',(0.920171455346442,0.391515635403762,0.));
#455=DIRECTION('ref_axis',(0.,0.,1.));
#456=DIRECTION('',(-0.391515635403762,0.920171455346442,0.));
#457=DIRECTION('',(0.,0.,1.));
#458=DIRECTION('',(0.391515635403762,-0.920171455346442,0.));
#459=DIRECTION('center_axis',(-0.908738303114154,-0.417366381556071,0.));
#460=DIRECTION('ref_axis',(0.,0.,1.));
#461=DIRECTION('',(0.417366381556071,-0.908738303114154,0.));
#462=DIRECTION('',(0.,0.,1.));
#463=DIRECTION('',(-0.417366381556071,0.908738303114154,0.));
#464=DIRECTION('',(0.,0.,-1.));
#465=DIRECTION('center_axis',(-0.914692448570888,-0.404150621089951,0.));
#466=DIRECTION('ref_axis',(0.404150621089951,-0.914692448570888,0.));
#467=DIRECTION('',(0.,0.,-1.));
#468=DIRECTION('',(0.404150621089951,-0.914692448570888,0.));
#469=DIRECTION('',(-0.404150621089951,0.914692448570888,0.));
#470=DIRECTION('center_axis',(0.417366236714142,-0.908738369637309,0.));
#471=DIRECTION('ref_axis',(0.,0.,1.));
#472=DIRECTION('',(0.908738369637309,0.417366236714142,0.));
#473=DIRECTION('',(0.,0.,1.));
#474=DIRECTION('',(-0.908738369637309,-0.417366236714142,0.));
#475=DIRECTION('',(-3.857876941297E-8,-1.771849450285E-8,-0.999999999999999));
#476=DIRECTION('center_axis',(0.908738339855799,0.417366301557908,0.));
#477=DIRECTION('ref_axis',(0.,0.,1.));
#478=DIRECTION('',(-0.417366301557908,0.908738339855799,0.));
#479=DIRECTION('',(0.,0.,1.));
#480=DIRECTION('',(0.417366301557908,-0.908738339855799,0.));
#481=DIRECTION('center_axis',(0.908738408002955,0.41736615317998,0.));
#482=DIRECTION('ref_axis',(0.,0.,-1.));
#483=DIRECTION('',(0.417366153179979,-0.908738408002955,0.));
#484=DIRECTION('',(0.,0.,-1.));
#485=DIRECTION('',(-0.417366153179979,0.908738408002955,0.));
#486=DIRECTION('',(0.,0.,1.));
#487=DIRECTION('center_axis',(-0.409120843663003,0.912480210898008,0.));
#488=DIRECTION('ref_axis',(0.,0.,1.));
#489=DIRECTION('',(-0.912480210898008,-0.409120843663003,0.));
#490=DIRECTION('',(0.912480210898008,0.409120843663003,0.));
#491=DIRECTION('center_axis',(8.487411649572E-17,0.,-1.));
#492=DIRECTION('ref_axis',(-0.908738408002955,-0.41736615317998,-7.7128369504978E-17));
#493=DIRECTION('',(0.920141564831259,0.39158587904811,0.));
#494=DIRECTION('',(-0.391543233029197,0.920159712587464,-3.32318859732467E-17));
#495=DIRECTION('center_axis',(-0.908738406888224,-0.417366155607103,0.));
#496=DIRECTION('ref_axis',(0.,0.,1.));
#497=DIRECTION('',(0.417366155607103,-0.908738406888224,0.));
#498=DIRECTION('',(-0.417366155607103,0.908738406888224,0.));
#499=DIRECTION('',(0.,0.,-1.));
#500=DIRECTION('center_axis',(0.41736625728113,-0.908738360191283,0.));
#501=DIRECTION('ref_axis',(0.,0.,1.));
#502=DIRECTION('',(0.908738360191283,0.41736625728113,0.));
#503=DIRECTION('',(-0.908738360191283,-0.41736625728113,0.));
#504=DIRECTION('center_axis',(-0.920159712587463,-0.391543233029197,4.24361859970913E-8));
#505=DIRECTION('ref_axis',(-3.90480615591951E-8,-1.66156182686464E-8,-0.999999999999999));
#506=DIRECTION('',(-0.391543233029197,0.920159712587464,-6.88488817357147E-18));
#507=DIRECTION('',(-0.391543233029197,0.920159712587464,0.));
#508=DIRECTION('center_axis',(-0.39158587904811,0.920141564831259,0.));
#509=DIRECTION('ref_axis',(0.,0.,1.));
#510=DIRECTION('',(0.920141564831259,0.39158587904811,0.));
#511=DIRECTION('center_axis',(0.,0.,1.));
#512=DIRECTION('ref_axis',(0.920159749514253,0.391543146248108,0.));
#513=DIRECTION('center_axis',(-1.758397947604E-17,0.,1.));
#514=DIRECTION('ref_axis',(-0.417366236714142,0.908738369637309,-7.33895934037352E-18));
#515=DIRECTION('center_axis',(-4.791937201028E-17,0.,1.));
#516=DIRECTION('ref_axis',(0.41736625728113,-0.908738360191283,1.99999289471927E-17));
#517=CARTESIAN_POINT('',(0.,0.,0.));
#518=CARTESIAN_POINT('Origin',(-5793.500000007,-5930.500008295,-500.));
#519=CARTESIAN_POINT('',(-5578.00000000726,-5859.00000830362,-2151.2305));
#520=CARTESIAN_POINT('',(-6009.000000006,-6002.000008286,-2151.2305));
#521=CARTESIAN_POINT('',(-5578.000000009,-5859.000008304,-2151.2305));
#522=CARTESIAN_POINT('',(-6009.000000006,-6002.000008286,1151.2305));
#523=CARTESIAN_POINT('',(-6009.000000006,-6002.000008286,-2151.2305));
#524=CARTESIAN_POINT('',(-5578.00000000807,-5859.00000830389,1151.2305));
#525=CARTESIAN_POINT('',(-6009.000000006,-6002.000008286,1151.2305));
#526=CARTESIAN_POINT('',(-5578.000000009,-5859.000008304,1151.2305));
#527=CARTESIAN_POINT('Origin',(-6811.500000003,-161.5000082943,-500.));
#528=CARTESIAN_POINT('',(-8044.99999999864,5535.99999171484,-2151.2305));
#529=CARTESIAN_POINT('',(-8044.999999998,5535.999991715,-2151.2305));
#530=CARTESIAN_POINT('',(-8044.9999999991,5535.99999171478,1151.2305));
#531=CARTESIAN_POINT('',(-5578.000000009,-5859.000008304,1151.2305));
#532=CARTESIAN_POINT('',(-8044.999999998,5535.999991715,1151.2305));
#533=CARTESIAN_POINT('Origin',(-5287.500000006,-8155.000008277,-500.));
#534=CARTESIAN_POINT('',(-4565.99997704944,-10308.0000767714,-2151.2305));
#535=CARTESIAN_POINT('',(-6009.000000006,-6002.000008286,-2151.2305));
#536=CARTESIAN_POINT('',(-4565.99990123482,-10308.0003030082,1151.2305));
#537=CARTESIAN_POINT('',(-4565.999928998,-10308.00022016,-58.12834995677));
#538=CARTESIAN_POINT('',(-4566.000000006,-10308.00000827,1151.2305));
#539=CARTESIAN_POINT('Origin',(-339.9276666702,-8368.344674957,383.7435));
#540=CARTESIAN_POINT('',(1941.999933275,-7320.999959885,-2151.2305));
#541=CARTESIAN_POINT('',(508.76671044344,-7978.816165034,-2151.2305));
#542=CARTESIAN_POINT('',(1942.00022033924,-7321.00016820349,2151.2305));
#543=CARTESIAN_POINT('',(1942.000102411,-7321.000082624,383.74351018052));
#544=CARTESIAN_POINT('',(1604.21690098511,-7476.03379271194,2151.2305));
#545=CARTESIAN_POINT('',(846.74817730444,-7823.691936127,2151.2305));
#546=CARTESIAN_POINT('',(1604.21687100358,-7476.03372743071,1151.2305));
#547=CARTESIAN_POINT('',(1604.216866993,-7476.0337187,1017.486755282));
#548=CARTESIAN_POINT('',(-1031.886434344,-8685.935539001,1151.2305));
#549=CARTESIAN_POINT('Origin',(6473.5,-10308.50000829,-500.));
#550=CARTESIAN_POINT('',(3713.00003905148,-11482.9999917004,-2151.2305));
#551=CARTESIAN_POINT('',(9233.99999999618,-9134.00000826698,-2151.2305));
#552=CARTESIAN_POINT('',(3713.000000003,-11483.00000831,-2151.2305));
#553=CARTESIAN_POINT('',(9233.99999999705,-9134.00000826829,1151.2305));
#554=CARTESIAN_POINT('',(9233.999999997,-9134.000008269,-2151.2305));
#555=CARTESIAN_POINT('',(3713.00016800927,-11482.9999368357,1151.2305));
#556=CARTESIAN_POINT('',(9233.999999997,-9134.000008269,1151.2305));
#557=CARTESIAN_POINT('',(3713.000120785,-11482.99995693,-58.12818634892));
#558=CARTESIAN_POINT('Origin',(7985.000000001,-6198.500008276,-500.));
#559=CARTESIAN_POINT('',(6736.000000004,-3263.000008284,-2151.2305));
#560=CARTESIAN_POINT('',(9233.999999997,-9134.000008269,-2151.2305));
#561=CARTESIAN_POINT('',(6736.000000004,-3263.000008284,1151.2305));
#562=CARTESIAN_POINT('',(6736.000000004,-3263.000008284,-2151.2305));
#563=CARTESIAN_POINT('',(6736.000000004,-3263.000008284,1151.2305));
#564=CARTESIAN_POINT('Origin',(-7580.365000002,4524.34299172,1651.2305));
#565=CARTESIAN_POINT('',(-7115.730000005,3512.685991724,1151.2305));
#566=CARTESIAN_POINT('',(-8044.999999998,5535.999991715,1151.2305));
#567=CARTESIAN_POINT('',(-7115.730000005,3512.685991724,2151.2305));
#568=CARTESIAN_POINT('',(-7115.730000005,3512.685991724,1151.2305));
#569=CARTESIAN_POINT('',(-8044.999999998,5535.999991715,2151.2305));
#570=CARTESIAN_POINT('',(-7115.730000005,3512.685991724,2151.2305));
#571=CARTESIAN_POINT('',(-8044.999999998,5535.999991715,2151.2305));
#572=CARTESIAN_POINT('Origin',(-8520.599999998,6612.399991712,230.2461));
#573=CARTESIAN_POINT('',(-9233.99999999726,8226.99999170737,2151.2305));
#574=CARTESIAN_POINT('',(-9233.99999999732,8226.99999170764,-2151.2305));
#575=CARTESIAN_POINT('',(-9233.999999997,8226.999991707,2151.2305));
#576=CARTESIAN_POINT('',(-9233.999999997,8226.999991707,-2151.2305));
#577=CARTESIAN_POINT('',(-8044.999999998,5535.999991715,2151.2305));
#578=CARTESIAN_POINT('Origin',(4155.201000001,-7020.875508298,1651.2305));
#579=CARTESIAN_POINT('',(2196.98883402057,-7920.24508452621,1151.2305));
#580=CARTESIAN_POINT('',(6113.412999999,-6121.506008303,1151.2305));
#581=CARTESIAN_POINT('',(2196.989000004,-7920.245008294,1151.2305));
#582=CARTESIAN_POINT('',(6113.41299999856,-6121.5060083032,2151.2305));
#583=CARTESIAN_POINT('',(6113.412999999,-6121.506008303,1151.2305));
#584=CARTESIAN_POINT('',(2196.988872599,-7920.245066808,2151.2305));
#585=CARTESIAN_POINT('',(6113.412999999,-6121.506008303,2151.2305));
#586=CARTESIAN_POINT('',(2196.98882886,-7920.245086896,1017.487045097));
#587=CARTESIAN_POINT('Origin',(5615.206499999,-5036.7530083,1651.2305));
#588=CARTESIAN_POINT('',(5116.99999999824,-3952.00000829694,1151.2305));
#589=CARTESIAN_POINT('',(6113.412999999,-6121.506008303,1151.2305));
#590=CARTESIAN_POINT('',(5116.99999999571,-3952.00000829806,2151.2305));
#591=CARTESIAN_POINT('',(5116.999999998,-3952.000008297,1151.2305));
#592=CARTESIAN_POINT('',(5116.999999998,-3952.000008297,2151.2305));
#593=CARTESIAN_POINT('Origin',(2281.399999995,2221.999991702,230.2461));
#594=CARTESIAN_POINT('',(-1972.00000000843,11482.9999916994,2151.2305));
#595=CARTESIAN_POINT('',(-1972.000000009,11482.9999917,2151.2305));
#596=CARTESIAN_POINT('',(5116.99999999752,-3952.00000829735,-2151.2305));
#597=CARTESIAN_POINT('',(5116.999999998,-3952.000008297,1151.2305));
#598=CARTESIAN_POINT('',(-1972.00000000592,11482.9999917013,-2151.2305));
#599=CARTESIAN_POINT('',(5116.999999998,-3952.000008297,-2151.2305));
#600=CARTESIAN_POINT('',(-1972.000000009,11482.9999917,-2151.2305));
#601=CARTESIAN_POINT('Origin',(-5603.000000003,9854.999991704,-4.547473508865E-13));
#602=CARTESIAN_POINT('',(-1972.000000009,11482.9999917,-2151.2305));
#603=CARTESIAN_POINT('',(-9233.999999997,8226.999991707,2151.2305));
#604=CARTESIAN_POINT('Origin',(-787.4545454569,-2916.000008291,-2151.2305));
#605=CARTESIAN_POINT('',(5116.999999998,-3952.000008297,-2151.2305));
#606=CARTESIAN_POINT('',(1276.921958956,-5758.010470927,-2151.2305));
#607=CARTESIAN_POINT('Origin',(-1239.149000001,-1285.125008302,1651.2305));
#608=CARTESIAN_POINT('',(-4082.51500000243,4905.78399169505,1151.2305));
#609=CARTESIAN_POINT('',(-4082.515000002,4905.783991695,1151.2305));
#610=CARTESIAN_POINT('',(-4082.51500000282,4905.78399169471,2151.2305));
#611=CARTESIAN_POINT('',(1604.217,-7476.034008299,2151.2305));
#612=CARTESIAN_POINT('',(-4082.515000002,4905.783991695,2151.2305));
#613=CARTESIAN_POINT('Origin',(-5599.122500003,4209.23499171,1651.2305));
#614=CARTESIAN_POINT('',(-7115.730000005,3512.685991724,1151.2305));
#615=CARTESIAN_POINT('',(-4082.515000002,4905.783991695,2151.2305));
#616=CARTESIAN_POINT('Origin',(2617.329666667,-8908.08167497,383.7435));
#617=CARTESIAN_POINT('',(692.95786668294,-4385.644998716,2151.2305));
#618=CARTESIAN_POINT('',(2492.191142138,-8613.995475489,1151.2305));
#619=CARTESIAN_POINT('Origin',(5926.500000001,-3607.500008291,-500.));
#620=CARTESIAN_POINT('',(5116.999999998,-3952.000008297,1151.2305));
#621=CARTESIAN_POINT('Origin',(5518.400333334,-6978.958508293,1151.2305));
#622=CARTESIAN_POINT('Origin',(-1347.562600001,87.368491704594,2151.2305));
#623=CARTESIAN_POINT('Origin',(-4827.432571432,-2241.509151146,1151.2305));
#624=UNCERTAINTY_MEASURE_WITH_UNIT(LENGTH_MEASURE(0.01),#628,
'DISTANCE_ACCURACY_VALUE',
'Maximum model space distance between geometric entities at asserted c
onnectivities');
#625=UNCERTAINTY_MEASURE_WITH_UNIT(LENGTH_MEASURE(0.01),#628,
'DISTANCE_ACCURACY_VALUE',
'Maximum model space distance between geometric entities at asserted c
onnectivities');
#626=(
GEOMETRIC_REPRESENTATION_CONTEXT(3)
GLOBAL_UNCERTAINTY_ASSIGNED_CONTEXT((#624))
GLOBAL_UNIT_ASSIGNED_CONTEXT((#628,#630,#631))
REPRESENTATION_CONTEXT('','3D')
);
#627=(
GEOMETRIC_REPRESENTATION_CONTEXT(3)
GLOBAL_UNCERTAINTY_ASSIGNED_CONTEXT((#625))
GLOBAL_UNIT_ASSIGNED_CONTEXT((#628,#630,#631))
REPRESENTATION_CONTEXT('','3D')
);
#628=(
LENGTH_UNIT()
NAMED_UNIT(*)
SI_UNIT(.MILLI.,.METRE.)
);
#629=(
LENGTH_UNIT()
NAMED_UNIT(*)
SI_UNIT($,.METRE.)
);
#630=(
NAMED_UNIT(*)
PLANE_ANGLE_UNIT()
SI_UNIT($,.RADIAN.)
);
#631=(
NAMED_UNIT(*)
SI_UNIT($,.STERADIAN.)
SOLID_ANGLE_UNIT()
);
#632=SHAPE_DEFINITION_REPRESENTATION(#633,#634);
#633=PRODUCT_DEFINITION_SHAPE('',$,#636);
#634=SHAPE_REPRESENTATION('',(#402),#626);
#635=PRODUCT_DEFINITION_CONTEXT('part definition',#640,'design');
#636=PRODUCT_DEFINITION('Open CASCADE STEP translator 7.7 22',
'(\X2\672A4FDD5B58\X0\)',#637,#635);
#637=PRODUCT_DEFINITION_FORMATION('',$,#642);
#638=PRODUCT_RELATED_PRODUCT_CATEGORY('(\X2\672A4FDD5B58\X0\)',
'(\X2\672A4FDD5B58\X0\)',(#642));
#639=APPLICATION_PROTOCOL_DEFINITION('international standard',
'automotive_design',2009,#640);
#640=APPLICATION_CONTEXT(
'Core Data for Automotive Mechanical Design Process');
#641=PRODUCT_CONTEXT('part definition',#640,'mechanical');
#642=PRODUCT('Open CASCADE STEP translator 7.7 22','(\X2\672A4FDD5B58\X0\)',
'Open CASCADE Model',(#641));
#643=PRESENTATION_STYLE_ASSIGNMENT((#644));
#644=SURFACE_STYLE_USAGE(.BOTH.,#645);
#645=SURFACE_SIDE_STYLE('',(#646));
#646=SURFACE_STYLE_FILL_AREA(#647);
#647=FILL_AREA_STYLE('\X2\94A2\X0\ - \X2\7F0E5149\X0\',(#648));
#648=FILL_AREA_STYLE_COLOUR('\X2\94A2\X0\ - \X2\7F0E5149\X0\',#649);
#649=COLOUR_RGB('\X2\94A2\X0\ - \X2\7F0E5149\X0\',0.627450980392157,0.627450980392157,
0.627450980392157);
ENDSEC;
END-ISO-10303-21;
