# OBJ file generated from STEP using CadQuery
# Vertices: 72
# Faces: 44

v 0.802153 -0.000000 0.924873
v 0.694685 0.401076 0.924873
v 0.694685 0.401076 -0.924873
v 0.802153 -0.000000 -0.924873
v 0.694685 0.401076 0.924873
v 0.401076 0.694685 0.924873
v 0.401076 0.694685 -0.924873
v 0.694685 0.401076 -0.924873
v 0.401076 0.694685 0.924873
v 0.000000 0.802153 0.924873
v 0.000000 0.802153 -0.924873
v 0.401076 0.694685 -0.924873
v 0.000000 0.802153 0.924873
v -0.401076 0.694685 0.924873
v -0.401076 0.694685 -0.924873
v 0.000000 0.802153 -0.924873
v -0.401076 0.694685 0.924873
v -0.694685 0.401076 0.924873
v -0.694685 0.401076 -0.924873
v -0.401076 0.694685 -0.924873
v -0.694685 0.401076 0.924873
v -0.802153 -0.000000 0.924873
v -0.802153 -0.000000 -0.924873
v -0.694685 0.401076 -0.924873
v -0.802153 -0.000000 0.924873
v -0.694685 -0.401076 0.924873
v -0.694685 -0.401076 -0.924873
v -0.802153 -0.000000 -0.924873
v -0.694685 -0.401076 0.924873
v -0.401076 -0.694685 0.924873
v -0.401076 -0.694685 -0.924873
v -0.694685 -0.401076 -0.924873
v -0.401076 -0.694685 0.924873
v 0.000000 -0.802153 0.924873
v 0.000000 -0.802153 -0.924873
v -0.401076 -0.694685 -0.924873
v 0.000000 -0.802153 0.924873
v 0.401076 -0.694685 0.924873
v 0.401076 -0.694685 -0.924873
v 0.000000 -0.802153 -0.924873
v 0.401076 -0.694685 0.924873
v 0.694685 -0.401076 0.924873
v 0.694685 -0.401076 -0.924873
v 0.401076 -0.694685 -0.924873
v 0.694685 -0.401076 0.924873
v 0.802153 -0.000000 0.924873
v 0.802153 -0.000000 -0.924873
v 0.694685 -0.401076 -0.924873
v 0.694685 0.401076 -0.924873
v 0.401076 0.694685 -0.924873
v 0.000000 0.802153 -0.924873
v -0.401076 0.694685 -0.924873
v -0.694685 0.401076 -0.924873
v -0.802153 -0.000000 -0.924873
v -0.694685 -0.401076 -0.924873
v -0.401076 -0.694685 -0.924873
v 0.000000 -0.802153 -0.924873
v 0.401076 -0.694685 -0.924873
v 0.694685 -0.401076 -0.924873
v 0.802153 -0.000000 -0.924873
v 0.802153 -0.000000 0.924873
v 0.694685 0.401076 0.924873
v 0.401076 0.694685 0.924873
v 0.000000 0.802153 0.924873
v -0.401076 0.694685 0.924873
v -0.694685 0.401076 0.924873
v -0.802153 -0.000000 0.924873
v -0.694685 -0.401076 0.924873
v -0.401076 -0.694685 0.924873
v 0.000000 -0.802153 0.924873
v 0.401076 -0.694685 0.924873
v 0.694685 -0.401076 0.924873

f 3 2 1
f 3 1 4
f 8 6 5
f 7 6 8
f 11 10 9
f 11 9 12
f 15 14 13
f 15 13 16
f 19 18 17
f 19 17 20
f 23 22 21
f 23 21 24
f 27 26 25
f 27 25 28
f 32 30 29
f 31 30 32
f 35 34 33
f 35 33 36
f 39 38 37
f 39 37 40
f 43 42 41
f 43 41 44
f 47 46 45
f 47 45 48
f 54 56 55
f 58 57 56
f 51 53 52
f 51 54 53
f 49 59 58
f 49 60 59
f 49 56 54
f 49 58 56
f 49 54 51
f 50 49 51
f 67 68 69
f 71 69 70
f 64 65 66
f 64 66 67
f 62 71 72
f 62 72 61
f 62 67 69
f 62 69 71
f 62 64 67
f 63 64 62
