# OBJ file generated from STEP using CadQuery
# Vertices: 98
# Faces: 60

v 557.104800 -364.184450 -326.227950
v 1140.929900 -450.161250 -326.227950
v 1140.929900 -450.161250 -79.920750
v 557.104800 -364.184450 -79.920750
v 557.104800 -364.184450 326.227950
v -172.580400 -256.727450 326.227950
v -172.580400 -256.727450 -326.227950
v 557.104800 -364.184450 -326.227950
v 557.104800 -364.184450 -79.920750
v 1140.929900 -450.161250 -79.920750
v 557.104800 -364.184450 -79.920750
v 1073.730200 -906.480150 -79.920750
v 489.905100 -820.503350 -79.920750
v 1242.039000 236.418950 -326.227950
v 701.479200 309.316250 -326.227950
v 701.479200 309.316250 326.227950
v 1242.039000 236.418950 326.227950
v 701.479200 309.316250 -326.227950
v 755.979200 720.616250 -326.227950
v 755.979200 720.616250 326.227950
v 701.479200 309.316250 326.227950
v -667.020800 850.616250 -326.227950
v -688.020800 685.616250 -326.227950
v -688.020800 685.616250 326.227950
v -667.020800 850.616250 326.227950
v -659.910800 906.480150 -326.227950
v -667.020800 850.616250 -326.227950
v -667.020800 850.616250 326.227950
v -659.910800 906.480150 326.227950
v -688.020800 685.616250 -326.227950
v -1060.020800 732.616250 -326.227950
v -1060.020800 732.616250 326.227950
v -688.020800 685.616250 326.227950
v -1060.020800 732.616250 -326.227950
v -1242.039000 -593.116850 -326.227950
v -1242.039000 -593.116850 326.227950
v -1060.020800 732.616250 326.227950
v 1140.929900 -450.161250 326.227950
v 1073.730200 -906.480150 326.227950
v 1073.730200 -906.480150 -79.920750
v 1140.929900 -450.161250 -79.920750
v 1242.039000 236.418950 326.227950
v 1140.929900 -450.161250 326.227950
v 1140.929900 -450.161250 -79.920750
v 1140.929900 -450.161250 -326.227950
v 1242.039000 236.418950 -326.227950
v 1073.730200 -906.480150 326.227950
v 489.905100 -820.503350 326.227950
v 489.905100 -820.503350 -79.920750
v 1073.730200 -906.480150 -79.920750
v 489.905100 -820.503350 326.227950
v 557.104800 -364.184450 326.227950
v 557.104800 -364.184450 -79.920750
v 489.905100 -820.503350 -79.920750
v -243.768200 -740.127050 -326.227950
v -172.580400 -256.727450 -326.227950
v -172.580400 -256.727450 326.227950
v -243.768200 -740.127050 326.227950
v -181.020800 843.616250 -326.227950
v -659.910800 906.480150 -326.227950
v -659.910800 906.480150 326.227950
v -181.020800 843.616250 326.227950
v 755.979200 720.616250 -326.227950
v -181.020800 843.616250 -326.227950
v -181.020800 843.616250 326.227950
v 755.979200 720.616250 326.227950
v -1242.039000 -593.116850 -326.227950
v -243.768200 -740.127050 -326.227950
v -243.768200 -740.127050 326.227950
v -1242.039000 -593.116850 326.227950
v 701.479200 309.316250 -326.227950
v 755.979200 720.616250 -326.227950
v 1242.039000 236.418950 -326.227950
v 1140.929900 -450.161250 -326.227950
v 557.104800 -364.184450 -326.227950
v -172.580400 -256.727450 -326.227950
v -243.768200 -740.127050 -326.227950
v -1242.039000 -593.116850 -326.227950
v -1060.020800 732.616250 -326.227950
v -688.020800 685.616250 -326.227950
v -667.020800 850.616250 -326.227950
v -659.910800 906.480150 -326.227950
v -181.020800 843.616250 -326.227950
v 701.479200 309.316250 326.227950
v 1242.039000 236.418950 326.227950
v 755.979200 720.616250 326.227950
v -181.020800 843.616250 326.227950
v -659.910800 906.480150 326.227950
v -667.020800 850.616250 326.227950
v -688.020800 685.616250 326.227950
v -1060.020800 732.616250 326.227950
v -1242.039000 -593.116850 326.227950
v -243.768200 -740.127050 326.227950
v -172.580400 -256.727450 326.227950
v 557.104800 -364.184450 326.227950
v 489.905100 -820.503350 326.227950
v 1073.730200 -906.480150 326.227950
v 1140.929900 -450.161250 326.227950

f 1 2 3
f 4 1 3
f 9 5 6
f 9 6 7
f 8 9 7
f 11 10 12
f 13 11 12
f 16 14 15
f 17 14 16
f 21 18 19
f 21 19 20
f 24 22 23
f 25 22 24
f 29 26 27
f 29 27 28
f 33 30 31
f 33 31 32
f 37 34 35
f 37 35 36
f 38 39 40
f 41 38 40
f 42 43 44
f 46 44 45
f 46 42 44
f 50 47 48
f 50 48 49
f 51 52 53
f 54 51 53
f 58 55 56
f 58 56 57
f 62 59 60
f 62 60 61
f 63 64 65
f 66 63 65
f 70 67 68
f 70 68 69
f 71 73 74
f 71 74 75
f 76 71 75
f 78 76 77
f 83 72 71
f 83 71 76
f 80 76 78
f 80 83 76
f 81 83 80
f 82 83 81
f 79 80 78
f 87 88 89
f 87 89 90
f 92 90 91
f 94 87 90
f 94 90 92
f 84 86 87
f 84 87 94
f 93 94 92
f 95 84 94
f 98 85 84
f 98 84 95
f 97 95 96
f 97 98 95
