ISO-10303-21;
HEADER;
/* Generated by software containing ST-Developer
 * from STEP Tools, Inc. (www.steptools.com) 
 */

FILE_DESCRIPTION(
/* description */ ('Open CASCADE Model'),
/* implementation_level */ '2;1');

FILE_NAME(
/* name */ '20.step',
/* time_stamp */ '2025-12-23T14:07:08+08:00',
/* author */ (''),
/* organization */ (''),
/* preprocessor_version */ 'ST-DEVELOPER v20.1',
/* originating_system */ 'Autodesk Translation Framework v14.21.0.0',
/* authorisation */ '');

FILE_SCHEMA (('AUTOMOTIVE_DESIGN { 1 0 10303 214 3 1 1 }'));
ENDSEC;

DATA;
#10=MECHANICAL_DESIGN_GEOMETRIC_PRESENTATION_REPRESENTATION('',(#13),#594);
#11=SHAPE_REPRESENTATION_RELATIONSHIP('SRR','None',#601,#12);
#12=ADVANCED_BREP_SHAPE_REPRESENTATION('',(#14),#593);
#13=STYLED_ITEM('',(#610),#14);
#14=MANIFOLD_SOLID_BREP('\X2\5B9E4F53\X0\1',#368);
#15=FACE_OUTER_BOUND('',#34,.T.);
#16=FACE_OUTER_BOUND('',#35,.T.);
#17=FACE_OUTER_BOUND('',#36,.T.);
#18=FACE_OUTER_BOUND('',#37,.T.);
#19=FACE_OUTER_BOUND('',#38,.T.);
#20=FACE_OUTER_BOUND('',#39,.T.);
#21=FACE_OUTER_BOUND('',#40,.T.);
#22=FACE_OUTER_BOUND('',#41,.T.);
#23=FACE_OUTER_BOUND('',#42,.T.);
#24=FACE_OUTER_BOUND('',#43,.T.);
#25=FACE_OUTER_BOUND('',#44,.T.);
#26=FACE_OUTER_BOUND('',#45,.T.);
#27=FACE_OUTER_BOUND('',#46,.T.);
#28=FACE_OUTER_BOUND('',#47,.T.);
#29=FACE_OUTER_BOUND('',#48,.T.);
#30=FACE_OUTER_BOUND('',#49,.T.);
#31=FACE_OUTER_BOUND('',#50,.T.);
#32=FACE_OUTER_BOUND('',#51,.T.);
#33=FACE_OUTER_BOUND('',#52,.T.);
#34=EDGE_LOOP('',(#232,#233,#234,#235));
#35=EDGE_LOOP('',(#236,#237,#238,#239,#240));
#36=EDGE_LOOP('',(#241,#242,#243,#244));
#37=EDGE_LOOP('',(#245,#246,#247,#248));
#38=EDGE_LOOP('',(#249,#250,#251,#252));
#39=EDGE_LOOP('',(#253,#254,#255,#256));
#40=EDGE_LOOP('',(#257,#258,#259,#260));
#41=EDGE_LOOP('',(#261,#262,#263,#264));
#42=EDGE_LOOP('',(#265,#266,#267,#268));
#43=EDGE_LOOP('',(#269,#270,#271,#272));
#44=EDGE_LOOP('',(#273,#274,#275,#276,#277));
#45=EDGE_LOOP('',(#278,#279,#280,#281));
#46=EDGE_LOOP('',(#282,#283,#284,#285));
#47=EDGE_LOOP('',(#286,#287,#288,#289));
#48=EDGE_LOOP('',(#290,#291,#292,#293));
#49=EDGE_LOOP('',(#294,#295,#296,#297));
#50=EDGE_LOOP('',(#298,#299,#300,#301));
#51=EDGE_LOOP('',(#302,#303,#304,#305,#306,#307,#308,#309,#310,#311,#312,
#313,#314));
#52=EDGE_LOOP('',(#315,#316,#317,#318,#319,#320,#321,#322,#323,#324,#325,
#326,#327,#328,#329));
#53=LINE('',#494,#102);
#54=LINE('',#496,#103);
#55=LINE('',#498,#104);
#56=LINE('',#499,#105);
#57=LINE('',#503,#106);
#58=LINE('',#505,#107);
#59=LINE('',#506,#108);
#60=LINE('',#507,#109);
#61=LINE('',#510,#110);
#62=LINE('',#512,#111);
#63=LINE('',#513,#112);
#64=LINE('',#517,#113);
#65=LINE('',#519,#114);
#66=LINE('',#521,#115);
#67=LINE('',#522,#116);
#68=LINE('',#525,#117);
#69=LINE('',#527,#118);
#70=LINE('',#528,#119);
#71=LINE('',#532,#120);
#72=LINE('',#534,#121);
#73=LINE('',#536,#122);
#74=LINE('',#537,#123);
#75=LINE('',#540,#124);
#76=LINE('',#542,#125);
#77=LINE('',#543,#126);
#78=LINE('',#546,#127);
#79=LINE('',#548,#128);
#80=LINE('',#549,#129);
#81=LINE('',#552,#130);
#82=LINE('',#554,#131);
#83=LINE('',#555,#132);
#84=LINE('',#559,#133);
#85=LINE('',#560,#134);
#86=LINE('',#561,#135);
#87=LINE('',#563,#136);
#88=LINE('',#564,#137);
#89=LINE('',#567,#138);
#90=LINE('',#568,#139);
#91=LINE('',#570,#140);
#92=LINE('',#573,#141);
#93=LINE('',#575,#142);
#94=LINE('',#576,#143);
#95=LINE('',#579,#144);
#96=LINE('',#581,#145);
#97=LINE('',#582,#146);
#98=LINE('',#584,#147);
#99=LINE('',#585,#148);
#100=LINE('',#587,#149);
#101=LINE('',#588,#150);
#102=VECTOR('',#405,1.00000000000039);
#103=VECTOR('',#406,1.);
#104=VECTOR('',#407,1.00000000000039);
#105=VECTOR('',#408,1.);
#106=VECTOR('',#411,1.00000000000025);
#107=VECTOR('',#412,1.);
#108=VECTOR('',#413,1.00000000000025);
#109=VECTOR('',#414,1.);
#110=VECTOR('',#417,1.00000000000024);
#111=VECTOR('',#418,0.999999999999919);
#112=VECTOR('',#419,0.999999999999944);
#113=VECTOR('',#422,0.999999999999574);
#114=VECTOR('',#423,1.);
#115=VECTOR('',#424,0.999999999999574);
#116=VECTOR('',#425,1.);
#117=VECTOR('',#428,0.999999999999776);
#118=VECTOR('',#429,1.);
#119=VECTOR('',#430,0.999999999999776);
#120=VECTOR('',#433,1.00000000000015);
#121=VECTOR('',#434,1.);
#122=VECTOR('',#435,1.00000000000015);
#123=VECTOR('',#436,1.);
#124=VECTOR('',#439,0.999999999999645);
#125=VECTOR('',#440,0.999999999999645);
#126=VECTOR('',#441,1.);
#127=VECTOR('',#444,1.00000000000009);
#128=VECTOR('',#445,1.);
#129=VECTOR('',#446,1.00000000000009);
#130=VECTOR('',#449,1.00000000000034);
#131=VECTOR('',#450,1.);
#132=VECTOR('',#451,1.00000000000034);
#133=VECTOR('',#454,1.00000000000024);
#134=VECTOR('',#455,1.);
#135=VECTOR('',#456,1.);
#136=VECTOR('',#459,1.00000000000052);
#137=VECTOR('',#460,1.00000000000052);
#138=VECTOR('',#463,0.999999999999919);
#139=VECTOR('',#464,1.);
#140=VECTOR('',#467,0.999999999999944);
#141=VECTOR('',#470,1.00000000000045);
#142=VECTOR('',#471,1.00000000000045);
#143=VECTOR('',#472,1.);
#144=VECTOR('',#475,1.00000000000033);
#145=VECTOR('',#476,1.00000000000033);
#146=VECTOR('',#477,1.);
#147=VECTOR('',#480,0.999999999999876);
#148=VECTOR('',#481,0.999999999999876);
#149=VECTOR('',#484,0.999999999999806);
#150=VECTOR('',#485,0.999999999999806);
#151=VERTEX_POINT('',#492);
#152=VERTEX_POINT('',#493);
#153=VERTEX_POINT('',#495);
#154=VERTEX_POINT('',#497);
#155=VERTEX_POINT('',#501);
#156=VERTEX_POINT('',#502);
#157=VERTEX_POINT('',#504);
#158=VERTEX_POINT('',#509);
#159=VERTEX_POINT('',#511);
#160=VERTEX_POINT('',#515);
#161=VERTEX_POINT('',#516);
#162=VERTEX_POINT('',#518);
#163=VERTEX_POINT('',#520);
#164=VERTEX_POINT('',#524);
#165=VERTEX_POINT('',#526);
#166=VERTEX_POINT('',#530);
#167=VERTEX_POINT('',#531);
#168=VERTEX_POINT('',#533);
#169=VERTEX_POINT('',#535);
#170=VERTEX_POINT('',#539);
#171=VERTEX_POINT('',#541);
#172=VERTEX_POINT('',#545);
#173=VERTEX_POINT('',#547);
#174=VERTEX_POINT('',#551);
#175=VERTEX_POINT('',#553);
#176=VERTEX_POINT('',#557);
#177=VERTEX_POINT('',#558);
#178=VERTEX_POINT('',#566);
#179=VERTEX_POINT('',#572);
#180=VERTEX_POINT('',#574);
#181=VERTEX_POINT('',#578);
#182=VERTEX_POINT('',#580);
#183=EDGE_CURVE('',#151,#152,#53,.T.);
#184=EDGE_CURVE('',#152,#153,#54,.T.);
#185=EDGE_CURVE('',#153,#154,#55,.T.);
#186=EDGE_CURVE('',#154,#151,#56,.T.);
#187=EDGE_CURVE('',#155,#156,#57,.T.);
#188=EDGE_CURVE('',#156,#157,#58,.T.);
#189=EDGE_CURVE('',#157,#151,#59,.T.);
#190=EDGE_CURVE('',#154,#155,#60,.T.);
#191=EDGE_CURVE('',#153,#158,#61,.T.);
#192=EDGE_CURVE('',#158,#159,#62,.T.);
#193=EDGE_CURVE('',#159,#154,#63,.T.);
#194=EDGE_CURVE('',#160,#161,#64,.T.);
#195=EDGE_CURVE('',#161,#162,#65,.T.);
#196=EDGE_CURVE('',#162,#163,#66,.T.);
#197=EDGE_CURVE('',#163,#160,#67,.T.);
#198=EDGE_CURVE('',#161,#164,#68,.T.);
#199=EDGE_CURVE('',#164,#165,#69,.T.);
#200=EDGE_CURVE('',#165,#162,#70,.T.);
#201=EDGE_CURVE('',#166,#167,#71,.T.);
#202=EDGE_CURVE('',#167,#168,#72,.T.);
#203=EDGE_CURVE('',#168,#169,#73,.T.);
#204=EDGE_CURVE('',#169,#166,#74,.T.);
#205=EDGE_CURVE('',#170,#166,#75,.T.);
#206=EDGE_CURVE('',#169,#171,#76,.T.);
#207=EDGE_CURVE('',#171,#170,#77,.T.);
#208=EDGE_CURVE('',#167,#172,#78,.T.);
#209=EDGE_CURVE('',#172,#173,#79,.T.);
#210=EDGE_CURVE('',#173,#168,#80,.T.);
#211=EDGE_CURVE('',#172,#174,#81,.T.);
#212=EDGE_CURVE('',#174,#175,#82,.T.);
#213=EDGE_CURVE('',#175,#173,#83,.T.);
#214=EDGE_CURVE('',#176,#177,#84,.T.);
#215=EDGE_CURVE('',#177,#158,#85,.T.);
#216=EDGE_CURVE('',#153,#176,#86,.T.);
#217=EDGE_CURVE('',#163,#176,#87,.T.);
#218=EDGE_CURVE('',#152,#160,#88,.T.);
#219=EDGE_CURVE('',#177,#178,#89,.T.);
#220=EDGE_CURVE('',#178,#159,#90,.T.);
#221=EDGE_CURVE('',#178,#155,#91,.T.);
#222=EDGE_CURVE('',#179,#157,#92,.T.);
#223=EDGE_CURVE('',#156,#180,#93,.T.);
#224=EDGE_CURVE('',#180,#179,#94,.T.);
#225=EDGE_CURVE('',#181,#170,#95,.T.);
#226=EDGE_CURVE('',#171,#182,#96,.T.);
#227=EDGE_CURVE('',#182,#181,#97,.T.);
#228=EDGE_CURVE('',#164,#181,#98,.T.);
#229=EDGE_CURVE('',#182,#165,#99,.T.);
#230=EDGE_CURVE('',#174,#179,#100,.T.);
#231=EDGE_CURVE('',#180,#175,#101,.T.);
#232=ORIENTED_EDGE('',*,*,#183,.T.);
#233=ORIENTED_EDGE('',*,*,#184,.T.);
#234=ORIENTED_EDGE('',*,*,#185,.T.);
#235=ORIENTED_EDGE('',*,*,#186,.T.);
#236=ORIENTED_EDGE('',*,*,#187,.T.);
#237=ORIENTED_EDGE('',*,*,#188,.T.);
#238=ORIENTED_EDGE('',*,*,#189,.T.);
#239=ORIENTED_EDGE('',*,*,#186,.F.);
#240=ORIENTED_EDGE('',*,*,#190,.T.);
#241=ORIENTED_EDGE('',*,*,#185,.F.);
#242=ORIENTED_EDGE('',*,*,#191,.T.);
#243=ORIENTED_EDGE('',*,*,#192,.T.);
#244=ORIENTED_EDGE('',*,*,#193,.T.);
#245=ORIENTED_EDGE('',*,*,#194,.T.);
#246=ORIENTED_EDGE('',*,*,#195,.T.);
#247=ORIENTED_EDGE('',*,*,#196,.T.);
#248=ORIENTED_EDGE('',*,*,#197,.T.);
#249=ORIENTED_EDGE('',*,*,#198,.T.);
#250=ORIENTED_EDGE('',*,*,#199,.T.);
#251=ORIENTED_EDGE('',*,*,#200,.T.);
#252=ORIENTED_EDGE('',*,*,#195,.F.);
#253=ORIENTED_EDGE('',*,*,#201,.T.);
#254=ORIENTED_EDGE('',*,*,#202,.T.);
#255=ORIENTED_EDGE('',*,*,#203,.T.);
#256=ORIENTED_EDGE('',*,*,#204,.T.);
#257=ORIENTED_EDGE('',*,*,#205,.T.);
#258=ORIENTED_EDGE('',*,*,#204,.F.);
#259=ORIENTED_EDGE('',*,*,#206,.T.);
#260=ORIENTED_EDGE('',*,*,#207,.T.);
#261=ORIENTED_EDGE('',*,*,#208,.T.);
#262=ORIENTED_EDGE('',*,*,#209,.T.);
#263=ORIENTED_EDGE('',*,*,#210,.T.);
#264=ORIENTED_EDGE('',*,*,#202,.F.);
#265=ORIENTED_EDGE('',*,*,#211,.T.);
#266=ORIENTED_EDGE('',*,*,#212,.T.);
#267=ORIENTED_EDGE('',*,*,#213,.T.);
#268=ORIENTED_EDGE('',*,*,#209,.F.);
#269=ORIENTED_EDGE('',*,*,#214,.T.);
#270=ORIENTED_EDGE('',*,*,#215,.T.);
#271=ORIENTED_EDGE('',*,*,#191,.F.);
#272=ORIENTED_EDGE('',*,*,#216,.T.);
#273=ORIENTED_EDGE('',*,*,#217,.T.);
#274=ORIENTED_EDGE('',*,*,#216,.F.);
#275=ORIENTED_EDGE('',*,*,#184,.F.);
#276=ORIENTED_EDGE('',*,*,#218,.T.);
#277=ORIENTED_EDGE('',*,*,#197,.F.);
#278=ORIENTED_EDGE('',*,*,#219,.T.);
#279=ORIENTED_EDGE('',*,*,#220,.T.);
#280=ORIENTED_EDGE('',*,*,#192,.F.);
#281=ORIENTED_EDGE('',*,*,#215,.F.);
#282=ORIENTED_EDGE('',*,*,#221,.T.);
#283=ORIENTED_EDGE('',*,*,#190,.F.);
#284=ORIENTED_EDGE('',*,*,#193,.F.);
#285=ORIENTED_EDGE('',*,*,#220,.F.);
#286=ORIENTED_EDGE('',*,*,#222,.T.);
#287=ORIENTED_EDGE('',*,*,#188,.F.);
#288=ORIENTED_EDGE('',*,*,#223,.T.);
#289=ORIENTED_EDGE('',*,*,#224,.T.);
#290=ORIENTED_EDGE('',*,*,#225,.T.);
#291=ORIENTED_EDGE('',*,*,#207,.F.);
#292=ORIENTED_EDGE('',*,*,#226,.T.);
#293=ORIENTED_EDGE('',*,*,#227,.T.);
#294=ORIENTED_EDGE('',*,*,#228,.T.);
#295=ORIENTED_EDGE('',*,*,#227,.F.);
#296=ORIENTED_EDGE('',*,*,#229,.T.);
#297=ORIENTED_EDGE('',*,*,#199,.F.);
#298=ORIENTED_EDGE('',*,*,#230,.T.);
#299=ORIENTED_EDGE('',*,*,#224,.F.);
#300=ORIENTED_EDGE('',*,*,#231,.T.);
#301=ORIENTED_EDGE('',*,*,#212,.F.);
#302=ORIENTED_EDGE('',*,*,#198,.F.);
#303=ORIENTED_EDGE('',*,*,#194,.F.);
#304=ORIENTED_EDGE('',*,*,#218,.F.);
#305=ORIENTED_EDGE('',*,*,#183,.F.);
#306=ORIENTED_EDGE('',*,*,#189,.F.);
#307=ORIENTED_EDGE('',*,*,#222,.F.);
#308=ORIENTED_EDGE('',*,*,#230,.F.);
#309=ORIENTED_EDGE('',*,*,#211,.F.);
#310=ORIENTED_EDGE('',*,*,#208,.F.);
#311=ORIENTED_EDGE('',*,*,#201,.F.);
#312=ORIENTED_EDGE('',*,*,#205,.F.);
#313=ORIENTED_EDGE('',*,*,#225,.F.);
#314=ORIENTED_EDGE('',*,*,#228,.F.);
#315=ORIENTED_EDGE('',*,*,#196,.F.);
#316=ORIENTED_EDGE('',*,*,#200,.F.);
#317=ORIENTED_EDGE('',*,*,#229,.F.);
#318=ORIENTED_EDGE('',*,*,#226,.F.);
#319=ORIENTED_EDGE('',*,*,#206,.F.);
#320=ORIENTED_EDGE('',*,*,#203,.F.);
#321=ORIENTED_EDGE('',*,*,#210,.F.);
#322=ORIENTED_EDGE('',*,*,#213,.F.);
#323=ORIENTED_EDGE('',*,*,#231,.F.);
#324=ORIENTED_EDGE('',*,*,#223,.F.);
#325=ORIENTED_EDGE('',*,*,#187,.F.);
#326=ORIENTED_EDGE('',*,*,#221,.F.);
#327=ORIENTED_EDGE('',*,*,#219,.F.);
#328=ORIENTED_EDGE('',*,*,#214,.F.);
#329=ORIENTED_EDGE('',*,*,#217,.F.);
#330=PLANE('',#382);
#331=PLANE('',#383);
#332=PLANE('',#384);
#333=PLANE('',#385);
#334=PLANE('',#386);
#335=PLANE('',#387);
#336=PLANE('',#388);
#337=PLANE('',#389);
#338=PLANE('',#390);
#339=PLANE('',#391);
#340=PLANE('',#392);
#341=PLANE('',#393);
#342=PLANE('',#394);
#343=PLANE('',#395);
#344=PLANE('',#396);
#345=PLANE('',#397);
#346=PLANE('',#398);
#347=PLANE('',#399);
#348=PLANE('',#400);
#349=ADVANCED_FACE('',(#15),#330,.T.);
#350=ADVANCED_FACE('',(#16),#331,.T.);
#351=ADVANCED_FACE('',(#17),#332,.T.);
#352=ADVANCED_FACE('',(#18),#333,.T.);
#353=ADVANCED_FACE('',(#19),#334,.T.);
#354=ADVANCED_FACE('',(#20),#335,.T.);
#355=ADVANCED_FACE('',(#21),#336,.T.);
#356=ADVANCED_FACE('',(#22),#337,.T.);
#357=ADVANCED_FACE('',(#23),#338,.T.);
#358=ADVANCED_FACE('',(#24),#339,.T.);
#359=ADVANCED_FACE('',(#25),#340,.T.);
#360=ADVANCED_FACE('',(#26),#341,.T.);
#361=ADVANCED_FACE('',(#27),#342,.T.);
#362=ADVANCED_FACE('',(#28),#343,.T.);
#363=ADVANCED_FACE('',(#29),#344,.T.);
#364=ADVANCED_FACE('',(#30),#345,.T.);
#365=ADVANCED_FACE('',(#31),#346,.T.);
#366=ADVANCED_FACE('',(#32),#347,.T.);
#367=ADVANCED_FACE('',(#33),#348,.T.);
#368=CLOSED_SHELL('',(#349,#350,#351,#352,#353,#354,#355,#356,#357,#358,
#359,#360,#361,#362,#363,#364,#365,#366,#367));
#369=DERIVED_UNIT_ELEMENT(#371,1.);
#370=DERIVED_UNIT_ELEMENT(#596,-3.);
#371=(
MASS_UNIT()
NAMED_UNIT(*)
SI_UNIT(.KILO.,.GRAM.)
);
#372=DERIVED_UNIT((#369,#370));
#373=MEASURE_REPRESENTATION_ITEM('density measure',
POSITIVE_RATIO_MEASURE(7850.),#372);
#374=PROPERTY_DEFINITION_REPRESENTATION(#379,#376);
#375=PROPERTY_DEFINITION_REPRESENTATION(#380,#377);
#376=REPRESENTATION('material name',(#378),#593);
#377=REPRESENTATION('density',(#373),#593);
#378=DESCRIPTIVE_REPRESENTATION_ITEM('\X2\94A2\X0\','\X2\94A2\X0\');
#379=PROPERTY_DEFINITION('material property','material name',#603);
#380=PROPERTY_DEFINITION('material property','density of part',#603);
#381=AXIS2_PLACEMENT_3D('',#490,#401,#402);
#382=AXIS2_PLACEMENT_3D('',#491,#403,#404);
#383=AXIS2_PLACEMENT_3D('',#500,#409,#410);
#384=AXIS2_PLACEMENT_3D('',#508,#415,#416);
#385=AXIS2_PLACEMENT_3D('',#514,#420,#421);
#386=AXIS2_PLACEMENT_3D('',#523,#426,#427);
#387=AXIS2_PLACEMENT_3D('',#529,#431,#432);
#388=AXIS2_PLACEMENT_3D('',#538,#437,#438);
#389=AXIS2_PLACEMENT_3D('',#544,#442,#443);
#390=AXIS2_PLACEMENT_3D('',#550,#447,#448);
#391=AXIS2_PLACEMENT_3D('',#556,#452,#453);
#392=AXIS2_PLACEMENT_3D('',#562,#457,#458);
#393=AXIS2_PLACEMENT_3D('',#565,#461,#462);
#394=AXIS2_PLACEMENT_3D('',#569,#465,#466);
#395=AXIS2_PLACEMENT_3D('',#571,#468,#469);
#396=AXIS2_PLACEMENT_3D('',#577,#473,#474);
#397=AXIS2_PLACEMENT_3D('',#583,#478,#479);
#398=AXIS2_PLACEMENT_3D('',#586,#482,#483);
#399=AXIS2_PLACEMENT_3D('',#589,#486,#487);
#400=AXIS2_PLACEMENT_3D('',#590,#488,#489);
#401=DIRECTION('axis',(0.,0.,1.));
#402=DIRECTION('refdir',(1.,0.,0.));
#403=DIRECTION('center_axis',(-0.145693308897944,-0.989329803322617,0.));
#404=DIRECTION('ref_axis',(0.,0.,1.));
#405=DIRECTION('',(0.989329803322617,-0.145693308897944,0.));
#406=DIRECTION('',(0.,0.,1.));
#407=DIRECTION('',(-0.989329803322617,0.145693308897944,0.));
#408=DIRECTION('',(0.,0.,-1.));
#409=DIRECTION('center_axis',(-0.145693525438964,-0.989329771433755,0.));
#410=DIRECTION('ref_axis',(0.,0.,-1.));
#411=DIRECTION('',(-0.989329771433755,0.145693525438964,0.));
#412=DIRECTION('',(0.,0.,-1.));
#413=DIRECTION('',(0.989329771433755,-0.145693525438964,0.));
#414=DIRECTION('',(0.,0.,1.));
#415=DIRECTION('center_axis',(0.,0.,-1.));
#416=DIRECTION('ref_axis',(-0.145693308897944,-0.989329803322617,0.));
#417=DIRECTION('',(-0.145693428008966,-0.989329785781767,0.));
#418=DIRECTION('',(-0.98932980332408,0.145693308888012,0.));
#419=DIRECTION('',(0.145693428007008,0.989329785782055,0.));
#420=DIRECTION('center_axis',(0.133645442465057,0.991029210320422,0.));
#421=DIRECTION('ref_axis',(0.,0.,1.));
#422=DIRECTION('',(-0.991029210320422,0.133645442465057,0.));
#423=DIRECTION('',(0.,0.,1.));
#424=DIRECTION('',(0.991029210320422,-0.133645442465057,0.));
#425=DIRECTION('',(0.,0.,-1.));
#426=DIRECTION('center_axis',(0.991334929681222,-0.131358506363029,0.));
#427=DIRECTION('ref_axis',(0.,0.,1.));
#428=DIRECTION('',(0.131358506363029,0.991334929681222,0.));
#429=DIRECTION('',(0.,0.,1.));
#430=DIRECTION('',(-0.131358506363029,-0.991334929681222,0.));
#431=DIRECTION('center_axis',(-0.991997911722847,0.126254279679981,0.));
#432=DIRECTION('ref_axis',(0.,0.,1.));
#433=DIRECTION('',(-0.126254279679981,-0.991997911722847,0.));
#434=DIRECTION('',(0.,0.,1.));
#435=DIRECTION('',(0.126254279679981,0.991997911722847,0.));
#436=DIRECTION('',(0.,0.,-1.));
#437=DIRECTION('center_axis',(-0.991997802544353,0.126255137508045,0.));
#438=DIRECTION('ref_axis',(0.,0.,1.));
#439=DIRECTION('',(-0.126255137508045,-0.991997802544353,0.));
#440=DIRECTION('',(0.126255137508045,0.991997802544353,0.));
#441=DIRECTION('',(0.,0.,-1.));
#442=DIRECTION('center_axis',(0.125347595907989,0.99211288682291,0.));
#443=DIRECTION('ref_axis',(0.,0.,1.));
#444=DIRECTION('',(-0.99211288682291,0.125347595907989,0.));
#445=DIRECTION('',(0.,0.,1.));
#446=DIRECTION('',(0.99211288682291,-0.125347595907989,0.));
#447=DIRECTION('center_axis',(-0.990706058576665,0.136020239300954,0.));
#448=DIRECTION('ref_axis',(0.,0.,1.));
#449=DIRECTION('',(-0.136020239300954,-0.990706058576665,0.));
#450=DIRECTION('',(0.,0.,1.));
#451=DIRECTION('',(0.136020239300954,0.990706058576665,0.));
#452=DIRECTION('center_axis',(0.989329785781767,-0.145693428008966,0.));
#453=DIRECTION('ref_axis',(0.,0.,-1.));
#454=DIRECTION('',(-0.145693428008966,-0.989329785781767,0.));
#455=DIRECTION('',(0.,0.,-1.));
#456=DIRECTION('',(0.,0.,1.));
#457=DIRECTION('center_axis',(0.989329781309488,-0.145693458377925,0.));
#458=DIRECTION('ref_axis',(0.,0.,-1.));
#459=DIRECTION('',(-0.145693458377925,-0.989329781309488,0.));
#460=DIRECTION('',(0.145693458377925,0.989329781309488,0.));
#461=DIRECTION('center_axis',(-0.145693308888012,-0.98932980332408,0.));
#462=DIRECTION('ref_axis',(0.,0.,-1.));
#463=DIRECTION('',(-0.98932980332408,0.145693308888012,0.));
#464=DIRECTION('',(0.,0.,-1.));
#465=DIRECTION('center_axis',(-0.989329785782055,0.145693428007008,0.));
#466=DIRECTION('ref_axis',(0.,0.,-1.));
#467=DIRECTION('',(0.145693428007008,0.989329785782055,0.));
#468=DIRECTION('center_axis',(0.98932976607155,-0.145693561850934,0.));
#469=DIRECTION('ref_axis',(0.,0.,1.));
#470=DIRECTION('',(0.145693561850934,0.98932976607155,0.));
#471=DIRECTION('',(-0.145693561850934,-0.98932976607155,0.));
#472=DIRECTION('',(0.,0.,-1.));
#473=DIRECTION('center_axis',(0.130153419936957,0.991493866485675,0.));
#474=DIRECTION('ref_axis',(0.,0.,1.));
#475=DIRECTION('',(-0.991493866485675,0.130153419936957,0.));
#476=DIRECTION('',(0.991493866485675,-0.130153419936957,0.));
#477=DIRECTION('',(0.,0.,-1.));
#478=DIRECTION('center_axis',(0.130153410594016,0.991493867712123,0.));
#479=DIRECTION('ref_axis',(0.,0.,1.));
#480=DIRECTION('',(-0.991493867712123,0.130153410594016,0.));
#481=DIRECTION('',(0.991493867712123,-0.130153410594016,0.));
#482=DIRECTION('center_axis',(-0.145693501289028,-0.989329774990192,0.));
#483=DIRECTION('ref_axis',(0.,0.,1.));
#484=DIRECTION('',(0.989329774990192,-0.145693501289028,0.));
#485=DIRECTION('',(-0.989329774990192,0.145693501289028,0.));
#486=DIRECTION('center_axis',(-1.293681687734E-17,0.,-1.));
#487=DIRECTION('ref_axis',(-0.991334929681222,0.131358506363029,1.28247184493967E-17));
#488=DIRECTION('center_axis',(5.885109956255E-18,0.,1.));
#489=DIRECTION('ref_axis',(-0.133645442465057,-0.991029210320422,7.86518124059211E-19));
#490=CARTESIAN_POINT('',(0.,0.,0.));
#491=CARTESIAN_POINT('Origin',(8490.173499995,-4071.728500014,-2030.7435));
#492=CARTESIAN_POINT('',(5571.047999998,-3641.844500002,-3262.2795));
#493=CARTESIAN_POINT('',(11409.2989999893,-4501.61250002533,-3262.2795));
#494=CARTESIAN_POINT('',(5571.047999998,-3641.844500002,-3262.2795));
#495=CARTESIAN_POINT('',(11409.2989999896,-4501.61250002585,-799.2075));
#496=CARTESIAN_POINT('',(11409.29899999,-4501.612500026,-3262.2795));
#497=CARTESIAN_POINT('',(5571.04799999813,-3641.84450000234,-799.2075));
#498=CARTESIAN_POINT('',(11409.29899999,-4501.612500026,-799.2075));
#499=CARTESIAN_POINT('',(5571.047999998,-3641.844500002,-799.2075));
#500=CARTESIAN_POINT('Origin',(2652.307199998,-3212.016500003,-159.8415));
#501=CARTESIAN_POINT('',(5571.047999998,-3641.844500002,3262.2795));
#502=CARTESIAN_POINT('',(-1725.804000002,-2567.274500005,3262.2795));
#503=CARTESIAN_POINT('',(5571.047999998,-3641.844500002,3262.2795));
#504=CARTESIAN_POINT('',(-1725.804000002,-2567.274500005,-3262.2795));
#505=CARTESIAN_POINT('',(-1725.804000002,-2567.274500005,3262.2795));
#506=CARTESIAN_POINT('',(-1725.804000002,-2567.274500005,-3262.2795));
#507=CARTESIAN_POINT('',(5571.047999998,-3641.844500002,-799.2075));
#508=CARTESIAN_POINT('Origin',(8154.174999996,-6353.323000003,-799.2075));
#509=CARTESIAN_POINT('',(10737.3019999902,-9064.80149997435,-799.2075));
#510=CARTESIAN_POINT('',(11409.29899999,-4501.612500026,-799.2075));
#511=CARTESIAN_POINT('',(4899.05099999978,-8205.03350001028,-799.2075));
#512=CARTESIAN_POINT('',(10737.30199999,-9064.801499975,-799.2075));
#513=CARTESIAN_POINT('',(4899.051,-8205.033500009,-799.2075));
#514=CARTESIAN_POINT('Origin',(9717.591000001,2728.675999999,-2.273736754432E-13));
#515=CARTESIAN_POINT('',(12420.39,2364.18950001797,-3262.2795));
#516=CARTESIAN_POINT('',(7014.79200000218,3093.1624999797,-3262.2795));
#517=CARTESIAN_POINT('',(12420.39,2364.189500018,-3262.2795));
#518=CARTESIAN_POINT('',(7014.79200000263,3093.16249997907,3262.2795));
#519=CARTESIAN_POINT('',(7014.792000002,3093.162499979,-3262.2795));
#520=CARTESIAN_POINT('',(12420.3899999992,2364.18950001746,3262.2795));
#521=CARTESIAN_POINT('',(7014.792000002,3093.162499979,3262.2795));
#522=CARTESIAN_POINT('',(12420.39,2364.189500018,3262.2795));
#523=CARTESIAN_POINT('Origin',(7287.292000001,5149.662499985,-2.273736754432E-13));
#524=CARTESIAN_POINT('',(7559.79199999942,7206.16249999123,-3262.2795));
#525=CARTESIAN_POINT('',(7014.792000002,3093.162499979,-3262.2795));
#526=CARTESIAN_POINT('',(7559.79200000005,7206.16249999208,3262.2795));
#527=CARTESIAN_POINT('',(7559.792,7206.162499991,-3262.2795));
#528=CARTESIAN_POINT('',(7559.792,7206.162499991,3262.2795));
#529=CARTESIAN_POINT('Origin',(-6775.207999999,7681.162499997,-2.273736754432E-13));
#530=CARTESIAN_POINT('',(-6670.207999996,8506.16249998,-3262.2795));
#531=CARTESIAN_POINT('',(-6880.208000002,6856.162500015,-3262.2795));
#532=CARTESIAN_POINT('',(-6670.207999996,8506.16249998,-3262.2795));
#533=CARTESIAN_POINT('',(-6880.20800000194,6856.1625000155,3262.2795));
#534=CARTESIAN_POINT('',(-6880.208000002,6856.162500015,-3262.2795));
#535=CARTESIAN_POINT('',(-6670.207999996,8506.16249998,3262.2795));
#536=CARTESIAN_POINT('',(-6880.208000002,6856.162500015,3262.2795));
#537=CARTESIAN_POINT('',(-6670.207999996,8506.16249998,3262.2795));
#538=CARTESIAN_POINT('Origin',(-6634.657999995,8785.481999977,-2.273736754432E-13));
#539=CARTESIAN_POINT('',(-6599.107999995,9064.801499975,-3262.2795));
#540=CARTESIAN_POINT('',(-6599.107999995,9064.801499975,-3262.2795));
#541=CARTESIAN_POINT('',(-6599.107999995,9064.801499975,3262.2795));
#542=CARTESIAN_POINT('',(-6670.207999996,8506.16249998,3262.2795));
#543=CARTESIAN_POINT('',(-6599.107999995,9064.801499975,3262.2795));
#544=CARTESIAN_POINT('Origin',(-8740.208000003,7091.162500001,-2.273736754432E-13));
#545=CARTESIAN_POINT('',(-10600.2080000001,7326.16249998639,-3262.2795));
#546=CARTESIAN_POINT('',(-6880.208000002,6856.162500015,-3262.2795));
#547=CARTESIAN_POINT('',(-10600.2080000001,7326.16249998667,3262.2795));
#548=CARTESIAN_POINT('',(-10600.208,7326.162499987,-3262.2795));
#549=CARTESIAN_POINT('',(-10600.208,7326.162499987,3262.2795));
#550=CARTESIAN_POINT('Origin',(-11510.299,697.49699998645,-2.273736754432E-13));
#551=CARTESIAN_POINT('',(-12420.39,-5931.168500014,-3262.2795));
#552=CARTESIAN_POINT('',(-10600.208,7326.162499987,-3262.2795));
#553=CARTESIAN_POINT('',(-12420.39,-5931.168500014,3262.2795));
#554=CARTESIAN_POINT('',(-12420.39,-5931.168500014,-3262.2795));
#555=CARTESIAN_POINT('',(-12420.39,-5931.168500014,3262.2795));
#556=CARTESIAN_POINT('Origin',(11073.30049999,-6783.207,1231.536));
#557=CARTESIAN_POINT('',(11409.2989999898,-4501.61250002597,3262.2795));
#558=CARTESIAN_POINT('',(10737.3019999902,-9064.80149997435,3262.2795));
#559=CARTESIAN_POINT('',(11409.29899999,-4501.612500026,3262.2795));
#560=CARTESIAN_POINT('',(10737.30199999,-9064.801499975,3262.2795));
#561=CARTESIAN_POINT('',(11409.29899999,-4501.612500026,-799.2075));
#562=CARTESIAN_POINT('Origin',(11813.73539999,-1755.291700008,-159.8415));
#563=CARTESIAN_POINT('',(12420.39,2364.189500018,3262.2795));
#564=CARTESIAN_POINT('',(11409.29899999,-4501.612500026,-3262.2795));
#565=CARTESIAN_POINT('Origin',(7818.176499997,-8634.917499992,1231.536));
#566=CARTESIAN_POINT('',(4899.05099999978,-8205.03350001028,3262.2795));
#567=CARTESIAN_POINT('',(10737.30199999,-9064.801499975,3262.2795));
#568=CARTESIAN_POINT('',(4899.051,-8205.033500009,3262.2795));
#569=CARTESIAN_POINT('Origin',(5235.049499999,-5923.439000006,1231.536));
#570=CARTESIAN_POINT('',(4899.051,-8205.033500009,3262.2795));
#571=CARTESIAN_POINT('Origin',(-2081.743000002,-4984.272500005,-2.273736754432E-13));
#572=CARTESIAN_POINT('',(-2437.682000003,-7401.270500006,-3262.2795));
#573=CARTESIAN_POINT('',(-2437.682000003,-7401.270500006,-3262.2795));
#574=CARTESIAN_POINT('',(-2437.682000003,-7401.270500006,3262.2795));
#575=CARTESIAN_POINT('',(-1725.804000002,-2567.274500005,3262.2795));
#576=CARTESIAN_POINT('',(-2437.682000003,-7401.270500006,3262.2795));
#577=CARTESIAN_POINT('Origin',(-4204.657999995,8750.481999974,-2.273736754432E-13));
#578=CARTESIAN_POINT('',(-1810.20799999512,8436.16249997208,-3262.2795));
#579=CARTESIAN_POINT('',(-1810.207999995,8436.162499973,-3262.2795));
#580=CARTESIAN_POINT('',(-1810.20799999507,8436.16249997245,3262.2795));
#581=CARTESIAN_POINT('',(-6599.107999995,9064.801499975,3262.2795));
#582=CARTESIAN_POINT('',(-1810.207999995,8436.162499973,3262.2795));
#583=CARTESIAN_POINT('Origin',(2874.792000002,7821.162499982,-2.273736754432E-13));
#584=CARTESIAN_POINT('',(7559.792,7206.162499991,-3262.2795));
#585=CARTESIAN_POINT('',(-1810.207999995,8436.162499973,3262.2795));
#586=CARTESIAN_POINT('Origin',(-7429.036000001,-6666.21950001,-2.273736754432E-13));
#587=CARTESIAN_POINT('',(-12420.39,-5931.168500014,-3262.2795));
#588=CARTESIAN_POINT('',(-2437.682000003,-7401.270500006,3262.2795));
#589=CARTESIAN_POINT('Origin',(-397.5765384619,2216.138115374,-3262.2795));
#590=CARTESIAN_POINT('Origin',(697.85719999928,769.33069999215,3262.2795));
#591=UNCERTAINTY_MEASURE_WITH_UNIT(LENGTH_MEASURE(0.01),#595,
'DISTANCE_ACCURACY_VALUE',
'Maximum model space distance between geometric entities at asserted c
onnectivities');
#592=UNCERTAINTY_MEASURE_WITH_UNIT(LENGTH_MEASURE(0.01),#595,
'DISTANCE_ACCURACY_VALUE',
'Maximum model space distance between geometric entities at asserted c
onnectivities');
#593=(
GEOMETRIC_REPRESENTATION_CONTEXT(3)
GLOBAL_UNCERTAINTY_ASSIGNED_CONTEXT((#591))
GLOBAL_UNIT_ASSIGNED_CONTEXT((#595,#597,#598))
REPRESENTATION_CONTEXT('','3D')
);
#594=(
GEOMETRIC_REPRESENTATION_CONTEXT(3)
GLOBAL_UNCERTAINTY_ASSIGNED_CONTEXT((#592))
GLOBAL_UNIT_ASSIGNED_CONTEXT((#595,#597,#598))
REPRESENTATION_CONTEXT('','3D')
);
#595=(
LENGTH_UNIT()
NAMED_UNIT(*)
SI_UNIT(.MILLI.,.METRE.)
);
#596=(
LENGTH_UNIT()
NAMED_UNIT(*)
SI_UNIT($,.METRE.)
);
#597=(
NAMED_UNIT(*)
PLANE_ANGLE_UNIT()
SI_UNIT($,.RADIAN.)
);
#598=(
NAMED_UNIT(*)
SI_UNIT($,.STERADIAN.)
SOLID_ANGLE_UNIT()
);
#599=SHAPE_DEFINITION_REPRESENTATION(#600,#601);
#600=PRODUCT_DEFINITION_SHAPE('',$,#603);
#601=SHAPE_REPRESENTATION('',(#381),#593);
#602=PRODUCT_DEFINITION_CONTEXT('part definition',#607,'design');
#603=PRODUCT_DEFINITION('Open CASCADE STEP translator 7.7 23',
'(\X2\672A4FDD5B58\X0\)',#604,#602);
#604=PRODUCT_DEFINITION_FORMATION('',$,#609);
#605=PRODUCT_RELATED_PRODUCT_CATEGORY('(\X2\672A4FDD5B58\X0\)',
'(\X2\672A4FDD5B58\X0\)',(#609));
#606=APPLICATION_PROTOCOL_DEFINITION('international standard',
'automotive_design',2009,#607);
#607=APPLICATION_CONTEXT(
'Core Data for Automotive Mechanical Design Process');
#608=PRODUCT_CONTEXT('part definition',#607,'mechanical');
#609=PRODUCT('Open CASCADE STEP translator 7.7 23','(\X2\672A4FDD5B58\X0\)',
'Open CASCADE Model',(#608));
#610=PRESENTATION_STYLE_ASSIGNMENT((#611));
#611=SURFACE_STYLE_USAGE(.BOTH.,#612);
#612=SURFACE_SIDE_STYLE('',(#613));
#613=SURFACE_STYLE_FILL_AREA(#614);
#614=FILL_AREA_STYLE('\X2\94A2\X0\ - \X2\7F0E5149\X0\',(#615));
#615=FILL_AREA_STYLE_COLOUR('\X2\94A2\X0\ - \X2\7F0E5149\X0\',#616);
#616=COLOUR_RGB('\X2\94A2\X0\ - \X2\7F0E5149\X0\',0.627450980392157,0.627450980392157,
0.627450980392157);
ENDSEC;
END-ISO-10303-21;
