# OBJ file generated from STEP using CadQuery
# Vertices: 36
# Faces: 20

v -156.400000 -320.650000 147.490850
v 223.000000 -381.350000 147.490850
v 311.400000 299.350000 147.490850
v -278.200000 381.350000 147.490850
v -311.400000 138.550000 147.490850
v -99.000000 109.050000 147.490850
v -156.400000 -320.650000 -147.490850
v -99.000000 109.050000 -147.490850
v -311.400000 138.550000 -147.490850
v -278.200000 381.350000 -147.490850
v 311.400000 299.350000 -147.490850
v 223.000000 -381.350000 -147.490850
v -311.400000 138.550000 -147.490850
v -278.200000 381.350000 -147.490850
v -311.400000 138.550000 147.490850
v -278.200000 381.350000 147.490850
v -311.400000 138.550000 147.490850
v -99.000000 109.050000 147.490850
v -311.400000 138.550000 -147.490850
v -99.000000 109.050000 -147.490850
v -156.400000 -320.650000 147.490850
v 223.000000 -381.350000 147.490850
v -156.400000 -320.650000 -147.490850
v 223.000000 -381.350000 -147.490850
v -278.200000 381.350000 -147.490850
v 311.400000 299.350000 -147.490850
v -278.200000 381.350000 147.490850
v 311.400000 299.350000 147.490850
v 223.000000 -381.350000 147.490850
v 311.400000 299.350000 147.490850
v 223.000000 -381.350000 -147.490850
v 311.400000 299.350000 -147.490850
v -156.400000 -320.650000 -147.490850
v -99.000000 109.050000 -147.490850
v -156.400000 -320.650000 147.490850
v -99.000000 109.050000 147.490850

f 6 1 2
f 6 2 3
f 4 5 6
f 4 6 3
f 8 9 10
f 11 8 10
f 12 7 8
f 12 8 11
f 15 14 13
f 16 14 15
f 19 18 17
f 20 18 19
f 22 21 23
f 24 22 23
f 28 26 25
f 28 25 27
f 32 30 29
f 32 29 31
f 34 33 35
f 36 34 35
