ISO-10303-21;
HEADER;
/* Generated by software containing ST-Developer
 * from STEP Tools, Inc. (www.steptools.com) 
 */

FILE_DESCRIPTION(
/* description */ ('Open CASCADE Model'),
/* implementation_level */ '2;1');

FILE_NAME(
/* name */ '21.step',
/* time_stamp */ '2025-12-23T14:07:21+08:00',
/* author */ (''),
/* organization */ (''),
/* preprocessor_version */ 'ST-DEVELOPER v20.1',
/* originating_system */ 'Autodesk Translation Framework v14.21.0.0',
/* authorisation */ '');

FILE_SCHEMA (('AUTOMOTIVE_DESIGN { 1 0 10303 214 3 1 1 }'));
ENDSEC;

DATA;
#10=MECHANICAL_DESIGN_GEOMETRIC_PRESENTATION_REPRESENTATION('',(#13),#249);
#11=SHAPE_REPRESENTATION_RELATIONSHIP('SRR','None',#256,#12);
#12=ADVANCED_BREP_SHAPE_REPRESENTATION('',(#14),#248);
#13=STYLED_ITEM('',(#265),#14);
#14=MANIFOLD_SOLID_BREP('\X2\5B9E4F53\X0\1',#149);
#15=FACE_OUTER_BOUND('',#23,.T.);
#16=FACE_OUTER_BOUND('',#24,.T.);
#17=FACE_OUTER_BOUND('',#25,.T.);
#18=FACE_OUTER_BOUND('',#26,.T.);
#19=FACE_OUTER_BOUND('',#27,.T.);
#20=FACE_OUTER_BOUND('',#28,.T.);
#21=FACE_OUTER_BOUND('',#29,.T.);
#22=FACE_OUTER_BOUND('',#30,.T.);
#23=EDGE_LOOP('',(#97,#98,#99,#100,#101,#102));
#24=EDGE_LOOP('',(#103,#104,#105,#106,#107,#108));
#25=EDGE_LOOP('',(#109,#110,#111,#112));
#26=EDGE_LOOP('',(#113,#114,#115,#116));
#27=EDGE_LOOP('',(#117,#118,#119,#120));
#28=EDGE_LOOP('',(#121,#122,#123,#124));
#29=EDGE_LOOP('',(#125,#126,#127,#128));
#30=EDGE_LOOP('',(#129,#130,#131,#132));
#31=LINE('',#211,#49);
#32=LINE('',#213,#50);
#33=LINE('',#215,#51);
#34=LINE('',#217,#52);
#35=LINE('',#219,#53);
#36=LINE('',#220,#54);
#37=LINE('',#224,#55);
#38=LINE('',#226,#56);
#39=LINE('',#228,#57);
#40=LINE('',#230,#58);
#41=LINE('',#232,#59);
#42=LINE('',#233,#60);
#43=LINE('',#235,#61);
#44=LINE('',#236,#62);
#45=LINE('',#238,#63);
#46=LINE('',#240,#64);
#47=LINE('',#241,#65);
#48=LINE('',#243,#66);
#49=VECTOR('',#175,1.00000000000037);
#50=VECTOR('',#176,1.00000000000037);
#51=VECTOR('',#177,0.999999999999629);
#52=VECTOR('',#178,1.00000000000006);
#53=VECTOR('',#179,1.00000000000018);
#54=VECTOR('',#180,0.999999999999715);
#55=VECTOR('',#183,0.999999999999715);
#56=VECTOR('',#184,1.00000000000018);
#57=VECTOR('',#185,1.00000000000006);
#58=VECTOR('',#186,0.999999999999629);
#59=VECTOR('',#187,1.00000000000037);
#60=VECTOR('',#188,1.00000000000037);
#61=VECTOR('',#191,1.);
#62=VECTOR('',#192,1.);
#63=VECTOR('',#195,1.);
#64=VECTOR('',#198,1.);
#65=VECTOR('',#199,1.);
#66=VECTOR('',#202,1.);
#67=VERTEX_POINT('',#209);
#68=VERTEX_POINT('',#210);
#69=VERTEX_POINT('',#212);
#70=VERTEX_POINT('',#214);
#71=VERTEX_POINT('',#216);
#72=VERTEX_POINT('',#218);
#73=VERTEX_POINT('',#222);
#74=VERTEX_POINT('',#223);
#75=VERTEX_POINT('',#225);
#76=VERTEX_POINT('',#227);
#77=VERTEX_POINT('',#229);
#78=VERTEX_POINT('',#231);
#79=EDGE_CURVE('',#67,#68,#31,.T.);
#80=EDGE_CURVE('',#68,#69,#32,.T.);
#81=EDGE_CURVE('',#69,#70,#33,.T.);
#82=EDGE_CURVE('',#70,#71,#34,.T.);
#83=EDGE_CURVE('',#71,#72,#35,.T.);
#84=EDGE_CURVE('',#72,#67,#36,.T.);
#85=EDGE_CURVE('',#73,#74,#37,.T.);
#86=EDGE_CURVE('',#74,#75,#38,.T.);
#87=EDGE_CURVE('',#75,#76,#39,.T.);
#88=EDGE_CURVE('',#76,#77,#40,.T.);
#89=EDGE_CURVE('',#77,#78,#41,.T.);
#90=EDGE_CURVE('',#78,#73,#42,.T.);
#91=EDGE_CURVE('',#75,#71,#43,.T.);
#92=EDGE_CURVE('',#70,#76,#44,.T.);
#93=EDGE_CURVE('',#74,#72,#45,.T.);
#94=EDGE_CURVE('',#67,#73,#46,.T.);
#95=EDGE_CURVE('',#78,#68,#47,.T.);
#96=EDGE_CURVE('',#69,#77,#48,.T.);
#97=ORIENTED_EDGE('',*,*,#79,.T.);
#98=ORIENTED_EDGE('',*,*,#80,.T.);
#99=ORIENTED_EDGE('',*,*,#81,.T.);
#100=ORIENTED_EDGE('',*,*,#82,.T.);
#101=ORIENTED_EDGE('',*,*,#83,.T.);
#102=ORIENTED_EDGE('',*,*,#84,.T.);
#103=ORIENTED_EDGE('',*,*,#85,.T.);
#104=ORIENTED_EDGE('',*,*,#86,.T.);
#105=ORIENTED_EDGE('',*,*,#87,.T.);
#106=ORIENTED_EDGE('',*,*,#88,.T.);
#107=ORIENTED_EDGE('',*,*,#89,.T.);
#108=ORIENTED_EDGE('',*,*,#90,.T.);
#109=ORIENTED_EDGE('',*,*,#87,.F.);
#110=ORIENTED_EDGE('',*,*,#91,.T.);
#111=ORIENTED_EDGE('',*,*,#82,.F.);
#112=ORIENTED_EDGE('',*,*,#92,.T.);
#113=ORIENTED_EDGE('',*,*,#83,.F.);
#114=ORIENTED_EDGE('',*,*,#91,.F.);
#115=ORIENTED_EDGE('',*,*,#86,.F.);
#116=ORIENTED_EDGE('',*,*,#93,.T.);
#117=ORIENTED_EDGE('',*,*,#79,.F.);
#118=ORIENTED_EDGE('',*,*,#94,.T.);
#119=ORIENTED_EDGE('',*,*,#90,.F.);
#120=ORIENTED_EDGE('',*,*,#95,.T.);
#121=ORIENTED_EDGE('',*,*,#88,.F.);
#122=ORIENTED_EDGE('',*,*,#92,.F.);
#123=ORIENTED_EDGE('',*,*,#81,.F.);
#124=ORIENTED_EDGE('',*,*,#96,.T.);
#125=ORIENTED_EDGE('',*,*,#80,.F.);
#126=ORIENTED_EDGE('',*,*,#95,.F.);
#127=ORIENTED_EDGE('',*,*,#89,.F.);
#128=ORIENTED_EDGE('',*,*,#96,.F.);
#129=ORIENTED_EDGE('',*,*,#85,.F.);
#130=ORIENTED_EDGE('',*,*,#94,.F.);
#131=ORIENTED_EDGE('',*,*,#84,.F.);
#132=ORIENTED_EDGE('',*,*,#93,.F.);
#133=PLANE('',#163);
#134=PLANE('',#164);
#135=PLANE('',#165);
#136=PLANE('',#166);
#137=PLANE('',#167);
#138=PLANE('',#168);
#139=PLANE('',#169);
#140=PLANE('',#170);
#141=ADVANCED_FACE('',(#15),#133,.T.);
#142=ADVANCED_FACE('',(#16),#134,.T.);
#143=ADVANCED_FACE('',(#17),#135,.T.);
#144=ADVANCED_FACE('',(#18),#136,.T.);
#145=ADVANCED_FACE('',(#19),#137,.T.);
#146=ADVANCED_FACE('',(#20),#138,.T.);
#147=ADVANCED_FACE('',(#21),#139,.T.);
#148=ADVANCED_FACE('',(#22),#140,.T.);
#149=CLOSED_SHELL('',(#141,#142,#143,#144,#145,#146,#147,#148));
#150=DERIVED_UNIT_ELEMENT(#152,1.);
#151=DERIVED_UNIT_ELEMENT(#251,-3.);
#152=(
MASS_UNIT()
NAMED_UNIT(*)
SI_UNIT(.KILO.,.GRAM.)
);
#153=DERIVED_UNIT((#150,#151));
#154=MEASURE_REPRESENTATION_ITEM('density measure',
POSITIVE_RATIO_MEASURE(7850.),#153);
#155=PROPERTY_DEFINITION_REPRESENTATION(#160,#157);
#156=PROPERTY_DEFINITION_REPRESENTATION(#161,#158);
#157=REPRESENTATION('material name',(#159),#248);
#158=REPRESENTATION('density',(#154),#248);
#159=DESCRIPTIVE_REPRESENTATION_ITEM('\X2\94A2\X0\','\X2\94A2\X0\');
#160=PROPERTY_DEFINITION('material property','material name',#258);
#161=PROPERTY_DEFINITION('material property','density of part',#258);
#162=AXIS2_PLACEMENT_3D('',#207,#171,#172);
#163=AXIS2_PLACEMENT_3D('',#208,#173,#174);
#164=AXIS2_PLACEMENT_3D('',#221,#181,#182);
#165=AXIS2_PLACEMENT_3D('',#234,#189,#190);
#166=AXIS2_PLACEMENT_3D('',#237,#193,#194);
#167=AXIS2_PLACEMENT_3D('',#239,#196,#197);
#168=AXIS2_PLACEMENT_3D('',#242,#200,#201);
#169=AXIS2_PLACEMENT_3D('',#244,#203,#204);
#170=AXIS2_PLACEMENT_3D('',#245,#205,#206);
#171=DIRECTION('axis',(0.,0.,1.));
#172=DIRECTION('refdir',(1.,0.,0.));
#173=DIRECTION('center_axis',(0.,0.,1.));
#174=DIRECTION('ref_axis',(0.157980350378941,0.987442255979633,0.));
#175=DIRECTION('',(0.987442255979633,-0.157980350378941,0.));
#176=DIRECTION('',(0.128784859732952,0.991672556796629,0.));
#177=DIRECTION('',(-0.990466822544367,0.137751491603051,0.));
#178=DIRECTION('',(-0.135477391037991,-0.990780438097937,0.));
#179=DIRECTION('',(0.990492273178823,-0.137568371266975,0.));
#180=DIRECTION('',(-0.132405468001038,-0.991195637623283,0.));
#181=DIRECTION('center_axis',(2.264847969027E-16,0.,-1.));
#182=DIRECTION('ref_axis',(0.991195637623283,-0.132405468001038,2.24490742677951E-16));
#183=DIRECTION('',(0.132405468001038,0.991195637623283,0.));
#184=DIRECTION('',(-0.990492273178823,0.137568371266975,0.));
#185=DIRECTION('',(0.135477391037991,0.990780438097937,0.));
#186=DIRECTION('',(0.990466822544367,-0.137751491603051,0.));
#187=DIRECTION('',(-0.128784859732952,-0.991672556796629,0.));
#188=DIRECTION('',(-0.987442255979633,0.157980350378941,0.));
#189=DIRECTION('center_axis',(-0.990780438097937,0.135477391037991,0.));
#190=DIRECTION('ref_axis',(0.,0.,1.));
#191=DIRECTION('',(0.,0.,1.));
#192=DIRECTION('',(0.,0.,-1.));
#193=DIRECTION('center_axis',(-0.137568371266975,-0.990492273178823,0.));
#194=DIRECTION('ref_axis',(0.,0.,-1.));
#195=DIRECTION('',(0.,0.,1.));
#196=DIRECTION('center_axis',(-0.157980350378941,-0.987442255979633,0.));
#197=DIRECTION('ref_axis',(0.,0.,-1.));
#198=DIRECTION('',(0.,0.,-1.));
#199=DIRECTION('',(0.,0.,1.));
#200=DIRECTION('center_axis',(0.137751491603051,0.990466822544367,0.));
#201=DIRECTION('ref_axis',(0.,0.,1.));
#202=DIRECTION('',(0.,0.,-1.));
#203=DIRECTION('center_axis',(0.991672556796629,-0.128784859732952,0.));
#204=DIRECTION('ref_axis',(0.,0.,-1.));
#205=DIRECTION('center_axis',(-0.991195637623283,0.132405468001038,0.));
#206=DIRECTION('ref_axis',(0.,0.,1.));
#207=CARTESIAN_POINT('',(0.,0.,0.));
#208=CARTESIAN_POINT('Origin',(-517.6666666666,377.16666665312,1474.9085));
#209=CARTESIAN_POINT('',(-1564.000000006,-3206.500000029,1474.9085));
#210=CARTESIAN_POINT('',(2230.00000000305,-3813.49999998867,1474.9085));
#211=CARTESIAN_POINT('',(-1564.000000006,-3206.500000029,1474.9085));
#212=CARTESIAN_POINT('',(3113.99999999411,2993.4999999826,1474.9085));
#213=CARTESIAN_POINT('',(2230.000000003,-3813.499999989,1474.9085));
#214=CARTESIAN_POINT('',(-2781.99999999927,3813.49999998804,1474.9085));
#215=CARTESIAN_POINT('',(3113.999999994,2993.499999982,1474.9085));
#216=CARTESIAN_POINT('',(-3113.99999999353,1385.49999997494,1474.9085));
#217=CARTESIAN_POINT('',(-2781.999999999,3813.499999989,1474.9085));
#218=CARTESIAN_POINT('',(-989.999999997837,1090.49999999146,1474.9085));
#219=CARTESIAN_POINT('',(-3113.999999994,1385.499999975,1474.9085));
#220=CARTESIAN_POINT('',(-989.9999999979,1090.499999991,1474.9085));
#221=CARTESIAN_POINT('Origin',(-517.6666666666,377.16666665312,-1474.9085));
#222=CARTESIAN_POINT('',(-1564.00000000605,-3206.50000002933,-1474.9085));
#223=CARTESIAN_POINT('',(-989.9999999979,1090.499999991,-1474.9085));
#224=CARTESIAN_POINT('',(-1564.000000006,-3206.500000029,-1474.9085));
#225=CARTESIAN_POINT('',(-3113.99999999406,1385.49999997454,-1474.9085));
#226=CARTESIAN_POINT('',(-989.9999999979,1090.499999991,-1474.9085));
#227=CARTESIAN_POINT('',(-2781.99999999962,3813.49999998899,-1474.9085));
#228=CARTESIAN_POINT('',(-3113.999999994,1385.499999975,-1474.9085));
#229=CARTESIAN_POINT('',(3113.99999999416,2993.49999998309,-1474.9085));
#230=CARTESIAN_POINT('',(-2781.999999999,3813.499999989,-1474.9085));
#231=CARTESIAN_POINT('',(2230.000000003,-3813.499999989,-1474.9085));
#232=CARTESIAN_POINT('',(3113.999999994,2993.499999982,-1474.9085));
#233=CARTESIAN_POINT('',(2230.000000003,-3813.499999989,-1474.9085));
#234=CARTESIAN_POINT('Origin',(-2947.999999997,2599.499999982,0.));
#235=CARTESIAN_POINT('',(-3113.999999994,1385.499999975,-1474.9085));
#236=CARTESIAN_POINT('',(-2781.999999999,3813.499999989,1474.9085));
#237=CARTESIAN_POINT('Origin',(-2051.999999996,1237.999999983,0.));
#238=CARTESIAN_POINT('',(-989.9999999979,1090.499999991,-1474.9085));
#239=CARTESIAN_POINT('Origin',(332.99999999872,-3510.000000009,0.));
#240=CARTESIAN_POINT('',(-1564.000000006,-3206.500000029,1474.9085));
#241=CARTESIAN_POINT('',(2230.000000003,-3813.499999989,-1474.9085));
#242=CARTESIAN_POINT('Origin',(165.99999999744,3403.499999986,0.));
#243=CARTESIAN_POINT('',(3113.999999994,2993.499999982,1474.9085));
#244=CARTESIAN_POINT('Origin',(2671.999999999,-410.0000000034,0.));
#245=CARTESIAN_POINT('Origin',(-1277.000000002,-1058.000000019,0.));
#246=UNCERTAINTY_MEASURE_WITH_UNIT(LENGTH_MEASURE(0.01),#250,
'DISTANCE_ACCURACY_VALUE',
'Maximum model space distance between geometric entities at asserted c
onnectivities');
#247=UNCERTAINTY_MEASURE_WITH_UNIT(LENGTH_MEASURE(0.01),#250,
'DISTANCE_ACCURACY_VALUE',
'Maximum model space distance between geometric entities at asserted c
onnectivities');
#248=(
GEOMETRIC_REPRESENTATION_CONTEXT(3)
GLOBAL_UNCERTAINTY_ASSIGNED_CONTEXT((#246))
GLOBAL_UNIT_ASSIGNED_CONTEXT((#250,#252,#253))
REPRESENTATION_CONTEXT('','3D')
);
#249=(
GEOMETRIC_REPRESENTATION_CONTEXT(3)
GLOBAL_UNCERTAINTY_ASSIGNED_CONTEXT((#247))
GLOBAL_UNIT_ASSIGNED_CONTEXT((#250,#252,#253))
REPRESENTATION_CONTEXT('','3D')
);
#250=(
LENGTH_UNIT()
NAMED_UNIT(*)
SI_UNIT(.MILLI.,.METRE.)
);
#251=(
LENGTH_UNIT()
NAMED_UNIT(*)
SI_UNIT($,.METRE.)
);
#252=(
NAMED_UNIT(*)
PLANE_ANGLE_UNIT()
SI_UNIT($,.RADIAN.)
);
#253=(
NAMED_UNIT(*)
SI_UNIT($,.STERADIAN.)
SOLID_ANGLE_UNIT()
);
#254=SHAPE_DEFINITION_REPRESENTATION(#255,#256);
#255=PRODUCT_DEFINITION_SHAPE('',$,#258);
#256=SHAPE_REPRESENTATION('',(#162),#248);
#257=PRODUCT_DEFINITION_CONTEXT('part definition',#262,'design');
#258=PRODUCT_DEFINITION('Open CASCADE STEP translator 7.7 24',
'(\X2\672A4FDD5B58\X0\)',#259,#257);
#259=PRODUCT_DEFINITION_FORMATION('',$,#264);
#260=PRODUCT_RELATED_PRODUCT_CATEGORY('(\X2\672A4FDD5B58\X0\)',
'(\X2\672A4FDD5B58\X0\)',(#264));
#261=APPLICATION_PROTOCOL_DEFINITION('international standard',
'automotive_design',2009,#262);
#262=APPLICATION_CONTEXT(
'Core Data for Automotive Mechanical Design Process');
#263=PRODUCT_CONTEXT('part definition',#262,'mechanical');
#264=PRODUCT('Open CASCADE STEP translator 7.7 24','(\X2\672A4FDD5B58\X0\)',
'Open CASCADE Model',(#263));
#265=PRESENTATION_STYLE_ASSIGNMENT((#266));
#266=SURFACE_STYLE_USAGE(.BOTH.,#267);
#267=SURFACE_SIDE_STYLE('',(#268));
#268=SURFACE_STYLE_FILL_AREA(#269);
#269=FILL_AREA_STYLE('\X2\94A2\X0\ - \X2\7F0E5149\X0\',(#270));
#270=FILL_AREA_STYLE_COLOUR('\X2\94A2\X0\ - \X2\7F0E5149\X0\',#271);
#271=COLOUR_RGB('\X2\94A2\X0\ - \X2\7F0E5149\X0\',0.627450980392157,0.627450980392157,
0.627450980392157);
ENDSEC;
END-ISO-10303-21;
