# OBJ file generated from STEP using CadQuery
# Vertices: 36
# Faces: 20

v 334.750000 1225.650000 157.123050
v -1051.650000 -433.950000 157.123050
v -100.050000 -1225.650000 157.123050
v 494.050000 -512.150000 157.123050
v 260.250000 -318.350000 157.123050
v 1051.650000 626.350000 157.123050
v -100.050000 -1225.650000 -157.123050
v 494.050000 -512.150000 -157.123050
v 494.050000 -512.150000 157.123050
v -100.050000 -1225.650000 157.123050
v -1051.650000 -433.950000 -157.123050
v -100.050000 -1225.650000 -157.123050
v -100.050000 -1225.650000 157.123050
v -1051.650000 -433.950000 157.123050
v 494.050000 -512.150000 -157.123050
v 260.250000 -318.350000 -157.123050
v 260.250000 -318.350000 157.123050
v 494.050000 -512.150000 157.123050
v 1051.650000 626.350000 -157.123050
v 334.750000 1225.650000 -157.123050
v 334.750000 1225.650000 157.123050
v 1051.650000 626.350000 157.123050
v 334.750000 1225.650000 -157.123050
v -1051.650000 -433.950000 -157.123050
v -1051.650000 -433.950000 157.123050
v 334.750000 1225.650000 157.123050
v -1051.650000 -433.950000 -157.123050
v -100.050000 -1225.650000 -157.123050
v 334.750000 1225.650000 -157.123050
v 1051.650000 626.350000 -157.123050
v 260.250000 -318.350000 -157.123050
v 494.050000 -512.150000 -157.123050
v 1051.650000 626.350000 -157.123050
v 260.250000 -318.350000 -157.123050
v 1051.650000 626.350000 157.123050
v 260.250000 -318.350000 157.123050

f 5 2 3
f 1 2 5
f 4 5 3
f 6 1 5
f 7 8 9
f 10 7 9
f 14 11 12
f 14 12 13
f 18 15 16
f 18 16 17
f 19 20 21
f 22 19 21
f 23 24 25
f 26 23 25
f 31 28 27
f 32 28 31
f 29 31 27
f 30 31 29
f 36 34 33
f 36 33 35
