ISO-10303-21;
HEADER;
/* Generated by software containing ST-Developer
 * from STEP Tools, Inc. (www.steptools.com) 
 */

FILE_DESCRIPTION(
/* description */ ('Open CASCADE Model'),
/* implementation_level */ '2;1');

FILE_NAME(
/* name */ '22.step',
/* time_stamp */ '2025-12-23T14:07:35+08:00',
/* author */ (''),
/* organization */ (''),
/* preprocessor_version */ 'ST-DEVELOPER v20.1',
/* originating_system */ 'Autodesk Translation Framework v14.21.0.0',
/* authorisation */ '');

FILE_SCHEMA (('AUTOMOTIVE_DESIGN { 1 0 10303 214 3 1 1 }'));
ENDSEC;

DATA;
#10=MECHANICAL_DESIGN_GEOMETRIC_PRESENTATION_REPRESENTATION('',(#13),#249);
#11=SHAPE_REPRESENTATION_RELATIONSHIP('SRR','None',#256,#12);
#12=ADVANCED_BREP_SHAPE_REPRESENTATION('',(#14),#248);
#13=STYLED_ITEM('',(#265),#14);
#14=MANIFOLD_SOLID_BREP('\X2\5B9E4F53\X0\1',#149);
#15=FACE_OUTER_BOUND('',#23,.T.);
#16=FACE_OUTER_BOUND('',#24,.T.);
#17=FACE_OUTER_BOUND('',#25,.T.);
#18=FACE_OUTER_BOUND('',#26,.T.);
#19=FACE_OUTER_BOUND('',#27,.T.);
#20=FACE_OUTER_BOUND('',#28,.T.);
#21=FACE_OUTER_BOUND('',#29,.T.);
#22=FACE_OUTER_BOUND('',#30,.T.);
#23=EDGE_LOOP('',(#97,#98,#99,#100,#101,#102));
#24=EDGE_LOOP('',(#103,#104,#105,#106));
#25=EDGE_LOOP('',(#107,#108,#109,#110));
#26=EDGE_LOOP('',(#111,#112,#113,#114));
#27=EDGE_LOOP('',(#115,#116,#117,#118));
#28=EDGE_LOOP('',(#119,#120,#121,#122));
#29=EDGE_LOOP('',(#123,#124,#125,#126,#127,#128));
#30=EDGE_LOOP('',(#129,#130,#131,#132));
#31=LINE('',#211,#49);
#32=LINE('',#213,#50);
#33=LINE('',#215,#51);
#34=LINE('',#217,#52);
#35=LINE('',#219,#53);
#36=LINE('',#220,#54);
#37=LINE('',#224,#55);
#38=LINE('',#225,#56);
#39=LINE('',#226,#57);
#40=LINE('',#229,#58);
#41=LINE('',#230,#59);
#42=LINE('',#233,#60);
#43=LINE('',#234,#61);
#44=LINE('',#238,#62);
#45=LINE('',#239,#63);
#46=LINE('',#240,#64);
#47=LINE('',#242,#65);
#48=LINE('',#244,#66);
#49=VECTOR('',#175,1.00000000000017);
#50=VECTOR('',#176,0.999999999999995);
#51=VECTOR('',#177,0.999999999999715);
#52=VECTOR('',#178,1.00000000000001);
#53=VECTOR('',#179,0.999999999999733);
#54=VECTOR('',#180,0.999999999999904);
#55=VECTOR('',#183,0.999999999999715);
#56=VECTOR('',#184,1.);
#57=VECTOR('',#185,1.);
#58=VECTOR('',#188,0.999999999999995);
#59=VECTOR('',#189,1.);
#60=VECTOR('',#192,1.00000000000001);
#61=VECTOR('',#193,1.);
#62=VECTOR('',#196,0.999999999999904);
#63=VECTOR('',#197,1.);
#64=VECTOR('',#198,1.);
#65=VECTOR('',#201,1.00000000000017);
#66=VECTOR('',#204,0.999999999999733);
#67=VERTEX_POINT('',#209);
#68=VERTEX_POINT('',#210);
#69=VERTEX_POINT('',#212);
#70=VERTEX_POINT('',#214);
#71=VERTEX_POINT('',#216);
#72=VERTEX_POINT('',#218);
#73=VERTEX_POINT('',#222);
#74=VERTEX_POINT('',#223);
#75=VERTEX_POINT('',#228);
#76=VERTEX_POINT('',#232);
#77=VERTEX_POINT('',#236);
#78=VERTEX_POINT('',#237);
#79=EDGE_CURVE('',#67,#68,#31,.T.);
#80=EDGE_CURVE('',#68,#69,#32,.T.);
#81=EDGE_CURVE('',#69,#70,#33,.T.);
#82=EDGE_CURVE('',#70,#71,#34,.T.);
#83=EDGE_CURVE('',#71,#72,#35,.T.);
#84=EDGE_CURVE('',#72,#67,#36,.T.);
#85=EDGE_CURVE('',#73,#74,#37,.T.);
#86=EDGE_CURVE('',#74,#70,#38,.T.);
#87=EDGE_CURVE('',#69,#73,#39,.T.);
#88=EDGE_CURVE('',#75,#73,#40,.T.);
#89=EDGE_CURVE('',#68,#75,#41,.T.);
#90=EDGE_CURVE('',#74,#76,#42,.T.);
#91=EDGE_CURVE('',#76,#71,#43,.T.);
#92=EDGE_CURVE('',#77,#78,#44,.T.);
#93=EDGE_CURVE('',#78,#67,#45,.T.);
#94=EDGE_CURVE('',#72,#77,#46,.T.);
#95=EDGE_CURVE('',#78,#75,#47,.T.);
#96=EDGE_CURVE('',#77,#76,#48,.T.);
#97=ORIENTED_EDGE('',*,*,#79,.T.);
#98=ORIENTED_EDGE('',*,*,#80,.T.);
#99=ORIENTED_EDGE('',*,*,#81,.T.);
#100=ORIENTED_EDGE('',*,*,#82,.T.);
#101=ORIENTED_EDGE('',*,*,#83,.T.);
#102=ORIENTED_EDGE('',*,*,#84,.T.);
#103=ORIENTED_EDGE('',*,*,#85,.T.);
#104=ORIENTED_EDGE('',*,*,#86,.T.);
#105=ORIENTED_EDGE('',*,*,#81,.F.);
#106=ORIENTED_EDGE('',*,*,#87,.T.);
#107=ORIENTED_EDGE('',*,*,#88,.T.);
#108=ORIENTED_EDGE('',*,*,#87,.F.);
#109=ORIENTED_EDGE('',*,*,#80,.F.);
#110=ORIENTED_EDGE('',*,*,#89,.T.);
#111=ORIENTED_EDGE('',*,*,#90,.T.);
#112=ORIENTED_EDGE('',*,*,#91,.T.);
#113=ORIENTED_EDGE('',*,*,#82,.F.);
#114=ORIENTED_EDGE('',*,*,#86,.F.);
#115=ORIENTED_EDGE('',*,*,#92,.T.);
#116=ORIENTED_EDGE('',*,*,#93,.T.);
#117=ORIENTED_EDGE('',*,*,#84,.F.);
#118=ORIENTED_EDGE('',*,*,#94,.T.);
#119=ORIENTED_EDGE('',*,*,#95,.T.);
#120=ORIENTED_EDGE('',*,*,#89,.F.);
#121=ORIENTED_EDGE('',*,*,#79,.F.);
#122=ORIENTED_EDGE('',*,*,#93,.F.);
#123=ORIENTED_EDGE('',*,*,#88,.F.);
#124=ORIENTED_EDGE('',*,*,#95,.F.);
#125=ORIENTED_EDGE('',*,*,#92,.F.);
#126=ORIENTED_EDGE('',*,*,#96,.T.);
#127=ORIENTED_EDGE('',*,*,#90,.F.);
#128=ORIENTED_EDGE('',*,*,#85,.F.);
#129=ORIENTED_EDGE('',*,*,#96,.F.);
#130=ORIENTED_EDGE('',*,*,#94,.F.);
#131=ORIENTED_EDGE('',*,*,#83,.F.);
#132=ORIENTED_EDGE('',*,*,#91,.F.);
#133=PLANE('',#163);
#134=PLANE('',#164);
#135=PLANE('',#165);
#136=PLANE('',#166);
#137=PLANE('',#167);
#138=PLANE('',#168);
#139=PLANE('',#169);
#140=PLANE('',#170);
#141=ADVANCED_FACE('',(#15),#133,.T.);
#142=ADVANCED_FACE('',(#16),#134,.T.);
#143=ADVANCED_FACE('',(#17),#135,.T.);
#144=ADVANCED_FACE('',(#18),#136,.T.);
#145=ADVANCED_FACE('',(#19),#137,.T.);
#146=ADVANCED_FACE('',(#20),#138,.T.);
#147=ADVANCED_FACE('',(#21),#139,.T.);
#148=ADVANCED_FACE('',(#22),#140,.T.);
#149=CLOSED_SHELL('',(#141,#142,#143,#144,#145,#146,#147,#148));
#150=DERIVED_UNIT_ELEMENT(#152,1.);
#151=DERIVED_UNIT_ELEMENT(#251,-3.);
#152=(
MASS_UNIT()
NAMED_UNIT(*)
SI_UNIT(.KILO.,.GRAM.)
);
#153=DERIVED_UNIT((#150,#151));
#154=MEASURE_REPRESENTATION_ITEM('density measure',
POSITIVE_RATIO_MEASURE(7850.),#153);
#155=PROPERTY_DEFINITION_REPRESENTATION(#160,#157);
#156=PROPERTY_DEFINITION_REPRESENTATION(#161,#158);
#157=REPRESENTATION('material name',(#159),#248);
#158=REPRESENTATION('density',(#154),#248);
#159=DESCRIPTIVE_REPRESENTATION_ITEM('\X2\94A2\X0\','\X2\94A2\X0\');
#160=PROPERTY_DEFINITION('material property','material name',#258);
#161=PROPERTY_DEFINITION('material property','density of part',#258);
#162=AXIS2_PLACEMENT_3D('',#207,#171,#172);
#163=AXIS2_PLACEMENT_3D('',#208,#173,#174);
#164=AXIS2_PLACEMENT_3D('',#221,#181,#182);
#165=AXIS2_PLACEMENT_3D('',#227,#186,#187);
#166=AXIS2_PLACEMENT_3D('',#231,#190,#191);
#167=AXIS2_PLACEMENT_3D('',#235,#194,#195);
#168=AXIS2_PLACEMENT_3D('',#241,#199,#200);
#169=AXIS2_PLACEMENT_3D('',#243,#202,#203);
#170=AXIS2_PLACEMENT_3D('',#245,#205,#206);
#171=DIRECTION('axis',(0.,0.,1.));
#172=DIRECTION('refdir',(1.,0.,0.));
#173=DIRECTION('center_axis',(1.544963110372E-17,0.,1.));
#174=DIRECTION('ref_axis',(0.767447476978868,-0.64111182338089,-1.18567804108042E-17));
#175=DIRECTION('',(-0.64111182338089,-0.767447476978868,0.));
#176=DIRECTION('',(0.768737515420004,-0.639564408317003,0.));
#177=DIRECTION('',(0.639877123549182,0.768477238933219,0.));
#178=DIRECTION('',(-0.769892122172994,0.638174051662995,0.));
#179=DIRECTION('',(0.642169607986171,0.766562583602205,0.));
#180=DIRECTION('',(-0.767229104348074,0.641373137449062,0.));
#181=DIRECTION('center_axis',(0.768477238933219,-0.639877123549182,0.));
#182=DIRECTION('ref_axis',(0.,0.,1.));
#183=DIRECTION('',(0.639877123549182,0.768477238933219,0.));
#184=DIRECTION('',(0.,0.,1.));
#185=DIRECTION('',(0.,0.,-1.));
#186=DIRECTION('center_axis',(-0.639564408317003,-0.768737515420004,0.));
#187=DIRECTION('ref_axis',(0.,0.,1.));
#188=DIRECTION('',(0.768737515420004,-0.639564408317003,0.));
#189=DIRECTION('',(0.,0.,-1.));
#190=DIRECTION('center_axis',(0.638174051662995,0.769892122172994,0.));
#191=DIRECTION('ref_axis',(0.,0.,1.));
#192=DIRECTION('',(-0.769892122172994,0.638174051662995,0.));
#193=DIRECTION('',(0.,0.,1.));
#194=DIRECTION('center_axis',(0.641373137449062,0.767229104348074,0.));
#195=DIRECTION('ref_axis',(0.,0.,1.));
#196=DIRECTION('',(-0.767229104348074,0.641373137449062,0.));
#197=DIRECTION('',(0.,0.,1.));
#198=DIRECTION('',(0.,0.,-1.));
#199=DIRECTION('center_axis',(-0.767447476978868,0.64111182338089,0.));
#200=DIRECTION('ref_axis',(0.,0.,1.));
#201=DIRECTION('',(-0.64111182338089,-0.767447476978868,0.));
#202=DIRECTION('center_axis',(6.179852441488E-17,0.,-1.));
#203=DIRECTION('ref_axis',(0.639564408317004,0.768737515420004,3.95241367022666E-17));
#204=DIRECTION('',(-0.642169607986171,-0.766562583602205,0.));
#205=DIRECTION('center_axis',(0.766562583602205,-0.642169607986171,0.));
#206=DIRECTION('ref_axis',(0.,0.,1.));
#207=CARTESIAN_POINT('',(0.,0.,0.));
#208=CARTESIAN_POINT('Origin',(1648.333333333,-1063.500000018,1571.2305));
#209=CARTESIAN_POINT('',(3347.50000000348,12256.499999989,1571.2305));
#210=CARTESIAN_POINT('',(-10516.5000000016,-4339.50000002963,1571.2305));
#211=CARTESIAN_POINT('',(3347.500000004,12256.49999999,1571.2305));
#212=CARTESIAN_POINT('',(-1000.49999999435,-12256.4999999898,1571.2305));
#213=CARTESIAN_POINT('',(-10516.5,-4339.500000031,1571.2305));
#214=CARTESIAN_POINT('',(4940.49999999606,-5121.50000003639,1571.2305));
#215=CARTESIAN_POINT('',(-1000.499999995,-12256.49999999,1571.2305));
#216=CARTESIAN_POINT('',(2602.49999999397,-3183.50000001356,1571.2305));
#217=CARTESIAN_POINT('',(4940.499999997,-5121.500000037,1571.2305));
#218=CARTESIAN_POINT('',(10516.5000000014,6263.49999997084,1571.2305));
#219=CARTESIAN_POINT('',(2602.499999994,-3183.500000014,1571.2305));
#220=CARTESIAN_POINT('',(10516.5,6263.499999972,1571.2305));
#221=CARTESIAN_POINT('Origin',(1970.000000001,-8689.000000013,4.547473508865E-13));
#222=CARTESIAN_POINT('',(-1000.49999999435,-12256.4999999898,-1571.2305));
#223=CARTESIAN_POINT('',(4940.49999999606,-5121.50000003639,-1571.2305));
#224=CARTESIAN_POINT('',(-1000.499999995,-12256.49999999,-1571.2305));
#225=CARTESIAN_POINT('',(4940.499999997,-5121.500000037,-1571.2305));
#226=CARTESIAN_POINT('',(-1000.499999995,-12256.49999999,1571.2305));
#227=CARTESIAN_POINT('Origin',(-5758.499999996,-8298.00000001,4.547473508865E-13));
#228=CARTESIAN_POINT('',(-10516.5000000016,-4339.50000002963,-1571.2305));
#229=CARTESIAN_POINT('',(-10516.5,-4339.500000031,-1571.2305));
#230=CARTESIAN_POINT('',(-10516.5,-4339.500000031,1571.2305));
#231=CARTESIAN_POINT('Origin',(3771.499999995,-4152.500000026,4.547473508865E-13));
#232=CARTESIAN_POINT('',(2602.49999999297,-3183.50000001272,-1571.2305));
#233=CARTESIAN_POINT('',(4940.499999997,-5121.500000037,-1571.2305));
#234=CARTESIAN_POINT('',(2602.499999994,-3183.500000014,-1571.2305));
#235=CARTESIAN_POINT('Origin',(6932.000000001,9259.99999998,4.547473508865E-13));
#236=CARTESIAN_POINT('',(10516.5000000002,6263.49999997165,-1571.2305));
#237=CARTESIAN_POINT('',(3347.50000000348,12256.499999989,-1571.2305));
#238=CARTESIAN_POINT('',(10516.5,6263.499999972,-1571.2305));
#239=CARTESIAN_POINT('',(3347.500000004,12256.49999999,-1571.2305));
#240=CARTESIAN_POINT('',(10516.5,6263.499999972,1571.2305));
#241=CARTESIAN_POINT('Origin',(-3584.499999997,3958.499999979,4.547473508865E-13));
#242=CARTESIAN_POINT('',(3347.500000004,12256.49999999,-1571.2305));
#243=CARTESIAN_POINT('Origin',(1648.333333333,-1063.500000018,-1571.2305));
#244=CARTESIAN_POINT('',(10516.5,6263.499999972,-1571.2305));
#245=CARTESIAN_POINT('Origin',(6559.499999996,1539.999999979,4.547473508865E-13));
#246=UNCERTAINTY_MEASURE_WITH_UNIT(LENGTH_MEASURE(0.01),#250,
'DISTANCE_ACCURACY_VALUE',
'Maximum model space distance between geometric entities at asserted c
onnectivities');
#247=UNCERTAINTY_MEASURE_WITH_UNIT(LENGTH_MEASURE(0.01),#250,
'DISTANCE_ACCURACY_VALUE',
'Maximum model space distance between geometric entities at asserted c
onnectivities');
#248=(
GEOMETRIC_REPRESENTATION_CONTEXT(3)
GLOBAL_UNCERTAINTY_ASSIGNED_CONTEXT((#246))
GLOBAL_UNIT_ASSIGNED_CONTEXT((#250,#252,#253))
REPRESENTATION_CONTEXT('','3D')
);
#249=(
GEOMETRIC_REPRESENTATION_CONTEXT(3)
GLOBAL_UNCERTAINTY_ASSIGNED_CONTEXT((#247))
GLOBAL_UNIT_ASSIGNED_CONTEXT((#250,#252,#253))
REPRESENTATION_CONTEXT('','3D')
);
#250=(
LENGTH_UNIT()
NAMED_UNIT(*)
SI_UNIT(.MILLI.,.METRE.)
);
#251=(
LENGTH_UNIT()
NAMED_UNIT(*)
SI_UNIT($,.METRE.)
);
#252=(
NAMED_UNIT(*)
PLANE_ANGLE_UNIT()
SI_UNIT($,.RADIAN.)
);
#253=(
NAMED_UNIT(*)
SI_UNIT($,.STERADIAN.)
SOLID_ANGLE_UNIT()
);
#254=SHAPE_DEFINITION_REPRESENTATION(#255,#256);
#255=PRODUCT_DEFINITION_SHAPE('',$,#258);
#256=SHAPE_REPRESENTATION('',(#162),#248);
#257=PRODUCT_DEFINITION_CONTEXT('part definition',#262,'design');
#258=PRODUCT_DEFINITION('Open CASCADE STEP translator 7.7 25',
'(\X2\672A4FDD5B58\X0\)',#259,#257);
#259=PRODUCT_DEFINITION_FORMATION('',$,#264);
#260=PRODUCT_RELATED_PRODUCT_CATEGORY('(\X2\672A4FDD5B58\X0\)',
'(\X2\672A4FDD5B58\X0\)',(#264));
#261=APPLICATION_PROTOCOL_DEFINITION('international standard',
'automotive_design',2009,#262);
#262=APPLICATION_CONTEXT(
'Core Data for Automotive Mechanical Design Process');
#263=PRODUCT_CONTEXT('part definition',#262,'mechanical');
#264=PRODUCT('Open CASCADE STEP translator 7.7 25','(\X2\672A4FDD5B58\X0\)',
'Open CASCADE Model',(#263));
#265=PRESENTATION_STYLE_ASSIGNMENT((#266));
#266=SURFACE_STYLE_USAGE(.BOTH.,#267);
#267=SURFACE_SIDE_STYLE('',(#268));
#268=SURFACE_STYLE_FILL_AREA(#269);
#269=FILL_AREA_STYLE('\X2\94A2\X0\ - \X2\7F0E5149\X0\',(#270));
#270=FILL_AREA_STYLE_COLOUR('\X2\94A2\X0\ - \X2\7F0E5149\X0\',#271);
#271=COLOUR_RGB('\X2\94A2\X0\ - \X2\7F0E5149\X0\',0.627450980392157,0.627450980392157,
0.627450980392157);
ENDSEC;
END-ISO-10303-21;
