# OBJ file generated from STEP using CadQuery
# Vertices: 48
# Faces: 28

v -0.562239 -0.400750 0.242987
v 0.365896 -0.400750 0.242987
v 0.365896 -0.400750 -0.242987
v -0.562239 -0.400750 -0.242987
v 0.365896 -0.400750 0.242987
v 0.365896 -0.133583 0.242987
v 0.365896 -0.133583 -0.242987
v 0.365896 -0.400750 -0.242987
v 0.365896 -0.133583 0.242987
v 0.562239 -0.133583 0.242987
v 0.562239 -0.133583 -0.242987
v 0.365896 -0.133583 -0.242987
v 0.562239 -0.133583 0.242987
v 0.562239 0.133583 0.242987
v 0.562239 0.133583 -0.242987
v 0.562239 -0.133583 -0.242987
v 0.562239 0.133583 0.242987
v 0.365896 0.133583 0.242987
v 0.365896 0.133583 -0.242987
v 0.562239 0.133583 -0.242987
v 0.365896 0.133583 0.242987
v 0.365896 0.400750 0.242987
v 0.365896 0.400750 -0.242987
v 0.365896 0.133583 -0.242987
v 0.365896 0.400750 0.242987
v -0.562239 0.400750 0.242987
v -0.562239 0.400750 -0.242987
v 0.365896 0.400750 -0.242987
v -0.562239 0.400750 0.242987
v -0.562239 -0.400750 0.242987
v -0.562239 -0.400750 -0.242987
v -0.562239 0.400750 -0.242987
v 0.365896 -0.400750 -0.242987
v 0.365896 -0.133583 -0.242987
v 0.562239 -0.133583 -0.242987
v 0.562239 0.133583 -0.242987
v 0.365896 0.133583 -0.242987
v 0.365896 0.400750 -0.242987
v -0.562239 0.400750 -0.242987
v -0.562239 -0.400750 -0.242987
v -0.562239 -0.400750 0.242987
v 0.365896 -0.400750 0.242987
v 0.365896 -0.133583 0.242987
v 0.562239 -0.133583 0.242987
v 0.562239 0.133583 0.242987
v 0.365896 0.133583 0.242987
v 0.365896 0.400750 0.242987
v -0.562239 0.400750 0.242987

f 3 2 1
f 3 1 4
f 7 6 5
f 7 5 8
f 11 10 9
f 11 9 12
f 15 14 13
f 15 13 16
f 19 18 17
f 19 17 20
f 23 22 21
f 23 21 24
f 27 26 25
f 27 25 28
f 31 30 29
f 31 29 32
f 34 40 39
f 34 33 40
f 37 34 39
f 36 35 34
f 36 34 37
f 38 37 39
f 43 41 42
f 43 48 41
f 46 48 43
f 45 43 44
f 45 46 43
f 47 48 46
