# OBJ file generated from STEP using CadQuery
# Vertices: 228
# Faces: 148

v 1119.500000 -708.100000 -356.123050
v 1214.200000 -665.300000 -356.123050
v 1214.200000 -665.300000 356.123050
v 1119.500000 -708.100000 356.123050
v -1214.200000 505.300000 -356.123050
v -1136.300000 332.800000 -356.123050
v -1136.300000 332.800000 356.123050
v -1214.200000 505.300000 356.123050
v -1136.300000 332.800000 -356.123050
v -1115.700000 342.400000 -356.123050
v -1115.700000 342.400000 356.123050
v -1136.300000 332.800000 356.123050
v -1115.700000 342.400000 -356.123050
v -845.000000 -239.400000 -356.123050
v -845.000000 -239.400000 356.123050
v -1115.700000 342.400000 356.123050
v -845.000000 -239.400000 -356.123050
v -440.000000 -53.300000 -356.123050
v -440.000000 -53.300000 356.123050
v -845.000000 -239.400000 356.123050
v -440.000000 -53.300000 -356.123050
v -390.900000 -157.400000 -356.123050
v -390.900000 -157.400000 356.123050
v -440.000000 -53.300000 356.123050
v -390.900000 -157.400000 -356.123050
v -339.200000 -134.800000 -356.123050
v -339.200000 -134.800000 356.123050
v -390.900000 -157.400000 356.123050
v -200.300000 -437.400000 -356.123050
v -158.500000 -418.200000 -356.123050
v -158.500000 -418.200000 356.123050
v -200.300000 -437.400000 356.123050
v -218.600000 -287.300000 -356.123050
v 358.900000 -19.700000 -356.123050
v 358.900000 -19.700000 356.123050
v -218.600000 -287.300000 356.123050
v 358.900000 -19.700000 -356.123050
v 513.900000 -354.000000 -356.123050
v 513.900000 -354.000000 356.123050
v 358.900000 -19.700000 356.123050
v 516.700000 -500.700000 -356.123050
v 438.600000 -536.800000 -356.123050
v 438.600000 -536.800000 356.123050
v 516.700000 -500.700000 356.123050
v 461.100000 -377.900000 -356.123050
v 516.700000 -500.700000 -356.123050
v 516.700000 -500.700000 356.123050
v 461.100000 -377.900000 356.123050
v 438.600000 -536.800000 -356.123050
v 458.000000 -578.600000 -356.123050
v 458.000000 -578.600000 356.123050
v 438.600000 -536.800000 356.123050
v 590.100000 -517.400000 -356.123050
v 635.000000 -617.300000 -356.123050
v 635.000000 -617.300000 356.123050
v 590.100000 -517.400000 356.123050
v 623.200000 -622.700000 -356.123050
v 740.900000 -880.500000 -356.123050
v 740.900000 -880.500000 356.123050
v 623.200000 -622.700000 356.123050
v 801.100000 -761.800000 -356.123050
v 964.100000 -687.500000 -356.123050
v 964.100000 -687.500000 356.123050
v 801.100000 -761.800000 356.123050
v 740.900000 -880.500000 -356.123050
v 835.500000 -837.300000 -356.123050
v 835.500000 -837.300000 356.123050
v 740.900000 -880.500000 356.123050
v 1022.700000 -683.100000 -356.123050
v 1093.600000 -650.700000 -356.123050
v 1093.600000 -650.700000 356.123050
v 1022.700000 -683.100000 356.123050
v 972.300000 -705.700000 -356.123050
v 1022.700000 -683.100000 -356.123050
v 1022.700000 -683.100000 356.123050
v 972.300000 -705.700000 356.123050
v 1093.600000 -650.700000 -356.123050
v 1119.500000 -708.100000 -356.123050
v 1119.500000 -708.100000 356.123050
v 1093.600000 -650.700000 356.123050
v 601.500000 682.200000 -356.123050
v 351.000000 565.700000 -356.123050
v 351.000000 565.700000 356.123050
v 601.500000 682.200000 356.123050
v -1214.200000 505.300000 -356.123050
v -1136.300000 332.800000 -356.123050
v -379.300000 880.500000 -356.123050
v -322.800000 754.900000 -356.123050
v -339.900000 747.200000 -356.123050
v -269.000000 589.500000 -356.123050
v -139.400000 647.600000 -356.123050
v -122.700000 611.300000 -356.123050
v 251.900000 778.700000 -356.123050
v 351.000000 565.700000 -356.123050
v 601.500000 682.200000 -356.123050
v 1214.200000 -665.300000 -356.123050
v 1119.500000 -708.100000 -356.123050
v 1093.600000 -650.700000 -356.123050
v 1022.700000 -683.100000 -356.123050
v 972.300000 -705.700000 -356.123050
v 964.100000 -687.500000 -356.123050
v 801.100000 -761.800000 -356.123050
v 835.500000 -837.300000 -356.123050
v 740.900000 -880.500000 -356.123050
v 623.200000 -622.700000 -356.123050
v 635.000000 -617.300000 -356.123050
v 590.100000 -517.400000 -356.123050
v 458.000000 -578.600000 -356.123050
v 438.600000 -536.800000 -356.123050
v 516.700000 -500.700000 -356.123050
v 461.100000 -377.900000 -356.123050
v 513.900000 -354.000000 -356.123050
v 358.900000 -19.700000 -356.123050
v -218.600000 -287.300000 -356.123050
v -158.500000 -418.200000 -356.123050
v -200.300000 -437.400000 -356.123050
v -216.900000 -401.100000 -356.123050
v -339.200000 -134.800000 -356.123050
v -390.900000 -157.400000 -356.123050
v -440.000000 -53.300000 -356.123050
v -845.000000 -239.400000 -356.123050
v -1115.700000 342.400000 -356.123050
v 251.900000 778.700000 -356.123050
v 351.000000 565.700000 -356.123050
v 251.900000 778.700000 356.123050
v 351.000000 565.700000 356.123050
v -122.700000 611.300000 -356.123050
v 251.900000 778.700000 -356.123050
v -122.700000 611.300000 356.123050
v 251.900000 778.700000 356.123050
v -269.000000 589.500000 -356.123050
v -139.400000 647.600000 -356.123050
v -269.000000 589.500000 356.123050
v -139.400000 647.600000 356.123050
v -322.800000 754.900000 -356.123050
v -339.900000 747.200000 -356.123050
v -322.800000 754.900000 356.123050
v -339.900000 747.200000 356.123050
v -1214.200000 505.300000 -356.123050
v -379.300000 880.500000 -356.123050
v -1214.200000 505.300000 356.123050
v -379.300000 880.500000 356.123050
v 801.100000 -761.800000 -356.123050
v 835.500000 -837.300000 -356.123050
v 801.100000 -761.800000 356.123050
v 835.500000 -837.300000 356.123050
v 972.300000 -705.700000 -356.123050
v 964.100000 -687.500000 -356.123050
v 972.300000 -705.700000 356.123050
v 964.100000 -687.500000 356.123050
v -339.900000 747.200000 -356.123050
v -269.000000 589.500000 -356.123050
v -339.900000 747.200000 356.123050
v -269.000000 589.500000 356.123050
v -379.300000 880.500000 -356.123050
v -322.800000 754.900000 -356.123050
v -379.300000 880.500000 356.123050
v -322.800000 754.900000 356.123050
v -139.400000 647.600000 -356.123050
v -122.700000 611.300000 -356.123050
v -139.400000 647.600000 356.123050
v -122.700000 611.300000 356.123050
v -200.300000 -437.400000 -356.123050
v -216.900000 -401.100000 -356.123050
v -200.300000 -437.400000 356.123050
v -216.900000 -401.100000 356.123050
v -216.900000 -401.100000 -356.123050
v -339.200000 -134.800000 -356.123050
v -216.900000 -401.100000 356.123050
v -339.200000 -134.800000 356.123050
v -218.600000 -287.300000 -356.123050
v -158.500000 -418.200000 -356.123050
v -218.600000 -287.300000 356.123050
v -158.500000 -418.200000 356.123050
v 601.500000 682.200000 -356.123050
v 1214.200000 -665.300000 -356.123050
v 601.500000 682.200000 356.123050
v 1214.200000 -665.300000 356.123050
v 461.100000 -377.900000 -356.123050
v 513.900000 -354.000000 -356.123050
v 461.100000 -377.900000 356.123050
v 513.900000 -354.000000 356.123050
v 590.100000 -517.400000 -356.123050
v 458.000000 -578.600000 -356.123050
v 590.100000 -517.400000 356.123050
v 458.000000 -578.600000 356.123050
v 623.200000 -622.700000 -356.123050
v 635.000000 -617.300000 -356.123050
v 623.200000 -622.700000 356.123050
v 635.000000 -617.300000 356.123050
v 438.600000 -536.800000 356.123050
v 516.700000 -500.700000 356.123050
v 458.000000 -578.600000 356.123050
v 590.100000 -517.400000 356.123050
v 635.000000 -617.300000 356.123050
v 623.200000 -622.700000 356.123050
v 740.900000 -880.500000 356.123050
v 835.500000 -837.300000 356.123050
v 801.100000 -761.800000 356.123050
v 964.100000 -687.500000 356.123050
v 972.300000 -705.700000 356.123050
v 1022.700000 -683.100000 356.123050
v 1093.600000 -650.700000 356.123050
v 1119.500000 -708.100000 356.123050
v 1214.200000 -665.300000 356.123050
v 601.500000 682.200000 356.123050
v 351.000000 565.700000 356.123050
v 251.900000 778.700000 356.123050
v -122.700000 611.300000 356.123050
v -139.400000 647.600000 356.123050
v -269.000000 589.500000 356.123050
v -339.900000 747.200000 356.123050
v -322.800000 754.900000 356.123050
v -379.300000 880.500000 356.123050
v -1214.200000 505.300000 356.123050
v -1136.300000 332.800000 356.123050
v -1115.700000 342.400000 356.123050
v -845.000000 -239.400000 356.123050
v -440.000000 -53.300000 356.123050
v -390.900000 -157.400000 356.123050
v -339.200000 -134.800000 356.123050
v -216.900000 -401.100000 356.123050
v -200.300000 -437.400000 356.123050
v -158.500000 -418.200000 356.123050
v -218.600000 -287.300000 356.123050
v 358.900000 -19.700000 356.123050
v 513.900000 -354.000000 356.123050
v 461.100000 -377.900000 356.123050

f 4 1 2
f 4 2 3
f 7 5 6
f 8 5 7
f 12 9 10
f 12 10 11
f 16 13 14
f 16 14 15
f 20 17 18
f 20 18 19
f 24 21 22
f 24 22 23
f 28 25 26
f 28 26 27
f 32 29 30
f 32 30 31
f 35 33 34
f 36 33 35
f 40 37 38
f 40 38 39
f 43 41 42
f 44 41 43
f 48 45 46
f 48 46 47
f 51 49 50
f 52 49 51
f 56 53 54
f 56 54 55
f 59 57 58
f 60 57 59
f 64 61 62
f 64 62 63
f 68 65 66
f 68 66 67
f 72 69 70
f 72 70 71
f 76 73 74
f 76 74 75
f 79 77 78
f 80 77 79
f 83 81 82
f 84 81 83
f 122 86 85
f 89 85 87
f 89 122 85
f 88 89 87
f 90 122 89
f 120 121 122
f 120 122 90
f 92 90 91
f 118 119 120
f 118 120 90
f 118 90 92
f 115 116 117
f 115 117 114
f 94 92 93
f 113 94 95
f 113 92 94
f 113 114 118
f 113 118 92
f 112 113 95
f 110 108 109
f 110 111 112
f 107 110 112
f 107 108 110
f 102 104 105
f 102 105 106
f 103 104 102
f 101 106 107
f 101 102 106
f 99 100 101
f 98 99 101
f 98 101 107
f 98 112 95
f 98 107 112
f 96 98 95
f 96 97 98
f 117 118 114
f 126 124 123
f 126 123 125
f 129 128 127
f 130 128 129
f 134 132 131
f 134 131 133
f 137 136 135
f 138 136 137
f 140 139 141
f 142 140 141
f 146 144 143
f 146 143 145
f 150 148 147
f 150 147 149
f 154 152 151
f 154 151 153
f 158 156 155
f 158 155 157
f 162 160 159
f 162 159 161
f 166 164 163
f 166 163 165
f 170 168 167
f 170 167 169
f 174 172 171
f 174 171 173
f 176 175 177
f 178 176 177
f 182 180 179
f 182 179 181
f 185 184 183
f 186 184 185
f 190 188 187
f 190 187 189
f 217 215 216
f 212 214 215
f 212 215 217
f 213 214 212
f 211 212 217
f 219 217 218
f 219 211 217
f 209 210 211
f 221 219 220
f 221 211 219
f 221 209 211
f 224 222 223
f 224 225 222
f 207 208 209
f 226 206 207
f 226 221 225
f 226 209 221
f 226 207 209
f 227 206 226
f 192 191 193
f 192 227 228
f 194 227 192
f 194 192 193
f 199 195 196
f 199 196 197
f 198 199 197
f 200 195 199
f 200 194 195
f 202 200 201
f 203 194 200
f 203 200 202
f 203 206 227
f 203 227 194
f 205 206 203
f 205 203 204
f 221 222 225
