ISO-10303-21;
HEADER;
/* Generated by software containing ST-Developer
 * from STEP Tools, Inc. (www.steptools.com) 
 */

FILE_DESCRIPTION(
/* description */ ('Open CASCADE Model'),
/* implementation_level */ '2;1');

FILE_NAME(
/* name */ '24.step',
/* time_stamp */ '2025-12-23T14:08:05+08:00',
/* author */ (''),
/* organization */ (''),
/* preprocessor_version */ 'ST-DEVELOPER v20.1',
/* originating_system */ 'Autodesk Translation Framework v14.21.0.0',
/* authorisation */ '');

FILE_SCHEMA (('AUTOMOTIVE_DESIGN { 1 0 10303 214 3 1 1 }'));
ENDSEC;

DATA;
#10=MECHANICAL_DESIGN_GEOMETRIC_PRESENTATION_REPRESENTATION('',(#13),#1305);
#11=SHAPE_REPRESENTATION_RELATIONSHIP('SRR','None',#1312,#12);
#12=ADVANCED_BREP_SHAPE_REPRESENTATION('',(#14),#1304);
#13=STYLED_ITEM('',(#1321),#14);
#14=MANIFOLD_SOLID_BREP('\X2\5B9E4F53\X0\1',#821);
#15=FACE_OUTER_BOUND('',#55,.T.);
#16=FACE_OUTER_BOUND('',#56,.T.);
#17=FACE_OUTER_BOUND('',#57,.T.);
#18=FACE_OUTER_BOUND('',#58,.T.);
#19=FACE_OUTER_BOUND('',#59,.T.);
#20=FACE_OUTER_BOUND('',#60,.T.);
#21=FACE_OUTER_BOUND('',#61,.T.);
#22=FACE_OUTER_BOUND('',#62,.T.);
#23=FACE_OUTER_BOUND('',#63,.T.);
#24=FACE_OUTER_BOUND('',#64,.T.);
#25=FACE_OUTER_BOUND('',#65,.T.);
#26=FACE_OUTER_BOUND('',#66,.T.);
#27=FACE_OUTER_BOUND('',#67,.T.);
#28=FACE_OUTER_BOUND('',#68,.T.);
#29=FACE_OUTER_BOUND('',#69,.T.);
#30=FACE_OUTER_BOUND('',#70,.T.);
#31=FACE_OUTER_BOUND('',#71,.T.);
#32=FACE_OUTER_BOUND('',#72,.T.);
#33=FACE_OUTER_BOUND('',#73,.T.);
#34=FACE_OUTER_BOUND('',#74,.T.);
#35=FACE_OUTER_BOUND('',#75,.T.);
#36=FACE_OUTER_BOUND('',#76,.T.);
#37=FACE_OUTER_BOUND('',#77,.T.);
#38=FACE_OUTER_BOUND('',#78,.T.);
#39=FACE_OUTER_BOUND('',#79,.T.);
#40=FACE_OUTER_BOUND('',#80,.T.);
#41=FACE_OUTER_BOUND('',#81,.T.);
#42=FACE_OUTER_BOUND('',#82,.T.);
#43=FACE_OUTER_BOUND('',#83,.T.);
#44=FACE_OUTER_BOUND('',#84,.T.);
#45=FACE_OUTER_BOUND('',#85,.T.);
#46=FACE_OUTER_BOUND('',#86,.T.);
#47=FACE_OUTER_BOUND('',#87,.T.);
#48=FACE_OUTER_BOUND('',#88,.T.);
#49=FACE_OUTER_BOUND('',#89,.T.);
#50=FACE_OUTER_BOUND('',#90,.T.);
#51=FACE_OUTER_BOUND('',#91,.T.);
#52=FACE_OUTER_BOUND('',#92,.T.);
#53=FACE_OUTER_BOUND('',#93,.T.);
#54=FACE_OUTER_BOUND('',#94,.T.);
#55=EDGE_LOOP('',(#513,#514,#515,#516));
#56=EDGE_LOOP('',(#517,#518,#519,#520));
#57=EDGE_LOOP('',(#521,#522,#523,#524));
#58=EDGE_LOOP('',(#525,#526,#527,#528));
#59=EDGE_LOOP('',(#529,#530,#531,#532));
#60=EDGE_LOOP('',(#533,#534,#535,#536));
#61=EDGE_LOOP('',(#537,#538,#539,#540));
#62=EDGE_LOOP('',(#541,#542,#543,#544));
#63=EDGE_LOOP('',(#545,#546,#547,#548));
#64=EDGE_LOOP('',(#549,#550,#551,#552));
#65=EDGE_LOOP('',(#553,#554,#555,#556));
#66=EDGE_LOOP('',(#557,#558,#559,#560));
#67=EDGE_LOOP('',(#561,#562,#563,#564));
#68=EDGE_LOOP('',(#565,#566,#567,#568));
#69=EDGE_LOOP('',(#569,#570,#571,#572));
#70=EDGE_LOOP('',(#573,#574,#575,#576));
#71=EDGE_LOOP('',(#577,#578,#579,#580));
#72=EDGE_LOOP('',(#581,#582,#583,#584));
#73=EDGE_LOOP('',(#585,#586,#587,#588));
#74=EDGE_LOOP('',(#589,#590,#591,#592));
#75=EDGE_LOOP('',(#593,#594,#595,#596));
#76=EDGE_LOOP('',(#597,#598,#599,#600,#601,#602,#603,#604,#605,#606,#607,
#608,#609,#610,#611,#612,#613,#614,#615,#616,#617,#618,#619,#620,#621,#622,
#623,#624,#625,#626,#627,#628,#629,#630,#631,#632,#633,#634));
#77=EDGE_LOOP('',(#635,#636,#637,#638));
#78=EDGE_LOOP('',(#639,#640,#641,#642));
#79=EDGE_LOOP('',(#643,#644,#645,#646));
#80=EDGE_LOOP('',(#647,#648,#649,#650));
#81=EDGE_LOOP('',(#651,#652,#653,#654));
#82=EDGE_LOOP('',(#655,#656,#657,#658));
#83=EDGE_LOOP('',(#659,#660,#661,#662));
#84=EDGE_LOOP('',(#663,#664,#665,#666));
#85=EDGE_LOOP('',(#667,#668,#669,#670));
#86=EDGE_LOOP('',(#671,#672,#673,#674));
#87=EDGE_LOOP('',(#675,#676,#677,#678));
#88=EDGE_LOOP('',(#679,#680,#681,#682));
#89=EDGE_LOOP('',(#683,#684,#685,#686));
#90=EDGE_LOOP('',(#687,#688,#689,#690));
#91=EDGE_LOOP('',(#691,#692,#693,#694));
#92=EDGE_LOOP('',(#695,#696,#697,#698));
#93=EDGE_LOOP('',(#699,#700,#701,#702));
#94=EDGE_LOOP('',(#703,#704,#705,#706,#707,#708,#709,#710,#711,#712,#713,
#714,#715,#716,#717,#718,#719,#720,#721,#722,#723,#724,#725,#726,#727,#728,
#729,#730,#731,#732,#733,#734,#735,#736,#737,#738,#739,#740));
#95=LINE('',#1075,#209);
#96=LINE('',#1077,#210);
#97=LINE('',#1079,#211);
#98=LINE('',#1080,#212);
#99=LINE('',#1084,#213);
#100=LINE('',#1086,#214);
#101=LINE('',#1088,#215);
#102=LINE('',#1089,#216);
#103=LINE('',#1092,#217);
#104=LINE('',#1094,#218);
#105=LINE('',#1095,#219);
#106=LINE('',#1098,#220);
#107=LINE('',#1100,#221);
#108=LINE('',#1101,#222);
#109=LINE('',#1104,#223);
#110=LINE('',#1106,#224);
#111=LINE('',#1107,#225);
#112=LINE('',#1110,#226);
#113=LINE('',#1112,#227);
#114=LINE('',#1113,#228);
#115=LINE('',#1116,#229);
#116=LINE('',#1118,#230);
#117=LINE('',#1119,#231);
#118=LINE('',#1123,#232);
#119=LINE('',#1125,#233);
#120=LINE('',#1127,#234);
#121=LINE('',#1128,#235);
#122=LINE('',#1132,#236);
#123=LINE('',#1134,#237);
#124=LINE('',#1136,#238);
#125=LINE('',#1137,#239);
#126=LINE('',#1140,#240);
#127=LINE('',#1142,#241);
#128=LINE('',#1143,#242);
#129=LINE('',#1147,#243);
#130=LINE('',#1149,#244);
#131=LINE('',#1151,#245);
#132=LINE('',#1152,#246);
#133=LINE('',#1155,#247);
#134=LINE('',#1157,#248);
#135=LINE('',#1158,#249);
#136=LINE('',#1161,#250);
#137=LINE('',#1163,#251);
#138=LINE('',#1164,#252);
#139=LINE('',#1168,#253);
#140=LINE('',#1170,#254);
#141=LINE('',#1172,#255);
#142=LINE('',#1173,#256);
#143=LINE('',#1177,#257);
#144=LINE('',#1179,#258);
#145=LINE('',#1181,#259);
#146=LINE('',#1182,#260);
#147=LINE('',#1186,#261);
#148=LINE('',#1188,#262);
#149=LINE('',#1190,#263);
#150=LINE('',#1191,#264);
#151=LINE('',#1194,#265);
#152=LINE('',#1196,#266);
#153=LINE('',#1197,#267);
#154=LINE('',#1201,#268);
#155=LINE('',#1203,#269);
#156=LINE('',#1205,#270);
#157=LINE('',#1206,#271);
#158=LINE('',#1209,#272);
#159=LINE('',#1211,#273);
#160=LINE('',#1212,#274);
#161=LINE('',#1214,#275);
#162=LINE('',#1215,#276);
#163=LINE('',#1219,#277);
#164=LINE('',#1221,#278);
#165=LINE('',#1223,#279);
#166=LINE('',#1224,#280);
#167=LINE('',#1227,#281);
#168=LINE('',#1229,#282);
#169=LINE('',#1231,#283);
#170=LINE('',#1233,#284);
#171=LINE('',#1235,#285);
#172=LINE('',#1237,#286);
#173=LINE('',#1239,#287);
#174=LINE('',#1240,#288);
#175=LINE('',#1241,#289);
#176=LINE('',#1242,#290);
#177=LINE('',#1243,#291);
#178=LINE('',#1244,#292);
#179=LINE('',#1245,#293);
#180=LINE('',#1246,#294);
#181=LINE('',#1247,#295);
#182=LINE('',#1249,#296);
#183=LINE('',#1250,#297);
#184=LINE('',#1253,#298);
#185=LINE('',#1254,#299);
#186=LINE('',#1257,#300);
#187=LINE('',#1258,#301);
#188=LINE('',#1261,#302);
#189=LINE('',#1263,#303);
#190=LINE('',#1264,#304);
#191=LINE('',#1267,#305);
#192=LINE('',#1269,#306);
#193=LINE('',#1270,#307);
#194=LINE('',#1273,#308);
#195=LINE('',#1274,#309);
#196=LINE('',#1276,#310);
#197=LINE('',#1278,#311);
#198=LINE('',#1280,#312);
#199=LINE('',#1282,#313);
#200=LINE('',#1284,#314);
#201=LINE('',#1287,#315);
#202=LINE('',#1288,#316);
#203=LINE('',#1290,#317);
#204=LINE('',#1292,#318);
#205=LINE('',#1294,#319);
#206=LINE('',#1296,#320);
#207=LINE('',#1298,#321);
#208=LINE('',#1300,#322);
#209=VECTOR('',#879,1.0000000000001);
#210=VECTOR('',#880,1.);
#211=VECTOR('',#881,1.0000000000001);
#212=VECTOR('',#882,1.);
#213=VECTOR('',#885,0.999999999999891);
#214=VECTOR('',#886,1.);
#215=VECTOR('',#887,0.999999999999891);
#216=VECTOR('',#888,1.);
#217=VECTOR('',#891,1.00000000000023);
#218=VECTOR('',#892,1.);
#219=VECTOR('',#893,1.00000000000023);
#220=VECTOR('',#896,0.999999999999571);
#221=VECTOR('',#897,1.);
#222=VECTOR('',#898,0.999999999999571);
#223=VECTOR('',#901,0.999999999999953);
#224=VECTOR('',#902,1.);
#225=VECTOR('',#903,0.999999999999953);
#226=VECTOR('',#906,1.00000000000018);
#227=VECTOR('',#907,1.);
#228=VECTOR('',#908,1.00000000000018);
#229=VECTOR('',#911,1.00000000000009);
#230=VECTOR('',#912,1.);
#231=VECTOR('',#913,1.00000000000009);
#232=VECTOR('',#916,0.999999999999884);
#233=VECTOR('',#917,1.);
#234=VECTOR('',#918,0.999999999999884);
#235=VECTOR('',#919,1.);
#236=VECTOR('',#922,1.00000000000036);
#237=VECTOR('',#923,1.);
#238=VECTOR('',#924,1.00000000000036);
#239=VECTOR('',#925,1.);
#240=VECTOR('',#928,1.00000000000034);
#241=VECTOR('',#929,1.);
#242=VECTOR('',#930,1.00000000000034);
#243=VECTOR('',#933,0.999999999999778);
#244=VECTOR('',#934,1.);
#245=VECTOR('',#935,0.999999999999778);
#246=VECTOR('',#936,1.);
#247=VECTOR('',#939,0.999999999999848);
#248=VECTOR('',#940,0.999999999999848);
#249=VECTOR('',#941,1.);
#250=VECTOR('',#944,0.999999999999828);
#251=VECTOR('',#945,1.);
#252=VECTOR('',#946,0.999999999999828);
#253=VECTOR('',#949,0.999999999999572);
#254=VECTOR('',#950,1.);
#255=VECTOR('',#951,0.999999999999572);
#256=VECTOR('',#952,1.);
#257=VECTOR('',#955,1.0000000000005);
#258=VECTOR('',#956,1.);
#259=VECTOR('',#957,1.0000000000005);
#260=VECTOR('',#958,1.);
#261=VECTOR('',#961,1.00000000000028);
#262=VECTOR('',#962,1.);
#263=VECTOR('',#963,1.00000000000028);
#264=VECTOR('',#964,1.);
#265=VECTOR('',#967,0.999999999999754);
#266=VECTOR('',#968,1.);
#267=VECTOR('',#969,0.999999999999754);
#268=VECTOR('',#972,1.0000000000002);
#269=VECTOR('',#973,1.);
#270=VECTOR('',#974,1.0000000000002);
#271=VECTOR('',#975,1.);
#272=VECTOR('',#978,1.00000000000021);
#273=VECTOR('',#979,1.00000000000021);
#274=VECTOR('',#980,1.);
#275=VECTOR('',#983,0.999999999999564);
#276=VECTOR('',#984,0.999999999999564);
#277=VECTOR('',#987,1.00000000000002);
#278=VECTOR('',#988,1.);
#279=VECTOR('',#989,1.00000000000002);
#280=VECTOR('',#990,1.);
#281=VECTOR('',#993,1.00000000000037);
#282=VECTOR('',#994,1.00000000000023);
#283=VECTOR('',#995,1.00000000000016);
#284=VECTOR('',#996,0.999999999999799);
#285=VECTOR('',#997,0.999999999999845);
#286=VECTOR('',#998,1.00000000000019);
#287=VECTOR('',#999,1.00000000000049);
#288=VECTOR('',#1000,0.999999999999794);
#289=VECTOR('',#1001,1.00000000000037);
#290=VECTOR('',#1002,1.00000000000015);
#291=VECTOR('',#1003,1.00000000000019);
#292=VECTOR('',#1004,1.00000000000035);
#293=VECTOR('',#1005,1.00000000000005);
#294=VECTOR('',#1006,0.99999999999995);
#295=VECTOR('',#1007,1.00000000000054);
#296=VECTOR('',#1008,0.999999999999808);
#297=VECTOR('',#1009,0.999999999999848);
#298=VECTOR('',#1012,1.);
#299=VECTOR('',#1013,0.999999999999794);
#300=VECTOR('',#1016,1.);
#301=VECTOR('',#1017,1.00000000000049);
#302=VECTOR('',#1020,1.);
#303=VECTOR('',#1021,0.999999999999845);
#304=VECTOR('',#1022,1.);
#305=VECTOR('',#1025,1.);
#306=VECTOR('',#1026,1.00000000000016);
#307=VECTOR('',#1027,1.);
#308=VECTOR('',#1030,1.00000000000037);
#309=VECTOR('',#1031,1.);
#310=VECTOR('',#1034,1.00000000000019);
#311=VECTOR('',#1037,1.00000000000015);
#312=VECTOR('',#1040,0.999999999999799);
#313=VECTOR('',#1043,1.00000000000023);
#314=VECTOR('',#1046,1.00000000000019);
#315=VECTOR('',#1049,0.999999999999808);
#316=VECTOR('',#1050,1.);
#317=VECTOR('',#1053,0.999999999999848);
#318=VECTOR('',#1056,1.00000000000054);
#319=VECTOR('',#1059,1.00000000000037);
#320=VECTOR('',#1062,0.99999999999995);
#321=VECTOR('',#1065,1.00000000000005);
#322=VECTOR('',#1068,1.00000000000035);
#323=VERTEX_POINT('',#1073);
#324=VERTEX_POINT('',#1074);
#325=VERTEX_POINT('',#1076);
#326=VERTEX_POINT('',#1078);
#327=VERTEX_POINT('',#1082);
#328=VERTEX_POINT('',#1083);
#329=VERTEX_POINT('',#1085);
#330=VERTEX_POINT('',#1087);
#331=VERTEX_POINT('',#1091);
#332=VERTEX_POINT('',#1093);
#333=VERTEX_POINT('',#1097);
#334=VERTEX_POINT('',#1099);
#335=VERTEX_POINT('',#1103);
#336=VERTEX_POINT('',#1105);
#337=VERTEX_POINT('',#1109);
#338=VERTEX_POINT('',#1111);
#339=VERTEX_POINT('',#1115);
#340=VERTEX_POINT('',#1117);
#341=VERTEX_POINT('',#1121);
#342=VERTEX_POINT('',#1122);
#343=VERTEX_POINT('',#1124);
#344=VERTEX_POINT('',#1126);
#345=VERTEX_POINT('',#1130);
#346=VERTEX_POINT('',#1131);
#347=VERTEX_POINT('',#1133);
#348=VERTEX_POINT('',#1135);
#349=VERTEX_POINT('',#1139);
#350=VERTEX_POINT('',#1141);
#351=VERTEX_POINT('',#1145);
#352=VERTEX_POINT('',#1146);
#353=VERTEX_POINT('',#1148);
#354=VERTEX_POINT('',#1150);
#355=VERTEX_POINT('',#1154);
#356=VERTEX_POINT('',#1156);
#357=VERTEX_POINT('',#1160);
#358=VERTEX_POINT('',#1162);
#359=VERTEX_POINT('',#1166);
#360=VERTEX_POINT('',#1167);
#361=VERTEX_POINT('',#1169);
#362=VERTEX_POINT('',#1171);
#363=VERTEX_POINT('',#1175);
#364=VERTEX_POINT('',#1176);
#365=VERTEX_POINT('',#1178);
#366=VERTEX_POINT('',#1180);
#367=VERTEX_POINT('',#1184);
#368=VERTEX_POINT('',#1185);
#369=VERTEX_POINT('',#1187);
#370=VERTEX_POINT('',#1189);
#371=VERTEX_POINT('',#1193);
#372=VERTEX_POINT('',#1195);
#373=VERTEX_POINT('',#1199);
#374=VERTEX_POINT('',#1200);
#375=VERTEX_POINT('',#1202);
#376=VERTEX_POINT('',#1204);
#377=VERTEX_POINT('',#1208);
#378=VERTEX_POINT('',#1210);
#379=VERTEX_POINT('',#1217);
#380=VERTEX_POINT('',#1218);
#381=VERTEX_POINT('',#1220);
#382=VERTEX_POINT('',#1222);
#383=VERTEX_POINT('',#1226);
#384=VERTEX_POINT('',#1228);
#385=VERTEX_POINT('',#1230);
#386=VERTEX_POINT('',#1232);
#387=VERTEX_POINT('',#1234);
#388=VERTEX_POINT('',#1236);
#389=VERTEX_POINT('',#1238);
#390=VERTEX_POINT('',#1248);
#391=VERTEX_POINT('',#1252);
#392=VERTEX_POINT('',#1256);
#393=VERTEX_POINT('',#1260);
#394=VERTEX_POINT('',#1262);
#395=VERTEX_POINT('',#1266);
#396=VERTEX_POINT('',#1268);
#397=VERTEX_POINT('',#1272);
#398=VERTEX_POINT('',#1286);
#399=EDGE_CURVE('',#323,#324,#95,.T.);
#400=EDGE_CURVE('',#324,#325,#96,.T.);
#401=EDGE_CURVE('',#325,#326,#97,.T.);
#402=EDGE_CURVE('',#326,#323,#98,.T.);
#403=EDGE_CURVE('',#327,#328,#99,.T.);
#404=EDGE_CURVE('',#328,#329,#100,.T.);
#405=EDGE_CURVE('',#329,#330,#101,.T.);
#406=EDGE_CURVE('',#330,#327,#102,.T.);
#407=EDGE_CURVE('',#328,#331,#103,.T.);
#408=EDGE_CURVE('',#331,#332,#104,.T.);
#409=EDGE_CURVE('',#332,#329,#105,.T.);
#410=EDGE_CURVE('',#331,#333,#106,.T.);
#411=EDGE_CURVE('',#333,#334,#107,.T.);
#412=EDGE_CURVE('',#334,#332,#108,.T.);
#413=EDGE_CURVE('',#333,#335,#109,.T.);
#414=EDGE_CURVE('',#335,#336,#110,.T.);
#415=EDGE_CURVE('',#336,#334,#111,.T.);
#416=EDGE_CURVE('',#335,#337,#112,.T.);
#417=EDGE_CURVE('',#337,#338,#113,.T.);
#418=EDGE_CURVE('',#338,#336,#114,.T.);
#419=EDGE_CURVE('',#337,#339,#115,.T.);
#420=EDGE_CURVE('',#339,#340,#116,.T.);
#421=EDGE_CURVE('',#340,#338,#117,.T.);
#422=EDGE_CURVE('',#341,#342,#118,.T.);
#423=EDGE_CURVE('',#342,#343,#119,.T.);
#424=EDGE_CURVE('',#343,#344,#120,.T.);
#425=EDGE_CURVE('',#344,#341,#121,.T.);
#426=EDGE_CURVE('',#345,#346,#122,.T.);
#427=EDGE_CURVE('',#346,#347,#123,.T.);
#428=EDGE_CURVE('',#347,#348,#124,.T.);
#429=EDGE_CURVE('',#348,#345,#125,.T.);
#430=EDGE_CURVE('',#346,#349,#126,.T.);
#431=EDGE_CURVE('',#349,#350,#127,.T.);
#432=EDGE_CURVE('',#350,#347,#128,.T.);
#433=EDGE_CURVE('',#351,#352,#129,.T.);
#434=EDGE_CURVE('',#352,#353,#130,.T.);
#435=EDGE_CURVE('',#353,#354,#131,.T.);
#436=EDGE_CURVE('',#354,#351,#132,.T.);
#437=EDGE_CURVE('',#355,#351,#133,.T.);
#438=EDGE_CURVE('',#354,#356,#134,.T.);
#439=EDGE_CURVE('',#356,#355,#135,.T.);
#440=EDGE_CURVE('',#352,#357,#136,.T.);
#441=EDGE_CURVE('',#357,#358,#137,.T.);
#442=EDGE_CURVE('',#358,#353,#138,.T.);
#443=EDGE_CURVE('',#359,#360,#139,.T.);
#444=EDGE_CURVE('',#360,#361,#140,.T.);
#445=EDGE_CURVE('',#361,#362,#141,.T.);
#446=EDGE_CURVE('',#362,#359,#142,.T.);
#447=EDGE_CURVE('',#363,#364,#143,.T.);
#448=EDGE_CURVE('',#364,#365,#144,.T.);
#449=EDGE_CURVE('',#365,#366,#145,.T.);
#450=EDGE_CURVE('',#366,#363,#146,.T.);
#451=EDGE_CURVE('',#367,#368,#147,.T.);
#452=EDGE_CURVE('',#368,#369,#148,.T.);
#453=EDGE_CURVE('',#369,#370,#149,.T.);
#454=EDGE_CURVE('',#370,#367,#150,.T.);
#455=EDGE_CURVE('',#364,#371,#151,.T.);
#456=EDGE_CURVE('',#371,#372,#152,.T.);
#457=EDGE_CURVE('',#372,#365,#153,.T.);
#458=EDGE_CURVE('',#373,#374,#154,.T.);
#459=EDGE_CURVE('',#374,#375,#155,.T.);
#460=EDGE_CURVE('',#375,#376,#156,.T.);
#461=EDGE_CURVE('',#376,#373,#157,.T.);
#462=EDGE_CURVE('',#377,#373,#158,.T.);
#463=EDGE_CURVE('',#376,#378,#159,.T.);
#464=EDGE_CURVE('',#378,#377,#160,.T.);
#465=EDGE_CURVE('',#374,#323,#161,.T.);
#466=EDGE_CURVE('',#326,#375,#162,.T.);
#467=EDGE_CURVE('',#379,#380,#163,.T.);
#468=EDGE_CURVE('',#380,#381,#164,.T.);
#469=EDGE_CURVE('',#381,#382,#165,.T.);
#470=EDGE_CURVE('',#382,#379,#166,.T.);
#471=EDGE_CURVE('',#327,#383,#167,.T.);
#472=EDGE_CURVE('',#383,#384,#168,.T.);
#473=EDGE_CURVE('',#384,#385,#169,.T.);
#474=EDGE_CURVE('',#385,#386,#170,.T.);
#475=EDGE_CURVE('',#386,#387,#171,.T.);
#476=EDGE_CURVE('',#387,#388,#172,.T.);
#477=EDGE_CURVE('',#388,#389,#173,.T.);
#478=EDGE_CURVE('',#389,#380,#174,.T.);
#479=EDGE_CURVE('',#379,#324,#175,.T.);
#480=EDGE_CURVE('',#377,#368,#176,.T.);
#481=EDGE_CURVE('',#367,#371,#177,.T.);
#482=EDGE_CURVE('',#363,#360,#178,.T.);
#483=EDGE_CURVE('',#359,#357,#179,.T.);
#484=EDGE_CURVE('',#355,#349,#180,.T.);
#485=EDGE_CURVE('',#345,#342,#181,.T.);
#486=EDGE_CURVE('',#341,#390,#182,.T.);
#487=EDGE_CURVE('',#390,#339,#183,.T.);
#488=EDGE_CURVE('',#389,#391,#184,.T.);
#489=EDGE_CURVE('',#391,#381,#185,.T.);
#490=EDGE_CURVE('',#388,#392,#186,.T.);
#491=EDGE_CURVE('',#392,#391,#187,.T.);
#492=EDGE_CURVE('',#386,#393,#188,.T.);
#493=EDGE_CURVE('',#393,#394,#189,.T.);
#494=EDGE_CURVE('',#394,#387,#190,.T.);
#495=EDGE_CURVE('',#384,#395,#191,.T.);
#496=EDGE_CURVE('',#395,#396,#192,.T.);
#497=EDGE_CURVE('',#396,#385,#193,.T.);
#498=EDGE_CURVE('',#330,#397,#194,.T.);
#499=EDGE_CURVE('',#397,#383,#195,.T.);
#500=EDGE_CURVE('',#370,#372,#196,.T.);
#501=EDGE_CURVE('',#378,#369,#197,.T.);
#502=EDGE_CURVE('',#396,#393,#198,.T.);
#503=EDGE_CURVE('',#397,#395,#199,.T.);
#504=EDGE_CURVE('',#394,#392,#200,.T.);
#505=EDGE_CURVE('',#344,#398,#201,.T.);
#506=EDGE_CURVE('',#398,#390,#202,.T.);
#507=EDGE_CURVE('',#398,#340,#203,.T.);
#508=EDGE_CURVE('',#348,#343,#204,.T.);
#509=EDGE_CURVE('',#382,#325,#205,.T.);
#510=EDGE_CURVE('',#356,#350,#206,.T.);
#511=EDGE_CURVE('',#362,#358,#207,.T.);
#512=EDGE_CURVE('',#366,#361,#208,.T.);
#513=ORIENTED_EDGE('',*,*,#399,.T.);
#514=ORIENTED_EDGE('',*,*,#400,.T.);
#515=ORIENTED_EDGE('',*,*,#401,.T.);
#516=ORIENTED_EDGE('',*,*,#402,.T.);
#517=ORIENTED_EDGE('',*,*,#403,.T.);
#518=ORIENTED_EDGE('',*,*,#404,.T.);
#519=ORIENTED_EDGE('',*,*,#405,.T.);
#520=ORIENTED_EDGE('',*,*,#406,.T.);
#521=ORIENTED_EDGE('',*,*,#407,.T.);
#522=ORIENTED_EDGE('',*,*,#408,.T.);
#523=ORIENTED_EDGE('',*,*,#409,.T.);
#524=ORIENTED_EDGE('',*,*,#404,.F.);
#525=ORIENTED_EDGE('',*,*,#410,.T.);
#526=ORIENTED_EDGE('',*,*,#411,.T.);
#527=ORIENTED_EDGE('',*,*,#412,.T.);
#528=ORIENTED_EDGE('',*,*,#408,.F.);
#529=ORIENTED_EDGE('',*,*,#413,.T.);
#530=ORIENTED_EDGE('',*,*,#414,.T.);
#531=ORIENTED_EDGE('',*,*,#415,.T.);
#532=ORIENTED_EDGE('',*,*,#411,.F.);
#533=ORIENTED_EDGE('',*,*,#416,.T.);
#534=ORIENTED_EDGE('',*,*,#417,.T.);
#535=ORIENTED_EDGE('',*,*,#418,.T.);
#536=ORIENTED_EDGE('',*,*,#414,.F.);
#537=ORIENTED_EDGE('',*,*,#419,.T.);
#538=ORIENTED_EDGE('',*,*,#420,.T.);
#539=ORIENTED_EDGE('',*,*,#421,.T.);
#540=ORIENTED_EDGE('',*,*,#417,.F.);
#541=ORIENTED_EDGE('',*,*,#422,.T.);
#542=ORIENTED_EDGE('',*,*,#423,.T.);
#543=ORIENTED_EDGE('',*,*,#424,.T.);
#544=ORIENTED_EDGE('',*,*,#425,.T.);
#545=ORIENTED_EDGE('',*,*,#426,.T.);
#546=ORIENTED_EDGE('',*,*,#427,.T.);
#547=ORIENTED_EDGE('',*,*,#428,.T.);
#548=ORIENTED_EDGE('',*,*,#429,.T.);
#549=ORIENTED_EDGE('',*,*,#430,.T.);
#550=ORIENTED_EDGE('',*,*,#431,.T.);
#551=ORIENTED_EDGE('',*,*,#432,.T.);
#552=ORIENTED_EDGE('',*,*,#427,.F.);
#553=ORIENTED_EDGE('',*,*,#433,.T.);
#554=ORIENTED_EDGE('',*,*,#434,.T.);
#555=ORIENTED_EDGE('',*,*,#435,.T.);
#556=ORIENTED_EDGE('',*,*,#436,.T.);
#557=ORIENTED_EDGE('',*,*,#437,.T.);
#558=ORIENTED_EDGE('',*,*,#436,.F.);
#559=ORIENTED_EDGE('',*,*,#438,.T.);
#560=ORIENTED_EDGE('',*,*,#439,.T.);
#561=ORIENTED_EDGE('',*,*,#440,.T.);
#562=ORIENTED_EDGE('',*,*,#441,.T.);
#563=ORIENTED_EDGE('',*,*,#442,.T.);
#564=ORIENTED_EDGE('',*,*,#434,.F.);
#565=ORIENTED_EDGE('',*,*,#443,.T.);
#566=ORIENTED_EDGE('',*,*,#444,.T.);
#567=ORIENTED_EDGE('',*,*,#445,.T.);
#568=ORIENTED_EDGE('',*,*,#446,.T.);
#569=ORIENTED_EDGE('',*,*,#447,.T.);
#570=ORIENTED_EDGE('',*,*,#448,.T.);
#571=ORIENTED_EDGE('',*,*,#449,.T.);
#572=ORIENTED_EDGE('',*,*,#450,.T.);
#573=ORIENTED_EDGE('',*,*,#451,.T.);
#574=ORIENTED_EDGE('',*,*,#452,.T.);
#575=ORIENTED_EDGE('',*,*,#453,.T.);
#576=ORIENTED_EDGE('',*,*,#454,.T.);
#577=ORIENTED_EDGE('',*,*,#455,.T.);
#578=ORIENTED_EDGE('',*,*,#456,.T.);
#579=ORIENTED_EDGE('',*,*,#457,.T.);
#580=ORIENTED_EDGE('',*,*,#448,.F.);
#581=ORIENTED_EDGE('',*,*,#458,.T.);
#582=ORIENTED_EDGE('',*,*,#459,.T.);
#583=ORIENTED_EDGE('',*,*,#460,.T.);
#584=ORIENTED_EDGE('',*,*,#461,.T.);
#585=ORIENTED_EDGE('',*,*,#462,.T.);
#586=ORIENTED_EDGE('',*,*,#461,.F.);
#587=ORIENTED_EDGE('',*,*,#463,.T.);
#588=ORIENTED_EDGE('',*,*,#464,.T.);
#589=ORIENTED_EDGE('',*,*,#465,.T.);
#590=ORIENTED_EDGE('',*,*,#402,.F.);
#591=ORIENTED_EDGE('',*,*,#466,.T.);
#592=ORIENTED_EDGE('',*,*,#459,.F.);
#593=ORIENTED_EDGE('',*,*,#467,.T.);
#594=ORIENTED_EDGE('',*,*,#468,.T.);
#595=ORIENTED_EDGE('',*,*,#469,.T.);
#596=ORIENTED_EDGE('',*,*,#470,.T.);
#597=ORIENTED_EDGE('',*,*,#403,.F.);
#598=ORIENTED_EDGE('',*,*,#471,.T.);
#599=ORIENTED_EDGE('',*,*,#472,.T.);
#600=ORIENTED_EDGE('',*,*,#473,.T.);
#601=ORIENTED_EDGE('',*,*,#474,.T.);
#602=ORIENTED_EDGE('',*,*,#475,.T.);
#603=ORIENTED_EDGE('',*,*,#476,.T.);
#604=ORIENTED_EDGE('',*,*,#477,.T.);
#605=ORIENTED_EDGE('',*,*,#478,.T.);
#606=ORIENTED_EDGE('',*,*,#467,.F.);
#607=ORIENTED_EDGE('',*,*,#479,.T.);
#608=ORIENTED_EDGE('',*,*,#399,.F.);
#609=ORIENTED_EDGE('',*,*,#465,.F.);
#610=ORIENTED_EDGE('',*,*,#458,.F.);
#611=ORIENTED_EDGE('',*,*,#462,.F.);
#612=ORIENTED_EDGE('',*,*,#480,.T.);
#613=ORIENTED_EDGE('',*,*,#451,.F.);
#614=ORIENTED_EDGE('',*,*,#481,.T.);
#615=ORIENTED_EDGE('',*,*,#455,.F.);
#616=ORIENTED_EDGE('',*,*,#447,.F.);
#617=ORIENTED_EDGE('',*,*,#482,.T.);
#618=ORIENTED_EDGE('',*,*,#443,.F.);
#619=ORIENTED_EDGE('',*,*,#483,.T.);
#620=ORIENTED_EDGE('',*,*,#440,.F.);
#621=ORIENTED_EDGE('',*,*,#433,.F.);
#622=ORIENTED_EDGE('',*,*,#437,.F.);
#623=ORIENTED_EDGE('',*,*,#484,.T.);
#624=ORIENTED_EDGE('',*,*,#430,.F.);
#625=ORIENTED_EDGE('',*,*,#426,.F.);
#626=ORIENTED_EDGE('',*,*,#485,.T.);
#627=ORIENTED_EDGE('',*,*,#422,.F.);
#628=ORIENTED_EDGE('',*,*,#486,.T.);
#629=ORIENTED_EDGE('',*,*,#487,.T.);
#630=ORIENTED_EDGE('',*,*,#419,.F.);
#631=ORIENTED_EDGE('',*,*,#416,.F.);
#632=ORIENTED_EDGE('',*,*,#413,.F.);
#633=ORIENTED_EDGE('',*,*,#410,.F.);
#634=ORIENTED_EDGE('',*,*,#407,.F.);
#635=ORIENTED_EDGE('',*,*,#478,.F.);
#636=ORIENTED_EDGE('',*,*,#488,.T.);
#637=ORIENTED_EDGE('',*,*,#489,.T.);
#638=ORIENTED_EDGE('',*,*,#468,.F.);
#639=ORIENTED_EDGE('',*,*,#477,.F.);
#640=ORIENTED_EDGE('',*,*,#490,.T.);
#641=ORIENTED_EDGE('',*,*,#491,.T.);
#642=ORIENTED_EDGE('',*,*,#488,.F.);
#643=ORIENTED_EDGE('',*,*,#475,.F.);
#644=ORIENTED_EDGE('',*,*,#492,.T.);
#645=ORIENTED_EDGE('',*,*,#493,.T.);
#646=ORIENTED_EDGE('',*,*,#494,.T.);
#647=ORIENTED_EDGE('',*,*,#473,.F.);
#648=ORIENTED_EDGE('',*,*,#495,.T.);
#649=ORIENTED_EDGE('',*,*,#496,.T.);
#650=ORIENTED_EDGE('',*,*,#497,.T.);
#651=ORIENTED_EDGE('',*,*,#471,.F.);
#652=ORIENTED_EDGE('',*,*,#406,.F.);
#653=ORIENTED_EDGE('',*,*,#498,.T.);
#654=ORIENTED_EDGE('',*,*,#499,.T.);
#655=ORIENTED_EDGE('',*,*,#481,.F.);
#656=ORIENTED_EDGE('',*,*,#454,.F.);
#657=ORIENTED_EDGE('',*,*,#500,.T.);
#658=ORIENTED_EDGE('',*,*,#456,.F.);
#659=ORIENTED_EDGE('',*,*,#480,.F.);
#660=ORIENTED_EDGE('',*,*,#464,.F.);
#661=ORIENTED_EDGE('',*,*,#501,.T.);
#662=ORIENTED_EDGE('',*,*,#452,.F.);
#663=ORIENTED_EDGE('',*,*,#474,.F.);
#664=ORIENTED_EDGE('',*,*,#497,.F.);
#665=ORIENTED_EDGE('',*,*,#502,.T.);
#666=ORIENTED_EDGE('',*,*,#492,.F.);
#667=ORIENTED_EDGE('',*,*,#472,.F.);
#668=ORIENTED_EDGE('',*,*,#499,.F.);
#669=ORIENTED_EDGE('',*,*,#503,.T.);
#670=ORIENTED_EDGE('',*,*,#495,.F.);
#671=ORIENTED_EDGE('',*,*,#476,.F.);
#672=ORIENTED_EDGE('',*,*,#494,.F.);
#673=ORIENTED_EDGE('',*,*,#504,.T.);
#674=ORIENTED_EDGE('',*,*,#490,.F.);
#675=ORIENTED_EDGE('',*,*,#486,.F.);
#676=ORIENTED_EDGE('',*,*,#425,.F.);
#677=ORIENTED_EDGE('',*,*,#505,.T.);
#678=ORIENTED_EDGE('',*,*,#506,.T.);
#679=ORIENTED_EDGE('',*,*,#487,.F.);
#680=ORIENTED_EDGE('',*,*,#506,.F.);
#681=ORIENTED_EDGE('',*,*,#507,.T.);
#682=ORIENTED_EDGE('',*,*,#420,.F.);
#683=ORIENTED_EDGE('',*,*,#485,.F.);
#684=ORIENTED_EDGE('',*,*,#429,.F.);
#685=ORIENTED_EDGE('',*,*,#508,.T.);
#686=ORIENTED_EDGE('',*,*,#423,.F.);
#687=ORIENTED_EDGE('',*,*,#479,.F.);
#688=ORIENTED_EDGE('',*,*,#470,.F.);
#689=ORIENTED_EDGE('',*,*,#509,.T.);
#690=ORIENTED_EDGE('',*,*,#400,.F.);
#691=ORIENTED_EDGE('',*,*,#484,.F.);
#692=ORIENTED_EDGE('',*,*,#439,.F.);
#693=ORIENTED_EDGE('',*,*,#510,.T.);
#694=ORIENTED_EDGE('',*,*,#431,.F.);
#695=ORIENTED_EDGE('',*,*,#483,.F.);
#696=ORIENTED_EDGE('',*,*,#446,.F.);
#697=ORIENTED_EDGE('',*,*,#511,.T.);
#698=ORIENTED_EDGE('',*,*,#441,.F.);
#699=ORIENTED_EDGE('',*,*,#482,.F.);
#700=ORIENTED_EDGE('',*,*,#450,.F.);
#701=ORIENTED_EDGE('',*,*,#512,.T.);
#702=ORIENTED_EDGE('',*,*,#444,.F.);
#703=ORIENTED_EDGE('',*,*,#435,.F.);
#704=ORIENTED_EDGE('',*,*,#442,.F.);
#705=ORIENTED_EDGE('',*,*,#511,.F.);
#706=ORIENTED_EDGE('',*,*,#445,.F.);
#707=ORIENTED_EDGE('',*,*,#512,.F.);
#708=ORIENTED_EDGE('',*,*,#449,.F.);
#709=ORIENTED_EDGE('',*,*,#457,.F.);
#710=ORIENTED_EDGE('',*,*,#500,.F.);
#711=ORIENTED_EDGE('',*,*,#453,.F.);
#712=ORIENTED_EDGE('',*,*,#501,.F.);
#713=ORIENTED_EDGE('',*,*,#463,.F.);
#714=ORIENTED_EDGE('',*,*,#460,.F.);
#715=ORIENTED_EDGE('',*,*,#466,.F.);
#716=ORIENTED_EDGE('',*,*,#401,.F.);
#717=ORIENTED_EDGE('',*,*,#509,.F.);
#718=ORIENTED_EDGE('',*,*,#469,.F.);
#719=ORIENTED_EDGE('',*,*,#489,.F.);
#720=ORIENTED_EDGE('',*,*,#491,.F.);
#721=ORIENTED_EDGE('',*,*,#504,.F.);
#722=ORIENTED_EDGE('',*,*,#493,.F.);
#723=ORIENTED_EDGE('',*,*,#502,.F.);
#724=ORIENTED_EDGE('',*,*,#496,.F.);
#725=ORIENTED_EDGE('',*,*,#503,.F.);
#726=ORIENTED_EDGE('',*,*,#498,.F.);
#727=ORIENTED_EDGE('',*,*,#405,.F.);
#728=ORIENTED_EDGE('',*,*,#409,.F.);
#729=ORIENTED_EDGE('',*,*,#412,.F.);
#730=ORIENTED_EDGE('',*,*,#415,.F.);
#731=ORIENTED_EDGE('',*,*,#418,.F.);
#732=ORIENTED_EDGE('',*,*,#421,.F.);
#733=ORIENTED_EDGE('',*,*,#507,.F.);
#734=ORIENTED_EDGE('',*,*,#505,.F.);
#735=ORIENTED_EDGE('',*,*,#424,.F.);
#736=ORIENTED_EDGE('',*,*,#508,.F.);
#737=ORIENTED_EDGE('',*,*,#428,.F.);
#738=ORIENTED_EDGE('',*,*,#432,.F.);
#739=ORIENTED_EDGE('',*,*,#510,.F.);
#740=ORIENTED_EDGE('',*,*,#438,.F.);
#741=PLANE('',#835);
#742=PLANE('',#836);
#743=PLANE('',#837);
#744=PLANE('',#838);
#745=PLANE('',#839);
#746=PLANE('',#840);
#747=PLANE('',#841);
#748=PLANE('',#842);
#749=PLANE('',#843);
#750=PLANE('',#844);
#751=PLANE('',#845);
#752=PLANE('',#846);
#753=PLANE('',#847);
#754=PLANE('',#848);
#755=PLANE('',#849);
#756=PLANE('',#850);
#757=PLANE('',#851);
#758=PLANE('',#852);
#759=PLANE('',#853);
#760=PLANE('',#854);
#761=PLANE('',#855);
#762=PLANE('',#856);
#763=PLANE('',#857);
#764=PLANE('',#858);
#765=PLANE('',#859);
#766=PLANE('',#860);
#767=PLANE('',#861);
#768=PLANE('',#862);
#769=PLANE('',#863);
#770=PLANE('',#864);
#771=PLANE('',#865);
#772=PLANE('',#866);
#773=PLANE('',#867);
#774=PLANE('',#868);
#775=PLANE('',#869);
#776=PLANE('',#870);
#777=PLANE('',#871);
#778=PLANE('',#872);
#779=PLANE('',#873);
#780=PLANE('',#874);
#781=ADVANCED_FACE('',(#15),#741,.T.);
#782=ADVANCED_FACE('',(#16),#742,.T.);
#783=ADVANCED_FACE('',(#17),#743,.T.);
#784=ADVANCED_FACE('',(#18),#744,.T.);
#785=ADVANCED_FACE('',(#19),#745,.T.);
#786=ADVANCED_FACE('',(#20),#746,.T.);
#787=ADVANCED_FACE('',(#21),#747,.T.);
#788=ADVANCED_FACE('',(#22),#748,.T.);
#789=ADVANCED_FACE('',(#23),#749,.T.);
#790=ADVANCED_FACE('',(#24),#750,.T.);
#791=ADVANCED_FACE('',(#25),#751,.T.);
#792=ADVANCED_FACE('',(#26),#752,.T.);
#793=ADVANCED_FACE('',(#27),#753,.T.);
#794=ADVANCED_FACE('',(#28),#754,.T.);
#795=ADVANCED_FACE('',(#29),#755,.T.);
#796=ADVANCED_FACE('',(#30),#756,.T.);
#797=ADVANCED_FACE('',(#31),#757,.T.);
#798=ADVANCED_FACE('',(#32),#758,.T.);
#799=ADVANCED_FACE('',(#33),#759,.T.);
#800=ADVANCED_FACE('',(#34),#760,.T.);
#801=ADVANCED_FACE('',(#35),#761,.T.);
#802=ADVANCED_FACE('',(#36),#762,.T.);
#803=ADVANCED_FACE('',(#37),#763,.T.);
#804=ADVANCED_FACE('',(#38),#764,.T.);
#805=ADVANCED_FACE('',(#39),#765,.T.);
#806=ADVANCED_FACE('',(#40),#766,.T.);
#807=ADVANCED_FACE('',(#41),#767,.T.);
#808=ADVANCED_FACE('',(#42),#768,.T.);
#809=ADVANCED_FACE('',(#43),#769,.T.);
#810=ADVANCED_FACE('',(#44),#770,.T.);
#811=ADVANCED_FACE('',(#45),#771,.T.);
#812=ADVANCED_FACE('',(#46),#772,.T.);
#813=ADVANCED_FACE('',(#47),#773,.T.);
#814=ADVANCED_FACE('',(#48),#774,.T.);
#815=ADVANCED_FACE('',(#49),#775,.T.);
#816=ADVANCED_FACE('',(#50),#776,.T.);
#817=ADVANCED_FACE('',(#51),#777,.T.);
#818=ADVANCED_FACE('',(#52),#778,.T.);
#819=ADVANCED_FACE('',(#53),#779,.T.);
#820=ADVANCED_FACE('',(#54),#780,.T.);
#821=CLOSED_SHELL('',(#781,#782,#783,#784,#785,#786,#787,#788,#789,#790,
#791,#792,#793,#794,#795,#796,#797,#798,#799,#800,#801,#802,#803,#804,#805,
#806,#807,#808,#809,#810,#811,#812,#813,#814,#815,#816,#817,#818,#819,#820));
#822=DERIVED_UNIT_ELEMENT(#824,1.);
#823=DERIVED_UNIT_ELEMENT(#1307,-3.);
#824=(
MASS_UNIT()
NAMED_UNIT(*)
SI_UNIT(.KILO.,.GRAM.)
);
#825=DERIVED_UNIT((#822,#823));
#826=MEASURE_REPRESENTATION_ITEM('density measure',
POSITIVE_RATIO_MEASURE(7850.),#825);
#827=PROPERTY_DEFINITION_REPRESENTATION(#832,#829);
#828=PROPERTY_DEFINITION_REPRESENTATION(#833,#830);
#829=REPRESENTATION('material name',(#831),#1304);
#830=REPRESENTATION('density',(#826),#1304);
#831=DESCRIPTIVE_REPRESENTATION_ITEM('\X2\94A2\X0\','\X2\94A2\X0\');
#832=PROPERTY_DEFINITION('material property','material name',#1314);
#833=PROPERTY_DEFINITION('material property','density of part',#1314);
#834=AXIS2_PLACEMENT_3D('',#1071,#875,#876);
#835=AXIS2_PLACEMENT_3D('',#1072,#877,#878);
#836=AXIS2_PLACEMENT_3D('',#1081,#883,#884);
#837=AXIS2_PLACEMENT_3D('',#1090,#889,#890);
#838=AXIS2_PLACEMENT_3D('',#1096,#894,#895);
#839=AXIS2_PLACEMENT_3D('',#1102,#899,#900);
#840=AXIS2_PLACEMENT_3D('',#1108,#904,#905);
#841=AXIS2_PLACEMENT_3D('',#1114,#909,#910);
#842=AXIS2_PLACEMENT_3D('',#1120,#914,#915);
#843=AXIS2_PLACEMENT_3D('',#1129,#920,#921);
#844=AXIS2_PLACEMENT_3D('',#1138,#926,#927);
#845=AXIS2_PLACEMENT_3D('',#1144,#931,#932);
#846=AXIS2_PLACEMENT_3D('',#1153,#937,#938);
#847=AXIS2_PLACEMENT_3D('',#1159,#942,#943);
#848=AXIS2_PLACEMENT_3D('',#1165,#947,#948);
#849=AXIS2_PLACEMENT_3D('',#1174,#953,#954);
#850=AXIS2_PLACEMENT_3D('',#1183,#959,#960);
#851=AXIS2_PLACEMENT_3D('',#1192,#965,#966);
#852=AXIS2_PLACEMENT_3D('',#1198,#970,#971);
#853=AXIS2_PLACEMENT_3D('',#1207,#976,#977);
#854=AXIS2_PLACEMENT_3D('',#1213,#981,#982);
#855=AXIS2_PLACEMENT_3D('',#1216,#985,#986);
#856=AXIS2_PLACEMENT_3D('',#1225,#991,#992);
#857=AXIS2_PLACEMENT_3D('',#1251,#1010,#1011);
#858=AXIS2_PLACEMENT_3D('',#1255,#1014,#1015);
#859=AXIS2_PLACEMENT_3D('',#1259,#1018,#1019);
#860=AXIS2_PLACEMENT_3D('',#1265,#1023,#1024);
#861=AXIS2_PLACEMENT_3D('',#1271,#1028,#1029);
#862=AXIS2_PLACEMENT_3D('',#1275,#1032,#1033);
#863=AXIS2_PLACEMENT_3D('',#1277,#1035,#1036);
#864=AXIS2_PLACEMENT_3D('',#1279,#1038,#1039);
#865=AXIS2_PLACEMENT_3D('',#1281,#1041,#1042);
#866=AXIS2_PLACEMENT_3D('',#1283,#1044,#1045);
#867=AXIS2_PLACEMENT_3D('',#1285,#1047,#1048);
#868=AXIS2_PLACEMENT_3D('',#1289,#1051,#1052);
#869=AXIS2_PLACEMENT_3D('',#1291,#1054,#1055);
#870=AXIS2_PLACEMENT_3D('',#1293,#1057,#1058);
#871=AXIS2_PLACEMENT_3D('',#1295,#1060,#1061);
#872=AXIS2_PLACEMENT_3D('',#1297,#1063,#1064);
#873=AXIS2_PLACEMENT_3D('',#1299,#1066,#1067);
#874=AXIS2_PLACEMENT_3D('',#1301,#1069,#1070);
#875=DIRECTION('axis',(0.,0.,1.));
#876=DIRECTION('refdir',(1.,0.,0.));
#877=DIRECTION('center_axis',(0.41184452671696,-0.911254128008912,0.));
#878=DIRECTION('ref_axis',(0.,0.,1.));
#879=DIRECTION('',(0.911254128008912,0.41184452671696,0.));
#880=DIRECTION('',(0.,0.,1.));
#881=DIRECTION('',(-0.911254128008912,-0.41184452671696,0.));
#882=DIRECTION('',(0.,0.,-1.));
#883=DIRECTION('center_axis',(-0.911376992537099,-0.411572566474045,0.));
#884=DIRECTION('ref_axis',(0.,0.,1.));
#885=DIRECTION('',(0.411572566474045,-0.911376992537099,0.));
#886=DIRECTION('',(0.,0.,1.));
#887=DIRECTION('',(-0.411572566474045,0.911376992537099,0.));
#888=DIRECTION('',(0.,0.,-1.));
#889=DIRECTION('center_axis',(0.422403649644901,-0.906407831368787,0.));
#890=DIRECTION('ref_axis',(0.,0.,1.));
#891=DIRECTION('',(0.906407831368787,0.422403649644901,0.));
#892=DIRECTION('',(0.,0.,1.));
#893=DIRECTION('',(-0.906407831368787,-0.422403649644901,0.));
#894=DIRECTION('center_axis',(-0.906664284187389,-0.421852907752181,0.));
#895=DIRECTION('ref_axis',(0.,0.,1.));
#896=DIRECTION('',(0.421852907752181,-0.906664284187389,0.));
#897=DIRECTION('',(0.,0.,1.));
#898=DIRECTION('',(-0.421852907752181,0.906664284187389,0.));
#899=DIRECTION('center_axis',(0.41753521913402,-0.908660740201042,0.));
#900=DIRECTION('ref_axis',(0.,0.,1.));
#901=DIRECTION('',(0.908660740201042,0.41753521913402,0.));
#902=DIRECTION('',(0.,0.,1.));
#903=DIRECTION('',(-0.908660740201042,-0.41753521913402,0.));
#904=DIRECTION('center_axis',(-0.904444242418841,-0.426591856878925,0.));
#905=DIRECTION('ref_axis',(0.,0.,1.));
#906=DIRECTION('',(0.426591856878925,-0.904444242418841,0.));
#907=DIRECTION('',(0.,0.,1.));
#908=DIRECTION('',(-0.426591856878925,0.904444242418841,0.));
#909=DIRECTION('center_axis',(0.400539896064965,-0.916279319672919,0.));
#910=DIRECTION('ref_axis',(0.,0.,1.));
#911=DIRECTION('',(0.916279319672919,0.400539896064965,0.));
#912=DIRECTION('',(0.,0.,1.));
#913=DIRECTION('',(-0.916279319672919,-0.400539896064965,0.));
#914=DIRECTION('center_axis',(0.417403140209048,-0.908721419657106,0.));
#915=DIRECTION('ref_axis',(0.,0.,1.));
#916=DIRECTION('',(0.908721419657106,0.417403140209048,0.));
#917=DIRECTION('',(0.,0.,1.));
#918=DIRECTION('',(-0.908721419657106,-0.417403140209048,0.));
#919=DIRECTION('',(0.,0.,-1.));
#920=DIRECTION('center_axis',(0.42043262156685,-0.907323762899675,0.));
#921=DIRECTION('ref_axis',(0.,0.,1.));
#922=DIRECTION('',(0.907323762899675,0.42043262156685,0.));
#923=DIRECTION('',(0.,0.,1.));
#924=DIRECTION('',(-0.907323762899675,-0.42043262156685,0.));
#925=DIRECTION('',(0.,0.,-1.));
#926=DIRECTION('center_axis',(-0.907227260607689,-0.420640817812856,0.));
#927=DIRECTION('ref_axis',(0.,0.,1.));
#928=DIRECTION('',(0.420640817812856,-0.907227260607689,0.));
#929=DIRECTION('',(0.,0.,1.));
#930=DIRECTION('',(-0.420640817812856,0.907227260607689,0.));
#931=DIRECTION('center_axis',(-0.419574037647093,0.907721117377202,0.));
#932=DIRECTION('ref_axis',(0.,0.,1.));
#933=DIRECTION('',(-0.907721117377202,-0.419574037647093,0.));
#934=DIRECTION('',(0.,0.,1.));
#935=DIRECTION('',(0.907721117377202,0.419574037647093,0.));
#936=DIRECTION('',(0.,0.,-1.));
#937=DIRECTION('center_axis',(-0.910975217828139,-0.412461092108063,0.));
#938=DIRECTION('ref_axis',(0.,0.,1.));
#939=DIRECTION('',(0.412461092108063,-0.910975217828138,0.));
#940=DIRECTION('',(-0.412461092108063,0.910975217828138,0.));
#941=DIRECTION('',(0.,0.,-1.));
#942=DIRECTION('center_axis',(-0.907068161835156,-0.420983788031072,0.));
#943=DIRECTION('ref_axis',(0.,0.,1.));
#944=DIRECTION('',(0.420983788031072,-0.907068161835156,0.));
#945=DIRECTION('',(0.,0.,1.));
#946=DIRECTION('',(-0.420983788031072,0.907068161835156,0.));
#947=DIRECTION('center_axis',(-0.912109328919391,-0.409947035723176,0.));
#948=DIRECTION('ref_axis',(0.,0.,1.));
#949=DIRECTION('',(0.409947035723176,-0.912109328919391,0.));
#950=DIRECTION('',(0.,0.,1.));
#951=DIRECTION('',(-0.409947035723176,0.912109328919391,0.));
#952=DIRECTION('',(0.,0.,-1.));
#953=DIRECTION('center_axis',(-0.909676411662544,-0.415317741090792,0.));
#954=DIRECTION('ref_axis',(0.,0.,1.));
#955=DIRECTION('',(0.415317741090792,-0.909676411662544,0.));
#956=DIRECTION('',(0.,0.,1.));
#957=DIRECTION('',(-0.415317741090792,0.909676411662544,0.));
#958=DIRECTION('',(0.,0.,-1.));
#959=DIRECTION('center_axis',(0.414770066531885,-0.909926256302749,0.));
#960=DIRECTION('ref_axis',(0.,0.,1.));
#961=DIRECTION('',(0.909926256302749,0.414770066531885,0.));
#962=DIRECTION('',(0.,0.,1.));
#963=DIRECTION('',(-0.909926256302749,-0.414770066531885,0.));
#964=DIRECTION('',(0.,0.,-1.));
#965=DIRECTION('center_axis',(0.415396137236102,-0.909640615391224,0.));
#966=DIRECTION('ref_axis',(0.,0.,1.));
#967=DIRECTION('',(0.909640615391224,0.415396137236102,0.));
#968=DIRECTION('',(0.,0.,1.));
#969=DIRECTION('',(-0.909640615391224,-0.415396137236102,0.));
#970=DIRECTION('center_axis',(0.415638489289915,-0.909529903972815,0.));
#971=DIRECTION('ref_axis',(0.,0.,1.));
#972=DIRECTION('',(0.909529903972814,0.415638489289915,0.));
#973=DIRECTION('',(0.,0.,1.));
#974=DIRECTION('',(-0.909529903972814,-0.415638489289915,0.));
#975=DIRECTION('',(0.,0.,-1.));
#976=DIRECTION('center_axis',(0.409159867355916,-0.912462713180812,0.));
#977=DIRECTION('ref_axis',(0.,0.,1.));
#978=DIRECTION('',(0.912462713180812,0.409159867355916,0.));
#979=DIRECTION('',(-0.912462713180812,-0.409159867355916,0.));
#980=DIRECTION('',(0.,0.,-1.));
#981=DIRECTION('center_axis',(-0.911505056453398,-0.41128886692918,0.));
#982=DIRECTION('ref_axis',(0.,0.,1.));
#983=DIRECTION('',(0.411288866929179,-0.911505056453398,0.));
#984=DIRECTION('',(-0.411288866929179,0.911505056453398,0.));
#985=DIRECTION('center_axis',(-0.421696145689993,0.906737205980986,0.));
#986=DIRECTION('ref_axis',(0.,0.,1.));
#987=DIRECTION('',(-0.906737205980986,-0.421696145689993,0.));
#988=DIRECTION('',(0.,0.,1.));
#989=DIRECTION('',(0.906737205980986,0.421696145689993,0.));
#990=DIRECTION('',(0.,0.,-1.));
#991=DIRECTION('center_axis',(-3.66632401407E-17,0.,-1.));
#992=DIRECTION('ref_axis',(0.911376992537099,0.411572566474045,-3.34140335360966E-17));
#993=DIRECTION('',(0.912127851727664,0.409905821015849,0.));
#994=DIRECTION('',(0.410243909414906,-0.911975841120791,0.));
#995=DIRECTION('',(-0.911821705639851,-0.410586382048933,0.));
#996=DIRECTION('',(0.410052030156082,-0.912062131965183,0.));
#997=DIRECTION('',(0.912500261749142,0.409076120432063,0.));
#998=DIRECTION('',(0.417946919711923,-0.908471448259832,0.));
#999=DIRECTION('',(0.912985532485556,0.407991933096802,0.));
#1000=DIRECTION('',(0.421836548610087,-0.906671895592187,0.));
#1001=DIRECTION('',(0.413914917367847,-0.910315572304664,0.));
#1002=DIRECTION('',(-0.41078122723594,0.911733943291866,0.));
#1003=DIRECTION('',(0.41462006382492,-0.909994616837825,0.));
#1004=DIRECTION('',(0.909307898949682,0.416123953777855,0.));
#1005=DIRECTION('',(-0.907355338764957,-0.42036447187498,0.));
#1006=DIRECTION('',(0.911015336808046,0.412372472530021,0.));
#1007=DIRECTION('',(0.417252264661776,-0.908790706177511,0.));
#1008=DIRECTION('',(-0.41587817017208,0.909420336024174,0.));
#1009=DIRECTION('',(-0.417347859014063,0.908746809940138,0.));
#1010=DIRECTION('center_axis',(0.906671895592187,0.421836548610087,0.));
#1011=DIRECTION('ref_axis',(0.,0.,1.));
#1012=DIRECTION('',(0.,0.,1.));
#1013=DIRECTION('',(0.421836548610087,-0.906671895592187,0.));
#1014=DIRECTION('center_axis',(-0.407991933096802,0.912985532485556,0.));
#1015=DIRECTION('ref_axis',(0.,0.,1.));
#1016=DIRECTION('',(0.,0.,1.));
#1017=DIRECTION('',(0.912985532485556,0.407991933096802,0.));
#1018=DIRECTION('center_axis',(-0.409076120432063,0.912500261749142,0.));
#1019=DIRECTION('ref_axis',(0.,0.,1.));
#1020=DIRECTION('',(0.,0.,1.));
#1021=DIRECTION('',(0.912500261749142,0.409076120432063,0.));
#1022=DIRECTION('',(0.,0.,-1.));
#1023=DIRECTION('center_axis',(0.410586382048933,-0.911821705639851,0.));
#1024=DIRECTION('ref_axis',(0.,0.,1.));
#1025=DIRECTION('',(0.,0.,1.));
#1026=DIRECTION('',(-0.911821705639851,-0.410586382048933,0.));
#1027=DIRECTION('',(0.,0.,-1.));
#1028=DIRECTION('center_axis',(-0.409905821015849,0.912127851727664,0.));
#1029=DIRECTION('ref_axis',(0.,0.,1.));
#1030=DIRECTION('',(0.912127851727664,0.409905821015849,0.));
#1031=DIRECTION('',(0.,0.,-1.));
#1032=DIRECTION('center_axis',(0.909994616837825,0.41462006382492,0.));
#1033=DIRECTION('ref_axis',(0.,0.,1.));
#1034=DIRECTION('',(0.41462006382492,-0.909994616837825,0.));
#1035=DIRECTION('center_axis',(-0.911733943291866,-0.41078122723594,0.));
#1036=DIRECTION('ref_axis',(0.,0.,1.));
#1037=DIRECTION('',(-0.41078122723594,0.911733943291866,0.));
#1038=DIRECTION('center_axis',(0.912062131965183,0.410052030156082,0.));
#1039=DIRECTION('ref_axis',(0.,0.,1.));
#1040=DIRECTION('',(0.410052030156082,-0.912062131965183,0.));
#1041=DIRECTION('center_axis',(0.911975841120791,0.410243909414906,0.));
#1042=DIRECTION('ref_axis',(0.,0.,1.));
#1043=DIRECTION('',(0.410243909414906,-0.911975841120791,0.));
#1044=DIRECTION('center_axis',(0.908471448259832,0.417946919711922,0.));
#1045=DIRECTION('ref_axis',(0.,0.,1.));
#1046=DIRECTION('',(0.417946919711923,-0.908471448259832,0.));
#1047=DIRECTION('center_axis',(-0.909420336023796,-0.415878170172907,0.));
#1048=DIRECTION('ref_axis',(0.,0.,1.));
#1049=DIRECTION('',(-0.41587817017208,0.909420336024174,0.));
#1050=DIRECTION('',(0.,0.,-1.));
#1051=DIRECTION('center_axis',(-0.908746809940138,-0.417347859014063,0.));
#1052=DIRECTION('ref_axis',(0.,0.,1.));
#1053=DIRECTION('',(-0.417347859014063,0.908746809940138,0.));
#1054=DIRECTION('center_axis',(0.908790706177511,0.417252264661776,0.));
#1055=DIRECTION('ref_axis',(0.,0.,1.));
#1056=DIRECTION('',(0.417252264661776,-0.908790706177511,0.));
#1057=DIRECTION('center_axis',(0.910315572304664,0.413914917367847,0.));
#1058=DIRECTION('ref_axis',(0.,0.,1.));
#1059=DIRECTION('',(0.413914917367847,-0.910315572304664,0.));
#1060=DIRECTION('center_axis',(-0.412372472530021,0.911015336808046,0.));
#1061=DIRECTION('ref_axis',(0.,0.,1.));
#1062=DIRECTION('',(0.911015336808046,0.412372472530021,0.));
#1063=DIRECTION('center_axis',(0.42036447187498,-0.907355338764957,0.));
#1064=DIRECTION('ref_axis',(0.,0.,1.));
#1065=DIRECTION('',(-0.907355338764957,-0.42036447187498,0.));
#1066=DIRECTION('center_axis',(-0.416123953777855,0.909307898949683,0.));
#1067=DIRECTION('ref_axis',(0.,0.,1.));
#1068=DIRECTION('',(0.909307898949682,0.416123953777855,0.));
#1069=DIRECTION('center_axis',(1.978651055212E-17,0.,1.));
#1070=DIRECTION('ref_axis',(0.419574037647093,-0.907721117377202,-8.30190612329981E-18));
#1071=CARTESIAN_POINT('',(0.,0.,0.));
#1072=CARTESIAN_POINT('Origin',(11668.5,-6866.999999998,-2.273736754432E-13));
#1073=CARTESIAN_POINT('',(11194.9999999986,-7081.00000000662,-3561.2305));
#1074=CARTESIAN_POINT('',(12142.0000000016,-6652.99999999046,-3561.2305));
#1075=CARTESIAN_POINT('',(11195.,-7081.000000006,-3561.2305));
#1076=CARTESIAN_POINT('',(12142.0000000015,-6652.9999999903,3561.2305));
#1077=CARTESIAN_POINT('',(12142.,-6652.999999991,-3561.2305));
#1078=CARTESIAN_POINT('',(11195.0000000008,-7081.00000000539,3561.2305));
#1079=CARTESIAN_POINT('',(12142.,-6652.999999991,3561.2305));
#1080=CARTESIAN_POINT('',(11195.,-7081.000000006,3561.2305));
#1081=CARTESIAN_POINT('Origin',(-11752.5,4190.499999997,-2.273736754432E-13));
#1082=CARTESIAN_POINT('',(-12141.9999999994,5053.0000000146,-3561.2305));
#1083=CARTESIAN_POINT('',(-11363.000000002,3327.99999997912,-3561.2305));
#1084=CARTESIAN_POINT('',(-12142.,5053.000000014,-3561.2305));
#1085=CARTESIAN_POINT('',(-11363.0000000005,3327.99999998047,3561.2305));
#1086=CARTESIAN_POINT('',(-11363.,3327.99999998,-3561.2305));
#1087=CARTESIAN_POINT('',(-12141.999999998,5053.00000001492,3561.2305));
#1088=CARTESIAN_POINT('',(-11363.,3327.99999998,3561.2305));
#1089=CARTESIAN_POINT('',(-12142.,5053.000000014,3561.2305));
#1090=CARTESIAN_POINT('Origin',(-11260.,3375.999999989,-2.273736754432E-13));
#1091=CARTESIAN_POINT('',(-11156.9999999996,3423.99999999838,-3561.2305));
#1092=CARTESIAN_POINT('',(-11363.,3327.99999998,-3561.2305));
#1093=CARTESIAN_POINT('',(-11156.9999999992,3423.99999999921,3561.2305));
#1094=CARTESIAN_POINT('',(-11157.,3423.999999999,-3561.2305));
#1095=CARTESIAN_POINT('',(-11157.,3423.999999999,3561.2305));
#1096=CARTESIAN_POINT('Origin',(-9803.500000002,515.00000001395,-2.273736754432E-13));
#1097=CARTESIAN_POINT('',(-8450.00000000471,-2393.99999997141,-3561.2305));
#1098=CARTESIAN_POINT('',(-11157.,3423.999999999,-3561.2305));
#1099=CARTESIAN_POINT('',(-8450.0000000038,-2393.99999997172,3561.2305));
#1100=CARTESIAN_POINT('',(-8450.000000004,-2393.999999971,-3561.2305));
#1101=CARTESIAN_POINT('',(-8450.000000004,-2393.999999971,3561.2305));
#1102=CARTESIAN_POINT('Origin',(-6425.000000003,-1463.499999983,-2.273736754432E-13));
#1103=CARTESIAN_POINT('',(-4400.00000000225,-532.999999995012,-3561.2305));
#1104=CARTESIAN_POINT('',(-8450.000000004,-2393.999999971,-3561.2305));
#1105=CARTESIAN_POINT('',(-4400.00000000192,-532.999999995257,3561.2305));
#1106=CARTESIAN_POINT('',(-4400.000000002,-532.9999999958,-3561.2305));
#1107=CARTESIAN_POINT('',(-4400.000000002,-532.9999999958,3561.2305));
#1108=CARTESIAN_POINT('Origin',(-4154.500000004,-1053.500000009,-2.273736754432E-13));
#1109=CARTESIAN_POINT('',(-3909.000000007,-1574.000000022,-3561.2305));
#1110=CARTESIAN_POINT('',(-4400.000000002,-532.9999999958,-3561.2305));
#1111=CARTESIAN_POINT('',(-3909.000000007,-1574.000000022,3561.2305));
#1112=CARTESIAN_POINT('',(-3909.000000007,-1574.000000022,-3561.2305));
#1113=CARTESIAN_POINT('',(-3909.000000007,-1574.000000022,3561.2305));
#1114=CARTESIAN_POINT('Origin',(-3650.500000003,-1461.00000001,-2.273736754432E-13));
#1115=CARTESIAN_POINT('',(-3392.,-1347.999999998,-3561.2305));
#1116=CARTESIAN_POINT('',(-3909.000000007,-1574.000000022,-3561.2305));
#1117=CARTESIAN_POINT('',(-3392.,-1347.999999998,3561.2305));
#1118=CARTESIAN_POINT('',(-3392.,-1347.999999998,-3561.2305));
#1119=CARTESIAN_POINT('',(-3392.,-1347.999999998,3561.2305));
#1120=CARTESIAN_POINT('Origin',(-1794.000000002,-4277.999999991,-2.273736754432E-13));
#1121=CARTESIAN_POINT('',(-2003.000000004,-4374.000000011,-3561.2305));
#1122=CARTESIAN_POINT('',(-1584.999999999,-4181.999999972,-3561.2305));
#1123=CARTESIAN_POINT('',(-2003.000000004,-4374.000000011,-3561.2305));
#1124=CARTESIAN_POINT('',(-1584.999999999,-4181.999999972,3561.2305));
#1125=CARTESIAN_POINT('',(-1584.999999999,-4181.999999972,-3561.2305));
#1126=CARTESIAN_POINT('',(-2003.000000004,-4374.000000011,3561.2305));
#1127=CARTESIAN_POINT('',(-1584.999999999,-4181.999999972,3561.2305));
#1128=CARTESIAN_POINT('',(-2003.000000004,-4374.000000011,3561.2305));
#1129=CARTESIAN_POINT('Origin',(701.49999999559,-1535.000000003,-2.273736754432E-13));
#1130=CARTESIAN_POINT('',(-2186.000000009,-2873.000000021,-3561.2305));
#1131=CARTESIAN_POINT('',(3589.,-196.9999999855,-3561.2305));
#1132=CARTESIAN_POINT('',(-2186.000000009,-2873.000000021,-3561.2305));
#1133=CARTESIAN_POINT('',(3588.9999999997,-196.999999985641,3561.2305));
#1134=CARTESIAN_POINT('',(3589.,-196.9999999855,-3561.2305));
#1135=CARTESIAN_POINT('',(-2186.000000009,-2873.000000021,3561.2305));
#1136=CARTESIAN_POINT('',(3589.,-196.9999999855,3561.2305));
#1137=CARTESIAN_POINT('',(-2186.000000009,-2873.000000021,3561.2305));
#1138=CARTESIAN_POINT('Origin',(4364.000000001,-1868.499999982,-2.273736754432E-13));
#1139=CARTESIAN_POINT('',(5139.00000000327,-3539.99999997877,-3561.2305));
#1140=CARTESIAN_POINT('',(3589.,-196.9999999855,-3561.2305));
#1141=CARTESIAN_POINT('',(5139.000000003,-3539.999999979,3561.2305));
#1142=CARTESIAN_POINT('',(5139.000000003,-3539.999999979,-3561.2305));
#1143=CARTESIAN_POINT('',(5139.000000003,-3539.999999979,3561.2305));
#1144=CARTESIAN_POINT('Origin',(4776.499999993,-5187.5,-2.273736754432E-13));
#1145=CARTESIAN_POINT('',(5166.999999994,-5006.999999983,-3561.2305));
#1146=CARTESIAN_POINT('',(4385.999999991,-5368.000000017,-3561.2305));
#1147=CARTESIAN_POINT('',(5166.999999994,-5006.999999983,-3561.2305));
#1148=CARTESIAN_POINT('',(4385.999999991,-5368.000000017,3561.2305));
#1149=CARTESIAN_POINT('',(4385.999999991,-5368.000000017,-3561.2305));
#1150=CARTESIAN_POINT('',(5166.999999994,-5006.999999983,3561.2305));
#1151=CARTESIAN_POINT('',(4385.999999991,-5368.000000017,3561.2305));
#1152=CARTESIAN_POINT('',(5166.999999994,-5006.999999983,3561.2305));
#1153=CARTESIAN_POINT('Origin',(4888.999999996,-4392.999999982,-2.273736754432E-13));
#1154=CARTESIAN_POINT('',(4610.999999997,-3778.99999998,-3561.2305));
#1155=CARTESIAN_POINT('',(4610.999999997,-3778.99999998,-3561.2305));
#1156=CARTESIAN_POINT('',(4610.999999997,-3778.99999998,3561.2305));
#1157=CARTESIAN_POINT('',(5166.999999994,-5006.999999983,3561.2305));
#1158=CARTESIAN_POINT('',(4610.999999997,-3778.99999998,3561.2305));
#1159=CARTESIAN_POINT('Origin',(4482.999999993,-5577.000000019,-2.273736754432E-13));
#1160=CARTESIAN_POINT('',(4579.999999994,-5786.000000022,-3561.2305));
#1161=CARTESIAN_POINT('',(4385.999999991,-5368.000000017,-3561.2305));
#1162=CARTESIAN_POINT('',(4579.999999994,-5786.000000022,3561.2305));
#1163=CARTESIAN_POINT('',(4579.999999994,-5786.000000022,-3561.2305));
#1164=CARTESIAN_POINT('',(4579.999999994,-5786.000000022,3561.2305));
#1165=CARTESIAN_POINT('Origin',(6125.499999995,-5673.500000004,-2.273736754432E-13));
#1166=CARTESIAN_POINT('',(5900.999999991,-5173.999999999,-3561.2305));
#1167=CARTESIAN_POINT('',(6349.99999999834,-6173.0000000099,-3561.2305));
#1168=CARTESIAN_POINT('',(5900.999999991,-5173.999999999,-3561.2305));
#1169=CARTESIAN_POINT('',(6349.99999999834,-6173.0000000099,3561.2305));
#1170=CARTESIAN_POINT('',(6349.999999998,-6173.00000001,-3561.2305));
#1171=CARTESIAN_POINT('',(5900.999999991,-5173.999999999,3561.2305));
#1172=CARTESIAN_POINT('',(6349.999999998,-6173.00000001,3561.2305));
#1173=CARTESIAN_POINT('',(5900.999999991,-5173.999999999,3561.2305));
#1174=CARTESIAN_POINT('Origin',(6820.499999994,-7516.000000003,-2.273736754432E-13));
#1175=CARTESIAN_POINT('',(6231.999999996,-6227.000000013,-3561.2305));
#1176=CARTESIAN_POINT('',(7408.999999992,-8804.999999993,-3561.2305));
#1177=CARTESIAN_POINT('',(6231.999999996,-6227.000000013,-3561.2305));
#1178=CARTESIAN_POINT('',(7408.999999992,-8804.999999993,3561.2305));
#1179=CARTESIAN_POINT('',(7408.999999992,-8804.999999993,-3561.2305));
#1180=CARTESIAN_POINT('',(6231.999999996,-6227.000000013,3561.2305));
#1181=CARTESIAN_POINT('',(7408.999999992,-8804.999999993,3561.2305));
#1182=CARTESIAN_POINT('',(6231.999999996,-6227.000000013,3561.2305));
#1183=CARTESIAN_POINT('Origin',(8825.999999994,-7246.500000008,-2.273736754432E-13));
#1184=CARTESIAN_POINT('',(8010.999999991,-7618.000000017,-3561.2305));
#1185=CARTESIAN_POINT('',(9640.999999996,-6875.,-3561.2305));
#1186=CARTESIAN_POINT('',(8010.999999991,-7618.000000017,-3561.2305));
#1187=CARTESIAN_POINT('',(9640.999999996,-6875.,3561.2305));
#1188=CARTESIAN_POINT('',(9640.999999996,-6875.,-3561.2305));
#1189=CARTESIAN_POINT('',(8010.999999991,-7618.000000017,3561.2305));
#1190=CARTESIAN_POINT('',(9640.999999996,-6875.,3561.2305));
#1191=CARTESIAN_POINT('',(8010.999999991,-7618.000000017,3561.2305));
#1192=CARTESIAN_POINT('Origin',(7881.99999999,-8589.000000007,-2.273736754432E-13));
#1193=CARTESIAN_POINT('',(8354.999999989,-8373.000000021,-3561.2305));
#1194=CARTESIAN_POINT('',(7408.999999992,-8804.999999993,-3561.2305));
#1195=CARTESIAN_POINT('',(8354.999999989,-8373.000000021,3561.2305));
#1196=CARTESIAN_POINT('',(8354.999999989,-8373.000000021,-3561.2305));
#1197=CARTESIAN_POINT('',(8354.999999989,-8373.000000021,3561.2305));
#1198=CARTESIAN_POINT('Origin',(10581.49999999,-6668.999999994,-2.273736754432E-13));
#1199=CARTESIAN_POINT('',(10226.9999999901,-6831.00000000627,-3561.2305));
#1200=CARTESIAN_POINT('',(10935.9999999908,-6506.99999998344,-3561.2305));
#1201=CARTESIAN_POINT('',(10226.99999999,-6831.000000006,-3561.2305));
#1202=CARTESIAN_POINT('',(10935.999999992,-6506.99999998212,3561.2305));
#1203=CARTESIAN_POINT('',(10935.99999999,-6506.999999983,-3561.2305));
#1204=CARTESIAN_POINT('',(10226.9999999898,-6831.00000000553,3561.2305));
#1205=CARTESIAN_POINT('',(10935.99999999,-6506.999999983,3561.2305));
#1206=CARTESIAN_POINT('',(10226.99999999,-6831.000000006,3561.2305));
#1207=CARTESIAN_POINT('Origin',(9974.999999991,-6943.999999989,-2.273736754432E-13));
#1208=CARTESIAN_POINT('',(9722.999999991,-7056.999999972,-3561.2305));
#1209=CARTESIAN_POINT('',(9722.999999991,-7056.999999972,-3561.2305));
#1210=CARTESIAN_POINT('',(9722.999999991,-7056.999999972,3561.2305));
#1211=CARTESIAN_POINT('',(10226.99999999,-6831.000000006,3561.2305));
#1212=CARTESIAN_POINT('',(9722.999999991,-7056.999999972,3561.2305));
#1213=CARTESIAN_POINT('Origin',(11065.5,-6793.999999994,-2.273736754432E-13));
#1214=CARTESIAN_POINT('',(10935.99999999,-6506.999999983,-3561.2305));
#1215=CARTESIAN_POINT('',(11195.,-7081.000000006,3561.2305));
#1216=CARTESIAN_POINT('Origin',(4762.499999997,6239.499999996,-2.273736754432E-13));
#1217=CARTESIAN_POINT('',(6014.99999999136,6821.99999998562,-3561.2305));
#1218=CARTESIAN_POINT('',(3510.00000000241,5657.00000000704,-3561.2305));
#1219=CARTESIAN_POINT('',(6014.999999992,6821.999999986,-3561.2305));
#1220=CARTESIAN_POINT('',(3510.00000000235,5657.00000000716,3561.2305));
#1221=CARTESIAN_POINT('',(3510.000000002,5657.000000007,-3561.2305));
#1222=CARTESIAN_POINT('',(6014.99999999136,6821.99999998562,3561.2305));
#1223=CARTESIAN_POINT('',(3510.000000002,5657.000000007,3561.2305));
#1224=CARTESIAN_POINT('',(6014.999999992,6821.999999986,3561.2305));
#1225=CARTESIAN_POINT('Origin',(1767.131578943,-1419.973684208,-3561.2305));
#1226=CARTESIAN_POINT('',(-3792.999999998,8804.999999993,-3561.2305));
#1227=CARTESIAN_POINT('',(-12142.,5053.000000014,-3561.2305));
#1228=CARTESIAN_POINT('',(-3228.00000001,7548.999999999,-3561.2305));
#1229=CARTESIAN_POINT('',(-3792.999999998,8804.999999993,-3561.2305));
#1230=CARTESIAN_POINT('',(-3398.999999998,7472.000000009,-3561.2305));
#1231=CARTESIAN_POINT('',(-3228.00000001,7548.999999999,-3561.2305));
#1232=CARTESIAN_POINT('',(-2690.00000001,5895.000000019,-3561.2305));
#1233=CARTESIAN_POINT('',(-3398.999999998,7472.000000009,-3561.2305));
#1234=CARTESIAN_POINT('',(-1394.000000008,6476.000000024,-3561.2305));
#1235=CARTESIAN_POINT('',(-2690.00000001,5895.000000019,-3561.2305));
#1236=CARTESIAN_POINT('',(-1227.000000006,6113.000000012,-3561.2305));
#1237=CARTESIAN_POINT('',(-1394.000000008,6476.000000024,-3561.2305));
#1238=CARTESIAN_POINT('',(2518.9999999926,7787.00000001105,-3561.2305));
#1239=CARTESIAN_POINT('',(-1227.000000006,6113.000000012,-3561.2305));
#1240=CARTESIAN_POINT('',(2518.999999993,7787.000000011,-3561.2305));
#1241=CARTESIAN_POINT('',(6014.999999992,6821.999999986,-3561.2305));
#1242=CARTESIAN_POINT('',(9722.999999991,-7056.999999972,-3561.2305));
#1243=CARTESIAN_POINT('',(8010.999999991,-7618.000000017,-3561.2305));
#1244=CARTESIAN_POINT('',(6231.999999996,-6227.000000013,-3561.2305));
#1245=CARTESIAN_POINT('',(5900.999999991,-5173.999999999,-3561.2305));
#1246=CARTESIAN_POINT('',(4610.999999997,-3778.99999998,-3561.2305));
#1247=CARTESIAN_POINT('',(-2186.000000009,-2873.000000021,-3561.2305));
#1248=CARTESIAN_POINT('',(-2169.000000002,-4010.999999999,-3561.2305));
#1249=CARTESIAN_POINT('',(-2003.000000004,-4374.000000011,-3561.2305));
#1250=CARTESIAN_POINT('',(-2169.000000002,-4010.999999999,-3561.2305));
#1251=CARTESIAN_POINT('Origin',(3014.499999997,6722.000000009,-2.273736754432E-13));
#1252=CARTESIAN_POINT('',(2518.9999999926,7787.00000001105,3561.2305));
#1253=CARTESIAN_POINT('',(2518.999999993,7787.000000011,-3561.2305));
#1254=CARTESIAN_POINT('',(2518.999999993,7787.000000011,3561.2305));
#1255=CARTESIAN_POINT('Origin',(645.99999999339,6950.000000012,-2.273736754432E-13));
#1256=CARTESIAN_POINT('',(-1227.000000006,6113.000000012,3561.2305));
#1257=CARTESIAN_POINT('',(-1227.000000006,6113.000000012,-3561.2305));
#1258=CARTESIAN_POINT('',(-1227.000000006,6113.000000012,3561.2305));
#1259=CARTESIAN_POINT('Origin',(-2042.000000009,6185.500000021,-2.273736754432E-13));
#1260=CARTESIAN_POINT('',(-2690.00000001,5895.000000019,3561.2305));
#1261=CARTESIAN_POINT('',(-2690.00000001,5895.000000019,-3561.2305));
#1262=CARTESIAN_POINT('',(-1394.000000008,6476.000000024,3561.2305));
#1263=CARTESIAN_POINT('',(-2690.00000001,5895.000000019,3561.2305));
#1264=CARTESIAN_POINT('',(-1394.000000008,6476.000000024,3561.2305));
#1265=CARTESIAN_POINT('Origin',(-3313.500000004,7510.500000004,-2.273736754432E-13));
#1266=CARTESIAN_POINT('',(-3228.00000001,7548.999999999,3561.2305));
#1267=CARTESIAN_POINT('',(-3228.00000001,7548.999999999,-3561.2305));
#1268=CARTESIAN_POINT('',(-3398.999999998,7472.000000009,3561.2305));
#1269=CARTESIAN_POINT('',(-3228.00000001,7548.999999999,3561.2305));
#1270=CARTESIAN_POINT('',(-3398.999999998,7472.000000009,3561.2305));
#1271=CARTESIAN_POINT('Origin',(-7967.499999999,6929.000000004,-2.273736754432E-13));
#1272=CARTESIAN_POINT('',(-3792.999999998,8804.999999993,3561.2305));
#1273=CARTESIAN_POINT('',(-12142.,5053.000000014,3561.2305));
#1274=CARTESIAN_POINT('',(-3792.999999998,8804.999999993,3561.2305));
#1275=CARTESIAN_POINT('Origin',(8182.99999999,-7995.500000019,-2.273736754432E-13));
#1276=CARTESIAN_POINT('',(8010.999999991,-7618.000000017,3561.2305));
#1277=CARTESIAN_POINT('Origin',(9681.999999993,-6965.999999986,-2.273736754432E-13));
#1278=CARTESIAN_POINT('',(9722.999999991,-7056.999999972,3561.2305));
#1279=CARTESIAN_POINT('Origin',(-3044.500000004,6683.500000014,-2.273736754432E-13));
#1280=CARTESIAN_POINT('',(-3398.999999998,7472.000000009,3561.2305));
#1281=CARTESIAN_POINT('Origin',(-3510.500000004,8176.999999996,-2.273736754432E-13));
#1282=CARTESIAN_POINT('',(-3792.999999998,8804.999999993,3561.2305));
#1283=CARTESIAN_POINT('Origin',(-1310.500000007,6294.500000018,-2.273736754432E-13));
#1284=CARTESIAN_POINT('',(-1394.000000008,6476.000000024,3561.2305));
#1285=CARTESIAN_POINT('Origin',(-2086.000000003,-4192.500000005,-2.273736754432E-13));
#1286=CARTESIAN_POINT('',(-2169.000000002,-4010.999999999,3561.2305));
#1287=CARTESIAN_POINT('',(-2003.000000004,-4374.000000011,3561.2305));
#1288=CARTESIAN_POINT('',(-2169.000000002,-4010.999999999,3561.2305));
#1289=CARTESIAN_POINT('Origin',(-2780.500000001,-2679.499999998,-2.273736754432E-13));
#1290=CARTESIAN_POINT('',(-2169.000000002,-4010.999999999,3561.2305));
#1291=CARTESIAN_POINT('Origin',(-1885.500000004,-3527.499999997,-2.273736754432E-13));
#1292=CARTESIAN_POINT('',(-2186.000000009,-2873.000000021,3561.2305));
#1293=CARTESIAN_POINT('Origin',(9078.499999996,84.499999997257,-2.273736754432E-13));
#1294=CARTESIAN_POINT('',(6014.999999992,6821.999999986,3561.2305));
#1295=CARTESIAN_POINT('Origin',(4875.,-3659.49999998,-2.273736754432E-13));
#1296=CARTESIAN_POINT('',(4610.999999997,-3778.99999998,3561.2305));
#1297=CARTESIAN_POINT('Origin',(5240.499999993,-5480.00000001,-2.273736754432E-13));
#1298=CARTESIAN_POINT('',(5900.999999991,-5173.999999999,3561.2305));
#1299=CARTESIAN_POINT('Origin',(6290.999999997,-6200.000000012,-2.273736754432E-13));
#1300=CARTESIAN_POINT('',(6231.999999996,-6227.000000013,3561.2305));
#1301=CARTESIAN_POINT('Origin',(1767.131578943,-1419.973684208,3561.2305));
#1302=UNCERTAINTY_MEASURE_WITH_UNIT(LENGTH_MEASURE(0.01),#1306,
'DISTANCE_ACCURACY_VALUE',
'Maximum model space distance between geometric entities at asserted c
onnectivities');
#1303=UNCERTAINTY_MEASURE_WITH_UNIT(LENGTH_MEASURE(0.01),#1306,
'DISTANCE_ACCURACY_VALUE',
'Maximum model space distance between geometric entities at asserted c
onnectivities');
#1304=(
GEOMETRIC_REPRESENTATION_CONTEXT(3)
GLOBAL_UNCERTAINTY_ASSIGNED_CONTEXT((#1302))
GLOBAL_UNIT_ASSIGNED_CONTEXT((#1306,#1308,#1309))
REPRESENTATION_CONTEXT('','3D')
);
#1305=(
GEOMETRIC_REPRESENTATION_CONTEXT(3)
GLOBAL_UNCERTAINTY_ASSIGNED_CONTEXT((#1303))
GLOBAL_UNIT_ASSIGNED_CONTEXT((#1306,#1308,#1309))
REPRESENTATION_CONTEXT('','3D')
);
#1306=(
LENGTH_UNIT()
NAMED_UNIT(*)
SI_UNIT(.MILLI.,.METRE.)
);
#1307=(
LENGTH_UNIT()
NAMED_UNIT(*)
SI_UNIT($,.METRE.)
);
#1308=(
NAMED_UNIT(*)
PLANE_ANGLE_UNIT()
SI_UNIT($,.RADIAN.)
);
#1309=(
NAMED_UNIT(*)
SI_UNIT($,.STERADIAN.)
SOLID_ANGLE_UNIT()
);
#1310=SHAPE_DEFINITION_REPRESENTATION(#1311,#1312);
#1311=PRODUCT_DEFINITION_SHAPE('',$,#1314);
#1312=SHAPE_REPRESENTATION('',(#834),#1304);
#1313=PRODUCT_DEFINITION_CONTEXT('part definition',#1318,'design');
#1314=PRODUCT_DEFINITION('Open CASCADE STEP translator 7.7 26',
'(\X2\672A4FDD5B58\X0\)',#1315,#1313);
#1315=PRODUCT_DEFINITION_FORMATION('',$,#1320);
#1316=PRODUCT_RELATED_PRODUCT_CATEGORY('(\X2\672A4FDD5B58\X0\)',
'(\X2\672A4FDD5B58\X0\)',(#1320));
#1317=APPLICATION_PROTOCOL_DEFINITION('international standard',
'automotive_design',2009,#1318);
#1318=APPLICATION_CONTEXT(
'Core Data for Automotive Mechanical Design Process');
#1319=PRODUCT_CONTEXT('part definition',#1318,'mechanical');
#1320=PRODUCT('Open CASCADE STEP translator 7.7 26','(\X2\672A4FDD5B58\X0\)',
'Open CASCADE Model',(#1319));
#1321=PRESENTATION_STYLE_ASSIGNMENT((#1322));
#1322=SURFACE_STYLE_USAGE(.BOTH.,#1323);
#1323=SURFACE_SIDE_STYLE('',(#1324));
#1324=SURFACE_STYLE_FILL_AREA(#1325);
#1325=FILL_AREA_STYLE('\X2\94A2\X0\ - \X2\7F0E5149\X0\',(#1326));
#1326=FILL_AREA_STYLE_COLOUR('\X2\94A2\X0\ - \X2\7F0E5149\X0\',#1327);
#1327=COLOUR_RGB('\X2\94A2\X0\ - \X2\7F0E5149\X0\',0.627450980392157,0.627450980392157,
0.627450980392157);
ENDSEC;
END-ISO-10303-21;
