# OBJ file generated from STEP using CadQuery
# Vertices: 60
# Faces: 36

v -183.500000 576.600000 -187.123050
v -123.500000 604.100000 -187.123050
v -123.500000 604.100000 187.123050
v -183.500000 576.600000 187.123050
v -546.500000 456.700000 -187.123050
v -43.900000 -642.300000 -187.123050
v -43.900000 -642.300000 187.123050
v -546.500000 456.700000 187.123050
v -43.900000 -642.300000 -187.123050
v 14.600000 -615.100000 -187.123050
v 14.600000 -615.100000 187.123050
v -43.900000 -642.300000 187.123050
v 14.600000 -615.100000 -187.123050
v -13.400000 -552.100000 -187.123050
v -13.400000 -552.100000 187.123050
v 14.600000 -615.100000 187.123050
v -13.400000 -552.100000 -187.123050
v 546.500000 -297.800000 -187.123050
v 546.500000 -297.800000 187.123050
v -13.400000 -552.100000 187.123050
v 546.500000 -297.800000 -187.123050
v 230.400000 393.200000 -187.123050
v 230.400000 393.200000 187.123050
v 546.500000 -297.800000 187.123050
v -42.400000 268.300000 -187.123050
v -183.500000 576.600000 -187.123050
v -183.500000 576.600000 187.123050
v -42.400000 268.300000 187.123050
v -13.400000 -552.100000 -187.123050
v 546.500000 -297.800000 -187.123050
v 14.600000 -615.100000 -187.123050
v -43.900000 -642.300000 -187.123050
v -546.500000 456.700000 -187.123050
v -140.900000 642.300000 -187.123050
v -123.500000 604.100000 -187.123050
v -183.500000 576.600000 -187.123050
v -42.400000 268.300000 -187.123050
v 230.400000 393.200000 -187.123050
v -546.500000 456.700000 -187.123050
v -140.900000 642.300000 -187.123050
v -546.500000 456.700000 187.123050
v -140.900000 642.300000 187.123050
v -42.400000 268.300000 -187.123050
v 230.400000 393.200000 -187.123050
v -42.400000 268.300000 187.123050
v 230.400000 393.200000 187.123050
v -140.900000 642.300000 -187.123050
v -123.500000 604.100000 -187.123050
v -140.900000 642.300000 187.123050
v -123.500000 604.100000 187.123050
v -123.500000 604.100000 187.123050
v -183.500000 576.600000 187.123050
v -140.900000 642.300000 187.123050
v -546.500000 456.700000 187.123050
v -43.900000 -642.300000 187.123050
v 14.600000 -615.100000 187.123050
v -13.400000 -552.100000 187.123050
v 546.500000 -297.800000 187.123050
v 230.400000 393.200000 187.123050
v -42.400000 268.300000 187.123050

f 4 1 2
f 4 2 3
f 5 6 7
f 8 5 7
f 12 9 10
f 12 10 11
f 15 13 14
f 16 13 15
f 20 17 18
f 20 18 19
f 21 22 23
f 24 21 23
f 28 25 26
f 28 26 27
f 29 31 32
f 33 29 32
f 37 30 29
f 37 29 33
f 38 30 37
f 36 37 33
f 34 35 36
f 34 36 33
f 40 39 41
f 42 40 41
f 46 44 43
f 46 43 45
f 49 48 47
f 50 48 49
f 57 55 56
f 60 57 58
f 60 58 59
f 52 51 53
f 54 60 52
f 54 57 60
f 54 52 53
f 54 55 57
