ISO-10303-21;
HEADER;
/* Generated by software containing ST-Developer
 * from STEP Tools, Inc. (www.steptools.com) 
 */

FILE_DESCRIPTION(
/* description */ ('Open CASCADE Model'),
/* implementation_level */ '2;1');

FILE_NAME(
/* name */ '25.step',
/* time_stamp */ '2025-12-23T14:08:17+08:00',
/* author */ (''),
/* organization */ (''),
/* preprocessor_version */ 'ST-DEVELOPER v20.1',
/* originating_system */ 'Autodesk Translation Framework v14.21.0.0',
/* authorisation */ '');

FILE_SCHEMA (('AUTOMOTIVE_DESIGN { 1 0 10303 214 3 1 1 }'));
ENDSEC;

DATA;
#10=MECHANICAL_DESIGN_GEOMETRIC_PRESENTATION_REPRESENTATION('',(#13),#381);
#11=SHAPE_REPRESENTATION_RELATIONSHIP('SRR','None',#388,#12);
#12=ADVANCED_BREP_SHAPE_REPRESENTATION('',(#14),#380);
#13=STYLED_ITEM('',(#397),#14);
#14=MANIFOLD_SOLID_BREP('\X2\5B9E4F53\X0\1',#233);
#15=FACE_OUTER_BOUND('',#27,.T.);
#16=FACE_OUTER_BOUND('',#28,.T.);
#17=FACE_OUTER_BOUND('',#29,.T.);
#18=FACE_OUTER_BOUND('',#30,.T.);
#19=FACE_OUTER_BOUND('',#31,.T.);
#20=FACE_OUTER_BOUND('',#32,.T.);
#21=FACE_OUTER_BOUND('',#33,.T.);
#22=FACE_OUTER_BOUND('',#34,.T.);
#23=FACE_OUTER_BOUND('',#35,.T.);
#24=FACE_OUTER_BOUND('',#36,.T.);
#25=FACE_OUTER_BOUND('',#37,.T.);
#26=FACE_OUTER_BOUND('',#38,.T.);
#27=EDGE_LOOP('',(#149,#150,#151,#152));
#28=EDGE_LOOP('',(#153,#154,#155,#156));
#29=EDGE_LOOP('',(#157,#158,#159,#160));
#30=EDGE_LOOP('',(#161,#162,#163,#164));
#31=EDGE_LOOP('',(#165,#166,#167,#168));
#32=EDGE_LOOP('',(#169,#170,#171,#172));
#33=EDGE_LOOP('',(#173,#174,#175,#176));
#34=EDGE_LOOP('',(#177,#178,#179,#180,#181,#182,#183,#184,#185,#186));
#35=EDGE_LOOP('',(#187,#188,#189,#190));
#36=EDGE_LOOP('',(#191,#192,#193,#194));
#37=EDGE_LOOP('',(#195,#196,#197,#198));
#38=EDGE_LOOP('',(#199,#200,#201,#202,#203,#204,#205,#206,#207,#208));
#39=LINE('',#319,#69);
#40=LINE('',#321,#70);
#41=LINE('',#323,#71);
#42=LINE('',#324,#72);
#43=LINE('',#328,#73);
#44=LINE('',#330,#74);
#45=LINE('',#332,#75);
#46=LINE('',#333,#76);
#47=LINE('',#336,#77);
#48=LINE('',#338,#78);
#49=LINE('',#339,#79);
#50=LINE('',#342,#80);
#51=LINE('',#344,#81);
#52=LINE('',#345,#82);
#53=LINE('',#348,#83);
#54=LINE('',#350,#84);
#55=LINE('',#351,#85);
#56=LINE('',#354,#86);
#57=LINE('',#356,#87);
#58=LINE('',#357,#88);
#59=LINE('',#360,#89);
#60=LINE('',#362,#90);
#61=LINE('',#363,#91);
#62=LINE('',#366,#92);
#63=LINE('',#367,#93);
#64=LINE('',#368,#94);
#65=LINE('',#371,#95);
#66=LINE('',#372,#96);
#67=LINE('',#374,#97);
#68=LINE('',#376,#98);
#69=VECTOR('',#263,0.999999999999577);
#70=VECTOR('',#264,1.);
#71=VECTOR('',#265,0.999999999999577);
#72=VECTOR('',#266,1.);
#73=VECTOR('',#269,0.999999999999713);
#74=VECTOR('',#270,1.);
#75=VECTOR('',#271,0.999999999999713);
#76=VECTOR('',#272,1.);
#77=VECTOR('',#275,0.999999999999983);
#78=VECTOR('',#276,1.);
#79=VECTOR('',#277,0.999999999999983);
#80=VECTOR('',#280,1.00000000000019);
#81=VECTOR('',#281,1.);
#82=VECTOR('',#282,1.00000000000019);
#83=VECTOR('',#285,1.00000000000026);
#84=VECTOR('',#286,1.);
#85=VECTOR('',#287,1.00000000000026);
#86=VECTOR('',#290,0.999999999999937);
#87=VECTOR('',#291,1.);
#88=VECTOR('',#292,0.999999999999937);
#89=VECTOR('',#295,0.999999999999844);
#90=VECTOR('',#296,0.999999999999844);
#91=VECTOR('',#297,1.);
#92=VECTOR('',#300,0.999999999999552);
#93=VECTOR('',#301,0.999999999999845);
#94=VECTOR('',#302,1.00000000000004);
#95=VECTOR('',#305,0.999999999999552);
#96=VECTOR('',#306,1.);
#97=VECTOR('',#309,1.00000000000004);
#98=VECTOR('',#312,0.999999999999845);
#99=VERTEX_POINT('',#317);
#100=VERTEX_POINT('',#318);
#101=VERTEX_POINT('',#320);
#102=VERTEX_POINT('',#322);
#103=VERTEX_POINT('',#326);
#104=VERTEX_POINT('',#327);
#105=VERTEX_POINT('',#329);
#106=VERTEX_POINT('',#331);
#107=VERTEX_POINT('',#335);
#108=VERTEX_POINT('',#337);
#109=VERTEX_POINT('',#341);
#110=VERTEX_POINT('',#343);
#111=VERTEX_POINT('',#347);
#112=VERTEX_POINT('',#349);
#113=VERTEX_POINT('',#353);
#114=VERTEX_POINT('',#355);
#115=VERTEX_POINT('',#359);
#116=VERTEX_POINT('',#361);
#117=VERTEX_POINT('',#365);
#118=VERTEX_POINT('',#370);
#119=EDGE_CURVE('',#99,#100,#39,.T.);
#120=EDGE_CURVE('',#100,#101,#40,.T.);
#121=EDGE_CURVE('',#101,#102,#41,.T.);
#122=EDGE_CURVE('',#102,#99,#42,.T.);
#123=EDGE_CURVE('',#103,#104,#43,.T.);
#124=EDGE_CURVE('',#104,#105,#44,.T.);
#125=EDGE_CURVE('',#105,#106,#45,.T.);
#126=EDGE_CURVE('',#106,#103,#46,.T.);
#127=EDGE_CURVE('',#104,#107,#47,.T.);
#128=EDGE_CURVE('',#107,#108,#48,.T.);
#129=EDGE_CURVE('',#108,#105,#49,.T.);
#130=EDGE_CURVE('',#107,#109,#50,.T.);
#131=EDGE_CURVE('',#109,#110,#51,.T.);
#132=EDGE_CURVE('',#110,#108,#52,.T.);
#133=EDGE_CURVE('',#109,#111,#53,.T.);
#134=EDGE_CURVE('',#111,#112,#54,.T.);
#135=EDGE_CURVE('',#112,#110,#55,.T.);
#136=EDGE_CURVE('',#111,#113,#56,.T.);
#137=EDGE_CURVE('',#113,#114,#57,.T.);
#138=EDGE_CURVE('',#114,#112,#58,.T.);
#139=EDGE_CURVE('',#115,#99,#59,.T.);
#140=EDGE_CURVE('',#102,#116,#60,.T.);
#141=EDGE_CURVE('',#116,#115,#61,.T.);
#142=EDGE_CURVE('',#103,#117,#62,.T.);
#143=EDGE_CURVE('',#117,#100,#63,.T.);
#144=EDGE_CURVE('',#115,#113,#64,.T.);
#145=EDGE_CURVE('',#106,#118,#65,.T.);
#146=EDGE_CURVE('',#118,#117,#66,.T.);
#147=EDGE_CURVE('',#116,#114,#67,.T.);
#148=EDGE_CURVE('',#118,#101,#68,.T.);
#149=ORIENTED_EDGE('',*,*,#119,.T.);
#150=ORIENTED_EDGE('',*,*,#120,.T.);
#151=ORIENTED_EDGE('',*,*,#121,.T.);
#152=ORIENTED_EDGE('',*,*,#122,.T.);
#153=ORIENTED_EDGE('',*,*,#123,.T.);
#154=ORIENTED_EDGE('',*,*,#124,.T.);
#155=ORIENTED_EDGE('',*,*,#125,.T.);
#156=ORIENTED_EDGE('',*,*,#126,.T.);
#157=ORIENTED_EDGE('',*,*,#127,.T.);
#158=ORIENTED_EDGE('',*,*,#128,.T.);
#159=ORIENTED_EDGE('',*,*,#129,.T.);
#160=ORIENTED_EDGE('',*,*,#124,.F.);
#161=ORIENTED_EDGE('',*,*,#130,.T.);
#162=ORIENTED_EDGE('',*,*,#131,.T.);
#163=ORIENTED_EDGE('',*,*,#132,.T.);
#164=ORIENTED_EDGE('',*,*,#128,.F.);
#165=ORIENTED_EDGE('',*,*,#133,.T.);
#166=ORIENTED_EDGE('',*,*,#134,.T.);
#167=ORIENTED_EDGE('',*,*,#135,.T.);
#168=ORIENTED_EDGE('',*,*,#131,.F.);
#169=ORIENTED_EDGE('',*,*,#136,.T.);
#170=ORIENTED_EDGE('',*,*,#137,.T.);
#171=ORIENTED_EDGE('',*,*,#138,.T.);
#172=ORIENTED_EDGE('',*,*,#134,.F.);
#173=ORIENTED_EDGE('',*,*,#139,.T.);
#174=ORIENTED_EDGE('',*,*,#122,.F.);
#175=ORIENTED_EDGE('',*,*,#140,.T.);
#176=ORIENTED_EDGE('',*,*,#141,.T.);
#177=ORIENTED_EDGE('',*,*,#133,.F.);
#178=ORIENTED_EDGE('',*,*,#130,.F.);
#179=ORIENTED_EDGE('',*,*,#127,.F.);
#180=ORIENTED_EDGE('',*,*,#123,.F.);
#181=ORIENTED_EDGE('',*,*,#142,.T.);
#182=ORIENTED_EDGE('',*,*,#143,.T.);
#183=ORIENTED_EDGE('',*,*,#119,.F.);
#184=ORIENTED_EDGE('',*,*,#139,.F.);
#185=ORIENTED_EDGE('',*,*,#144,.T.);
#186=ORIENTED_EDGE('',*,*,#136,.F.);
#187=ORIENTED_EDGE('',*,*,#142,.F.);
#188=ORIENTED_EDGE('',*,*,#126,.F.);
#189=ORIENTED_EDGE('',*,*,#145,.T.);
#190=ORIENTED_EDGE('',*,*,#146,.T.);
#191=ORIENTED_EDGE('',*,*,#144,.F.);
#192=ORIENTED_EDGE('',*,*,#141,.F.);
#193=ORIENTED_EDGE('',*,*,#147,.T.);
#194=ORIENTED_EDGE('',*,*,#137,.F.);
#195=ORIENTED_EDGE('',*,*,#143,.F.);
#196=ORIENTED_EDGE('',*,*,#146,.F.);
#197=ORIENTED_EDGE('',*,*,#148,.T.);
#198=ORIENTED_EDGE('',*,*,#120,.F.);
#199=ORIENTED_EDGE('',*,*,#121,.F.);
#200=ORIENTED_EDGE('',*,*,#148,.F.);
#201=ORIENTED_EDGE('',*,*,#145,.F.);
#202=ORIENTED_EDGE('',*,*,#125,.F.);
#203=ORIENTED_EDGE('',*,*,#129,.F.);
#204=ORIENTED_EDGE('',*,*,#132,.F.);
#205=ORIENTED_EDGE('',*,*,#135,.F.);
#206=ORIENTED_EDGE('',*,*,#138,.F.);
#207=ORIENTED_EDGE('',*,*,#147,.F.);
#208=ORIENTED_EDGE('',*,*,#140,.F.);
#209=PLANE('',#247);
#210=PLANE('',#248);
#211=PLANE('',#249);
#212=PLANE('',#250);
#213=PLANE('',#251);
#214=PLANE('',#252);
#215=PLANE('',#253);
#216=PLANE('',#254);
#217=PLANE('',#255);
#218=PLANE('',#256);
#219=PLANE('',#257);
#220=PLANE('',#258);
#221=ADVANCED_FACE('',(#15),#209,.T.);
#222=ADVANCED_FACE('',(#16),#210,.T.);
#223=ADVANCED_FACE('',(#17),#211,.T.);
#224=ADVANCED_FACE('',(#18),#212,.T.);
#225=ADVANCED_FACE('',(#19),#213,.T.);
#226=ADVANCED_FACE('',(#20),#214,.T.);
#227=ADVANCED_FACE('',(#21),#215,.T.);
#228=ADVANCED_FACE('',(#22),#216,.T.);
#229=ADVANCED_FACE('',(#23),#217,.T.);
#230=ADVANCED_FACE('',(#24),#218,.T.);
#231=ADVANCED_FACE('',(#25),#219,.T.);
#232=ADVANCED_FACE('',(#26),#220,.T.);
#233=CLOSED_SHELL('',(#221,#222,#223,#224,#225,#226,#227,#228,#229,#230,
#231,#232));
#234=DERIVED_UNIT_ELEMENT(#236,1.);
#235=DERIVED_UNIT_ELEMENT(#383,-3.);
#236=(
MASS_UNIT()
NAMED_UNIT(*)
SI_UNIT(.KILO.,.GRAM.)
);
#237=DERIVED_UNIT((#234,#235));
#238=MEASURE_REPRESENTATION_ITEM('density measure',
POSITIVE_RATIO_MEASURE(7850.),#237);
#239=PROPERTY_DEFINITION_REPRESENTATION(#244,#241);
#240=PROPERTY_DEFINITION_REPRESENTATION(#245,#242);
#241=REPRESENTATION('material name',(#243),#380);
#242=REPRESENTATION('density',(#238),#380);
#243=DESCRIPTIVE_REPRESENTATION_ITEM('\X2\94A2\X0\','\X2\94A2\X0\');
#244=PROPERTY_DEFINITION('material property','material name',#390);
#245=PROPERTY_DEFINITION('material property','density of part',#390);
#246=AXIS2_PLACEMENT_3D('',#315,#259,#260);
#247=AXIS2_PLACEMENT_3D('',#316,#261,#262);
#248=AXIS2_PLACEMENT_3D('',#325,#267,#268);
#249=AXIS2_PLACEMENT_3D('',#334,#273,#274);
#250=AXIS2_PLACEMENT_3D('',#340,#278,#279);
#251=AXIS2_PLACEMENT_3D('',#346,#283,#284);
#252=AXIS2_PLACEMENT_3D('',#352,#288,#289);
#253=AXIS2_PLACEMENT_3D('',#358,#293,#294);
#254=AXIS2_PLACEMENT_3D('',#364,#298,#299);
#255=AXIS2_PLACEMENT_3D('',#369,#303,#304);
#256=AXIS2_PLACEMENT_3D('',#373,#307,#308);
#257=AXIS2_PLACEMENT_3D('',#375,#310,#311);
#258=AXIS2_PLACEMENT_3D('',#377,#313,#314);
#259=DIRECTION('axis',(0.,0.,1.));
#260=DIRECTION('refdir',(1.,0.,0.));
#261=DIRECTION('center_axis',(0.416654710519176,-0.909064822882385,0.));
#262=DIRECTION('ref_axis',(0.,0.,1.));
#263=DIRECTION('',(0.909064822882385,0.416654710519176,0.));
#264=DIRECTION('',(0.,0.,1.));
#265=DIRECTION('',(-0.909064822882385,-0.416654710519176,0.));
#266=DIRECTION('',(0.,0.,-1.));
#267=DIRECTION('center_axis',(-0.909411886675261,-0.415896646264119,0.));
#268=DIRECTION('ref_axis',(0.,0.,1.));
#269=DIRECTION('',(0.415896646264119,-0.909411886675261,0.));
#270=DIRECTION('',(0.,0.,1.));
#271=DIRECTION('',(-0.415896646264119,0.909411886675261,0.));
#272=DIRECTION('',(0.,0.,-1.));
#273=DIRECTION('center_axis',(0.421612201108007,-0.906776241350015,0.));
#274=DIRECTION('ref_axis',(0.,0.,1.));
#275=DIRECTION('',(0.906776241350015,0.421612201108007,0.));
#276=DIRECTION('',(0.,0.,1.));
#277=DIRECTION('',(-0.906776241350015,-0.421612201108007,0.));
#278=DIRECTION('center_axis',(0.913811548621824,0.406138466049922,0.));
#279=DIRECTION('ref_axis',(0.,0.,1.));
#280=DIRECTION('',(-0.406138466049922,0.913811548621824,0.));
#281=DIRECTION('',(0.,0.,1.));
#282=DIRECTION('',(0.406138466049922,-0.913811548621824,0.));
#283=DIRECTION('center_axis',(0.413533383990894,-0.910488956728768,0.));
#284=DIRECTION('ref_axis',(0.,0.,1.));
#285=DIRECTION('',(0.910488956728768,0.413533383990894,0.));
#286=DIRECTION('',(0.,0.,1.));
#287=DIRECTION('',(-0.910488956728768,-0.413533383990894,0.));
#288=DIRECTION('center_axis',(0.909367813632058,0.415993004184026,0.));
#289=DIRECTION('ref_axis',(0.,0.,1.));
#290=DIRECTION('',(-0.415993004184026,0.909367813632058,0.));
#291=DIRECTION('',(0.,0.,1.));
#292=DIRECTION('',(0.415993004184026,-0.909367813632058,0.));
#293=DIRECTION('center_axis',(0.909292766162142,0.416157020132065,0.));
#294=DIRECTION('ref_axis',(0.,0.,1.));
#295=DIRECTION('',(-0.416157020132065,0.909292766162142,0.));
#296=DIRECTION('',(0.416157020132065,-0.909292766162142,0.));
#297=DIRECTION('',(0.,0.,-1.));
#298=DIRECTION('center_axis',(1.063331628358E-16,0.,-1.));
#299=DIRECTION('ref_axis',(-0.413533383990894,0.910488956728768,-4.39723126579432E-17));
#300=DIRECTION('',(0.909319401058407,0.416098818622186,0.));
#301=DIRECTION('',(0.414520770042064,-0.910039851437141,0.));
#302=DIRECTION('',(0.909233070656964,0.416287428615984,0.));
#303=DIRECTION('center_axis',(-0.416098818622186,0.909319401058407,0.));
#304=DIRECTION('ref_axis',(0.,0.,1.));
#305=DIRECTION('',(0.909319401058407,0.416098818622186,0.));
#306=DIRECTION('',(0.,0.,-1.));
#307=DIRECTION('center_axis',(-0.416287428615984,0.909233070656964,0.));
#308=DIRECTION('ref_axis',(0.,0.,1.));
#309=DIRECTION('',(0.909233070656964,0.416287428615984,0.));
#310=DIRECTION('center_axis',(0.910039851437141,0.414520770042064,0.));
#311=DIRECTION('ref_axis',(0.,0.,1.));
#312=DIRECTION('',(0.414520770042064,-0.910039851437141,0.));
#313=DIRECTION('center_axis',(-7.974987212682E-17,0.,1.));
#314=DIRECTION('ref_axis',(-0.416654710519176,0.909064822882385,-3.32281598849415E-17));
#315=CARTESIAN_POINT('',(0.,0.,0.));
#316=CARTESIAN_POINT('Origin',(-1534.999999996,5903.499999986,0.));
#317=CARTESIAN_POINT('',(-1834.999999999,5765.999999974,-1871.2305));
#318=CARTESIAN_POINT('',(-1234.999999993,6040.999999997,-1871.2305));
#319=CARTESIAN_POINT('',(-1834.999999999,5765.999999974,-1871.2305));
#320=CARTESIAN_POINT('',(-1234.999999993,6040.999999997,1871.2305));
#321=CARTESIAN_POINT('',(-1234.999999993,6040.999999997,-1871.2305));
#322=CARTESIAN_POINT('',(-1834.999999999,5765.999999974,1871.2305));
#323=CARTESIAN_POINT('',(-1234.999999993,6040.999999997,1871.2305));
#324=CARTESIAN_POINT('',(-1834.999999999,5765.999999974,1871.2305));
#325=CARTESIAN_POINT('Origin',(-2951.999999998,-927.9999999852,0.));
#326=CARTESIAN_POINT('',(-5465.00000000372,4567.00000001023,-1871.2305));
#327=CARTESIAN_POINT('',(-438.999999992149,-6422.99999998139,-1871.2305));
#328=CARTESIAN_POINT('',(-5465.000000004,4567.00000001,-1871.2305));
#329=CARTESIAN_POINT('',(-438.999999991709,-6422.99999998111,1871.2305));
#330=CARTESIAN_POINT('',(-438.9999999912,-6422.999999981,-1871.2305));
#331=CARTESIAN_POINT('',(-5465.00000000313,4567.00000001043,1871.2305));
#332=CARTESIAN_POINT('',(-438.9999999912,-6422.999999981,1871.2305));
#333=CARTESIAN_POINT('',(-5465.000000004,4567.00000001,1871.2305));
#334=CARTESIAN_POINT('Origin',(-146.4999999953,-6286.999999982,0.));
#335=CARTESIAN_POINT('',(146.00000000067,-6150.999999983,-1871.2305));
#336=CARTESIAN_POINT('',(-438.9999999912,-6422.999999981,-1871.2305));
#337=CARTESIAN_POINT('',(146.00000000067,-6150.999999983,1871.2305));
#338=CARTESIAN_POINT('',(146.00000000067,-6150.999999983,-1871.2305));
#339=CARTESIAN_POINT('',(146.00000000067,-6150.999999983,1871.2305));
#340=CARTESIAN_POINT('Origin',(6.000000001179,-5835.999999981,0.));
#341=CARTESIAN_POINT('',(-133.9999999982,-5520.999999979,-1871.2305));
#342=CARTESIAN_POINT('',(146.00000000067,-6150.999999983,-1871.2305));
#343=CARTESIAN_POINT('',(-133.9999999982,-5520.999999979,1871.2305));
#344=CARTESIAN_POINT('',(-133.9999999982,-5520.999999979,-1871.2305));
#345=CARTESIAN_POINT('',(-133.9999999982,-5520.999999979,1871.2305));
#346=CARTESIAN_POINT('Origin',(2665.500000003,-4249.499999976,0.));
#347=CARTESIAN_POINT('',(5465.00000000439,-2977.99999997365,-1871.2305));
#348=CARTESIAN_POINT('',(-133.9999999982,-5520.999999979,-1871.2305));
#349=CARTESIAN_POINT('',(5465.00000000504,-2977.99999997346,1871.2305));
#350=CARTESIAN_POINT('',(5465.000000004,-2977.999999974,-1871.2305));
#351=CARTESIAN_POINT('',(5465.000000004,-2977.999999974,1871.2305));
#352=CARTESIAN_POINT('Origin',(3884.5,477.0000000135,0.));
#353=CARTESIAN_POINT('',(2303.99999999516,3932.00000000002,-1871.2305));
#354=CARTESIAN_POINT('',(5465.000000004,-2977.999999974,-1871.2305));
#355=CARTESIAN_POINT('',(2303.99999999571,3932.00000000043,1871.2305));
#356=CARTESIAN_POINT('',(2303.999999996,3932.000000001,-1871.2305));
#357=CARTESIAN_POINT('',(2303.999999996,3932.000000001,1871.2305));
#358=CARTESIAN_POINT('Origin',(-1129.499999995,4224.499999982,0.));
#359=CARTESIAN_POINT('',(-423.9999999918,2682.99999999,-1871.2305));
#360=CARTESIAN_POINT('',(-423.9999999918,2682.99999999,-1871.2305));
#361=CARTESIAN_POINT('',(-423.9999999918,2682.99999999,1871.2305));
#362=CARTESIAN_POINT('',(-1834.999999999,5765.999999974,1871.2305));
#363=CARTESIAN_POINT('',(-423.9999999918,2682.99999999,1871.2305));
#364=CARTESIAN_POINT('Origin',(-302.5999999969,833.9000000036,-1871.2305));
#365=CARTESIAN_POINT('',(-1408.9999999918,6422.99999998041,-1871.2305));
#366=CARTESIAN_POINT('',(-5465.000000004,4567.00000001,-1871.2305));
#367=CARTESIAN_POINT('',(-1408.999999992,6422.999999981,-1871.2305));
#368=CARTESIAN_POINT('',(-423.9999999918,2682.99999999,-1871.2305));
#369=CARTESIAN_POINT('Origin',(-3436.999999998,5494.999999995,0.));
#370=CARTESIAN_POINT('',(-1408.9999999918,6422.99999998041,1871.2305));
#371=CARTESIAN_POINT('',(-5465.000000004,4567.00000001,1871.2305));
#372=CARTESIAN_POINT('',(-1408.999999992,6422.999999981,1871.2305));
#373=CARTESIAN_POINT('Origin',(940.00000000237,3307.499999995,0.));
#374=CARTESIAN_POINT('',(-423.9999999918,2682.99999999,1871.2305));
#375=CARTESIAN_POINT('Origin',(-1321.999999993,6231.999999989,0.));
#376=CARTESIAN_POINT('',(-1408.999999992,6422.999999981,1871.2305));
#377=CARTESIAN_POINT('Origin',(-302.5999999969,833.9000000036,1871.2305));
#378=UNCERTAINTY_MEASURE_WITH_UNIT(LENGTH_MEASURE(0.01),#382,
'DISTANCE_ACCURACY_VALUE',
'Maximum model space distance between geometric entities at asserted c
onnectivities');
#379=UNCERTAINTY_MEASURE_WITH_UNIT(LENGTH_MEASURE(0.01),#382,
'DISTANCE_ACCURACY_VALUE',
'Maximum model space distance between geometric entities at asserted c
onnectivities');
#380=(
GEOMETRIC_REPRESENTATION_CONTEXT(3)
GLOBAL_UNCERTAINTY_ASSIGNED_CONTEXT((#378))
GLOBAL_UNIT_ASSIGNED_CONTEXT((#382,#384,#385))
REPRESENTATION_CONTEXT('','3D')
);
#381=(
GEOMETRIC_REPRESENTATION_CONTEXT(3)
GLOBAL_UNCERTAINTY_ASSIGNED_CONTEXT((#379))
GLOBAL_UNIT_ASSIGNED_CONTEXT((#382,#384,#385))
REPRESENTATION_CONTEXT('','3D')
);
#382=(
LENGTH_UNIT()
NAMED_UNIT(*)
SI_UNIT(.MILLI.,.METRE.)
);
#383=(
LENGTH_UNIT()
NAMED_UNIT(*)
SI_UNIT($,.METRE.)
);
#384=(
NAMED_UNIT(*)
PLANE_ANGLE_UNIT()
SI_UNIT($,.RADIAN.)
);
#385=(
NAMED_UNIT(*)
SI_UNIT($,.STERADIAN.)
SOLID_ANGLE_UNIT()
);
#386=SHAPE_DEFINITION_REPRESENTATION(#387,#388);
#387=PRODUCT_DEFINITION_SHAPE('',$,#390);
#388=SHAPE_REPRESENTATION('',(#246),#380);
#389=PRODUCT_DEFINITION_CONTEXT('part definition',#394,'design');
#390=PRODUCT_DEFINITION('Open CASCADE STEP translator 7.7 27',
'(\X2\672A4FDD5B58\X0\)',#391,#389);
#391=PRODUCT_DEFINITION_FORMATION('',$,#396);
#392=PRODUCT_RELATED_PRODUCT_CATEGORY('(\X2\672A4FDD5B58\X0\)',
'(\X2\672A4FDD5B58\X0\)',(#396));
#393=APPLICATION_PROTOCOL_DEFINITION('international standard',
'automotive_design',2009,#394);
#394=APPLICATION_CONTEXT(
'Core Data for Automotive Mechanical Design Process');
#395=PRODUCT_CONTEXT('part definition',#394,'mechanical');
#396=PRODUCT('Open CASCADE STEP translator 7.7 27','(\X2\672A4FDD5B58\X0\)',
'Open CASCADE Model',(#395));
#397=PRESENTATION_STYLE_ASSIGNMENT((#398));
#398=SURFACE_STYLE_USAGE(.BOTH.,#399);
#399=SURFACE_SIDE_STYLE('',(#400));
#400=SURFACE_STYLE_FILL_AREA(#401);
#401=FILL_AREA_STYLE('\X2\94A2\X0\ - \X2\7F0E5149\X0\',(#402));
#402=FILL_AREA_STYLE_COLOUR('\X2\94A2\X0\ - \X2\7F0E5149\X0\',#403);
#403=COLOUR_RGB('\X2\94A2\X0\ - \X2\7F0E5149\X0\',0.627450980392157,0.627450980392157,
0.627450980392157);
ENDSEC;
END-ISO-10303-21;
