# OBJ file generated from STEP using CadQuery
# Vertices: 24
# Faces: 12

v -300.452950 65.130250 120.623050
v 109.751650 -287.173350 120.623050
v 300.452950 -65.130250 120.623050
v -109.751550 287.173350 120.623050
v 300.452950 -65.130250 -120.623050
v -109.751550 287.173350 -120.623050
v -109.751550 287.173350 120.623050
v 300.452950 -65.130250 120.623050
v -300.452950 65.130250 -120.623050
v 109.751650 -287.173350 -120.623050
v 109.751650 -287.173350 120.623050
v -300.452950 65.130250 120.623050
v 109.751650 -287.173350 -120.623050
v 300.452950 -65.130250 -120.623050
v 300.452950 -65.130250 120.623050
v 109.751650 -287.173350 120.623050
v -109.751550 287.173350 -120.623050
v -300.452950 65.130250 -120.623050
v -300.452950 65.130250 120.623050
v -109.751550 287.173350 120.623050
v -109.751550 287.173350 -120.623050
v -300.452950 65.130250 -120.623050
v 300.452950 -65.130250 -120.623050
v 109.751650 -287.173350 -120.623050

f 1 2 3
f 4 1 3
f 5 6 7
f 8 5 7
f 12 9 10
f 12 10 11
f 13 14 15
f 16 13 15
f 17 18 19
f 20 17 19
f 23 22 21
f 24 22 23
