# OBJ file generated from STEP using CadQuery
# Vertices: 24
# Faces: 12

v -207.350000 61.800000 129.373050
v -85.650000 -198.700000 129.373050
v 207.350000 -61.800000 129.373050
v 85.650000 198.700000 129.373050
v 85.650000 198.700000 -129.373050
v -207.350000 61.800000 -129.373050
v -207.350000 61.800000 129.373050
v 85.650000 198.700000 129.373050
v -207.350000 61.800000 -129.373050
v -85.650000 -198.700000 -129.373050
v -85.650000 -198.700000 129.373050
v -207.350000 61.800000 129.373050
v -85.650000 -198.700000 -129.373050
v 207.350000 -61.800000 -129.373050
v 207.350000 -61.800000 129.373050
v -85.650000 -198.700000 129.373050
v 207.350000 -61.800000 -129.373050
v 85.650000 198.700000 -129.373050
v 85.650000 198.700000 129.373050
v 207.350000 -61.800000 129.373050
v 85.650000 198.700000 -129.373050
v -207.350000 61.800000 -129.373050
v 207.350000 -61.800000 -129.373050
v -85.650000 -198.700000 -129.373050

f 3 1 2
f 4 1 3
f 8 5 6
f 8 6 7
f 9 10 11
f 12 9 11
f 16 13 14
f 16 14 15
f 17 18 19
f 20 17 19
f 22 21 23
f 24 22 23
