# OBJ file generated from STEP using CadQuery
# Vertices: 24
# Faces: 12

v -374.850000 329.850000 115.718232
v -374.850000 329.850000 -115.718232
v 17.050000 -498.850000 -115.718232
v 17.050000 -498.850000 115.718232
v 374.850000 -330.050000 -115.718232
v -17.550000 498.850000 -115.718232
v -17.550000 498.850000 115.718232
v 374.850000 -330.050000 115.718232
v 17.050000 -498.850000 -115.718232
v 17.050000 -498.850000 115.718232
v 374.850000 -330.050000 -115.718232
v 374.850000 -330.050000 115.718232
v -374.850000 329.850000 -115.718232
v 17.050000 -498.850000 -115.718232
v -17.550000 498.850000 -115.718232
v 374.850000 -330.050000 -115.718232
v -17.550000 498.850000 115.718232
v -374.850000 329.850000 115.718232
v 17.050000 -498.850000 115.718232
v 374.850000 -330.050000 115.718232
v -374.850000 329.850000 -115.718232
v -17.550000 498.850000 -115.718232
v -374.850000 329.850000 115.718232
v -17.550000 498.850000 115.718232

f 3 1 2
f 4 1 3
f 8 5 6
f 8 6 7
f 11 10 9
f 12 10 11
f 14 13 15
f 16 14 15
f 19 17 18
f 20 17 19
f 24 22 21
f 24 21 23
