ISO-10303-21;
HEADER;
/* Generated by software containing ST-Developer
 * from STEP Tools, Inc. (www.steptools.com) 
 */

FILE_DESCRIPTION(
/* description */ ('Open CASCADE Model'),
/* implementation_level */ '2;1');

FILE_NAME(
/* name */ '28.step',
/* time_stamp */ '2025-12-23T14:08:58+08:00',
/* author */ (''),
/* organization */ (''),
/* preprocessor_version */ 'ST-DEVELOPER v20.1',
/* originating_system */ 'Autodesk Translation Framework v14.21.0.0',
/* authorisation */ '');

FILE_SCHEMA (('AUTOMOTIVE_DESIGN { 1 0 10303 214 3 1 1 }'));
ENDSEC;

DATA;
#10=MECHANICAL_DESIGN_GEOMETRIC_PRESENTATION_REPRESENTATION('',(#13),#183);
#11=SHAPE_REPRESENTATION_RELATIONSHIP('SRR','None',#190,#12);
#12=ADVANCED_BREP_SHAPE_REPRESENTATION('',(#14),#182);
#13=STYLED_ITEM('',(#199),#14);
#14=MANIFOLD_SOLID_BREP('\X2\5B9E4F53\X0\1',#107);
#15=FACE_OUTER_BOUND('',#21,.T.);
#16=FACE_OUTER_BOUND('',#22,.T.);
#17=FACE_OUTER_BOUND('',#23,.T.);
#18=FACE_OUTER_BOUND('',#24,.T.);
#19=FACE_OUTER_BOUND('',#25,.T.);
#20=FACE_OUTER_BOUND('',#26,.T.);
#21=EDGE_LOOP('',(#71,#72,#73,#74));
#22=EDGE_LOOP('',(#75,#76,#77,#78));
#23=EDGE_LOOP('',(#79,#80,#81,#82));
#24=EDGE_LOOP('',(#83,#84,#85,#86));
#25=EDGE_LOOP('',(#87,#88,#89,#90));
#26=EDGE_LOOP('',(#91,#92,#93,#94));
#27=LINE('',#157,#39);
#28=LINE('',#159,#40);
#29=LINE('',#161,#41);
#30=LINE('',#162,#42);
#31=LINE('',#166,#43);
#32=LINE('',#168,#44);
#33=LINE('',#170,#45);
#34=LINE('',#171,#46);
#35=LINE('',#173,#47);
#36=LINE('',#174,#48);
#37=LINE('',#176,#49);
#38=LINE('',#178,#50);
#39=VECTOR('',#131,1.);
#40=VECTOR('',#132,1.00000000000028);
#41=VECTOR('',#133,1.);
#42=VECTOR('',#134,1.00000000000028);
#43=VECTOR('',#137,0.999999999999623);
#44=VECTOR('',#138,1.);
#45=VECTOR('',#139,0.999999999999623);
#46=VECTOR('',#140,1.);
#47=VECTOR('',#143,0.999999999999788);
#48=VECTOR('',#144,0.999999999999788);
#49=VECTOR('',#147,0.999999999999592);
#50=VECTOR('',#150,0.999999999999592);
#51=VERTEX_POINT('',#155);
#52=VERTEX_POINT('',#156);
#53=VERTEX_POINT('',#158);
#54=VERTEX_POINT('',#160);
#55=VERTEX_POINT('',#164);
#56=VERTEX_POINT('',#165);
#57=VERTEX_POINT('',#167);
#58=VERTEX_POINT('',#169);
#59=EDGE_CURVE('',#51,#52,#27,.T.);
#60=EDGE_CURVE('',#52,#53,#28,.T.);
#61=EDGE_CURVE('',#53,#54,#29,.T.);
#62=EDGE_CURVE('',#54,#51,#30,.T.);
#63=EDGE_CURVE('',#55,#56,#31,.T.);
#64=EDGE_CURVE('',#56,#57,#32,.T.);
#65=EDGE_CURVE('',#57,#58,#33,.T.);
#66=EDGE_CURVE('',#58,#55,#34,.T.);
#67=EDGE_CURVE('',#53,#55,#35,.T.);
#68=EDGE_CURVE('',#58,#54,#36,.T.);
#69=EDGE_CURVE('',#52,#56,#37,.T.);
#70=EDGE_CURVE('',#57,#51,#38,.T.);
#71=ORIENTED_EDGE('',*,*,#59,.T.);
#72=ORIENTED_EDGE('',*,*,#60,.T.);
#73=ORIENTED_EDGE('',*,*,#61,.T.);
#74=ORIENTED_EDGE('',*,*,#62,.T.);
#75=ORIENTED_EDGE('',*,*,#63,.T.);
#76=ORIENTED_EDGE('',*,*,#64,.T.);
#77=ORIENTED_EDGE('',*,*,#65,.T.);
#78=ORIENTED_EDGE('',*,*,#66,.T.);
#79=ORIENTED_EDGE('',*,*,#61,.F.);
#80=ORIENTED_EDGE('',*,*,#67,.T.);
#81=ORIENTED_EDGE('',*,*,#66,.F.);
#82=ORIENTED_EDGE('',*,*,#68,.T.);
#83=ORIENTED_EDGE('',*,*,#60,.F.);
#84=ORIENTED_EDGE('',*,*,#69,.T.);
#85=ORIENTED_EDGE('',*,*,#63,.F.);
#86=ORIENTED_EDGE('',*,*,#67,.F.);
#87=ORIENTED_EDGE('',*,*,#70,.T.);
#88=ORIENTED_EDGE('',*,*,#62,.F.);
#89=ORIENTED_EDGE('',*,*,#68,.F.);
#90=ORIENTED_EDGE('',*,*,#65,.F.);
#91=ORIENTED_EDGE('',*,*,#69,.F.);
#92=ORIENTED_EDGE('',*,*,#59,.F.);
#93=ORIENTED_EDGE('',*,*,#70,.F.);
#94=ORIENTED_EDGE('',*,*,#64,.F.);
#95=PLANE('',#121);
#96=PLANE('',#122);
#97=PLANE('',#123);
#98=PLANE('',#124);
#99=PLANE('',#125);
#100=PLANE('',#126);
#101=ADVANCED_FACE('',(#15),#95,.T.);
#102=ADVANCED_FACE('',(#16),#96,.T.);
#103=ADVANCED_FACE('',(#17),#97,.T.);
#104=ADVANCED_FACE('',(#18),#98,.T.);
#105=ADVANCED_FACE('',(#19),#99,.T.);
#106=ADVANCED_FACE('',(#20),#100,.T.);
#107=CLOSED_SHELL('',(#101,#102,#103,#104,#105,#106));
#108=DERIVED_UNIT_ELEMENT(#110,1.);
#109=DERIVED_UNIT_ELEMENT(#185,-3.);
#110=(
MASS_UNIT()
NAMED_UNIT(*)
SI_UNIT(.KILO.,.GRAM.)
);
#111=DERIVED_UNIT((#108,#109));
#112=MEASURE_REPRESENTATION_ITEM('density measure',
POSITIVE_RATIO_MEASURE(7850.),#111);
#113=PROPERTY_DEFINITION_REPRESENTATION(#118,#115);
#114=PROPERTY_DEFINITION_REPRESENTATION(#119,#116);
#115=REPRESENTATION('material name',(#117),#182);
#116=REPRESENTATION('density',(#112),#182);
#117=DESCRIPTIVE_REPRESENTATION_ITEM('\X2\94A2\X0\','\X2\94A2\X0\');
#118=PROPERTY_DEFINITION('material property','material name',#192);
#119=PROPERTY_DEFINITION('material property','density of part',#192);
#120=AXIS2_PLACEMENT_3D('',#153,#127,#128);
#121=AXIS2_PLACEMENT_3D('',#154,#129,#130);
#122=AXIS2_PLACEMENT_3D('',#163,#135,#136);
#123=AXIS2_PLACEMENT_3D('',#172,#141,#142);
#124=AXIS2_PLACEMENT_3D('',#175,#145,#146);
#125=AXIS2_PLACEMENT_3D('',#177,#148,#149);
#126=AXIS2_PLACEMENT_3D('',#179,#151,#152);
#127=DIRECTION('axis',(0.,0.,1.));
#128=DIRECTION('refdir',(1.,0.,0.));
#129=DIRECTION('center_axis',(-0.904008649090745,-0.42751416627888,0.));
#130=DIRECTION('ref_axis',(0.42751416627888,-0.904008649090745,0.));
#131=DIRECTION('',(0.,0.,-1.));
#132=DIRECTION('',(0.42751416627888,-0.904008649090745,0.));
#133=DIRECTION('',(0.,0.,1.));
#134=DIRECTION('',(-0.42751416627888,0.904008649090745,0.));
#135=DIRECTION('center_axis',(0.903837727029341,0.427875406162161,0.));
#136=DIRECTION('ref_axis',(0.,0.,1.));
#137=DIRECTION('',(-0.427875406162161,0.903837727029341,0.));
#138=DIRECTION('',(0.,0.,1.));
#139=DIRECTION('',(0.427875406162161,-0.903837727029341,0.));
#140=DIRECTION('',(0.,0.,-1.));
#141=DIRECTION('center_axis',(0.426673291692091,-0.904405828241192,0.));
#142=DIRECTION('ref_axis',(0.904405828241192,0.426673291692091,0.));
#143=DIRECTION('',(0.904405828241192,0.426673291692091,0.));
#144=DIRECTION('',(-0.904405828241192,-0.426673291692091,0.));
#145=DIRECTION('center_axis',(-9.798654733658E-17,0.,-1.));
#146=DIRECTION('ref_axis',(0.904008649090745,0.42751416627888,-8.85806862868081E-17));
#147=DIRECTION('',(0.903979821856369,0.427575118168174,0.));
#148=DIRECTION('center_axis',(0.,0.,1.));
#149=DIRECTION('ref_axis',(0.427575118168174,-0.903979821856369,0.));
#150=DIRECTION('',(-0.903979821856369,-0.427575118168174,0.));
#151=DIRECTION('center_axis',(-0.427575118168174,0.903979821856369,0.));
#152=DIRECTION('ref_axis',(0.,0.,1.));
#153=CARTESIAN_POINT('',(0.,0.,0.));
#154=CARTESIAN_POINT('Origin',(-1788.999999997,-844.9999990407,-5.002220859751E-12));
#155=CARTESIAN_POINT('',(-3748.49999999475,3298.50000076039,1157.182315826));
#156=CARTESIAN_POINT('',(-3748.49999999433,3298.50000076078,-1157.182315826));
#157=CARTESIAN_POINT('',(-3748.499999994,3298.500000761,1157.182315826));
#158=CARTESIAN_POINT('',(170.500000001012,-4988.4999988426,-1157.182315826));
#159=CARTESIAN_POINT('',(-3748.499999994,3298.500000761,-1157.182315826));
#160=CARTESIAN_POINT('',(170.500000000545,-4988.49999884285,1157.182315826));
#161=CARTESIAN_POINT('',(170.50000000014,-4988.499998843,-1157.182315826));
#162=CARTESIAN_POINT('',(170.50000000014,-4988.499998843,1157.182315826));
#163=CARTESIAN_POINT('Origin',(1786.499999987,843.99999977904,-5.002220859751E-12));
#164=CARTESIAN_POINT('',(3748.499999994,-3300.499999285,-1157.182315826));
#165=CARTESIAN_POINT('',(-175.500000020153,4988.49999884289,-1157.182315826));
#166=CARTESIAN_POINT('',(3748.499999994,-3300.499999285,-1157.182315826));
#167=CARTESIAN_POINT('',(-175.500000019761,4988.49999884296,1157.182315826));
#168=CARTESIAN_POINT('',(-175.5000000193,4988.499998843,-1157.182315826));
#169=CARTESIAN_POINT('',(3748.49999999461,-3300.49999928471,1157.182315826));
#170=CARTESIAN_POINT('',(-175.5000000193,4988.499998843,1157.182315826));
#171=CARTESIAN_POINT('',(3748.499999994,-3300.499999285,1157.182315826));
#172=CARTESIAN_POINT('Origin',(1959.499999997,-4144.499999064,-5.002220859751E-12));
#173=CARTESIAN_POINT('',(170.50000000014,-4988.499998843,-1157.182315826));
#174=CARTESIAN_POINT('',(3748.499999994,-3300.499999285,1157.182315826));
#175=CARTESIAN_POINT('Origin',(-1.250000004859,-0.49999963085,-1157.182315826));
#176=CARTESIAN_POINT('',(-3748.499999994,3298.500000761,-1157.182315826));
#177=CARTESIAN_POINT('Origin',(-1.250000004859,-0.49999963085,1157.182315826));
#178=CARTESIAN_POINT('',(-175.5000000193,4988.499998843,1157.182315826));
#179=CARTESIAN_POINT('Origin',(-1962.000000007,4143.499999802,-5.002220859751E-12));
#180=UNCERTAINTY_MEASURE_WITH_UNIT(LENGTH_MEASURE(0.01),#184,
'DISTANCE_ACCURACY_VALUE',
'Maximum model space distance between geometric entities at asserted c
onnectivities');
#181=UNCERTAINTY_MEASURE_WITH_UNIT(LENGTH_MEASURE(0.01),#184,
'DISTANCE_ACCURACY_VALUE',
'Maximum model space distance between geometric entities at asserted c
onnectivities');
#182=(
GEOMETRIC_REPRESENTATION_CONTEXT(3)
GLOBAL_UNCERTAINTY_ASSIGNED_CONTEXT((#180))
GLOBAL_UNIT_ASSIGNED_CONTEXT((#184,#186,#187))
REPRESENTATION_CONTEXT('','3D')
);
#183=(
GEOMETRIC_REPRESENTATION_CONTEXT(3)
GLOBAL_UNCERTAINTY_ASSIGNED_CONTEXT((#181))
GLOBAL_UNIT_ASSIGNED_CONTEXT((#184,#186,#187))
REPRESENTATION_CONTEXT('','3D')
);
#184=(
LENGTH_UNIT()
NAMED_UNIT(*)
SI_UNIT(.MILLI.,.METRE.)
);
#185=(
LENGTH_UNIT()
NAMED_UNIT(*)
SI_UNIT($,.METRE.)
);
#186=(
NAMED_UNIT(*)
PLANE_ANGLE_UNIT()
SI_UNIT($,.RADIAN.)
);
#187=(
NAMED_UNIT(*)
SI_UNIT($,.STERADIAN.)
SOLID_ANGLE_UNIT()
);
#188=SHAPE_DEFINITION_REPRESENTATION(#189,#190);
#189=PRODUCT_DEFINITION_SHAPE('',$,#192);
#190=SHAPE_REPRESENTATION('',(#120),#182);
#191=PRODUCT_DEFINITION_CONTEXT('part definition',#196,'design');
#192=PRODUCT_DEFINITION('Open CASCADE STEP translator 7.7 30',
'(\X2\672A4FDD5B58\X0\)',#193,#191);
#193=PRODUCT_DEFINITION_FORMATION('',$,#198);
#194=PRODUCT_RELATED_PRODUCT_CATEGORY('(\X2\672A4FDD5B58\X0\)',
'(\X2\672A4FDD5B58\X0\)',(#198));
#195=APPLICATION_PROTOCOL_DEFINITION('international standard',
'automotive_design',2009,#196);
#196=APPLICATION_CONTEXT(
'Core Data for Automotive Mechanical Design Process');
#197=PRODUCT_CONTEXT('part definition',#196,'mechanical');
#198=PRODUCT('Open CASCADE STEP translator 7.7 30','(\X2\672A4FDD5B58\X0\)',
'Open CASCADE Model',(#197));
#199=PRESENTATION_STYLE_ASSIGNMENT((#200));
#200=SURFACE_STYLE_USAGE(.BOTH.,#201);
#201=SURFACE_SIDE_STYLE('',(#202));
#202=SURFACE_STYLE_FILL_AREA(#203);
#203=FILL_AREA_STYLE('\X2\94A2\X0\ - \X2\7F0E5149\X0\',(#204));
#204=FILL_AREA_STYLE_COLOUR('\X2\94A2\X0\ - \X2\7F0E5149\X0\',#205);
#205=COLOUR_RGB('\X2\94A2\X0\ - \X2\7F0E5149\X0\',0.627450980392157,0.627450980392157,
0.627450980392157);
ENDSEC;
END-ISO-10303-21;
