# OBJ file generated from STEP using CadQuery
# Vertices: 48
# Faces: 28

v 478.500000 538.000000 391.989500
v 462.500000 -467.000000 391.989500
v 462.500000 -467.000000 -391.989500
v 478.500000 538.000000 -391.989500
v 462.500000 -467.000000 -391.989500
v 478.500000 538.000000 -391.989500
v -21.500000 -456.000000 -391.989500
v -23.500000 -556.000000 -391.989500
v -478.500000 -546.000000 -391.989500
v -459.500000 252.000000 -391.989500
v -156.500000 245.000000 -391.989500
v -150.500000 556.000000 -391.989500
v -23.500000 -556.000000 391.989500
v -21.500000 -456.000000 391.989500
v 462.500000 -467.000000 391.989500
v 478.500000 538.000000 391.989500
v -150.500000 556.000000 391.989500
v -156.500000 245.000000 391.989500
v -459.500000 252.000000 391.989500
v -478.500000 -546.000000 391.989500
v -459.500000 252.000000 -391.989500
v -156.500000 245.000000 -391.989500
v -459.500000 252.000000 391.989500
v -156.500000 245.000000 391.989500
v -156.500000 245.000000 -391.989500
v -150.500000 556.000000 -391.989500
v -156.500000 245.000000 391.989500
v -150.500000 556.000000 391.989500
v -150.500000 556.000000 -391.989500
v 478.500000 538.000000 -391.989500
v -150.500000 556.000000 391.989500
v 478.500000 538.000000 391.989500
v -478.500000 -546.000000 -391.989500
v -459.500000 252.000000 -391.989500
v -478.500000 -546.000000 391.989500
v -459.500000 252.000000 391.989500
v -21.500000 -456.000000 391.989500
v 462.500000 -467.000000 391.989500
v -21.500000 -456.000000 -391.989500
v 462.500000 -467.000000 -391.989500
v -23.500000 -556.000000 391.989500
v -21.500000 -456.000000 391.989500
v -23.500000 -556.000000 -391.989500
v -21.500000 -456.000000 -391.989500
v -478.500000 -546.000000 391.989500
v -23.500000 -556.000000 391.989500
v -478.500000 -546.000000 -391.989500
v -23.500000 -556.000000 -391.989500

f 1 2 3
f 4 1 3
f 9 7 8
f 11 6 5
f 11 5 7
f 10 7 9
f 10 11 7
f 12 6 11
f 18 16 17
f 15 16 18
f 14 18 19
f 14 15 18
f 20 13 14
f 20 14 19
f 24 22 21
f 24 21 23
f 28 26 25
f 28 25 27
f 31 30 29
f 32 30 31
f 36 34 33
f 36 33 35
f 39 38 37
f 40 38 39
f 43 42 41
f 44 42 43
f 47 46 45
f 48 46 47
