ISO-10303-21;
HEADER;
/* Generated by software containing ST-Developer
 * from STEP Tools, Inc. (www.steptools.com) 
 */

FILE_DESCRIPTION(
/* description */ ('Open CASCADE Model'),
/* implementation_level */ '2;1');

FILE_NAME(
/* name */ '29.step',
/* time_stamp */ '2025-12-23T14:09:11+08:00',
/* author */ (''),
/* organization */ (''),
/* preprocessor_version */ 'ST-DEVELOPER v20.1',
/* originating_system */ 'Autodesk Translation Framework v14.21.0.0',
/* authorisation */ '');

FILE_SCHEMA (('AUTOMOTIVE_DESIGN { 1 0 10303 214 3 1 1 }'));
ENDSEC;

DATA;
#10=MECHANICAL_DESIGN_GEOMETRIC_PRESENTATION_REPRESENTATION('',(#13),#315);
#11=SHAPE_REPRESENTATION_RELATIONSHIP('SRR','None',#322,#12);
#12=ADVANCED_BREP_SHAPE_REPRESENTATION('',(#14),#314);
#13=STYLED_ITEM('',(#331),#14);
#14=MANIFOLD_SOLID_BREP('\X2\5B9E4F53\X0\1',#191);
#15=FACE_OUTER_BOUND('',#25,.T.);
#16=FACE_OUTER_BOUND('',#26,.T.);
#17=FACE_OUTER_BOUND('',#27,.T.);
#18=FACE_OUTER_BOUND('',#28,.T.);
#19=FACE_OUTER_BOUND('',#29,.T.);
#20=FACE_OUTER_BOUND('',#30,.T.);
#21=FACE_OUTER_BOUND('',#31,.T.);
#22=FACE_OUTER_BOUND('',#32,.T.);
#23=FACE_OUTER_BOUND('',#33,.T.);
#24=FACE_OUTER_BOUND('',#34,.T.);
#25=EDGE_LOOP('',(#123,#124,#125,#126));
#26=EDGE_LOOP('',(#127,#128,#129,#130,#131,#132,#133,#134));
#27=EDGE_LOOP('',(#135,#136,#137,#138,#139,#140,#141,#142));
#28=EDGE_LOOP('',(#143,#144,#145,#146));
#29=EDGE_LOOP('',(#147,#148,#149,#150));
#30=EDGE_LOOP('',(#151,#152,#153,#154));
#31=EDGE_LOOP('',(#155,#156,#157,#158));
#32=EDGE_LOOP('',(#159,#160,#161,#162));
#33=EDGE_LOOP('',(#163,#164,#165,#166));
#34=EDGE_LOOP('',(#167,#168,#169,#170));
#35=LINE('',#265,#59);
#36=LINE('',#267,#60);
#37=LINE('',#269,#61);
#38=LINE('',#270,#62);
#39=LINE('',#273,#63);
#40=LINE('',#275,#64);
#41=LINE('',#277,#65);
#42=LINE('',#279,#66);
#43=LINE('',#281,#67);
#44=LINE('',#283,#68);
#45=LINE('',#284,#69);
#46=LINE('',#288,#70);
#47=LINE('',#289,#71);
#48=LINE('',#291,#72);
#49=LINE('',#293,#73);
#50=LINE('',#295,#74);
#51=LINE('',#297,#75);
#52=LINE('',#298,#76);
#53=LINE('',#300,#77);
#54=LINE('',#301,#78);
#55=LINE('',#303,#79);
#56=LINE('',#306,#80);
#57=LINE('',#308,#81);
#58=LINE('',#310,#82);
#59=VECTOR('',#219,0.999999999999928);
#60=VECTOR('',#220,1.);
#61=VECTOR('',#221,0.999999999999928);
#62=VECTOR('',#222,1.);
#63=VECTOR('',#225,0.999999999999992);
#64=VECTOR('',#226,1.00000000000007);
#65=VECTOR('',#227,0.999999999999633);
#66=VECTOR('',#228,0.999999999999868);
#67=VECTOR('',#229,1.00000000000046);
#68=VECTOR('',#230,1.00000000000023);
#69=VECTOR('',#231,1.00000000000002);
#70=VECTOR('',#234,1.00000000000007);
#71=VECTOR('',#235,0.999999999999992);
#72=VECTOR('',#236,1.00000000000002);
#73=VECTOR('',#237,1.00000000000023);
#74=VECTOR('',#238,1.00000000000046);
#75=VECTOR('',#239,0.999999999999868);
#76=VECTOR('',#240,0.999999999999633);
#77=VECTOR('',#243,1.);
#78=VECTOR('',#244,1.);
#79=VECTOR('',#247,1.);
#80=VECTOR('',#252,1.);
#81=VECTOR('',#255,1.);
#82=VECTOR('',#258,1.);
#83=VERTEX_POINT('',#263);
#84=VERTEX_POINT('',#264);
#85=VERTEX_POINT('',#266);
#86=VERTEX_POINT('',#268);
#87=VERTEX_POINT('',#272);
#88=VERTEX_POINT('',#274);
#89=VERTEX_POINT('',#276);
#90=VERTEX_POINT('',#278);
#91=VERTEX_POINT('',#280);
#92=VERTEX_POINT('',#282);
#93=VERTEX_POINT('',#286);
#94=VERTEX_POINT('',#287);
#95=VERTEX_POINT('',#290);
#96=VERTEX_POINT('',#292);
#97=VERTEX_POINT('',#294);
#98=VERTEX_POINT('',#296);
#99=EDGE_CURVE('',#83,#84,#35,.T.);
#100=EDGE_CURVE('',#84,#85,#36,.T.);
#101=EDGE_CURVE('',#85,#86,#37,.T.);
#102=EDGE_CURVE('',#86,#83,#38,.T.);
#103=EDGE_CURVE('',#85,#87,#39,.T.);
#104=EDGE_CURVE('',#87,#88,#40,.T.);
#105=EDGE_CURVE('',#88,#89,#41,.T.);
#106=EDGE_CURVE('',#89,#90,#42,.T.);
#107=EDGE_CURVE('',#90,#91,#43,.T.);
#108=EDGE_CURVE('',#91,#92,#44,.T.);
#109=EDGE_CURVE('',#92,#86,#45,.T.);
#110=EDGE_CURVE('',#93,#94,#46,.T.);
#111=EDGE_CURVE('',#94,#84,#47,.T.);
#112=EDGE_CURVE('',#83,#95,#48,.T.);
#113=EDGE_CURVE('',#95,#96,#49,.T.);
#114=EDGE_CURVE('',#96,#97,#50,.T.);
#115=EDGE_CURVE('',#97,#98,#51,.T.);
#116=EDGE_CURVE('',#98,#93,#52,.T.);
#117=EDGE_CURVE('',#90,#97,#53,.T.);
#118=EDGE_CURVE('',#96,#91,#54,.T.);
#119=EDGE_CURVE('',#95,#92,#55,.T.);
#120=EDGE_CURVE('',#89,#98,#56,.T.);
#121=EDGE_CURVE('',#94,#87,#57,.T.);
#122=EDGE_CURVE('',#93,#88,#58,.T.);
#123=ORIENTED_EDGE('',*,*,#99,.T.);
#124=ORIENTED_EDGE('',*,*,#100,.T.);
#125=ORIENTED_EDGE('',*,*,#101,.T.);
#126=ORIENTED_EDGE('',*,*,#102,.T.);
#127=ORIENTED_EDGE('',*,*,#101,.F.);
#128=ORIENTED_EDGE('',*,*,#103,.T.);
#129=ORIENTED_EDGE('',*,*,#104,.T.);
#130=ORIENTED_EDGE('',*,*,#105,.T.);
#131=ORIENTED_EDGE('',*,*,#106,.T.);
#132=ORIENTED_EDGE('',*,*,#107,.T.);
#133=ORIENTED_EDGE('',*,*,#108,.T.);
#134=ORIENTED_EDGE('',*,*,#109,.T.);
#135=ORIENTED_EDGE('',*,*,#110,.T.);
#136=ORIENTED_EDGE('',*,*,#111,.T.);
#137=ORIENTED_EDGE('',*,*,#99,.F.);
#138=ORIENTED_EDGE('',*,*,#112,.T.);
#139=ORIENTED_EDGE('',*,*,#113,.T.);
#140=ORIENTED_EDGE('',*,*,#114,.T.);
#141=ORIENTED_EDGE('',*,*,#115,.T.);
#142=ORIENTED_EDGE('',*,*,#116,.T.);
#143=ORIENTED_EDGE('',*,*,#107,.F.);
#144=ORIENTED_EDGE('',*,*,#117,.T.);
#145=ORIENTED_EDGE('',*,*,#114,.F.);
#146=ORIENTED_EDGE('',*,*,#118,.T.);
#147=ORIENTED_EDGE('',*,*,#108,.F.);
#148=ORIENTED_EDGE('',*,*,#118,.F.);
#149=ORIENTED_EDGE('',*,*,#113,.F.);
#150=ORIENTED_EDGE('',*,*,#119,.T.);
#151=ORIENTED_EDGE('',*,*,#109,.F.);
#152=ORIENTED_EDGE('',*,*,#119,.F.);
#153=ORIENTED_EDGE('',*,*,#112,.F.);
#154=ORIENTED_EDGE('',*,*,#102,.F.);
#155=ORIENTED_EDGE('',*,*,#106,.F.);
#156=ORIENTED_EDGE('',*,*,#120,.T.);
#157=ORIENTED_EDGE('',*,*,#115,.F.);
#158=ORIENTED_EDGE('',*,*,#117,.F.);
#159=ORIENTED_EDGE('',*,*,#111,.F.);
#160=ORIENTED_EDGE('',*,*,#121,.T.);
#161=ORIENTED_EDGE('',*,*,#103,.F.);
#162=ORIENTED_EDGE('',*,*,#100,.F.);
#163=ORIENTED_EDGE('',*,*,#110,.F.);
#164=ORIENTED_EDGE('',*,*,#122,.T.);
#165=ORIENTED_EDGE('',*,*,#104,.F.);
#166=ORIENTED_EDGE('',*,*,#121,.F.);
#167=ORIENTED_EDGE('',*,*,#116,.F.);
#168=ORIENTED_EDGE('',*,*,#120,.F.);
#169=ORIENTED_EDGE('',*,*,#105,.F.);
#170=ORIENTED_EDGE('',*,*,#122,.F.);
#171=PLANE('',#205);
#172=PLANE('',#206);
#173=PLANE('',#207);
#174=PLANE('',#208);
#175=PLANE('',#209);
#176=PLANE('',#210);
#177=PLANE('',#211);
#178=PLANE('',#212);
#179=PLANE('',#213);
#180=PLANE('',#214);
#181=ADVANCED_FACE('',(#15),#171,.T.);
#182=ADVANCED_FACE('',(#16),#172,.T.);
#183=ADVANCED_FACE('',(#17),#173,.T.);
#184=ADVANCED_FACE('',(#18),#174,.T.);
#185=ADVANCED_FACE('',(#19),#175,.T.);
#186=ADVANCED_FACE('',(#20),#176,.T.);
#187=ADVANCED_FACE('',(#21),#177,.T.);
#188=ADVANCED_FACE('',(#22),#178,.T.);
#189=ADVANCED_FACE('',(#23),#179,.T.);
#190=ADVANCED_FACE('',(#24),#180,.T.);
#191=CLOSED_SHELL('',(#181,#182,#183,#184,#185,#186,#187,#188,#189,#190));
#192=DERIVED_UNIT_ELEMENT(#194,1.);
#193=DERIVED_UNIT_ELEMENT(#317,-3.);
#194=(
MASS_UNIT()
NAMED_UNIT(*)
SI_UNIT(.KILO.,.GRAM.)
);
#195=DERIVED_UNIT((#192,#193));
#196=MEASURE_REPRESENTATION_ITEM('density measure',
POSITIVE_RATIO_MEASURE(7850.),#195);
#197=PROPERTY_DEFINITION_REPRESENTATION(#202,#199);
#198=PROPERTY_DEFINITION_REPRESENTATION(#203,#200);
#199=REPRESENTATION('material name',(#201),#314);
#200=REPRESENTATION('density',(#196),#314);
#201=DESCRIPTIVE_REPRESENTATION_ITEM('\X2\94A2\X0\','\X2\94A2\X0\');
#202=PROPERTY_DEFINITION('material property','material name',#324);
#203=PROPERTY_DEFINITION('material property','density of part',#324);
#204=AXIS2_PLACEMENT_3D('',#261,#215,#216);
#205=AXIS2_PLACEMENT_3D('',#262,#217,#218);
#206=AXIS2_PLACEMENT_3D('',#271,#223,#224);
#207=AXIS2_PLACEMENT_3D('',#285,#232,#233);
#208=AXIS2_PLACEMENT_3D('',#299,#241,#242);
#209=AXIS2_PLACEMENT_3D('',#302,#245,#246);
#210=AXIS2_PLACEMENT_3D('',#304,#248,#249);
#211=AXIS2_PLACEMENT_3D('',#305,#250,#251);
#212=AXIS2_PLACEMENT_3D('',#307,#253,#254);
#213=AXIS2_PLACEMENT_3D('',#309,#256,#257);
#214=AXIS2_PLACEMENT_3D('',#311,#259,#260);
#215=DIRECTION('axis',(0.,0.,1.));
#216=DIRECTION('refdir',(1.,0.,0.));
#217=DIRECTION('center_axis',(0.999873294549064,-0.015918380809641,0.));
#218=DIRECTION('ref_axis',(0.,0.,-1.));
#219=DIRECTION('',(-0.0159183808091112,-0.999873294549072,0.));
#220=DIRECTION('',(0.,0.,-1.));
#221=DIRECTION('',(0.0159183808091112,0.999873294549072,0.));
#222=DIRECTION('',(0.,0.,1.));
#223=DIRECTION('center_axis',(1.366835903621E-17,0.,-1.));
#224=DIRECTION('ref_axis',(-0.999873294549072,0.0159183808091112,-1.36666271806149E-17));
#225=DIRECTION('',(-0.999741835545008,0.0227214053504302,0.));
#226=DIRECTION('',(-0.0199960012036685,-0.999800059979926,0.));
#227=DIRECTION('',(-0.999758570735367,0.0219727158352181,0.));
#228=DIRECTION('',(0.0238027779464631,0.999716673744132,0.));
#229=DIRECTION('',(0.999733248403538,-0.0230961476551893,0.));
#230=DIRECTION('',(0.0192890151049456,0.999813949640773,0.));
#231=DIRECTION('',(0.999590789203983,-0.0286051418202695,0.));
#232=DIRECTION('center_axis',(1.491093713041E-17,0.,1.));
#233=DIRECTION('ref_axis',(-0.999800059979926,0.0199960012036685,1.49079558373408E-17));
#234=DIRECTION('',(0.0199960012036685,0.999800059979926,0.));
#235=DIRECTION('',(0.999741835545008,-0.0227214053504302,0.));
#236=DIRECTION('',(-0.999590789203983,0.0286051418202695,0.));
#237=DIRECTION('',(-0.0192890151049456,-0.999813949640773,0.));
#238=DIRECTION('',(-0.999733248403538,0.0230961476551893,0.));
#239=DIRECTION('',(-0.0238027779464631,-0.999716673744132,0.));
#240=DIRECTION('',(0.999758570735367,-0.0219727158352181,0.));
#241=DIRECTION('center_axis',(0.0230961476552393,0.999733248403537,0.));
#242=DIRECTION('ref_axis',(0.,0.,1.));
#243=DIRECTION('',(0.,0.,1.));
#244=DIRECTION('',(0.,0.,-1.));
#245=DIRECTION('center_axis',(-0.999813949640749,0.0192890151061652,0.));
#246=DIRECTION('ref_axis',(0.,0.,1.));
#247=DIRECTION('',(0.,0.,-1.));
#248=DIRECTION('center_axis',(0.0286051418202695,0.999590789203983,0.));
#249=DIRECTION('ref_axis',(0.,0.,1.));
#250=DIRECTION('center_axis',(-0.999716673744133,0.0238027779464432,0.));
#251=DIRECTION('ref_axis',(0.,0.,1.));
#252=DIRECTION('',(0.,0.,1.));
#253=DIRECTION('center_axis',(-0.0227214053504602,-0.999741835545007,0.));
#254=DIRECTION('ref_axis',(0.,0.,-1.));
#255=DIRECTION('',(0.,0.,-1.));
#256=DIRECTION('center_axis',(0.999800059979799,-0.019996001209976,0.));
#257=DIRECTION('ref_axis',(0.,0.,-1.));
#258=DIRECTION('',(0.,0.,-1.));
#259=DIRECTION('center_axis',(-0.0219727158352481,-0.999758570735367,0.));
#260=DIRECTION('ref_axis',(0.,0.,-1.));
#261=CARTESIAN_POINT('',(0.,0.,0.));
#262=CARTESIAN_POINT('Origin',(4704.999999999,354.99999999999,0.005000000000109));
#263=CARTESIAN_POINT('',(4784.99999999935,5380.00000000027,3919.895));
#264=CARTESIAN_POINT('',(4624.99999999692,-4669.99999999303,3919.895));
#265=CARTESIAN_POINT('',(4784.999999999,5380.,3919.895));
#266=CARTESIAN_POINT('',(4624.99999999862,-4669.99999999942,-3919.895));
#267=CARTESIAN_POINT('',(4624.999999999,-4670.,3919.895));
#268=CARTESIAN_POINT('',(4785.00000000125,5380.00000000343,-3919.895));
#269=CARTESIAN_POINT('',(4624.999999999,-4670.,-3919.895));
#270=CARTESIAN_POINT('',(4784.999999999,5380.,-3919.895));
#271=CARTESIAN_POINT('Origin',(-436.2500000011,-542.5,-3919.895));
#272=CARTESIAN_POINT('',(-215.000000000086,-4560.00000000695,-3919.895));
#273=CARTESIAN_POINT('',(4624.999999999,-4670.,-3919.895));
#274=CARTESIAN_POINT('',(-235.000000003231,-5559.99999999958,-3919.895));
#275=CARTESIAN_POINT('',(-215.0000000011,-4560.,-3919.895));
#276=CARTESIAN_POINT('',(-4785.00000000118,-5460.00000001143,-3919.895));
#277=CARTESIAN_POINT('',(-235.0000000011,-5560.,-3919.895));
#278=CARTESIAN_POINT('',(-4595.00000000046,2520.00000000061,-3919.895));
#279=CARTESIAN_POINT('',(-4785.000000001,-5460.,-3919.895));
#280=CARTESIAN_POINT('',(-1565.00000000105,2449.99999999667,-3919.895));
#281=CARTESIAN_POINT('',(-4595.000000001,2520.,-3919.895));
#282=CARTESIAN_POINT('',(-1505.00000000182,5559.99999999939,-3919.895));
#283=CARTESIAN_POINT('',(-1565.000000001,2450.,-3919.895));
#284=CARTESIAN_POINT('',(-1505.000000001,5560.,-3919.895));
#285=CARTESIAN_POINT('Origin',(-436.2500000011,-542.5,3919.895));
#286=CARTESIAN_POINT('',(-235.00000000213,-5559.9999999884,3919.895));
#287=CARTESIAN_POINT('',(-214.999999998822,-4560.00000000062,3919.895));
#288=CARTESIAN_POINT('',(-235.0000000011,-5560.,3919.895));
#289=CARTESIAN_POINT('',(-215.0000000011,-4560.,3919.895));
#290=CARTESIAN_POINT('',(-1505.00000000106,5559.99999999659,3919.895));
#291=CARTESIAN_POINT('',(4784.999999999,5380.,3919.895));
#292=CARTESIAN_POINT('',(-1565.00000000034,2449.99999999933,3919.895));
#293=CARTESIAN_POINT('',(-1505.000000001,5560.,3919.895));
#294=CARTESIAN_POINT('',(-4595.00000000095,2520.00000000333,3919.895));
#295=CARTESIAN_POINT('',(-1565.000000001,2450.,3919.895));
#296=CARTESIAN_POINT('',(-4785.00000000171,-5460.00000000036,3919.895));
#297=CARTESIAN_POINT('',(-4595.000000001,2520.,3919.895));
#298=CARTESIAN_POINT('',(-4785.000000001,-5460.,3919.895));
#299=CARTESIAN_POINT('Origin',(-3080.000000001,2485.,0.005000000000109));
#300=CARTESIAN_POINT('',(-4595.000000001,2520.,-3919.895));
#301=CARTESIAN_POINT('',(-1565.000000001,2450.,3919.895));
#302=CARTESIAN_POINT('Origin',(-1535.000000001,4005.,0.005000000000109));
#303=CARTESIAN_POINT('',(-1505.000000001,5560.,3919.895));
#304=CARTESIAN_POINT('Origin',(1639.999999999,5470.,0.005000000000109));
#305=CARTESIAN_POINT('Origin',(-4690.000000001,-1470.,0.005000000000109));
#306=CARTESIAN_POINT('',(-4785.000000001,-5460.,-3919.895));
#307=CARTESIAN_POINT('Origin',(2204.999999999,-4615.,0.005000000000109));
#308=CARTESIAN_POINT('',(-215.0000000011,-4560.,3919.895));
#309=CARTESIAN_POINT('Origin',(-225.0000000011,-5060.,0.005000000000109));
#310=CARTESIAN_POINT('',(-235.0000000011,-5560.,3919.895));
#311=CARTESIAN_POINT('Origin',(-2510.000000001,-5510.,0.005000000000109));
#312=UNCERTAINTY_MEASURE_WITH_UNIT(LENGTH_MEASURE(0.01),#316,
'DISTANCE_ACCURACY_VALUE',
'Maximum model space distance between geometric entities at asserted c
onnectivities');
#313=UNCERTAINTY_MEASURE_WITH_UNIT(LENGTH_MEASURE(0.01),#316,
'DISTANCE_ACCURACY_VALUE',
'Maximum model space distance between geometric entities at asserted c
onnectivities');
#314=(
GEOMETRIC_REPRESENTATION_CONTEXT(3)
GLOBAL_UNCERTAINTY_ASSIGNED_CONTEXT((#312))
GLOBAL_UNIT_ASSIGNED_CONTEXT((#316,#318,#319))
REPRESENTATION_CONTEXT('','3D')
);
#315=(
GEOMETRIC_REPRESENTATION_CONTEXT(3)
GLOBAL_UNCERTAINTY_ASSIGNED_CONTEXT((#313))
GLOBAL_UNIT_ASSIGNED_CONTEXT((#316,#318,#319))
REPRESENTATION_CONTEXT('','3D')
);
#316=(
LENGTH_UNIT()
NAMED_UNIT(*)
SI_UNIT(.MILLI.,.METRE.)
);
#317=(
LENGTH_UNIT()
NAMED_UNIT(*)
SI_UNIT($,.METRE.)
);
#318=(
NAMED_UNIT(*)
PLANE_ANGLE_UNIT()
SI_UNIT($,.RADIAN.)
);
#319=(
NAMED_UNIT(*)
SI_UNIT($,.STERADIAN.)
SOLID_ANGLE_UNIT()
);
#320=SHAPE_DEFINITION_REPRESENTATION(#321,#322);
#321=PRODUCT_DEFINITION_SHAPE('',$,#324);
#322=SHAPE_REPRESENTATION('',(#204),#314);
#323=PRODUCT_DEFINITION_CONTEXT('part definition',#328,'design');
#324=PRODUCT_DEFINITION('Open CASCADE STEP translator 7.7 31',
'(\X2\672A4FDD5B58\X0\)',#325,#323);
#325=PRODUCT_DEFINITION_FORMATION('',$,#330);
#326=PRODUCT_RELATED_PRODUCT_CATEGORY('(\X2\672A4FDD5B58\X0\)',
'(\X2\672A4FDD5B58\X0\)',(#330));
#327=APPLICATION_PROTOCOL_DEFINITION('international standard',
'automotive_design',2009,#328);
#328=APPLICATION_CONTEXT(
'Core Data for Automotive Mechanical Design Process');
#329=PRODUCT_CONTEXT('part definition',#328,'mechanical');
#330=PRODUCT('Open CASCADE STEP translator 7.7 31','(\X2\672A4FDD5B58\X0\)',
'Open CASCADE Model',(#329));
#331=PRESENTATION_STYLE_ASSIGNMENT((#332));
#332=SURFACE_STYLE_USAGE(.BOTH.,#333);
#333=SURFACE_SIDE_STYLE('',(#334));
#334=SURFACE_STYLE_FILL_AREA(#335);
#335=FILL_AREA_STYLE('\X2\94A2\X0\ - \X2\7F0E5149\X0\',(#336));
#336=FILL_AREA_STYLE_COLOUR('\X2\94A2\X0\ - \X2\7F0E5149\X0\',#337);
#337=COLOUR_RGB('\X2\94A2\X0\ - \X2\7F0E5149\X0\',0.627450980392157,0.627450980392157,
0.627450980392157);
ENDSEC;
END-ISO-10303-21;
