# OBJ file generated from STEP using CadQuery
# Vertices: 72
# Faces: 44

v -1.520852 -1.483983 0.450469
v 1.520852 -1.483983 0.450469
v 1.520852 -1.483983 -0.450469
v -1.520852 -1.483983 -0.450469
v 1.520852 -1.483983 0.450469
v 1.520852 -1.328931 0.450469
v 1.520852 -1.328931 -0.450469
v 1.520852 -1.483983 -0.450469
v 1.520852 -1.328931 0.450469
v 1.365801 -1.328931 0.450469
v 1.365801 -1.328931 -0.450469
v 1.520852 -1.328931 -0.450469
v 1.365801 -1.328931 0.450469
v 1.365801 1.328931 0.450469
v 1.365801 1.328931 -0.450469
v 1.365801 -1.328931 -0.450469
v 1.365801 1.328931 0.450469
v 1.520852 1.328931 0.450469
v 1.520852 1.328931 -0.450469
v 1.365801 1.328931 -0.450469
v 1.520852 1.328931 0.450469
v 1.520852 1.483983 0.450469
v 1.520852 1.483983 -0.450469
v 1.520852 1.328931 -0.450469
v 1.520852 1.483983 0.450469
v -1.520852 1.483983 0.450469
v -1.520852 1.483983 -0.450469
v 1.520852 1.483983 -0.450469
v -1.520852 1.483983 0.450469
v -1.520852 1.328931 0.450469
v -1.520852 1.328931 -0.450469
v -1.520852 1.483983 -0.450469
v -1.520852 1.328931 0.450469
v -1.365801 1.328931 0.450469
v -1.365801 1.328931 -0.450469
v -1.520852 1.328931 -0.450469
v -1.365801 1.328931 0.450469
v -1.365801 -1.328931 0.450469
v -1.365801 -1.328931 -0.450469
v -1.365801 1.328931 -0.450469
v -1.365801 -1.328931 0.450469
v -1.520852 -1.328931 0.450469
v -1.520852 -1.328931 -0.450469
v -1.365801 -1.328931 -0.450469
v -1.520852 -1.328931 0.450469
v -1.520852 -1.483983 0.450469
v -1.520852 -1.483983 -0.450469
v -1.520852 -1.328931 -0.450469
v 1.520852 -1.483983 -0.450469
v 1.520852 -1.328931 -0.450469
v 1.365801 -1.328931 -0.450469
v 1.365801 1.328931 -0.450469
v 1.520852 1.328931 -0.450469
v 1.520852 1.483983 -0.450469
v -1.520852 1.483983 -0.450469
v -1.520852 1.328931 -0.450469
v -1.365801 1.328931 -0.450469
v -1.365801 -1.328931 -0.450469
v -1.520852 -1.328931 -0.450469
v -1.520852 -1.483983 -0.450469
v -1.520852 -1.483983 0.450469
v 1.520852 -1.483983 0.450469
v 1.520852 -1.328931 0.450469
v 1.365801 -1.328931 0.450469
v 1.365801 1.328931 0.450469
v 1.520852 1.328931 0.450469
v 1.520852 1.483983 0.450469
v -1.520852 1.483983 0.450469
v -1.520852 1.328931 0.450469
v -1.365801 1.328931 0.450469
v -1.365801 -1.328931 0.450469
v -1.520852 -1.328931 0.450469

f 3 2 1
f 3 1 4
f 7 6 5
f 7 5 8
f 11 10 9
f 11 9 12
f 15 14 13
f 15 13 16
f 19 18 17
f 19 17 20
f 24 22 21
f 23 22 24
f 27 26 25
f 27 25 28
f 32 30 29
f 31 30 32
f 35 34 33
f 35 33 36
f 39 38 37
f 39 37 40
f 43 42 41
f 43 41 44
f 47 46 45
f 47 45 48
f 58 60 59
f 57 56 55
f 51 58 57
f 49 60 58
f 49 58 51
f 50 49 51
f 52 51 57
f 54 53 52
f 54 57 55
f 54 52 57
f 71 72 61
f 70 68 69
f 64 70 71
f 62 71 61
f 62 64 71
f 63 64 62
f 65 70 64
f 67 65 66
f 67 68 70
f 67 70 65
