# OBJ file generated from STEP using CadQuery
# Vertices: 60
# Faces: 36

v -2.635050 -2.269854 0.726413
v 0.904091 -2.269854 0.726413
v 0.904091 -2.269854 -0.726413
v -2.635050 -2.269854 -0.726413
v 0.904091 -2.269854 0.726413
v 0.904091 -1.152285 0.726413
v 0.904091 -1.152285 -0.726413
v 0.904091 -2.269854 -0.726413
v 0.904091 -1.152285 0.726413
v 2.635050 -1.152285 0.726413
v 2.635050 -1.152285 -0.726413
v 0.904091 -1.152285 -0.726413
v 2.635050 -1.152285 0.726413
v 2.635050 0.240421 0.726413
v 2.635050 0.240421 -0.726413
v 2.635050 -1.152285 -0.726413
v 2.635050 0.240421 0.726413
v 0.904091 0.240421 0.726413
v 0.904091 0.240421 -0.726413
v 2.635050 0.240421 -0.726413
v 0.904091 0.240421 0.726413
v 0.904091 1.357989 0.726413
v 0.904091 1.357989 -0.726413
v 0.904091 0.240421 -0.726413
v 0.904091 1.357989 0.726413
v -0.619941 1.357989 0.726413
v -0.619941 1.357989 -0.726413
v 0.904091 1.357989 -0.726413
v -0.619941 1.357989 0.726413
v -0.619941 2.269854 0.726413
v -0.619941 2.269854 -0.726413
v -0.619941 1.357989 -0.726413
v -0.619941 2.269854 0.726413
v -2.635050 2.269854 0.726413
v -2.635050 2.269854 -0.726413
v -0.619941 2.269854 -0.726413
v -2.635050 2.269854 0.726413
v -2.635050 -2.269854 0.726413
v -2.635050 -2.269854 -0.726413
v -2.635050 2.269854 -0.726413
v 0.904091 -2.269854 -0.726413
v 0.904091 -1.152285 -0.726413
v 2.635050 -1.152285 -0.726413
v 2.635050 0.240421 -0.726413
v 0.904091 0.240421 -0.726413
v 0.904091 1.357989 -0.726413
v -0.619941 1.357989 -0.726413
v -0.619941 2.269854 -0.726413
v -2.635050 2.269854 -0.726413
v -2.635050 -2.269854 -0.726413
v -2.635050 -2.269854 0.726413
v 0.904091 -2.269854 0.726413
v 0.904091 -1.152285 0.726413
v 2.635050 -1.152285 0.726413
v 2.635050 0.240421 0.726413
v 0.904091 0.240421 0.726413
v 0.904091 1.357989 0.726413
v -0.619941 1.357989 0.726413
v -0.619941 2.269854 0.726413
v -2.635050 2.269854 0.726413

f 3 2 1
f 3 1 4
f 7 6 5
f 7 5 8
f 10 9 12
f 11 10 12
f 15 14 13
f 15 13 16
f 19 18 17
f 19 17 20
f 23 22 21
f 23 21 24
f 27 26 25
f 27 25 28
f 31 30 29
f 31 29 32
f 35 34 33
f 35 33 36
f 39 38 37
f 39 37 40
f 42 41 50
f 47 50 49
f 47 42 50
f 45 42 47
f 48 47 49
f 46 45 47
f 44 43 42
f 44 42 45
f 53 51 52
f 58 60 51
f 58 51 53
f 56 58 53
f 59 60 58
f 57 58 56
f 55 53 54
f 55 56 53
