ISO-10303-21;
HEADER;
/* Generated by software containing ST-Developer
 * from STEP Tools, Inc. (www.steptools.com) 
 */

FILE_DESCRIPTION(
/* description */ ('Open CASCADE Model'),
/* implementation_level */ '2;1');

FILE_NAME(
/* name */ '31.step',
/* time_stamp */ '2025-12-23T14:09:46+08:00',
/* author */ (''),
/* organization */ (''),
/* preprocessor_version */ 'ST-DEVELOPER v20.1',
/* originating_system */ 'Autodesk Translation Framework v14.21.0.0',
/* authorisation */ '');

FILE_SCHEMA (('AUTOMOTIVE_DESIGN { 1 0 10303 214 3 1 1 }'));
ENDSEC;

DATA;
#10=MECHANICAL_DESIGN_GEOMETRIC_PRESENTATION_REPRESENTATION('',(#13),#381);
#11=SHAPE_REPRESENTATION_RELATIONSHIP('SRR','None',#388,#12);
#12=ADVANCED_BREP_SHAPE_REPRESENTATION('',(#14),#380);
#13=STYLED_ITEM('',(#397),#14);
#14=MANIFOLD_SOLID_BREP('\X2\5B9E4F53\X0\1',#233);
#15=FACE_OUTER_BOUND('',#27,.T.);
#16=FACE_OUTER_BOUND('',#28,.T.);
#17=FACE_OUTER_BOUND('',#29,.T.);
#18=FACE_OUTER_BOUND('',#30,.T.);
#19=FACE_OUTER_BOUND('',#31,.T.);
#20=FACE_OUTER_BOUND('',#32,.T.);
#21=FACE_OUTER_BOUND('',#33,.T.);
#22=FACE_OUTER_BOUND('',#34,.T.);
#23=FACE_OUTER_BOUND('',#35,.T.);
#24=FACE_OUTER_BOUND('',#36,.T.);
#25=FACE_OUTER_BOUND('',#37,.T.);
#26=FACE_OUTER_BOUND('',#38,.T.);
#27=EDGE_LOOP('',(#149,#150,#151,#152));
#28=EDGE_LOOP('',(#153,#154,#155,#156));
#29=EDGE_LOOP('',(#157,#158,#159,#160));
#30=EDGE_LOOP('',(#161,#162,#163,#164));
#31=EDGE_LOOP('',(#165,#166,#167,#168));
#32=EDGE_LOOP('',(#169,#170,#171,#172));
#33=EDGE_LOOP('',(#173,#174,#175,#176));
#34=EDGE_LOOP('',(#177,#178,#179,#180));
#35=EDGE_LOOP('',(#181,#182,#183,#184));
#36=EDGE_LOOP('',(#185,#186,#187,#188));
#37=EDGE_LOOP('',(#189,#190,#191,#192,#193,#194,#195,#196,#197,#198));
#38=EDGE_LOOP('',(#199,#200,#201,#202,#203,#204,#205,#206,#207,#208));
#39=LINE('',#319,#69);
#40=LINE('',#321,#70);
#41=LINE('',#323,#71);
#42=LINE('',#324,#72);
#43=LINE('',#327,#73);
#44=LINE('',#329,#74);
#45=LINE('',#330,#75);
#46=LINE('',#333,#76);
#47=LINE('',#335,#77);
#48=LINE('',#336,#78);
#49=LINE('',#339,#79);
#50=LINE('',#341,#80);
#51=LINE('',#342,#81);
#52=LINE('',#345,#82);
#53=LINE('',#347,#83);
#54=LINE('',#348,#84);
#55=LINE('',#351,#85);
#56=LINE('',#353,#86);
#57=LINE('',#354,#87);
#58=LINE('',#357,#88);
#59=LINE('',#359,#89);
#60=LINE('',#360,#90);
#61=LINE('',#363,#91);
#62=LINE('',#365,#92);
#63=LINE('',#366,#93);
#64=LINE('',#369,#94);
#65=LINE('',#371,#95);
#66=LINE('',#372,#96);
#67=LINE('',#374,#97);
#68=LINE('',#375,#98);
#69=VECTOR('',#263,1.);
#70=VECTOR('',#264,1.);
#71=VECTOR('',#265,1.);
#72=VECTOR('',#266,1.);
#73=VECTOR('',#269,1.);
#74=VECTOR('',#270,1.);
#75=VECTOR('',#271,1.);
#76=VECTOR('',#274,1.);
#77=VECTOR('',#275,1.);
#78=VECTOR('',#276,1.);
#79=VECTOR('',#279,1.);
#80=VECTOR('',#280,1.);
#81=VECTOR('',#281,1.);
#82=VECTOR('',#284,1.);
#83=VECTOR('',#285,1.);
#84=VECTOR('',#286,1.);
#85=VECTOR('',#289,1.);
#86=VECTOR('',#290,1.);
#87=VECTOR('',#291,1.);
#88=VECTOR('',#294,1.);
#89=VECTOR('',#295,1.);
#90=VECTOR('',#296,1.);
#91=VECTOR('',#299,1.);
#92=VECTOR('',#300,1.);
#93=VECTOR('',#301,1.);
#94=VECTOR('',#304,1.);
#95=VECTOR('',#305,1.);
#96=VECTOR('',#306,1.);
#97=VECTOR('',#309,1.);
#98=VECTOR('',#310,1.);
#99=VERTEX_POINT('',#317);
#100=VERTEX_POINT('',#318);
#101=VERTEX_POINT('',#320);
#102=VERTEX_POINT('',#322);
#103=VERTEX_POINT('',#326);
#104=VERTEX_POINT('',#328);
#105=VERTEX_POINT('',#332);
#106=VERTEX_POINT('',#334);
#107=VERTEX_POINT('',#338);
#108=VERTEX_POINT('',#340);
#109=VERTEX_POINT('',#344);
#110=VERTEX_POINT('',#346);
#111=VERTEX_POINT('',#350);
#112=VERTEX_POINT('',#352);
#113=VERTEX_POINT('',#356);
#114=VERTEX_POINT('',#358);
#115=VERTEX_POINT('',#362);
#116=VERTEX_POINT('',#364);
#117=VERTEX_POINT('',#368);
#118=VERTEX_POINT('',#370);
#119=EDGE_CURVE('',#99,#100,#39,.T.);
#120=EDGE_CURVE('',#99,#101,#40,.T.);
#121=EDGE_CURVE('',#101,#102,#41,.T.);
#122=EDGE_CURVE('',#100,#102,#42,.T.);
#123=EDGE_CURVE('',#101,#103,#43,.T.);
#124=EDGE_CURVE('',#103,#104,#44,.T.);
#125=EDGE_CURVE('',#102,#104,#45,.T.);
#126=EDGE_CURVE('',#103,#105,#46,.T.);
#127=EDGE_CURVE('',#105,#106,#47,.T.);
#128=EDGE_CURVE('',#104,#106,#48,.T.);
#129=EDGE_CURVE('',#105,#107,#49,.T.);
#130=EDGE_CURVE('',#107,#108,#50,.T.);
#131=EDGE_CURVE('',#106,#108,#51,.T.);
#132=EDGE_CURVE('',#107,#109,#52,.T.);
#133=EDGE_CURVE('',#109,#110,#53,.T.);
#134=EDGE_CURVE('',#108,#110,#54,.T.);
#135=EDGE_CURVE('',#109,#111,#55,.T.);
#136=EDGE_CURVE('',#111,#112,#56,.T.);
#137=EDGE_CURVE('',#110,#112,#57,.T.);
#138=EDGE_CURVE('',#111,#113,#58,.T.);
#139=EDGE_CURVE('',#113,#114,#59,.T.);
#140=EDGE_CURVE('',#112,#114,#60,.T.);
#141=EDGE_CURVE('',#113,#115,#61,.T.);
#142=EDGE_CURVE('',#115,#116,#62,.T.);
#143=EDGE_CURVE('',#114,#116,#63,.T.);
#144=EDGE_CURVE('',#115,#117,#64,.T.);
#145=EDGE_CURVE('',#117,#118,#65,.T.);
#146=EDGE_CURVE('',#116,#118,#66,.T.);
#147=EDGE_CURVE('',#117,#99,#67,.T.);
#148=EDGE_CURVE('',#118,#100,#68,.T.);
#149=ORIENTED_EDGE('',*,*,#119,.F.);
#150=ORIENTED_EDGE('',*,*,#120,.T.);
#151=ORIENTED_EDGE('',*,*,#121,.T.);
#152=ORIENTED_EDGE('',*,*,#122,.F.);
#153=ORIENTED_EDGE('',*,*,#121,.F.);
#154=ORIENTED_EDGE('',*,*,#123,.T.);
#155=ORIENTED_EDGE('',*,*,#124,.T.);
#156=ORIENTED_EDGE('',*,*,#125,.F.);
#157=ORIENTED_EDGE('',*,*,#124,.F.);
#158=ORIENTED_EDGE('',*,*,#126,.T.);
#159=ORIENTED_EDGE('',*,*,#127,.T.);
#160=ORIENTED_EDGE('',*,*,#128,.F.);
#161=ORIENTED_EDGE('',*,*,#127,.F.);
#162=ORIENTED_EDGE('',*,*,#129,.T.);
#163=ORIENTED_EDGE('',*,*,#130,.T.);
#164=ORIENTED_EDGE('',*,*,#131,.F.);
#165=ORIENTED_EDGE('',*,*,#130,.F.);
#166=ORIENTED_EDGE('',*,*,#132,.T.);
#167=ORIENTED_EDGE('',*,*,#133,.T.);
#168=ORIENTED_EDGE('',*,*,#134,.F.);
#169=ORIENTED_EDGE('',*,*,#133,.F.);
#170=ORIENTED_EDGE('',*,*,#135,.T.);
#171=ORIENTED_EDGE('',*,*,#136,.T.);
#172=ORIENTED_EDGE('',*,*,#137,.F.);
#173=ORIENTED_EDGE('',*,*,#136,.F.);
#174=ORIENTED_EDGE('',*,*,#138,.T.);
#175=ORIENTED_EDGE('',*,*,#139,.T.);
#176=ORIENTED_EDGE('',*,*,#140,.F.);
#177=ORIENTED_EDGE('',*,*,#139,.F.);
#178=ORIENTED_EDGE('',*,*,#141,.T.);
#179=ORIENTED_EDGE('',*,*,#142,.T.);
#180=ORIENTED_EDGE('',*,*,#143,.F.);
#181=ORIENTED_EDGE('',*,*,#142,.F.);
#182=ORIENTED_EDGE('',*,*,#144,.T.);
#183=ORIENTED_EDGE('',*,*,#145,.T.);
#184=ORIENTED_EDGE('',*,*,#146,.F.);
#185=ORIENTED_EDGE('',*,*,#145,.F.);
#186=ORIENTED_EDGE('',*,*,#147,.T.);
#187=ORIENTED_EDGE('',*,*,#119,.T.);
#188=ORIENTED_EDGE('',*,*,#148,.F.);
#189=ORIENTED_EDGE('',*,*,#120,.F.);
#190=ORIENTED_EDGE('',*,*,#147,.F.);
#191=ORIENTED_EDGE('',*,*,#144,.F.);
#192=ORIENTED_EDGE('',*,*,#141,.F.);
#193=ORIENTED_EDGE('',*,*,#138,.F.);
#194=ORIENTED_EDGE('',*,*,#135,.F.);
#195=ORIENTED_EDGE('',*,*,#132,.F.);
#196=ORIENTED_EDGE('',*,*,#129,.F.);
#197=ORIENTED_EDGE('',*,*,#126,.F.);
#198=ORIENTED_EDGE('',*,*,#123,.F.);
#199=ORIENTED_EDGE('',*,*,#122,.T.);
#200=ORIENTED_EDGE('',*,*,#125,.T.);
#201=ORIENTED_EDGE('',*,*,#128,.T.);
#202=ORIENTED_EDGE('',*,*,#131,.T.);
#203=ORIENTED_EDGE('',*,*,#134,.T.);
#204=ORIENTED_EDGE('',*,*,#137,.T.);
#205=ORIENTED_EDGE('',*,*,#140,.T.);
#206=ORIENTED_EDGE('',*,*,#143,.T.);
#207=ORIENTED_EDGE('',*,*,#146,.T.);
#208=ORIENTED_EDGE('',*,*,#148,.T.);
#209=PLANE('',#247);
#210=PLANE('',#248);
#211=PLANE('',#249);
#212=PLANE('',#250);
#213=PLANE('',#251);
#214=PLANE('',#252);
#215=PLANE('',#253);
#216=PLANE('',#254);
#217=PLANE('',#255);
#218=PLANE('',#256);
#219=PLANE('',#257);
#220=PLANE('',#258);
#221=ADVANCED_FACE('',(#15),#209,.F.);
#222=ADVANCED_FACE('',(#16),#210,.F.);
#223=ADVANCED_FACE('',(#17),#211,.F.);
#224=ADVANCED_FACE('',(#18),#212,.F.);
#225=ADVANCED_FACE('',(#19),#213,.F.);
#226=ADVANCED_FACE('',(#20),#214,.F.);
#227=ADVANCED_FACE('',(#21),#215,.F.);
#228=ADVANCED_FACE('',(#22),#216,.F.);
#229=ADVANCED_FACE('',(#23),#217,.F.);
#230=ADVANCED_FACE('',(#24),#218,.F.);
#231=ADVANCED_FACE('',(#25),#219,.F.);
#232=ADVANCED_FACE('',(#26),#220,.T.);
#233=CLOSED_SHELL('',(#221,#222,#223,#224,#225,#226,#227,#228,#229,#230,
#231,#232));
#234=DERIVED_UNIT_ELEMENT(#236,1.);
#235=DERIVED_UNIT_ELEMENT(#383,-3.);
#236=(
MASS_UNIT()
NAMED_UNIT(*)
SI_UNIT(.KILO.,.GRAM.)
);
#237=DERIVED_UNIT((#234,#235));
#238=MEASURE_REPRESENTATION_ITEM('density measure',
POSITIVE_RATIO_MEASURE(7850.),#237);
#239=PROPERTY_DEFINITION_REPRESENTATION(#244,#241);
#240=PROPERTY_DEFINITION_REPRESENTATION(#245,#242);
#241=REPRESENTATION('material name',(#243),#380);
#242=REPRESENTATION('density',(#238),#380);
#243=DESCRIPTIVE_REPRESENTATION_ITEM('\X2\94A2\X0\','\X2\94A2\X0\');
#244=PROPERTY_DEFINITION('material property','material name',#390);
#245=PROPERTY_DEFINITION('material property','density of part',#390);
#246=AXIS2_PLACEMENT_3D('',#315,#259,#260);
#247=AXIS2_PLACEMENT_3D('',#316,#261,#262);
#248=AXIS2_PLACEMENT_3D('',#325,#267,#268);
#249=AXIS2_PLACEMENT_3D('',#331,#272,#273);
#250=AXIS2_PLACEMENT_3D('',#337,#277,#278);
#251=AXIS2_PLACEMENT_3D('',#343,#282,#283);
#252=AXIS2_PLACEMENT_3D('',#349,#287,#288);
#253=AXIS2_PLACEMENT_3D('',#355,#292,#293);
#254=AXIS2_PLACEMENT_3D('',#361,#297,#298);
#255=AXIS2_PLACEMENT_3D('',#367,#302,#303);
#256=AXIS2_PLACEMENT_3D('',#373,#307,#308);
#257=AXIS2_PLACEMENT_3D('',#376,#311,#312);
#258=AXIS2_PLACEMENT_3D('',#377,#313,#314);
#259=DIRECTION('axis',(0.,0.,1.));
#260=DIRECTION('refdir',(1.,0.,0.));
#261=DIRECTION('center_axis',(0.,1.,0.));
#262=DIRECTION('ref_axis',(1.,0.,0.));
#263=DIRECTION('',(0.,0.,1.));
#264=DIRECTION('',(1.,0.,0.));
#265=DIRECTION('',(0.,0.,1.));
#266=DIRECTION('',(1.,0.,0.));
#267=DIRECTION('center_axis',(-1.,0.,0.));
#268=DIRECTION('ref_axis',(0.,1.,0.));
#269=DIRECTION('',(0.,1.,0.));
#270=DIRECTION('',(0.,0.,1.));
#271=DIRECTION('',(0.,1.,0.));
#272=DIRECTION('center_axis',(0.,1.,0.));
#273=DIRECTION('ref_axis',(1.,0.,0.));
#274=DIRECTION('',(1.,0.,0.));
#275=DIRECTION('',(0.,0.,1.));
#276=DIRECTION('',(1.,0.,0.));
#277=DIRECTION('center_axis',(-1.,0.,0.));
#278=DIRECTION('ref_axis',(0.,1.,0.));
#279=DIRECTION('',(0.,1.,0.));
#280=DIRECTION('',(0.,0.,1.));
#281=DIRECTION('',(0.,1.,0.));
#282=DIRECTION('center_axis',(0.,-1.,0.));
#283=DIRECTION('ref_axis',(-1.,0.,0.));
#284=DIRECTION('',(-1.,0.,0.));
#285=DIRECTION('',(0.,0.,1.));
#286=DIRECTION('',(-1.,0.,0.));
#287=DIRECTION('center_axis',(-1.,0.,0.));
#288=DIRECTION('ref_axis',(0.,1.,0.));
#289=DIRECTION('',(0.,1.,0.));
#290=DIRECTION('',(0.,0.,1.));
#291=DIRECTION('',(0.,1.,0.));
#292=DIRECTION('center_axis',(0.,-1.,0.));
#293=DIRECTION('ref_axis',(-1.,0.,0.));
#294=DIRECTION('',(-1.,0.,0.));
#295=DIRECTION('',(0.,0.,1.));
#296=DIRECTION('',(-1.,0.,0.));
#297=DIRECTION('center_axis',(-1.,0.,0.));
#298=DIRECTION('ref_axis',(0.,1.,0.));
#299=DIRECTION('',(0.,1.,0.));
#300=DIRECTION('',(0.,0.,1.));
#301=DIRECTION('',(0.,1.,0.));
#302=DIRECTION('center_axis',(0.,-1.,0.));
#303=DIRECTION('ref_axis',(-1.,0.,0.));
#304=DIRECTION('',(-1.,0.,0.));
#305=DIRECTION('',(0.,0.,1.));
#306=DIRECTION('',(-1.,0.,0.));
#307=DIRECTION('center_axis',(1.,0.,0.));
#308=DIRECTION('ref_axis',(0.,-1.,0.));
#309=DIRECTION('',(0.,-1.,0.));
#310=DIRECTION('',(0.,-1.,0.));
#311=DIRECTION('center_axis',(0.,0.,1.));
#312=DIRECTION('ref_axis',(1.,0.,0.));
#313=DIRECTION('center_axis',(0.,0.,1.));
#314=DIRECTION('ref_axis',(1.,0.,0.));
#315=CARTESIAN_POINT('',(0.,0.,0.));
#316=CARTESIAN_POINT('Origin',(-26.35050057142,-22.6985360239,-7.264134251361));
#317=CARTESIAN_POINT('',(-26.35050057142,-22.6985360239,-7.264134251361));
#318=CARTESIAN_POINT('',(-26.35050057142,-22.6985360239,7.264134251361));
#319=CARTESIAN_POINT('',(-26.35050057142,-22.6985360239,-7.264134251361));
#320=CARTESIAN_POINT('',(9.040906030013,-22.6985360239,-7.264134251361));
#321=CARTESIAN_POINT('',(-26.35050057142,-22.6985360239,-7.264134251361));
#322=CARTESIAN_POINT('',(9.040906030013,-22.6985360239,7.264134251361));
#323=CARTESIAN_POINT('',(9.040906030013,-22.6985360239,-7.264134251361));
#324=CARTESIAN_POINT('',(-26.35050057142,-22.6985360239,7.264134251361));
#325=CARTESIAN_POINT('Origin',(9.040906030013,-22.6985360239,-7.264134251361));
#326=CARTESIAN_POINT('',(9.040906030013,-11.52285151569,-7.264134251361));
#327=CARTESIAN_POINT('',(9.040906030013,-22.6985360239,-7.264134251361));
#328=CARTESIAN_POINT('',(9.040906030013,-11.52285151569,7.264134251361));
#329=CARTESIAN_POINT('',(9.040906030013,-11.52285151569,-7.264134251361));
#330=CARTESIAN_POINT('',(9.040906030013,-22.6985360239,7.264134251361));
#331=CARTESIAN_POINT('Origin',(9.040906030013,-11.52285151569,-7.264134251361));
#332=CARTESIAN_POINT('',(26.350500571425,-11.52285151569,-7.264134251361));
#333=CARTESIAN_POINT('',(9.040906030013,-11.52285151569,-7.264134251361));
#334=CARTESIAN_POINT('',(26.350500571425,-11.52285151569,7.264134251361));
#335=CARTESIAN_POINT('',(26.350500571425,-11.52285151569,-7.264134251361));
#336=CARTESIAN_POINT('',(9.040906030013,-11.52285151569,7.264134251361));
#337=CARTESIAN_POINT('Origin',(26.350500571425,-11.52285151569,-7.264134251361));
#338=CARTESIAN_POINT('',(26.350500571425,2.404205070629,-7.264134251361));
#339=CARTESIAN_POINT('',(26.350500571425,-11.52285151569,-7.264134251361));
#340=CARTESIAN_POINT('',(26.350500571425,2.404205070629,7.264134251361));
#341=CARTESIAN_POINT('',(26.350500571425,2.404205070629,-7.264134251361));
#342=CARTESIAN_POINT('',(26.350500571425,-11.52285151569,7.264134251361));
#343=CARTESIAN_POINT('Origin',(26.350500571425,2.404205070629,-7.264134251361));
#344=CARTESIAN_POINT('',(9.040906030013,2.404205070629,-7.264134251361));
#345=CARTESIAN_POINT('',(26.350500571425,2.404205070629,-7.264134251361));
#346=CARTESIAN_POINT('',(9.040906030013,2.404205070629,7.264134251361));
#347=CARTESIAN_POINT('',(9.040906030013,2.404205070629,-7.264134251361));
#348=CARTESIAN_POINT('',(26.350500571425,2.404205070629,7.264134251361));
#349=CARTESIAN_POINT('Origin',(9.040906030013,2.404205070629,-7.264134251361));
#350=CARTESIAN_POINT('',(9.040906030013,13.579889578843,-7.264134251361));
#351=CARTESIAN_POINT('',(9.040906030013,2.404205070629,-7.264134251361));
#352=CARTESIAN_POINT('',(9.040906030013,13.579889578843,7.264134251361));
#353=CARTESIAN_POINT('',(9.040906030013,13.579889578843,-7.264134251361));
#354=CARTESIAN_POINT('',(9.040906030013,2.404205070629,7.264134251361));
#355=CARTESIAN_POINT('Origin',(9.040906030013,13.579889578843,-7.264134251361));
#356=CARTESIAN_POINT('',(-6.199407827496,13.579889578843,-7.264134251361));
#357=CARTESIAN_POINT('',(9.040906030013,13.579889578843,-7.264134251361));
#358=CARTESIAN_POINT('',(-6.199407827496,13.579889578843,7.264134251361));
#359=CARTESIAN_POINT('',(-6.199407827496,13.579889578843,-7.264134251361));
#360=CARTESIAN_POINT('',(9.040906030013,13.579889578843,7.264134251361));
#361=CARTESIAN_POINT('Origin',(-6.199407827496,13.579889578843,-7.264134251361));
#362=CARTESIAN_POINT('',(-6.199407827496,22.698536023905,-7.264134251361));
#363=CARTESIAN_POINT('',(-6.199407827496,13.579889578843,-7.264134251361));
#364=CARTESIAN_POINT('',(-6.199407827496,22.698536023905,7.264134251361));
#365=CARTESIAN_POINT('',(-6.199407827496,22.698536023905,-7.264134251361));
#366=CARTESIAN_POINT('',(-6.199407827496,13.579889578843,7.264134251361));
#367=CARTESIAN_POINT('Origin',(-6.199407827496,22.698536023905,-7.264134251361));
#368=CARTESIAN_POINT('',(-26.35050057142,22.698536023905,-7.264134251361));
#369=CARTESIAN_POINT('',(-6.199407827496,22.698536023905,-7.264134251361));
#370=CARTESIAN_POINT('',(-26.35050057142,22.698536023905,7.264134251361));
#371=CARTESIAN_POINT('',(-26.35050057142,22.698536023905,-7.264134251361));
#372=CARTESIAN_POINT('',(-6.199407827496,22.698536023905,7.264134251361));
#373=CARTESIAN_POINT('Origin',(-26.35050057142,22.698536023905,-7.264134251361));
#374=CARTESIAN_POINT('',(-26.35050057142,22.698536023905,-7.264134251361));
#375=CARTESIAN_POINT('',(-26.35050057142,22.698536023905,7.264134251361));
#376=CARTESIAN_POINT('Origin',(-3.484799544941,-1.51282842188,-7.264134251361));
#377=CARTESIAN_POINT('Origin',(-3.484799544941,-1.51282842188,7.264134251361));
#378=UNCERTAINTY_MEASURE_WITH_UNIT(LENGTH_MEASURE(0.01),#382,
'DISTANCE_ACCURACY_VALUE',
'Maximum model space distance between geometric entities at asserted c
onnectivities');
#379=UNCERTAINTY_MEASURE_WITH_UNIT(LENGTH_MEASURE(0.01),#382,
'DISTANCE_ACCURACY_VALUE',
'Maximum model space distance between geometric entities at asserted c
onnectivities');
#380=(
GEOMETRIC_REPRESENTATION_CONTEXT(3)
GLOBAL_UNCERTAINTY_ASSIGNED_CONTEXT((#378))
GLOBAL_UNIT_ASSIGNED_CONTEXT((#382,#384,#385))
REPRESENTATION_CONTEXT('','3D')
);
#381=(
GEOMETRIC_REPRESENTATION_CONTEXT(3)
GLOBAL_UNCERTAINTY_ASSIGNED_CONTEXT((#379))
GLOBAL_UNIT_ASSIGNED_CONTEXT((#382,#384,#385))
REPRESENTATION_CONTEXT('','3D')
);
#382=(
LENGTH_UNIT()
NAMED_UNIT(*)
SI_UNIT(.MILLI.,.METRE.)
);
#383=(
LENGTH_UNIT()
NAMED_UNIT(*)
SI_UNIT($,.METRE.)
);
#384=(
NAMED_UNIT(*)
PLANE_ANGLE_UNIT()
SI_UNIT($,.RADIAN.)
);
#385=(
NAMED_UNIT(*)
SI_UNIT($,.STERADIAN.)
SOLID_ANGLE_UNIT()
);
#386=SHAPE_DEFINITION_REPRESENTATION(#387,#388);
#387=PRODUCT_DEFINITION_SHAPE('',$,#390);
#388=SHAPE_REPRESENTATION('',(#246),#380);
#389=PRODUCT_DEFINITION_CONTEXT('part definition',#394,'design');
#390=PRODUCT_DEFINITION('Open CASCADE STEP translator 7.7 6',
'(\X2\672A4FDD5B58\X0\)',#391,#389);
#391=PRODUCT_DEFINITION_FORMATION('',$,#396);
#392=PRODUCT_RELATED_PRODUCT_CATEGORY('(\X2\672A4FDD5B58\X0\)',
'(\X2\672A4FDD5B58\X0\)',(#396));
#393=APPLICATION_PROTOCOL_DEFINITION('international standard',
'automotive_design',2009,#394);
#394=APPLICATION_CONTEXT(
'Core Data for Automotive Mechanical Design Process');
#395=PRODUCT_CONTEXT('part definition',#394,'mechanical');
#396=PRODUCT('Open CASCADE STEP translator 7.7 6','(\X2\672A4FDD5B58\X0\)',
'Open CASCADE Model',(#395));
#397=PRESENTATION_STYLE_ASSIGNMENT((#398));
#398=SURFACE_STYLE_USAGE(.BOTH.,#399);
#399=SURFACE_SIDE_STYLE('',(#400));
#400=SURFACE_STYLE_FILL_AREA(#401);
#401=FILL_AREA_STYLE('\X2\94A2\X0\ - \X2\7F0E5149\X0\',(#402));
#402=FILL_AREA_STYLE_COLOUR('\X2\94A2\X0\ - \X2\7F0E5149\X0\',#403);
#403=COLOUR_RGB('\X2\94A2\X0\ - \X2\7F0E5149\X0\',0.627450980392157,0.627450980392157,
0.627450980392157);
ENDSEC;
END-ISO-10303-21;
