# OBJ file generated from STEP using CadQuery
# Vertices: 48
# Faces: 28

v -1.382288 -1.150529 1.153439
v 1.382288 -1.150529 1.153439
v 1.382288 -1.150529 -1.153439
v -1.382288 -1.150529 -1.153439
v 1.382288 -1.150529 1.153439
v 1.382288 0.000627 1.153439
v 1.382288 0.000627 -1.153439
v 1.382288 -1.150529 -1.153439
v 1.382288 0.000627 1.153439
v 0.012289 0.000627 1.153439
v 0.012289 0.000627 -1.153439
v 1.382288 0.000627 -1.153439
v 0.012289 0.000627 1.153439
v 0.012289 0.466368 1.153439
v 0.012289 0.466368 -1.153439
v 0.012289 0.000627 -1.153439
v 0.012289 0.466368 1.153439
v -0.147044 0.466368 1.153439
v -0.147044 0.466368 -1.153439
v 0.012289 0.466368 -1.153439
v -0.147044 0.466368 1.153439
v -0.147044 1.150529 1.153439
v -0.147044 1.150529 -1.153439
v -0.147044 0.466368 -1.153439
v -0.147044 1.150529 1.153439
v -1.382288 1.150529 1.153439
v -1.382288 1.150529 -1.153439
v -0.147044 1.150529 -1.153439
v -1.382288 1.150529 1.153439
v -1.382288 -1.150529 1.153439
v -1.382288 -1.150529 -1.153439
v -1.382288 1.150529 -1.153439
v 1.382288 -1.150529 -1.153439
v 1.382288 0.000627 -1.153439
v 0.012289 0.000627 -1.153439
v 0.012289 0.466368 -1.153439
v -0.147044 0.466368 -1.153439
v -0.147044 1.150529 -1.153439
v -1.382288 1.150529 -1.153439
v -1.382288 -1.150529 -1.153439
v -1.382288 -1.150529 1.153439
v 1.382288 -1.150529 1.153439
v 1.382288 0.000627 1.153439
v 0.012289 0.000627 1.153439
v 0.012289 0.466368 1.153439
v -0.147044 0.466368 1.153439
v -0.147044 1.150529 1.153439
v -1.382288 1.150529 1.153439

f 2 1 4
f 3 2 4
f 7 6 5
f 7 5 8
f 11 10 9
f 11 9 12
f 15 14 13
f 15 13 16
f 19 18 17
f 19 17 20
f 23 22 21
f 23 21 24
f 27 26 25
f 27 25 28
f 31 30 29
f 31 29 32
f 33 40 35
f 37 40 39
f 37 35 40
f 36 35 37
f 38 37 39
f 34 33 35
f 42 44 41
f 46 48 41
f 46 41 44
f 45 46 44
f 47 48 46
f 43 44 42
