# OBJ file generated from STEP using CadQuery
# Vertices: 48
# Faces: 28

v -1.418203 -1.321078 1.681800
v 1.418203 -1.321078 1.681800
v 1.418203 -1.321078 -1.681800
v -1.418203 -1.321078 -1.681800
v 1.418203 -1.321078 1.681800
v 1.418203 1.321078 1.681800
v 1.418203 1.321078 -1.681800
v 1.418203 -1.321078 -1.681800
v 1.418203 1.321078 1.681800
v 0.765067 1.321078 1.681800
v 0.765067 1.321078 -1.681800
v 1.418203 1.321078 -1.681800
v 0.765067 1.321078 1.681800
v 0.765067 0.699731 1.681800
v 0.765067 0.699731 -1.681800
v 0.765067 1.321078 -1.681800
v 0.765067 0.699731 1.681800
v -0.765067 0.699731 1.681800
v -0.765067 0.699731 -1.681800
v 0.765067 0.699731 -1.681800
v -0.765067 0.699731 1.681800
v -0.765067 1.321078 1.681800
v -0.765067 1.321078 -1.681800
v -0.765067 0.699731 -1.681800
v -0.765067 1.321078 1.681800
v -1.418203 1.321078 1.681800
v -1.418203 1.321078 -1.681800
v -0.765067 1.321078 -1.681800
v -1.418203 1.321078 1.681800
v -1.418203 -1.321078 1.681800
v -1.418203 -1.321078 -1.681800
v -1.418203 1.321078 -1.681800
v 1.418203 -1.321078 -1.681800
v 1.418203 1.321078 -1.681800
v 0.765067 1.321078 -1.681800
v 0.765067 0.699731 -1.681800
v -0.765067 0.699731 -1.681800
v -0.765067 1.321078 -1.681800
v -1.418203 1.321078 -1.681800
v -1.418203 -1.321078 -1.681800
v -1.418203 -1.321078 1.681800
v 1.418203 -1.321078 1.681800
v 1.418203 1.321078 1.681800
v 0.765067 1.321078 1.681800
v 0.765067 0.699731 1.681800
v -0.765067 0.699731 1.681800
v -0.765067 1.321078 1.681800
v -1.418203 1.321078 1.681800

f 3 2 1
f 3 1 4
f 8 6 5
f 7 6 8
f 11 10 9
f 11 9 12
f 16 14 13
f 15 14 16
f 19 18 17
f 19 17 20
f 24 22 21
f 23 22 24
f 28 26 25
f 27 26 28
f 32 30 29
f 31 30 32
f 37 40 39
f 38 37 39
f 36 33 40
f 36 40 37
f 34 36 35
f 34 33 36
f 46 48 41
f 47 48 46
f 45 41 42
f 45 46 41
f 43 44 45
f 43 45 42
