# OBJ file generated from STEP using CadQuery
# Vertices: 48
# Faces: 28

v -1.044540 -1.308116 1.926462
v 1.044540 -1.308116 1.926462
v 1.044540 -1.308116 -1.926462
v -1.044540 -1.308116 -1.926462
v 1.044540 -1.308116 1.926462
v 1.044540 -0.569536 1.926462
v 1.044540 -0.569536 -1.926462
v 1.044540 -1.308116 -1.926462
v 1.044540 -0.569536 1.926462
v -0.076365 -0.569536 1.926462
v -0.076365 -0.569536 -1.926462
v 1.044540 -0.569536 -1.926462
v -0.076365 -0.569536 1.926462
v -0.076365 0.243512 1.926462
v -0.076365 0.243512 -1.926462
v -0.076365 -0.569536 -1.926462
v -0.076365 0.243512 1.926462
v 0.066799 0.243512 1.926462
v 0.066799 0.243512 -1.926462
v -0.076365 0.243512 -1.926462
v 0.066799 0.243512 1.926462
v 0.066799 1.308116 1.926462
v 0.066799 1.308116 -1.926462
v 0.066799 0.243512 -1.926462
v 0.066799 1.308116 1.926462
v -1.044540 1.308116 1.926462
v -1.044540 1.308116 -1.926462
v 0.066799 1.308116 -1.926462
v -1.044540 1.308116 1.926462
v -1.044540 -1.308116 1.926462
v -1.044540 -1.308116 -1.926462
v -1.044540 1.308116 -1.926462
v 1.044540 -1.308116 -1.926462
v 1.044540 -0.569536 -1.926462
v -0.076365 -0.569536 -1.926462
v -0.076365 0.243512 -1.926462
v 0.066799 0.243512 -1.926462
v 0.066799 1.308116 -1.926462
v -1.044540 1.308116 -1.926462
v -1.044540 -1.308116 -1.926462
v -1.044540 -1.308116 1.926462
v 1.044540 -1.308116 1.926462
v 1.044540 -0.569536 1.926462
v -0.076365 -0.569536 1.926462
v -0.076365 0.243512 1.926462
v 0.066799 0.243512 1.926462
v 0.066799 1.308116 1.926462
v -1.044540 1.308116 1.926462

f 3 2 1
f 3 1 4
f 7 6 5
f 7 5 8
f 11 10 9
f 11 9 12
f 15 14 13
f 15 13 16
f 19 18 17
f 19 17 20
f 23 22 21
f 23 21 24
f 27 26 25
f 27 25 28
f 31 30 29
f 31 29 32
f 33 40 35
f 36 35 40
f 39 36 40
f 34 33 35
f 38 37 36
f 38 36 39
f 42 44 41
f 45 41 44
f 48 41 45
f 43 44 42
f 47 45 46
f 47 48 45
