# OBJ file generated from STEP using CadQuery
# Vertices: 72
# Faces: 44

v -1.410360 -1.019941 1.196112
v -0.176523 -1.019941 1.196112
v -0.176523 -1.019941 -1.196112
v -1.410360 -1.019941 -1.196112
v -0.176523 -1.019941 1.196112
v -0.176523 -0.492331 1.196112
v -0.176523 -0.492331 -1.196112
v -0.176523 -1.019941 -1.196112
v -0.176523 -0.492331 1.196112
v 0.014284 -0.492331 1.196112
v 0.014284 -0.492331 -1.196112
v -0.176523 -0.492331 -1.196112
v 0.014284 -0.492331 1.196112
v 0.014284 -1.019941 1.196112
v 0.014284 -1.019941 -1.196112
v 0.014284 -0.492331 -1.196112
v 0.014284 -1.019941 1.196112
v 1.410360 -1.019941 1.196112
v 1.410360 -1.019941 -1.196112
v 0.014284 -1.019941 -1.196112
v 1.410360 -1.019941 1.196112
v 1.410360 1.019941 1.196112
v 1.410360 1.019941 -1.196112
v 1.410360 -1.019941 -1.196112
v 1.410360 1.019941 1.196112
v 0.014284 1.019941 1.196112
v 0.014284 1.019941 -1.196112
v 1.410360 1.019941 -1.196112
v 0.014284 1.019941 1.196112
v 0.014284 0.492331 1.196112
v 0.014284 0.492331 -1.196112
v 0.014284 1.019941 -1.196112
v 0.014284 0.492331 1.196112
v -0.176523 0.492331 1.196112
v -0.176523 0.492331 -1.196112
v 0.014284 0.492331 -1.196112
v -0.176523 0.492331 1.196112
v -0.176523 1.019941 1.196112
v -0.176523 1.019941 -1.196112
v -0.176523 0.492331 -1.196112
v -0.176523 1.019941 1.196112
v -1.410360 1.019941 1.196112
v -1.410360 1.019941 -1.196112
v -0.176523 1.019941 -1.196112
v -1.410360 1.019941 1.196112
v -1.410360 -1.019941 1.196112
v -1.410360 -1.019941 -1.196112
v -1.410360 1.019941 -1.196112
v -0.176523 -1.019941 -1.196112
v -0.176523 -0.492331 -1.196112
v 0.014284 -0.492331 -1.196112
v 0.014284 -1.019941 -1.196112
v 1.410360 -1.019941 -1.196112
v 1.410360 1.019941 -1.196112
v 0.014284 1.019941 -1.196112
v 0.014284 0.492331 -1.196112
v -0.176523 0.492331 -1.196112
v -0.176523 1.019941 -1.196112
v -1.410360 1.019941 -1.196112
v -1.410360 -1.019941 -1.196112
v -1.410360 -1.019941 1.196112
v -0.176523 -1.019941 1.196112
v -0.176523 -0.492331 1.196112
v 0.014284 -0.492331 1.196112
v 0.014284 -1.019941 1.196112
v 1.410360 -1.019941 1.196112
v 1.410360 1.019941 1.196112
v 0.014284 1.019941 1.196112
v 0.014284 0.492331 1.196112
v -0.176523 0.492331 1.196112
v -0.176523 1.019941 1.196112
v -1.410360 1.019941 1.196112

f 4 2 1
f 3 2 4
f 7 6 5
f 7 5 8
f 11 10 9
f 11 9 12
f 15 14 13
f 15 13 16
f 20 18 17
f 19 18 20
f 23 22 21
f 23 21 24
f 27 26 25
f 27 25 28
f 31 30 29
f 31 29 32
f 35 34 33
f 35 33 36
f 39 38 37
f 39 37 40
f 43 42 41
f 43 41 44
f 47 46 45
f 47 45 48
f 50 49 60
f 57 60 59
f 57 50 60
f 53 52 51
f 56 51 50
f 56 50 57
f 56 53 51
f 58 57 59
f 54 56 55
f 54 53 56
f 63 61 62
f 70 72 61
f 70 61 63
f 66 64 65
f 69 63 64
f 69 70 63
f 69 64 66
f 71 72 70
f 67 68 69
f 67 69 66
