# OBJ file generated from STEP using CadQuery
# Vertices: 36
# Faces: 20

v 236.552710 -83.864409 189.442100
v 435.750003 122.749998 189.442100
v 106.749995 439.950005 189.442100
v -92.428982 233.317883 189.442100
v -106.749998 -439.950001 108.192100
v -435.750008 -122.849992 108.192100
v -435.749996 -122.850003 -189.442100
v -106.749994 -439.950005 -189.442100
v 106.750010 439.949991 -189.442100
v 106.749995 439.950005 189.442100
v 435.750003 122.749998 189.442100
v 435.750008 122.749993 -189.442100
v 236.552710 -83.864409 189.442100
v 236.552711 -83.864410 108.192100
v -106.749998 -439.950001 108.192100
v -106.749994 -439.950005 -189.442100
v 435.750008 122.749993 -189.442100
v 435.750003 122.749998 189.442100
v -435.750008 -122.849992 108.192100
v -435.749996 -122.850003 -189.442100
v -92.428979 233.317880 108.192100
v -92.428982 233.317883 189.442100
v 106.749995 439.950005 189.442100
v 106.750010 439.949991 -189.442100
v -92.428982 233.317883 189.442100
v 236.552710 -83.864409 189.442100
v -92.428979 233.317880 108.192100
v 236.552711 -83.864410 108.192100
v 435.750008 122.749993 -189.442100
v 106.750010 439.949991 -189.442100
v -106.749994 -439.950005 -189.442100
v -435.749996 -122.850003 -189.442100
v 236.552711 -83.864410 108.192100
v -106.749998 -439.950001 108.192100
v -92.428979 233.317880 108.192100
v -435.750008 -122.849992 108.192100

f 2 3 4
f 1 2 4
f 5 6 7
f 8 5 7
f 11 9 10
f 11 12 9
f 14 15 16
f 14 16 17
f 18 13 14
f 18 14 17
f 21 20 19
f 23 21 22
f 24 21 23
f 24 20 21
f 26 25 27
f 28 26 27
f 30 29 31
f 30 31 32
f 35 36 34
f 33 35 34
