# OBJ file generated from STEP using CadQuery
# Vertices: 60
# Faces: 36

v 472.300000 -641.900000 -289.093201
v 455.700000 -637.700000 -289.093201
v 113.500000 -547.200000 -289.093201
v 88.200000 -643.500000 -289.093201
v -772.800000 -418.500000 -289.093201
v -494.800000 643.500000 -289.093201
v 334.400000 425.000000 -289.093201
v 386.200000 621.500000 -289.093201
v 772.800000 517.700000 -289.093201
v 597.600000 -158.400000 -289.093201
v 597.600000 -158.400000 289.093201
v 772.800000 517.700000 289.093201
v 386.200000 621.500000 289.093201
v 334.400000 425.000000 289.093201
v -494.800000 643.500000 289.093201
v -772.800000 -418.500000 289.093201
v 88.200000 -643.500000 289.093201
v 113.500000 -547.200000 289.093201
v 455.700000 -637.700000 289.093201
v 472.300000 -641.900000 289.093201
v 597.600000 -158.400000 289.093201
v 772.800000 517.700000 289.093201
v 597.600000 -158.400000 -289.093201
v 772.800000 517.700000 -289.093201
v 472.300000 -641.900000 289.093201
v 597.600000 -158.400000 289.093201
v 472.300000 -641.900000 -289.093201
v 597.600000 -158.400000 -289.093201
v 455.700000 -637.700000 289.093201
v 472.300000 -641.900000 289.093201
v 455.700000 -637.700000 -289.093201
v 472.300000 -641.900000 -289.093201
v 113.500000 -547.200000 289.093201
v 455.700000 -637.700000 289.093201
v 113.500000 -547.200000 -289.093201
v 455.700000 -637.700000 -289.093201
v 88.200000 -643.500000 289.093201
v 113.500000 -547.200000 289.093201
v 88.200000 -643.500000 -289.093201
v 113.500000 -547.200000 -289.093201
v -772.800000 -418.500000 289.093201
v 88.200000 -643.500000 289.093201
v -772.800000 -418.500000 -289.093201
v 88.200000 -643.500000 -289.093201
v -772.800000 -418.500000 -289.093201
v -494.800000 643.500000 -289.093201
v -772.800000 -418.500000 289.093201
v -494.800000 643.500000 289.093201
v -494.800000 643.500000 -289.093201
v 334.400000 425.000000 -289.093201
v -494.800000 643.500000 289.093201
v 334.400000 425.000000 289.093201
v 334.400000 425.000000 -289.093201
v 386.200000 621.500000 -289.093201
v 334.400000 425.000000 289.093201
v 386.200000 621.500000 289.093201
v 386.200000 621.500000 -289.093201
v 772.800000 517.700000 -289.093201
v 386.200000 621.500000 289.093201
v 772.800000 517.700000 289.093201

f 3 4 5
f 6 3 5
f 10 1 2
f 10 2 3
f 7 3 6
f 7 10 3
f 9 7 8
f 9 10 7
f 14 12 13
f 11 12 14
f 19 20 11
f 18 14 15
f 18 11 14
f 18 19 11
f 16 17 18
f 16 18 15
f 24 22 21
f 24 21 23
f 28 26 25
f 28 25 27
f 31 30 29
f 32 30 31
f 36 34 33
f 36 33 35
f 40 38 37
f 40 37 39
f 44 42 41
f 44 41 43
f 46 45 47
f 48 46 47
f 50 49 51
f 52 50 51
f 55 54 53
f 56 54 55
f 60 58 57
f 60 57 59
