ISO-10303-21;
HEADER;
/* Generated by software containing ST-Developer
 * from STEP Tools, Inc. (www.steptools.com) 
 */

FILE_DESCRIPTION(
/* description */ ('Open CASCADE Model'),
/* implementation_level */ '2;1');

FILE_NAME(
/* name */ '9.step',
/* time_stamp */ '2025-12-23T14:04:46+08:00',
/* author */ (''),
/* organization */ (''),
/* preprocessor_version */ 'ST-DEVELOPER v20.1',
/* originating_system */ 'Autodesk Translation Framework v14.21.0.0',
/* authorisation */ '');

FILE_SCHEMA (('AUTOMOTIVE_DESIGN { 1 0 10303 214 3 1 1 }'));
ENDSEC;

DATA;
#10=MECHANICAL_DESIGN_GEOMETRIC_PRESENTATION_REPRESENTATION('',(#13),#381);
#11=SHAPE_REPRESENTATION_RELATIONSHIP('SRR','None',#388,#12);
#12=ADVANCED_BREP_SHAPE_REPRESENTATION('',(#14),#380);
#13=STYLED_ITEM('',(#397),#14);
#14=MANIFOLD_SOLID_BREP('\X2\5B9E4F53\X0\1',#233);
#15=FACE_OUTER_BOUND('',#27,.T.);
#16=FACE_OUTER_BOUND('',#28,.T.);
#17=FACE_OUTER_BOUND('',#29,.T.);
#18=FACE_OUTER_BOUND('',#30,.T.);
#19=FACE_OUTER_BOUND('',#31,.T.);
#20=FACE_OUTER_BOUND('',#32,.T.);
#21=FACE_OUTER_BOUND('',#33,.T.);
#22=FACE_OUTER_BOUND('',#34,.T.);
#23=FACE_OUTER_BOUND('',#35,.T.);
#24=FACE_OUTER_BOUND('',#36,.T.);
#25=FACE_OUTER_BOUND('',#37,.T.);
#26=FACE_OUTER_BOUND('',#38,.T.);
#27=EDGE_LOOP('',(#149,#150,#151,#152,#153,#154,#155,#156,#157,#158));
#28=EDGE_LOOP('',(#159,#160,#161,#162,#163,#164,#165,#166,#167,#168));
#29=EDGE_LOOP('',(#169,#170,#171,#172));
#30=EDGE_LOOP('',(#173,#174,#175,#176));
#31=EDGE_LOOP('',(#177,#178,#179,#180));
#32=EDGE_LOOP('',(#181,#182,#183,#184));
#33=EDGE_LOOP('',(#185,#186,#187,#188));
#34=EDGE_LOOP('',(#189,#190,#191,#192));
#35=EDGE_LOOP('',(#193,#194,#195,#196));
#36=EDGE_LOOP('',(#197,#198,#199,#200));
#37=EDGE_LOOP('',(#201,#202,#203,#204));
#38=EDGE_LOOP('',(#205,#206,#207,#208));
#39=LINE('',#319,#69);
#40=LINE('',#321,#70);
#41=LINE('',#323,#71);
#42=LINE('',#325,#72);
#43=LINE('',#327,#73);
#44=LINE('',#329,#74);
#45=LINE('',#331,#75);
#46=LINE('',#333,#76);
#47=LINE('',#335,#77);
#48=LINE('',#336,#78);
#49=LINE('',#340,#79);
#50=LINE('',#342,#80);
#51=LINE('',#344,#81);
#52=LINE('',#346,#82);
#53=LINE('',#348,#83);
#54=LINE('',#350,#84);
#55=LINE('',#352,#85);
#56=LINE('',#354,#86);
#57=LINE('',#356,#87);
#58=LINE('',#357,#88);
#59=LINE('',#359,#89);
#60=LINE('',#360,#90);
#61=LINE('',#362,#91);
#62=LINE('',#364,#92);
#63=LINE('',#366,#93);
#64=LINE('',#368,#94);
#65=LINE('',#370,#95);
#66=LINE('',#372,#96);
#67=LINE('',#374,#97);
#68=LINE('',#376,#98);
#69=VECTOR('',#263,1.00000000000013);
#70=VECTOR('',#264,1.00000000000037);
#71=VECTOR('',#265,1.0000000000001);
#72=VECTOR('',#266,0.999999999999889);
#73=VECTOR('',#267,0.99999999999975);
#74=VECTOR('',#268,1.00000000000032);
#75=VECTOR('',#269,1.0000000000002);
#76=VECTOR('',#270,0.999999999999775);
#77=VECTOR('',#271,0.999999999999958);
#78=VECTOR('',#272,0.999999999999726);
#79=VECTOR('',#275,0.999999999999958);
#80=VECTOR('',#276,0.999999999999775);
#81=VECTOR('',#277,1.0000000000002);
#82=VECTOR('',#278,1.00000000000032);
#83=VECTOR('',#279,0.99999999999975);
#84=VECTOR('',#280,0.999999999999889);
#85=VECTOR('',#281,1.0000000000001);
#86=VECTOR('',#282,1.00000000000037);
#87=VECTOR('',#283,1.00000000000013);
#88=VECTOR('',#284,0.999999999999726);
#89=VECTOR('',#287,1.);
#90=VECTOR('',#288,1.);
#91=VECTOR('',#291,1.);
#92=VECTOR('',#294,1.);
#93=VECTOR('',#297,1.);
#94=VECTOR('',#300,1.);
#95=VECTOR('',#303,1.);
#96=VECTOR('',#306,1.);
#97=VECTOR('',#309,1.);
#98=VECTOR('',#312,1.);
#99=VERTEX_POINT('',#317);
#100=VERTEX_POINT('',#318);
#101=VERTEX_POINT('',#320);
#102=VERTEX_POINT('',#322);
#103=VERTEX_POINT('',#324);
#104=VERTEX_POINT('',#326);
#105=VERTEX_POINT('',#328);
#106=VERTEX_POINT('',#330);
#107=VERTEX_POINT('',#332);
#108=VERTEX_POINT('',#334);
#109=VERTEX_POINT('',#338);
#110=VERTEX_POINT('',#339);
#111=VERTEX_POINT('',#341);
#112=VERTEX_POINT('',#343);
#113=VERTEX_POINT('',#345);
#114=VERTEX_POINT('',#347);
#115=VERTEX_POINT('',#349);
#116=VERTEX_POINT('',#351);
#117=VERTEX_POINT('',#353);
#118=VERTEX_POINT('',#355);
#119=EDGE_CURVE('',#99,#100,#39,.T.);
#120=EDGE_CURVE('',#100,#101,#40,.T.);
#121=EDGE_CURVE('',#101,#102,#41,.T.);
#122=EDGE_CURVE('',#102,#103,#42,.T.);
#123=EDGE_CURVE('',#103,#104,#43,.T.);
#124=EDGE_CURVE('',#104,#105,#44,.T.);
#125=EDGE_CURVE('',#105,#106,#45,.T.);
#126=EDGE_CURVE('',#106,#107,#46,.T.);
#127=EDGE_CURVE('',#107,#108,#47,.T.);
#128=EDGE_CURVE('',#108,#99,#48,.T.);
#129=EDGE_CURVE('',#109,#110,#49,.T.);
#130=EDGE_CURVE('',#110,#111,#50,.T.);
#131=EDGE_CURVE('',#111,#112,#51,.T.);
#132=EDGE_CURVE('',#112,#113,#52,.T.);
#133=EDGE_CURVE('',#113,#114,#53,.T.);
#134=EDGE_CURVE('',#114,#115,#54,.T.);
#135=EDGE_CURVE('',#115,#116,#55,.T.);
#136=EDGE_CURVE('',#116,#117,#56,.T.);
#137=EDGE_CURVE('',#117,#118,#57,.T.);
#138=EDGE_CURVE('',#118,#109,#58,.T.);
#139=EDGE_CURVE('',#109,#108,#59,.T.);
#140=EDGE_CURVE('',#107,#110,#60,.T.);
#141=EDGE_CURVE('',#118,#99,#61,.T.);
#142=EDGE_CURVE('',#117,#100,#62,.T.);
#143=EDGE_CURVE('',#116,#101,#63,.T.);
#144=EDGE_CURVE('',#115,#102,#64,.T.);
#145=EDGE_CURVE('',#114,#103,#65,.T.);
#146=EDGE_CURVE('',#113,#104,#66,.T.);
#147=EDGE_CURVE('',#112,#105,#67,.T.);
#148=EDGE_CURVE('',#111,#106,#68,.T.);
#149=ORIENTED_EDGE('',*,*,#119,.T.);
#150=ORIENTED_EDGE('',*,*,#120,.T.);
#151=ORIENTED_EDGE('',*,*,#121,.T.);
#152=ORIENTED_EDGE('',*,*,#122,.T.);
#153=ORIENTED_EDGE('',*,*,#123,.T.);
#154=ORIENTED_EDGE('',*,*,#124,.T.);
#155=ORIENTED_EDGE('',*,*,#125,.T.);
#156=ORIENTED_EDGE('',*,*,#126,.T.);
#157=ORIENTED_EDGE('',*,*,#127,.T.);
#158=ORIENTED_EDGE('',*,*,#128,.T.);
#159=ORIENTED_EDGE('',*,*,#129,.T.);
#160=ORIENTED_EDGE('',*,*,#130,.T.);
#161=ORIENTED_EDGE('',*,*,#131,.T.);
#162=ORIENTED_EDGE('',*,*,#132,.T.);
#163=ORIENTED_EDGE('',*,*,#133,.T.);
#164=ORIENTED_EDGE('',*,*,#134,.T.);
#165=ORIENTED_EDGE('',*,*,#135,.T.);
#166=ORIENTED_EDGE('',*,*,#136,.T.);
#167=ORIENTED_EDGE('',*,*,#137,.T.);
#168=ORIENTED_EDGE('',*,*,#138,.T.);
#169=ORIENTED_EDGE('',*,*,#129,.F.);
#170=ORIENTED_EDGE('',*,*,#139,.T.);
#171=ORIENTED_EDGE('',*,*,#127,.F.);
#172=ORIENTED_EDGE('',*,*,#140,.T.);
#173=ORIENTED_EDGE('',*,*,#138,.F.);
#174=ORIENTED_EDGE('',*,*,#141,.T.);
#175=ORIENTED_EDGE('',*,*,#128,.F.);
#176=ORIENTED_EDGE('',*,*,#139,.F.);
#177=ORIENTED_EDGE('',*,*,#137,.F.);
#178=ORIENTED_EDGE('',*,*,#142,.T.);
#179=ORIENTED_EDGE('',*,*,#119,.F.);
#180=ORIENTED_EDGE('',*,*,#141,.F.);
#181=ORIENTED_EDGE('',*,*,#136,.F.);
#182=ORIENTED_EDGE('',*,*,#143,.T.);
#183=ORIENTED_EDGE('',*,*,#120,.F.);
#184=ORIENTED_EDGE('',*,*,#142,.F.);
#185=ORIENTED_EDGE('',*,*,#135,.F.);
#186=ORIENTED_EDGE('',*,*,#144,.T.);
#187=ORIENTED_EDGE('',*,*,#121,.F.);
#188=ORIENTED_EDGE('',*,*,#143,.F.);
#189=ORIENTED_EDGE('',*,*,#134,.F.);
#190=ORIENTED_EDGE('',*,*,#145,.T.);
#191=ORIENTED_EDGE('',*,*,#122,.F.);
#192=ORIENTED_EDGE('',*,*,#144,.F.);
#193=ORIENTED_EDGE('',*,*,#123,.F.);
#194=ORIENTED_EDGE('',*,*,#145,.F.);
#195=ORIENTED_EDGE('',*,*,#133,.F.);
#196=ORIENTED_EDGE('',*,*,#146,.T.);
#197=ORIENTED_EDGE('',*,*,#124,.F.);
#198=ORIENTED_EDGE('',*,*,#146,.F.);
#199=ORIENTED_EDGE('',*,*,#132,.F.);
#200=ORIENTED_EDGE('',*,*,#147,.T.);
#201=ORIENTED_EDGE('',*,*,#125,.F.);
#202=ORIENTED_EDGE('',*,*,#147,.F.);
#203=ORIENTED_EDGE('',*,*,#131,.F.);
#204=ORIENTED_EDGE('',*,*,#148,.T.);
#205=ORIENTED_EDGE('',*,*,#126,.F.);
#206=ORIENTED_EDGE('',*,*,#148,.F.);
#207=ORIENTED_EDGE('',*,*,#130,.F.);
#208=ORIENTED_EDGE('',*,*,#140,.F.);
#209=PLANE('',#247);
#210=PLANE('',#248);
#211=PLANE('',#249);
#212=PLANE('',#250);
#213=PLANE('',#251);
#214=PLANE('',#252);
#215=PLANE('',#253);
#216=PLANE('',#254);
#217=PLANE('',#255);
#218=PLANE('',#256);
#219=PLANE('',#257);
#220=PLANE('',#258);
#221=ADVANCED_FACE('',(#15),#209,.T.);
#222=ADVANCED_FACE('',(#16),#210,.T.);
#223=ADVANCED_FACE('',(#17),#211,.T.);
#224=ADVANCED_FACE('',(#18),#212,.T.);
#225=ADVANCED_FACE('',(#19),#213,.T.);
#226=ADVANCED_FACE('',(#20),#214,.T.);
#227=ADVANCED_FACE('',(#21),#215,.T.);
#228=ADVANCED_FACE('',(#22),#216,.T.);
#229=ADVANCED_FACE('',(#23),#217,.T.);
#230=ADVANCED_FACE('',(#24),#218,.T.);
#231=ADVANCED_FACE('',(#25),#219,.T.);
#232=ADVANCED_FACE('',(#26),#220,.T.);
#233=CLOSED_SHELL('',(#221,#222,#223,#224,#225,#226,#227,#228,#229,#230,
#231,#232));
#234=DERIVED_UNIT_ELEMENT(#236,1.);
#235=DERIVED_UNIT_ELEMENT(#383,-3.);
#236=(
MASS_UNIT()
NAMED_UNIT(*)
SI_UNIT(.KILO.,.GRAM.)
);
#237=DERIVED_UNIT((#234,#235));
#238=MEASURE_REPRESENTATION_ITEM('density measure',
POSITIVE_RATIO_MEASURE(7850.),#237);
#239=PROPERTY_DEFINITION_REPRESENTATION(#244,#241);
#240=PROPERTY_DEFINITION_REPRESENTATION(#245,#242);
#241=REPRESENTATION('material name',(#243),#380);
#242=REPRESENTATION('density',(#238),#380);
#243=DESCRIPTIVE_REPRESENTATION_ITEM('\X2\94A2\X0\','\X2\94A2\X0\');
#244=PROPERTY_DEFINITION('material property','material name',#390);
#245=PROPERTY_DEFINITION('material property','density of part',#390);
#246=AXIS2_PLACEMENT_3D('',#315,#259,#260);
#247=AXIS2_PLACEMENT_3D('',#316,#261,#262);
#248=AXIS2_PLACEMENT_3D('',#337,#273,#274);
#249=AXIS2_PLACEMENT_3D('',#358,#285,#286);
#250=AXIS2_PLACEMENT_3D('',#361,#289,#290);
#251=AXIS2_PLACEMENT_3D('',#363,#292,#293);
#252=AXIS2_PLACEMENT_3D('',#365,#295,#296);
#253=AXIS2_PLACEMENT_3D('',#367,#298,#299);
#254=AXIS2_PLACEMENT_3D('',#369,#301,#302);
#255=AXIS2_PLACEMENT_3D('',#371,#304,#305);
#256=AXIS2_PLACEMENT_3D('',#373,#307,#308);
#257=AXIS2_PLACEMENT_3D('',#375,#310,#311);
#258=AXIS2_PLACEMENT_3D('',#377,#313,#314);
#259=DIRECTION('axis',(0.,0.,1.));
#260=DIRECTION('refdir',(1.,0.,0.));
#261=DIRECTION('center_axis',(-2.491626327365E-17,0.,-1.));
#262=DIRECTION('ref_axis',(0.245282919955968,0.969451540396875,-6.11153381015253E-18));
#263=DIRECTION('',(-0.969451540396875,0.245282919955968,0.));
#264=DIRECTION('',(-0.966762756781643,0.255675129998906,0.));
#265=DIRECTION('',(-0.254097786961975,-0.967178532981903,0.));
#266=DIRECTION('',(-0.967509786485108,0.252833567897028,0.));
#267=DIRECTION('',(0.253237610776063,0.967404110229242,0.));
#268=DIRECTION('',(0.966991403390686,-0.254808998601917,0.));
#269=DIRECTION('',(0.254905054930949,0.966966086773807,0.));
#270=DIRECTION('',(0.965794021151217,-0.259310448514058,0.));
#271=DIRECTION('',(-0.25084787227301,-0.968026520802041,0.));
#272=DIRECTION('',(-0.250864882568069,-0.968022112709265,0.));
#273=DIRECTION('center_axis',(1.245813163679E-17,0.,1.));
#274=DIRECTION('ref_axis',(-0.968026520802041,0.250847872273011,1.20598018240557E-17));
#275=DIRECTION('',(0.25084787227301,0.968026520802041,0.));
#276=DIRECTION('',(-0.965794021151217,0.259310448514058,0.));
#277=DIRECTION('',(-0.254905054930949,-0.966966086773807,0.));
#278=DIRECTION('',(-0.966991403390686,0.254808998601917,0.));
#279=DIRECTION('',(-0.253237610776063,-0.967404110229242,0.));
#280=DIRECTION('',(0.967509786485108,-0.252833567897028,0.));
#281=DIRECTION('',(0.254097786961975,0.967178532981903,0.));
#282=DIRECTION('',(0.966762756781643,-0.255675129998906,0.));
#283=DIRECTION('',(0.969451540396875,-0.245282919955968,0.));
#284=DIRECTION('',(0.250864882568069,0.968022112709265,0.));
#285=DIRECTION('center_axis',(0.968026520801798,-0.250847872273948,0.));
#286=DIRECTION('ref_axis',(0.,0.,-1.));
#287=DIRECTION('',(0.,0.,-1.));
#288=DIRECTION('',(0.,0.,1.));
#289=DIRECTION('center_axis',(0.968022112709508,-0.250864882567132,0.));
#290=DIRECTION('ref_axis',(0.,0.,-1.));
#291=DIRECTION('',(0.,0.,-1.));
#292=DIRECTION('center_axis',(-0.245282919960905,-0.969451540395626,0.));
#293=DIRECTION('ref_axis',(0.,0.,-1.));
#294=DIRECTION('',(0.,0.,-1.));
#295=DIRECTION('center_axis',(-0.255675129997971,-0.96676275678189,0.));
#296=DIRECTION('ref_axis',(0.,0.,-1.));
#297=DIRECTION('',(0.,0.,-1.));
#298=DIRECTION('center_axis',(0.967178532982149,-0.254097786961039,0.));
#299=DIRECTION('ref_axis',(0.,0.,-1.));
#300=DIRECTION('',(0.,0.,-1.));
#301=DIRECTION('center_axis',(-0.252833567897028,-0.967509786485108,0.));
#302=DIRECTION('ref_axis',(0.,0.,-1.));
#303=DIRECTION('',(0.,0.,-1.));
#304=DIRECTION('center_axis',(-0.967404110229242,0.253237610776063,0.));
#305=DIRECTION('ref_axis',(0.,0.,1.));
#306=DIRECTION('',(0.,0.,-1.));
#307=DIRECTION('center_axis',(0.254808998601917,0.966991403390686,0.));
#308=DIRECTION('ref_axis',(0.,0.,1.));
#309=DIRECTION('',(0.,0.,-1.));
#310=DIRECTION('center_axis',(-0.966966086773496,0.254905054932131,0.));
#311=DIRECTION('ref_axis',(0.,0.,1.));
#312=DIRECTION('',(0.,0.,-1.));
#313=DIRECTION('center_axis',(0.259310448514058,0.965794021151217,0.));
#314=DIRECTION('ref_axis',(0.,0.,1.));
#315=CARTESIAN_POINT('',(0.,0.,0.));
#316=CARTESIAN_POINT('Origin',(1953.100000009,-839.5,-2890.932012998));
#317=CARTESIAN_POINT('',(4723.00000000385,-6419.00000000176,-2890.932012998));
#318=CARTESIAN_POINT('',(4557.00000000134,-6376.99999999483,-2890.932012998));
#319=CARTESIAN_POINT('',(4723.,-6419.,-2890.932012998));
#320=CARTESIAN_POINT('',(1134.99999999587,-5472.00000001508,-2890.932012998));
#321=CARTESIAN_POINT('',(4557.,-6377.,-2890.932012998));
#322=CARTESIAN_POINT('',(882.,-6435.,-2890.932012998));
#323=CARTESIAN_POINT('',(1135.,-5472.,-2890.932012998));
#324=CARTESIAN_POINT('',(-7728.00000000005,-4184.99999999921,-2890.932012998));
#325=CARTESIAN_POINT('',(882.,-6435.,-2890.932012998));
#326=CARTESIAN_POINT('',(-4947.99999999833,6434.99999999947,-2890.932012998));
#327=CARTESIAN_POINT('',(-7728.,-4185.,-2890.932012998));
#328=CARTESIAN_POINT('',(3344.0000000008,4250.00000000047,-2890.932012998));
#329=CARTESIAN_POINT('',(-4948.,6435.,-2890.932012998));
#330=CARTESIAN_POINT('',(3861.99999999571,6215.00000000115,-2890.932012998));
#331=CARTESIAN_POINT('',(3344.,4250.,-2890.932012998));
#332=CARTESIAN_POINT('',(7728.,5177.,-2890.932012998));
#333=CARTESIAN_POINT('',(3862.,6215.,-2890.932012998));
#334=CARTESIAN_POINT('',(5976.00000000237,-1584.00000000062,-2890.932012998));
#335=CARTESIAN_POINT('',(7728.,5177.,-2890.932012998));
#336=CARTESIAN_POINT('',(5976.,-1584.,-2890.932012998));
#337=CARTESIAN_POINT('Origin',(1953.100000009,-839.5,2890.932012998));
#338=CARTESIAN_POINT('',(5975.99999999734,-1583.99999999931,2890.932012998));
#339=CARTESIAN_POINT('',(7727.99999999684,5177.00000000083,2890.932012998));
#340=CARTESIAN_POINT('',(5976.,-1584.,2890.932012998));
#341=CARTESIAN_POINT('',(3861.99999999941,6215.00000000033,2890.932012998));
#342=CARTESIAN_POINT('',(7728.,5177.,2890.932012998));
#343=CARTESIAN_POINT('',(3344.00000000431,4249.99999999891,2890.932012998));
#344=CARTESIAN_POINT('',(3862.,6215.,2890.932012998));
#345=CARTESIAN_POINT('',(-4947.99999999991,6434.99999999935,2890.932012998));
#346=CARTESIAN_POINT('',(3344.,4250.,2890.932012998));
#347=CARTESIAN_POINT('',(-7728.00000000201,-4184.99999999944,2890.932012998));
#348=CARTESIAN_POINT('',(-4948.,6435.,2890.932012998));
#349=CARTESIAN_POINT('',(881.999999999837,-6435.00000000062,2890.932012998));
#350=CARTESIAN_POINT('',(-7728.,-4185.,2890.932012998));
#351=CARTESIAN_POINT('',(1134.99999999982,-5472.00000000056,2890.932012998));
#352=CARTESIAN_POINT('',(882.,-6435.,2890.932012998));
#353=CARTESIAN_POINT('',(4557.00000000315,-6376.99999998802,2890.932012998));
#354=CARTESIAN_POINT('',(1135.,-5472.,2890.932012998));
#355=CARTESIAN_POINT('',(4722.99999999979,-6419.00000000778,2890.932012998));
#356=CARTESIAN_POINT('',(4557.,-6377.,2890.932012998));
#357=CARTESIAN_POINT('',(4723.,-6419.,2890.932012998));
#358=CARTESIAN_POINT('Origin',(6852.,1796.5,-4.774847184308E-12));
#359=CARTESIAN_POINT('',(5976.,-1584.,2890.932012998));
#360=CARTESIAN_POINT('',(7728.,5177.,-2890.932012998));
#361=CARTESIAN_POINT('Origin',(5349.5,-4001.5,-4.774847184308E-12));
#362=CARTESIAN_POINT('',(4723.,-6419.,2890.932012998));
#363=CARTESIAN_POINT('Origin',(4640.,-6398.,-4.774847184308E-12));
#364=CARTESIAN_POINT('',(4557.,-6377.,2890.932012998));
#365=CARTESIAN_POINT('Origin',(2846.,-5924.5,-4.774847184308E-12));
#366=CARTESIAN_POINT('',(1135.,-5472.,2890.932012998));
#367=CARTESIAN_POINT('Origin',(1008.5,-5953.5,-4.774847184308E-12));
#368=CARTESIAN_POINT('',(882.,-6435.,2890.932012998));
#369=CARTESIAN_POINT('Origin',(-3423.,-5310.,-4.774847184308E-12));
#370=CARTESIAN_POINT('',(-7728.,-4185.,2890.932012998));
#371=CARTESIAN_POINT('Origin',(-6338.,1125.,-4.774847184308E-12));
#372=CARTESIAN_POINT('',(-4948.,6435.,2890.932012998));
#373=CARTESIAN_POINT('Origin',(-802.,5342.5,-4.774847184308E-12));
#374=CARTESIAN_POINT('',(3344.,4250.,2890.932012998));
#375=CARTESIAN_POINT('Origin',(3603.,5232.5,-4.774847184308E-12));
#376=CARTESIAN_POINT('',(3862.,6215.,2890.932012998));
#377=CARTESIAN_POINT('Origin',(5795.,5696.,-4.774847184308E-12));
#378=UNCERTAINTY_MEASURE_WITH_UNIT(LENGTH_MEASURE(0.01),#382,
'DISTANCE_ACCURACY_VALUE',
'Maximum model space distance between geometric entities at asserted c
onnectivities');
#379=UNCERTAINTY_MEASURE_WITH_UNIT(LENGTH_MEASURE(0.01),#382,
'DISTANCE_ACCURACY_VALUE',
'Maximum model space distance between geometric entities at asserted c
onnectivities');
#380=(
GEOMETRIC_REPRESENTATION_CONTEXT(3)
GLOBAL_UNCERTAINTY_ASSIGNED_CONTEXT((#378))
GLOBAL_UNIT_ASSIGNED_CONTEXT((#382,#384,#385))
REPRESENTATION_CONTEXT('','3D')
);
#381=(
GEOMETRIC_REPRESENTATION_CONTEXT(3)
GLOBAL_UNCERTAINTY_ASSIGNED_CONTEXT((#379))
GLOBAL_UNIT_ASSIGNED_CONTEXT((#382,#384,#385))
REPRESENTATION_CONTEXT('','3D')
);
#382=(
LENGTH_UNIT()
NAMED_UNIT(*)
SI_UNIT(.MILLI.,.METRE.)
);
#383=(
LENGTH_UNIT()
NAMED_UNIT(*)
SI_UNIT($,.METRE.)
);
#384=(
NAMED_UNIT(*)
PLANE_ANGLE_UNIT()
SI_UNIT($,.RADIAN.)
);
#385=(
NAMED_UNIT(*)
SI_UNIT($,.STERADIAN.)
SOLID_ANGLE_UNIT()
);
#386=SHAPE_DEFINITION_REPRESENTATION(#387,#388);
#387=PRODUCT_DEFINITION_SHAPE('',$,#390);
#388=SHAPE_REPRESENTATION('',(#246),#380);
#389=PRODUCT_DEFINITION_CONTEXT('part definition',#394,'design');
#390=PRODUCT_DEFINITION('Open CASCADE STEP translator 7.7 14',
'(\X2\672A4FDD5B58\X0\)',#391,#389);
#391=PRODUCT_DEFINITION_FORMATION('',$,#396);
#392=PRODUCT_RELATED_PRODUCT_CATEGORY('(\X2\672A4FDD5B58\X0\)',
'(\X2\672A4FDD5B58\X0\)',(#396));
#393=APPLICATION_PROTOCOL_DEFINITION('international standard',
'automotive_design',2009,#394);
#394=APPLICATION_CONTEXT(
'Core Data for Automotive Mechanical Design Process');
#395=PRODUCT_CONTEXT('part definition',#394,'mechanical');
#396=PRODUCT('Open CASCADE STEP translator 7.7 14','(\X2\672A4FDD5B58\X0\)',
'Open CASCADE Model',(#395));
#397=PRESENTATION_STYLE_ASSIGNMENT((#398));
#398=SURFACE_STYLE_USAGE(.BOTH.,#399);
#399=SURFACE_SIDE_STYLE('',(#400));
#400=SURFACE_STYLE_FILL_AREA(#401);
#401=FILL_AREA_STYLE('\X2\94A2\X0\ - \X2\7F0E5149\X0\',(#402));
#402=FILL_AREA_STYLE_COLOUR('\X2\94A2\X0\ - \X2\7F0E5149\X0\',#403);
#403=COLOUR_RGB('\X2\94A2\X0\ - \X2\7F0E5149\X0\',0.627450980392157,0.627450980392157,
0.627450980392157);
ENDSEC;
END-ISO-10303-21;
